M48
; DRILL file {KiCad (6.0.7)} date Wed Oct 26 17:48:28 2022
; FORMAT={-:-/ absolute / metric / decimal}
; #@! TF.CreationDate,2022-10-26T17:48:28+08:00
; #@! TF.GenerationSoftware,Kicad,Pcbnew,(6.0.7)
; #@! TF.FileFunction,Plated,1,2,PTH
FMAT,2
METRIC
; #@! TA.AperFunction,Plated,PTH,ViaDrill
T1C0.305
; #@! TA.AperFunction,Plated,PTH,ViaDrill
T2C0.400
; #@! TA.AperFunction,Plated,PTH,ComponentDrill
T3C0.762
; #@! TA.AperFunction,Plated,PTH,ComponentDrill
T4C0.800
; #@! TA.AperFunction,Plated,PTH,ComponentDrill
T5C0.900
; #@! TA.AperFunction,Plated,PTH,ComponentDrill
T6C1.000
; #@! TA.AperFunction,Plated,PTH,ComponentDrill
T7C1.200
; #@! TA.AperFunction,Plated,PTH,ComponentDrill
T8C1.400
; #@! TA.AperFunction,Plated,PTH,ComponentDrill
T9C1.500
; #@! TA.AperFunction,Plated,PTH,ComponentDrill
T10C3.050
; #@! TA.AperFunction,Plated,PTH,ComponentDrill
T11C3.200
%
G90
G05
T1
X46.228Y-210.668
X52.213Y-218.193
X260.858Y-229.108
X284.988Y-229.108
X308.61Y-229.108
T2
X38.735Y-147.955
X39.497Y-149.733
X40.005Y-159.893
X41.402Y-187.452
X42.926Y-150.622
X43.942Y-180.721
X45.698Y-180.7
X46.609Y-176.403
X47.32Y-211.963
X47.498Y-226.162
X47.603Y-180.7
X47.625Y-150.622
X47.625Y-154.432
X47.879Y-188.214
X48.006Y-177.038
X49.022Y-181.483
X50.328Y-193.167
X51.689Y-194.183
X52.959Y-178.943
X55.88Y-149.225
X57.658Y-210.566
X57.658Y-224.409
X57.658Y-233.934
X59.182Y-213.106
X59.385Y-190.246
X59.385Y-198.679
X59.69Y-222.123
X60.706Y-166.116
X61.722Y-229.616
X61.773Y-190.195
X61.925Y-198.628
X62.484Y-164.592
X63.881Y-223.266
X64.11Y-190.144
X64.16Y-198.577
X64.532Y-232.41
X65.151Y-178.562
X65.405Y-149.225
X65.786Y-228.6
X66.04Y-214.249
X66.167Y-203.263
X66.345Y-190.043
X66.548Y-198.526
X67.564Y-150.495
X67.564Y-214.503
X67.818Y-153.162
X70.866Y-155.194
X73.406Y-172.212
X76.454Y-188.62
X78.486Y-196.342
X82.296Y-213.106
X86.614Y-234.061
X88.646Y-149.098
X89.916Y-155.194
X94.996Y-170.231
X95.504Y-185.674
X97.536Y-226.568
X99.314Y-168.148
X100.076Y-177.546
X105.664Y-183.388
X106.585Y-161.78
X111.506Y-212.852
X117.348Y-146.101
X118.364Y-174.752
X121.412Y-181.61
X121.412Y-195.58
X121.412Y-226.314
X128.016Y-156.718
X130.556Y-213.36
X137.668Y-176.53
X142.24Y-196.596
X147.066Y-156.21
X149.098Y-213.106
X156.718Y-177.292
X159.766Y-196.088
X166.116Y-155.702
X166.116Y-202.438
X168.656Y-210.058
X173.736Y-175.26
X178.562Y-195.834
X185.166Y-156.464
X189.332Y-201.016
X190.246Y-229.108
X191.008Y-206.502
X194.564Y-177.292
X197.866Y-195.58
X205.74Y-157.988
X207.162Y-199.644
X209.296Y-205.994
X213.817Y-178.511
X218.694Y-197.612
X220.345Y-165.1
X222.504Y-159.258
X225.806Y-212.344
X231.394Y-174.752
X237.236Y-188.214
X239.268Y-157.226
X245.745Y-219.71
X248.158Y-169.672
X249.936Y-175.006
X254.508Y-193.802
X255.27Y-147.066
X259.334Y-154.94
X261.366Y-203.708
X268.732Y-173.482
X273.558Y-195.834
X275.031Y-200.0
X278.638Y-156.718
X286.766Y-176.784
X291.338Y-194.818
X299.974Y-156.972
X306.578Y-173.953
X307.34Y-208.28
X311.055Y-146.101
X311.785Y-208.28
X313.055Y-213.995
X318.262Y-210.312
X325.628Y-152.908
X325.66Y-200.515
X325.755Y-206.375
X327.406Y-188.722
X328.2Y-229.108
X330.785Y-182.245
X330.962Y-173.736
X331.105Y-176.435
X332.232Y-221.234
X338.328Y-224.79
X341.122Y-214.376
X341.535Y-164.955
X344.932Y-215.9
X348.234Y-207.972
X348.234Y-220.037
X350.012Y-188.468
T3
X46.863Y-146.177
X49.403Y-146.177
X51.943Y-146.177
X54.483Y-146.177
T4
X41.148Y-216.428
X41.148Y-218.968
X51.435Y-150.475
X51.435Y-153.015
X52.939Y-232.537
X55.479Y-232.537
T5
X348.234Y-211.832
X348.234Y-213.832
X348.234Y-215.832
T6
X50.734Y-174.479
X50.734Y-176.479
X50.734Y-178.479
X55.234Y-174.479
X55.234Y-176.479
X55.234Y-178.479
X55.88Y-152.4
X58.674Y-152.4
X62.23Y-152.4
X65.024Y-152.4
X310.96Y-184.295
X310.96Y-188.795
X312.96Y-184.295
X312.96Y-188.795
X314.96Y-184.295
X314.96Y-188.795
T7
X56.831Y-142.823
X64.581Y-142.823
T8
X56.981Y-146.623
X64.431Y-146.623
T9
X348.234Y-209.732
X348.234Y-217.932
T10
X74.168Y-152.908
X76.581Y-229.108
X78.994Y-171.958
X80.518Y-150.368
X81.28Y-191.008
X82.931Y-226.568
X85.344Y-169.418
X85.979Y-210.058
X87.63Y-188.468
X92.329Y-207.518
X93.218Y-152.908
X99.568Y-150.368
X100.33Y-229.108
X102.743Y-171.958
X106.68Y-226.568
X107.442Y-191.008
X109.093Y-169.418
X112.141Y-152.908
X113.792Y-188.468
X116.967Y-210.185
X118.491Y-150.368
X121.793Y-171.958
X123.317Y-207.645
X124.206Y-229.108
X126.492Y-191.008
X128.143Y-169.418
X130.556Y-226.568
X131.318Y-152.908
X132.842Y-188.468
X136.017Y-210.185
X137.668Y-150.368
X140.843Y-171.958
X142.367Y-207.645
X145.542Y-191.008
X147.193Y-169.418
X150.368Y-152.908
X151.892Y-188.468
X155.194Y-210.058
X156.718Y-150.368
X159.893Y-171.958
X161.544Y-207.518
X164.592Y-191.008
X166.243Y-169.418
X169.418Y-152.908
X170.942Y-188.468
X174.117Y-210.058
X175.768Y-150.368
X178.943Y-171.958
X180.467Y-207.518
X183.642Y-191.008
X185.293Y-169.418
X188.468Y-152.908
X189.992Y-188.468
X193.294Y-210.058
X194.818Y-150.368
X195.58Y-229.108
X197.993Y-171.958
X199.644Y-207.518
X201.93Y-226.568
X202.692Y-191.008
X204.343Y-169.418
X207.518Y-152.908
X209.042Y-188.468
X212.217Y-210.058
X213.868Y-150.368
X217.043Y-171.958
X218.567Y-207.518
X221.742Y-191.008
X223.393Y-169.418
X226.568Y-152.908
X228.092Y-188.468
X231.267Y-210.058
X232.918Y-150.368
X236.093Y-171.958
X237.617Y-207.518
X240.792Y-191.008
X242.443Y-169.418
X245.618Y-152.908
X247.142Y-188.468
X250.317Y-210.058
X251.968Y-150.368
X255.143Y-171.958
X256.667Y-207.518
X259.842Y-191.008
X261.493Y-169.418
X264.668Y-152.908
X266.192Y-188.468
X266.954Y-229.108
X269.367Y-209.931
X271.018Y-150.368
X273.304Y-226.568
X274.193Y-171.958
X275.717Y-207.391
X278.892Y-191.008
X280.543Y-169.418
X283.718Y-152.908
X285.242Y-188.468
X288.417Y-210.058
X290.068Y-150.368
X290.83Y-229.108
X293.243Y-171.958
X294.767Y-207.518
X297.18Y-226.568
X297.942Y-191.008
X299.593Y-169.418
X302.768Y-152.908
X304.292Y-188.468
X309.118Y-150.368
X312.293Y-171.958
X314.579Y-229.108
X318.643Y-169.418
X320.929Y-226.568
X324.104Y-210.058
X328.93Y-191.008
X330.454Y-207.518
X331.343Y-152.908
X335.28Y-188.468
X336.042Y-171.958
X337.693Y-150.368
X338.455Y-229.108
X342.392Y-169.418
X344.805Y-226.568
T11
X35.306Y-147.066
X35.306Y-227.076
X48.006Y-241.046
X87.376Y-143.256
X117.856Y-241.046
X163.576Y-143.256
X288.036Y-241.046
X332.486Y-143.256
X354.076Y-176.276
X354.076Y-237.236
T0
M30
