M48
; DRILL file {KiCad (6.0.7)} date Wed Oct 26 17:48:28 2022
; FORMAT={-:-/ absolute / metric / decimal}
; #@! TF.CreationDate,2022-10-26T17:48:28+08:00
; #@! TF.GenerationSoftware,Kicad,Pcbnew,(6.0.7)
; #@! TF.FileFunction,NonPlated,1,2,NPTH
FMAT,2
METRIC
; #@! TA.AperFunction,NonPlated,NPTH,ComponentDrill
T1C0.800
; #@! TA.AperFunction,NonPlated,NPTH,ComponentDrill
T2C1.750
; #@! TA.AperFunction,NonPlated,NPTH,ComponentDrill
T3C3.048
; #@! TA.AperFunction,NonPlated,NPTH,ComponentDrill
T4C3.988
; #@! TA.AperFunction,NonPlated,NPTH,ComponentDrill
T5C4.000
%
G90
G05
T1
X58.206Y-145.573
X63.206Y-145.573
T2
X72.898Y-155.448
X75.311Y-231.648
X77.724Y-174.498
X80.01Y-193.548
X83.058Y-155.448
X84.709Y-212.598
X85.471Y-231.648
X87.884Y-174.498
X90.17Y-193.548
X91.948Y-155.448
X94.869Y-212.598
X99.06Y-231.648
X101.473Y-174.498
X102.108Y-155.448
X106.172Y-193.548
X109.22Y-231.648
X110.871Y-155.448
X111.633Y-174.498
X115.697Y-212.725
X116.332Y-193.548
X120.523Y-174.498
X121.031Y-155.448
X122.936Y-231.648
X125.222Y-193.548
X125.857Y-212.725
X130.048Y-155.448
X130.683Y-174.498
X133.096Y-231.648
X134.747Y-212.725
X135.382Y-193.548
X139.573Y-174.498
X140.208Y-155.448
X144.272Y-193.548
X144.907Y-212.725
X149.098Y-155.448
X149.733Y-174.498
X153.924Y-212.598
X154.432Y-193.548
X158.623Y-174.498
X159.258Y-155.448
X163.322Y-193.548
X164.084Y-212.598
X168.148Y-155.448
X168.783Y-174.498
X172.847Y-212.598
X173.482Y-193.548
X177.673Y-174.498
X178.308Y-155.448
X182.372Y-193.548
X183.007Y-212.598
X187.198Y-155.448
X187.833Y-174.498
X192.024Y-212.598
X192.532Y-193.548
X194.31Y-231.648
X196.723Y-174.498
X197.358Y-155.448
X201.422Y-193.548
X202.184Y-212.598
X204.47Y-231.648
X206.248Y-155.448
X206.883Y-174.498
X210.947Y-212.598
X211.582Y-193.548
X215.773Y-174.498
X216.408Y-155.448
X220.472Y-193.548
X221.107Y-212.598
X225.298Y-155.448
X225.933Y-174.498
X229.997Y-212.598
X230.632Y-193.548
X234.823Y-174.498
X235.458Y-155.448
X239.522Y-193.548
X240.157Y-212.598
X244.348Y-155.448
X244.983Y-174.498
X249.047Y-212.598
X249.682Y-193.548
X253.873Y-174.498
X254.508Y-155.448
X258.572Y-193.548
X259.207Y-212.598
X263.398Y-155.448
X264.033Y-174.498
X265.684Y-231.648
X268.097Y-212.471
X268.732Y-193.548
X272.923Y-174.498
X273.558Y-155.448
X275.844Y-231.648
X277.622Y-193.548
X278.257Y-212.471
X282.448Y-155.448
X283.083Y-174.498
X287.147Y-212.598
X287.782Y-193.548
X289.56Y-231.648
X291.973Y-174.498
X292.608Y-155.448
X296.672Y-193.548
X297.307Y-212.598
X299.72Y-231.648
X301.498Y-155.448
X302.133Y-174.498
X306.832Y-193.548
X311.023Y-174.498
X311.658Y-155.448
X313.309Y-231.648
X321.183Y-174.498
X322.834Y-212.598
X323.469Y-231.648
X327.66Y-193.548
X330.073Y-155.448
X332.994Y-212.598
X334.772Y-174.498
X337.185Y-231.648
X337.82Y-193.548
X340.233Y-155.448
X344.932Y-174.498
X347.345Y-231.648
T3
X77.851Y-205.613
X101.727Y-205.613
X149.39Y-224.663
X249.39Y-224.663
X315.976Y-205.613
X320.802Y-186.563
X323.215Y-148.463
X339.852Y-205.613
X344.678Y-186.563
X347.091Y-148.463
T4
X77.851Y-220.823
X101.727Y-220.823
X149.39Y-239.873
X249.39Y-239.873
X315.976Y-220.823
X320.802Y-201.773
X323.215Y-163.673
X339.852Y-220.823
X344.678Y-201.773
X347.091Y-163.673
T5
X77.978Y-155.448
X80.391Y-231.648
X82.804Y-174.498
X85.09Y-193.548
X89.789Y-212.598
X97.028Y-155.448
X104.14Y-231.648
X106.553Y-174.498
X111.252Y-193.548
X115.951Y-155.448
X120.777Y-212.725
X125.603Y-174.498
X128.016Y-231.648
X130.302Y-193.548
X135.128Y-155.448
X139.827Y-212.725
X144.653Y-174.498
X149.352Y-193.548
X154.178Y-155.448
X159.004Y-212.598
X163.703Y-174.498
X168.402Y-193.548
X173.228Y-155.448
X177.927Y-212.598
X182.753Y-174.498
X187.452Y-193.548
X192.278Y-155.448
X197.104Y-212.598
X199.39Y-231.648
X201.803Y-174.498
X206.502Y-193.548
X211.328Y-155.448
X216.027Y-212.598
X220.853Y-174.498
X225.552Y-193.548
X230.378Y-155.448
X235.077Y-212.598
X239.903Y-174.498
X244.602Y-193.548
X249.428Y-155.448
X254.127Y-212.598
X258.953Y-174.498
X263.652Y-193.548
X268.478Y-155.448
X270.764Y-231.648
X273.177Y-212.471
X278.003Y-174.498
X282.702Y-193.548
X287.528Y-155.448
X292.227Y-212.598
X294.64Y-231.648
X297.053Y-174.498
X301.752Y-193.548
X306.578Y-155.448
X316.103Y-174.498
X318.389Y-231.648
X327.914Y-212.598
X332.74Y-193.548
X335.153Y-155.448
X339.852Y-174.498
X342.265Y-231.648
T0
M30
