%TF.GenerationSoftware,KiCad,Pcbnew,(6.0.7)*%
%TF.CreationDate,2022-10-26T17:48:04+08:00*%
%TF.ProjectId,Joker60_v2,4a6f6b65-7236-4305-9f76-322e6b696361,1.0*%
%TF.SameCoordinates,Original*%
%TF.FileFunction,Paste,Bot*%
%TF.FilePolarity,Positive*%
%FSLAX46Y46*%
G04 Gerber Fmt 4.6, Leading zero omitted, Abs format (unit mm)*
G04 Created by KiCad (PCBNEW (6.0.7)) date 2022-10-26 17:48:04*
%MOMM*%
%LPD*%
G01*
G04 APERTURE LIST*
G04 Aperture macros list*
%AMRoundRect*
0 Rectangle with rounded corners*
0 $1 Rounding radius*
0 $2 $3 $4 $5 $6 $7 $8 $9 X,Y pos of 4 corners*
0 Add a 4 corners polygon primitive as box body*
4,1,4,$2,$3,$4,$5,$6,$7,$8,$9,$2,$3,0*
0 Add four circle primitives for the rounded corners*
1,1,$1+$1,$2,$3*
1,1,$1+$1,$4,$5*
1,1,$1+$1,$6,$7*
1,1,$1+$1,$8,$9*
0 Add four rect primitives between the rounded corners*
20,1,$1+$1,$2,$3,$4,$5,0*
20,1,$1+$1,$4,$5,$6,$7,0*
20,1,$1+$1,$6,$7,$8,$9,0*
20,1,$1+$1,$8,$9,$2,$3,0*%
G04 Aperture macros list end*
%ADD10RoundRect,0.250000X-1.025000X-1.000000X1.025000X-1.000000X1.025000X1.000000X-1.025000X1.000000X0*%
%ADD11R,1.300000X1.700000*%
%ADD12R,1.700000X1.300000*%
%ADD13RoundRect,0.250000X-0.350000X-0.450000X0.350000X-0.450000X0.350000X0.450000X-0.350000X0.450000X0*%
%ADD14RoundRect,0.150000X-0.150000X0.587500X-0.150000X-0.587500X0.150000X-0.587500X0.150000X0.587500X0*%
%ADD15R,1.800000X3.500000*%
%ADD16RoundRect,0.250000X0.475000X-0.337500X0.475000X0.337500X-0.475000X0.337500X-0.475000X-0.337500X0*%
%ADD17RoundRect,0.250000X-0.450000X0.350000X-0.450000X-0.350000X0.450000X-0.350000X0.450000X0.350000X0*%
%ADD18R,1.900000X1.600000*%
%ADD19RoundRect,0.250000X0.450000X-0.350000X0.450000X0.350000X-0.450000X0.350000X-0.450000X-0.350000X0*%
%ADD20RoundRect,0.250000X1.100000X-0.250000X1.100000X0.250000X-1.100000X0.250000X-1.100000X-0.250000X0*%
%ADD21RoundRect,0.250000X1.650000X-0.650000X1.650000X0.650000X-1.650000X0.650000X-1.650000X-0.650000X0*%
%ADD22R,0.450000X1.300000*%
%ADD23RoundRect,0.150000X-0.150000X0.825000X-0.150000X-0.825000X0.150000X-0.825000X0.150000X0.825000X0*%
%ADD24RoundRect,0.150000X0.150000X-0.587500X0.150000X0.587500X-0.150000X0.587500X-0.150000X-0.587500X0*%
%ADD25RoundRect,0.250000X-1.100000X0.250000X-1.100000X-0.250000X1.100000X-0.250000X1.100000X0.250000X0*%
%ADD26RoundRect,0.250000X-1.650000X0.650000X-1.650000X-0.650000X1.650000X-0.650000X1.650000X0.650000X0*%
G04 APERTURE END LIST*
D10*
X288544000Y-188468000D03*
X275617000Y-191008000D03*
X175668000Y-171958000D03*
X188595000Y-169418000D03*
X113692000Y-210185000D03*
X126619000Y-207645000D03*
X202946000Y-207518000D03*
X190019000Y-210058000D03*
X218467000Y-191008000D03*
X231394000Y-188468000D03*
X73306000Y-229108000D03*
X86233000Y-226568000D03*
X82704000Y-210058000D03*
X95631000Y-207518000D03*
X311304000Y-229108000D03*
X324231000Y-226568000D03*
X108866000Y-152908000D03*
X121793000Y-150368000D03*
X259969000Y-207518000D03*
X247042000Y-210058000D03*
X240919000Y-207518000D03*
X227992000Y-210058000D03*
X128043000Y-152908000D03*
X140970000Y-150368000D03*
X283845000Y-169418000D03*
X270918000Y-171958000D03*
X136144000Y-188468000D03*
X123217000Y-191008000D03*
X166143000Y-152908000D03*
X179070000Y-150368000D03*
X269494000Y-188468000D03*
X256567000Y-191008000D03*
X300482000Y-226568000D03*
X287555000Y-229108000D03*
X198120000Y-150368000D03*
X185193000Y-152908000D03*
X150495000Y-169418000D03*
X137568000Y-171958000D03*
X83820000Y-150368000D03*
X70893000Y-152908000D03*
X294667000Y-191008000D03*
X307594000Y-188468000D03*
X161317000Y-191008000D03*
X174244000Y-188468000D03*
X280443000Y-152908000D03*
X293370000Y-150368000D03*
X325655000Y-191008000D03*
X338582000Y-188468000D03*
X133858000Y-226568000D03*
X120931000Y-229108000D03*
X276606000Y-226568000D03*
X263679000Y-229108000D03*
X151919000Y-210058000D03*
X164846000Y-207518000D03*
X78005000Y-191008000D03*
X90932000Y-188468000D03*
X207645000Y-169418000D03*
X194718000Y-171958000D03*
X298069000Y-207518000D03*
X285142000Y-210058000D03*
X213768000Y-171958000D03*
X226695000Y-169418000D03*
X132742000Y-210185000D03*
X145669000Y-207645000D03*
X217170000Y-150368000D03*
X204243000Y-152908000D03*
X160020000Y-150368000D03*
X147093000Y-152908000D03*
X169545000Y-169418000D03*
X156618000Y-171958000D03*
X340995000Y-150368000D03*
X328068000Y-152908000D03*
X142267000Y-191008000D03*
X155194000Y-188468000D03*
X118518000Y-171958000D03*
X131445000Y-169418000D03*
X193294000Y-188468000D03*
X180367000Y-191008000D03*
X320829000Y-210058000D03*
X333756000Y-207518000D03*
X199417000Y-191008000D03*
X212344000Y-188468000D03*
X223293000Y-152908000D03*
X236220000Y-150368000D03*
X274320000Y-150368000D03*
X261393000Y-152908000D03*
X192305000Y-229108000D03*
X205232000Y-226568000D03*
X264795000Y-169418000D03*
X251868000Y-171958000D03*
X255270000Y-150368000D03*
X242343000Y-152908000D03*
X102870000Y-150368000D03*
X89943000Y-152908000D03*
X279019000Y-207391000D03*
X266092000Y-209931000D03*
X345694000Y-169418000D03*
X332767000Y-171958000D03*
X348107000Y-226568000D03*
X335180000Y-229108000D03*
X237517000Y-191008000D03*
X250444000Y-188468000D03*
X75719000Y-171958000D03*
X88646000Y-169418000D03*
X302895000Y-169418000D03*
X289968000Y-171958000D03*
X104167000Y-191008000D03*
X117094000Y-188468000D03*
X97055000Y-229108000D03*
X109982000Y-226568000D03*
X321945000Y-169418000D03*
X309018000Y-171958000D03*
X99468000Y-171958000D03*
X112395000Y-169418000D03*
X183769000Y-207518000D03*
X170842000Y-210058000D03*
X245745000Y-169418000D03*
X232818000Y-171958000D03*
X312420000Y-150368000D03*
X299493000Y-152908000D03*
X208942000Y-210058000D03*
X221869000Y-207518000D03*
D11*
X239804000Y-204216000D03*
X243304000Y-204216000D03*
D12*
X191516000Y-166906000D03*
X191516000Y-170406000D03*
D11*
X346174000Y-177800000D03*
X342674000Y-177800000D03*
D13*
X309420000Y-222885000D03*
X311420000Y-222885000D03*
D14*
X68265000Y-161352500D03*
X70165000Y-161352500D03*
X69215000Y-163227500D03*
D11*
X313154000Y-192532000D03*
X309654000Y-192532000D03*
D12*
X167894000Y-204526000D03*
X167894000Y-208026000D03*
D11*
X248892000Y-165862000D03*
X245392000Y-165862000D03*
D12*
X298704000Y-200942000D03*
X298704000Y-204442000D03*
X177292000Y-185956000D03*
X177292000Y-189456000D03*
X303784000Y-224846000D03*
X303784000Y-228346000D03*
X325120000Y-166906000D03*
X325120000Y-170406000D03*
X129794000Y-205260000D03*
X129794000Y-208760000D03*
X220218000Y-149126000D03*
X220218000Y-152626000D03*
X234442000Y-185730000D03*
X234442000Y-189230000D03*
D15*
X303435000Y-210225000D03*
X303435000Y-215225000D03*
D16*
X334550000Y-181867500D03*
X334550000Y-179792500D03*
X337090000Y-181867500D03*
X337090000Y-179792500D03*
D12*
X163068000Y-149380000D03*
X163068000Y-152880000D03*
D17*
X64135000Y-156845000D03*
X64135000Y-158845000D03*
D12*
X267970000Y-166652000D03*
X267970000Y-170152000D03*
X153416000Y-166906000D03*
X153416000Y-170406000D03*
X186944000Y-204498000D03*
X186944000Y-207998000D03*
D18*
X302750000Y-220345000D03*
X306850000Y-220345000D03*
D12*
X158242000Y-185956000D03*
X158242000Y-189456000D03*
X148844000Y-204752000D03*
X148844000Y-208252000D03*
D16*
X306070000Y-206777500D03*
X306070000Y-204702500D03*
D12*
X229870000Y-166906000D03*
X229870000Y-170406000D03*
X113030000Y-223802000D03*
X113030000Y-227302000D03*
X258318000Y-149126000D03*
X258318000Y-152626000D03*
D11*
X345666000Y-153670000D03*
X342166000Y-153670000D03*
D16*
X309880000Y-220112500D03*
X309880000Y-218037500D03*
D12*
X205994000Y-204752000D03*
X205994000Y-208252000D03*
X287020000Y-166680000D03*
X287020000Y-170180000D03*
X272796000Y-185956000D03*
X272796000Y-189456000D03*
D19*
X54483000Y-222107000D03*
X54483000Y-220107000D03*
D12*
X98552000Y-211554000D03*
X98552000Y-208054000D03*
X291592000Y-185956000D03*
X291592000Y-189456000D03*
X210566000Y-166906000D03*
X210566000Y-170406000D03*
X341122000Y-191996000D03*
X341122000Y-188496000D03*
X172466000Y-166906000D03*
X172466000Y-170406000D03*
X215392000Y-186210000D03*
X215392000Y-189710000D03*
X105918000Y-148872000D03*
X105918000Y-152372000D03*
X225044000Y-204244000D03*
X225044000Y-207744000D03*
D17*
X308610000Y-204740000D03*
X308610000Y-206740000D03*
X56515000Y-220107000D03*
X56515000Y-222107000D03*
D20*
X331380000Y-180070000D03*
X331380000Y-178070000D03*
D21*
X326930000Y-182420000D03*
X326930000Y-175720000D03*
D22*
X59406000Y-146673000D03*
X60056000Y-146673000D03*
X60706000Y-146673000D03*
X61356000Y-146673000D03*
X62006000Y-146673000D03*
D12*
X280670000Y-224310000D03*
X280670000Y-227810000D03*
D14*
X64455000Y-161352500D03*
X66355000Y-161352500D03*
X65405000Y-163227500D03*
D12*
X115570000Y-166652000D03*
X115570000Y-170152000D03*
X124968000Y-149380000D03*
X124968000Y-152880000D03*
X182118000Y-149126000D03*
X182118000Y-152626000D03*
D11*
X332768000Y-223520000D03*
X336268000Y-223520000D03*
D12*
X86868000Y-148872000D03*
X86868000Y-152372000D03*
X93980000Y-185956000D03*
X93980000Y-189456000D03*
D11*
X89380000Y-223266000D03*
X85880000Y-223266000D03*
D12*
X120142000Y-186464000D03*
X120142000Y-189964000D03*
X253746000Y-185730000D03*
X253746000Y-189230000D03*
D16*
X339630000Y-181867500D03*
X339630000Y-179792500D03*
D12*
X306070000Y-166652000D03*
X306070000Y-170152000D03*
D23*
X306070000Y-210250000D03*
X307340000Y-210250000D03*
X308610000Y-210250000D03*
X309880000Y-210250000D03*
X309880000Y-215200000D03*
X308610000Y-215200000D03*
X307340000Y-215200000D03*
X306070000Y-215200000D03*
D12*
X201168000Y-149126000D03*
X201168000Y-152626000D03*
D24*
X68260000Y-158782500D03*
X66360000Y-158782500D03*
X67310000Y-156907500D03*
D16*
X303530000Y-206777500D03*
X303530000Y-204702500D03*
D12*
X137160000Y-223266000D03*
X137160000Y-226766000D03*
X296418000Y-149380000D03*
X296418000Y-152880000D03*
X134620000Y-166652000D03*
X134620000Y-170152000D03*
X282194000Y-204752000D03*
X282194000Y-208252000D03*
X139192000Y-186210000D03*
X139192000Y-189710000D03*
X144018000Y-149126000D03*
X144018000Y-152626000D03*
D11*
X330172000Y-226568000D03*
X326672000Y-226568000D03*
D12*
X196342000Y-185956000D03*
X196342000Y-189456000D03*
X315722000Y-149380000D03*
X315722000Y-152880000D03*
X277368000Y-149380000D03*
X277368000Y-152880000D03*
X239268000Y-149126000D03*
X239268000Y-152626000D03*
X263144000Y-205006000D03*
X263144000Y-208506000D03*
D25*
X60746000Y-171974000D03*
X60746000Y-173974000D03*
D26*
X65196000Y-169624000D03*
X65196000Y-176324000D03*
D12*
X208534000Y-223576000D03*
X208534000Y-227076000D03*
D19*
X70485000Y-158845000D03*
X70485000Y-156845000D03*
D12*
X334264000Y-200688000D03*
X334264000Y-204188000D03*
X91948000Y-167414000D03*
X91948000Y-170914000D03*
M02*
