M48
; DRILL file {KiCad (6.0.7)} date Sun Sep 11 17:15:29 2022
; FORMAT={-:-/ absolute / metric / decimal}
; #@! TF.CreationDate,2022-09-11T17:15:29+08:00
; #@! TF.GenerationSoftware,Kicad,Pcbnew,(6.0.7)
; #@! TF.FileFunction,Plated,1,2,PTH
FMAT,2
METRIC
; #@! TA.AperFunction,Plated,PTH,ViaDrill
T1C0.400
; #@! TA.AperFunction,Plated,PTH,ComponentDrill
T2C0.950
; #@! TA.AperFunction,Plated,PTH,ComponentDrill
T3C1.200
; #@! TA.AperFunction,Plated,PTH,ComponentDrill
T4C1.400
; #@! TA.AperFunction,Plated,PTH,ComponentDrill
T5C2.300
; #@! TA.AperFunction,Plated,PTH,ComponentDrill
T6C3.200
%
G90
G05
T1
X51.181Y-55.88
X52.705Y-60.706
X54.229Y-55.88
X62.865Y-58.928
X74.803Y-59.69
X76.835Y-46.355
X77.055Y-51.596
X77.47Y-57.785
X81.661Y-50.546
X88.265Y-55.118
X89.535Y-51.054
X89.77Y-56.115
X91.567Y-57.912
X93.091Y-53.848
X96.393Y-60.96
X96.393Y-63.5
X97.663Y-50.292
X100.965Y-54.356
X100.965Y-58.928
X101.219Y-53.34
X101.577Y-59.807
X105.029Y-53.848
X105.537Y-60.96
X105.791Y-52.324
X106.553Y-54.61
X107.315Y-48.26
X108.585Y-55.626
X108.585Y-57.658
X108.585Y-59.69
X113.919Y-63.246
X114.935Y-59.69
X124.333Y-59.69
X124.978Y-56.779
X125.72Y-57.521
X127.889Y-61.214
X128.905Y-55.372
T2
X49.175Y-47.3
X49.175Y-49.8
X49.175Y-51.8
X49.175Y-54.3
T3
X137.212Y-48.625
X137.212Y-56.375
T4
X133.412Y-48.775
X133.412Y-56.225
T5
X46.465Y-44.23
X46.465Y-57.37
T6
X113.5Y-51.0
X125.5Y-51.0
T0
M30
