%TF.GenerationSoftware,KiCad,Pcbnew,(6.0.7)*%
%TF.CreationDate,2022-09-03T19:18:48+08:00*%
%TF.ProjectId,Joker60_v2,4a6f6b65-7236-4305-9f76-322e6b696361,1.0*%
%TF.SameCoordinates,Original*%
%TF.FileFunction,Soldermask,Bot*%
%TF.FilePolarity,Negative*%
%FSLAX46Y46*%
G04 Gerber Fmt 4.6, Leading zero omitted, Abs format (unit mm)*
G04 Created by KiCad (PCBNEW (6.0.7)) date 2022-09-03 19:18:48*
%MOMM*%
%LPD*%
G01*
G04 APERTURE LIST*
G04 Aperture macros list*
%AMRoundRect*
0 Rectangle with rounded corners*
0 $1 Rounding radius*
0 $2 $3 $4 $5 $6 $7 $8 $9 X,Y pos of 4 corners*
0 Add a 4 corners polygon primitive as box body*
4,1,4,$2,$3,$4,$5,$6,$7,$8,$9,$2,$3,0*
0 Add four circle primitives for the rounded corners*
1,1,$1+$1,$2,$3*
1,1,$1+$1,$4,$5*
1,1,$1+$1,$6,$7*
1,1,$1+$1,$8,$9*
0 Add four rect primitives between the rounded corners*
20,1,$1+$1,$2,$3,$4,$5,0*
20,1,$1+$1,$4,$5,$6,$7,0*
20,1,$1+$1,$6,$7,$8,$9,0*
20,1,$1+$1,$8,$9,$2,$3,0*%
G04 Aperture macros list end*
%ADD10C,1.524000*%
%ADD11RoundRect,0.250000X0.450000X-0.350000X0.450000X0.350000X-0.450000X0.350000X-0.450000X-0.350000X0*%
%ADD12RoundRect,0.250000X-0.450000X0.350000X-0.450000X-0.350000X0.450000X-0.350000X0.450000X0.350000X0*%
%ADD13C,1.700000*%
%ADD14C,4.000000*%
%ADD15C,2.200000*%
%ADD16R,1.700000X1.300000*%
%ADD17C,0.800000*%
%ADD18R,0.450000X1.300000*%
%ADD19C,2.000000*%
%ADD20C,1.800000*%
G04 APERTURE END LIST*
D10*
%TO.C,U5*%
X46863000Y-146177000D03*
X49403000Y-146177000D03*
X51943000Y-146177000D03*
X54483000Y-146177000D03*
%TD*%
D11*
%TO.C,R13*%
X54483000Y-222107000D03*
X54483000Y-220107000D03*
%TD*%
D12*
%TO.C,R11*%
X56515000Y-222107000D03*
X56515000Y-220107000D03*
%TD*%
D13*
%TO.C,S62*%
X277622000Y-193548000D03*
D14*
X282702000Y-193548000D03*
D13*
X287782000Y-193548000D03*
D15*
X278892000Y-191008000D03*
X285242000Y-188468000D03*
%TD*%
D14*
%TO.C,S14*%
X182753000Y-174498000D03*
D13*
X187833000Y-174498000D03*
X177673000Y-174498000D03*
D15*
X178943000Y-171958000D03*
X185293000Y-169418000D03*
%TD*%
D13*
%TO.C,S26*%
X125857000Y-212725000D03*
D14*
X120777000Y-212725000D03*
D13*
X115697000Y-212725000D03*
D15*
X116967000Y-210185000D03*
X123317000Y-207645000D03*
%TD*%
D13*
%TO.C,S30*%
X202184000Y-212598000D03*
X192024000Y-212598000D03*
D14*
X197104000Y-212598000D03*
D15*
X193294000Y-210058000D03*
X199644000Y-207518000D03*
%TD*%
D13*
%TO.C,S24*%
X220472000Y-193548000D03*
X230632000Y-193548000D03*
D14*
X225552000Y-193548000D03*
D15*
X221742000Y-191008000D03*
X228092000Y-188468000D03*
%TD*%
D13*
%TO.C,S41*%
X75311000Y-231648000D03*
X85471000Y-231648000D03*
D14*
X80391000Y-231648000D03*
D15*
X76581000Y-229108000D03*
X82931000Y-226568000D03*
%TD*%
D13*
%TO.C,S25*%
X84709000Y-212598000D03*
X94869000Y-212598000D03*
D14*
X89789000Y-212598000D03*
D15*
X85979000Y-210058000D03*
X92329000Y-207518000D03*
%TD*%
D13*
%TO.C,S46*%
X323469000Y-231648000D03*
X313309000Y-231648000D03*
D14*
X318389000Y-231648000D03*
D15*
X314579000Y-229108000D03*
X320929000Y-226568000D03*
%TD*%
D13*
%TO.C,S3*%
X110871000Y-155448000D03*
X121031000Y-155448000D03*
D14*
X115951000Y-155448000D03*
D15*
X112141000Y-152908000D03*
X118491000Y-150368000D03*
%TD*%
D13*
%TO.C,S50*%
X259207000Y-212598000D03*
D14*
X254127000Y-212598000D03*
D13*
X249047000Y-212598000D03*
D15*
X250317000Y-210058000D03*
X256667000Y-207518000D03*
%TD*%
D14*
%TO.C,S32*%
X235077000Y-212598000D03*
D13*
X229997000Y-212598000D03*
X240157000Y-212598000D03*
D15*
X231267000Y-210058000D03*
X237617000Y-207518000D03*
%TD*%
D10*
%TO.C,Sw1*%
X50734400Y-178479200D03*
X50734400Y-176479200D03*
X50734400Y-174479200D03*
X55234400Y-178479200D03*
X55234400Y-176479200D03*
X55234400Y-174479200D03*
%TD*%
D13*
%TO.C,S4*%
X130048000Y-155448000D03*
D14*
X135128000Y-155448000D03*
D13*
X140208000Y-155448000D03*
D15*
X131318000Y-152908000D03*
X137668000Y-150368000D03*
%TD*%
D13*
%TO.C,S54*%
X272923000Y-174498000D03*
D14*
X278003000Y-174498000D03*
D13*
X283083000Y-174498000D03*
D15*
X274193000Y-171958000D03*
X280543000Y-169418000D03*
%TD*%
D13*
%TO.C,S19*%
X135382000Y-193548000D03*
X125222000Y-193548000D03*
D14*
X130302000Y-193548000D03*
D15*
X126492000Y-191008000D03*
X132842000Y-188468000D03*
%TD*%
D14*
%TO.C,S6*%
X173228000Y-155448000D03*
D13*
X168148000Y-155448000D03*
X178308000Y-155448000D03*
D15*
X169418000Y-152908000D03*
X175768000Y-150368000D03*
%TD*%
D13*
%TO.C,S63*%
X258572000Y-193548000D03*
X268732000Y-193548000D03*
D14*
X263652000Y-193548000D03*
D15*
X259842000Y-191008000D03*
X266192000Y-188468000D03*
%TD*%
D14*
%TO.C,S47*%
X294640000Y-231648000D03*
D13*
X289560000Y-231648000D03*
X299720000Y-231648000D03*
D15*
X290830000Y-229108000D03*
X297180000Y-226568000D03*
%TD*%
D14*
%TO.C,S7*%
X192278000Y-155448000D03*
D13*
X197358000Y-155448000D03*
X187198000Y-155448000D03*
D15*
X188468000Y-152908000D03*
X194818000Y-150368000D03*
%TD*%
D13*
%TO.C,S12*%
X139573000Y-174498000D03*
D14*
X144653000Y-174498000D03*
D13*
X149733000Y-174498000D03*
D15*
X140843000Y-171958000D03*
X147193000Y-169418000D03*
%TD*%
D14*
%TO.C,S1*%
X77978000Y-155448000D03*
D13*
X72898000Y-155448000D03*
X83058000Y-155448000D03*
D15*
X74168000Y-152908000D03*
X80518000Y-150368000D03*
%TD*%
D14*
%TO.C,S61*%
X301752000Y-193548000D03*
D13*
X296672000Y-193548000D03*
X306832000Y-193548000D03*
D15*
X297942000Y-191008000D03*
X304292000Y-188468000D03*
%TD*%
D13*
%TO.C,S21*%
X163322000Y-193548000D03*
X173482000Y-193548000D03*
D14*
X168402000Y-193548000D03*
D15*
X164592000Y-191008000D03*
X170942000Y-188468000D03*
%TD*%
D14*
%TO.C,S37*%
X287528000Y-155448000D03*
D13*
X292608000Y-155448000D03*
X282448000Y-155448000D03*
D15*
X283718000Y-152908000D03*
X290068000Y-150368000D03*
%TD*%
D14*
%TO.C,S59*%
X332740000Y-193548000D03*
D13*
X337820000Y-193548000D03*
X327660000Y-193548000D03*
D15*
X328930000Y-191008000D03*
X335280000Y-188468000D03*
%TD*%
D13*
%TO.C,S43*%
X133096000Y-231648000D03*
D14*
X128016000Y-231648000D03*
D13*
X122936000Y-231648000D03*
D15*
X124206000Y-229108000D03*
X130556000Y-226568000D03*
%TD*%
D13*
%TO.C,S48*%
X265684000Y-231648000D03*
D14*
X270764000Y-231648000D03*
D13*
X275844000Y-231648000D03*
D15*
X266954000Y-229108000D03*
X273304000Y-226568000D03*
%TD*%
D13*
%TO.C,S28*%
X164084000Y-212598000D03*
X153924000Y-212598000D03*
D14*
X159004000Y-212598000D03*
D15*
X155194000Y-210058000D03*
X161544000Y-207518000D03*
%TD*%
D13*
%TO.C,S17*%
X80010000Y-193548000D03*
X90170000Y-193548000D03*
D14*
X85090000Y-193548000D03*
D15*
X81280000Y-191008000D03*
X87630000Y-188468000D03*
%TD*%
D13*
%TO.C,S15*%
X196723000Y-174498000D03*
X206883000Y-174498000D03*
D14*
X201803000Y-174498000D03*
D15*
X197993000Y-171958000D03*
X204343000Y-169418000D03*
%TD*%
D13*
%TO.C,S58*%
X287147000Y-212598000D03*
X297307000Y-212598000D03*
D14*
X292227000Y-212598000D03*
D15*
X288417000Y-210058000D03*
X294767000Y-207518000D03*
%TD*%
D13*
%TO.C,S16*%
X215773000Y-174498000D03*
D14*
X220853000Y-174498000D03*
D13*
X225933000Y-174498000D03*
D15*
X217043000Y-171958000D03*
X223393000Y-169418000D03*
%TD*%
D13*
%TO.C,S27*%
X134747000Y-212725000D03*
X144907000Y-212725000D03*
D14*
X139827000Y-212725000D03*
D15*
X136017000Y-210185000D03*
X142367000Y-207645000D03*
%TD*%
D13*
%TO.C,S8*%
X206248000Y-155448000D03*
D14*
X211328000Y-155448000D03*
D13*
X216408000Y-155448000D03*
D15*
X207518000Y-152908000D03*
X213868000Y-150368000D03*
%TD*%
D13*
%TO.C,S5*%
X149098000Y-155448000D03*
X159258000Y-155448000D03*
D14*
X154178000Y-155448000D03*
D15*
X150368000Y-152908000D03*
X156718000Y-150368000D03*
%TD*%
D14*
%TO.C,S13*%
X163703000Y-174498000D03*
D13*
X168783000Y-174498000D03*
X158623000Y-174498000D03*
D15*
X159893000Y-171958000D03*
X166243000Y-169418000D03*
%TD*%
D14*
%TO.C,S35*%
X335153000Y-155448000D03*
D13*
X330073000Y-155448000D03*
X340233000Y-155448000D03*
D15*
X331343000Y-152908000D03*
X337693000Y-150368000D03*
%TD*%
D13*
%TO.C,S20*%
X154432000Y-193548000D03*
D14*
X149352000Y-193548000D03*
D13*
X144272000Y-193548000D03*
D15*
X145542000Y-191008000D03*
X151892000Y-188468000D03*
%TD*%
D13*
%TO.C,S11*%
X130683000Y-174498000D03*
X120523000Y-174498000D03*
D14*
X125603000Y-174498000D03*
D15*
X121793000Y-171958000D03*
X128143000Y-169418000D03*
%TD*%
D13*
%TO.C,S22*%
X182372000Y-193548000D03*
X192532000Y-193548000D03*
D14*
X187452000Y-193548000D03*
D15*
X183642000Y-191008000D03*
X189992000Y-188468000D03*
%TD*%
D13*
%TO.C,S60*%
X322834000Y-212598000D03*
X332994000Y-212598000D03*
D14*
X327914000Y-212598000D03*
D15*
X324104000Y-210058000D03*
X330454000Y-207518000D03*
%TD*%
D13*
%TO.C,S23*%
X201422000Y-193548000D03*
D14*
X206502000Y-193548000D03*
D13*
X211582000Y-193548000D03*
D15*
X202692000Y-191008000D03*
X209042000Y-188468000D03*
%TD*%
D13*
%TO.C,S40*%
X235458000Y-155448000D03*
D14*
X230378000Y-155448000D03*
D13*
X225298000Y-155448000D03*
D15*
X226568000Y-152908000D03*
X232918000Y-150368000D03*
%TD*%
D13*
%TO.C,S38*%
X273558000Y-155448000D03*
D14*
X268478000Y-155448000D03*
D13*
X263398000Y-155448000D03*
D15*
X264668000Y-152908000D03*
X271018000Y-150368000D03*
%TD*%
D14*
%TO.C,S44*%
X199390000Y-231648000D03*
D13*
X194310000Y-231648000D03*
X204470000Y-231648000D03*
D15*
X195580000Y-229108000D03*
X201930000Y-226568000D03*
%TD*%
D13*
%TO.C,S55*%
X253873000Y-174498000D03*
D14*
X258953000Y-174498000D03*
D13*
X264033000Y-174498000D03*
D15*
X255143000Y-171958000D03*
X261493000Y-169418000D03*
%TD*%
D14*
%TO.C,S39*%
X249428000Y-155448000D03*
D13*
X244348000Y-155448000D03*
X254508000Y-155448000D03*
D15*
X245618000Y-152908000D03*
X251968000Y-150368000D03*
%TD*%
D14*
%TO.C,S2*%
X97028000Y-155448000D03*
D13*
X102108000Y-155448000D03*
X91948000Y-155448000D03*
D15*
X93218000Y-152908000D03*
X99568000Y-150368000D03*
%TD*%
D14*
%TO.C,S34*%
X273177000Y-212471000D03*
D13*
X268097000Y-212471000D03*
X278257000Y-212471000D03*
D15*
X269367000Y-209931000D03*
X275717000Y-207391000D03*
%TD*%
D13*
%TO.C,S51*%
X344932000Y-174498000D03*
X334772000Y-174498000D03*
D14*
X339852000Y-174498000D03*
D15*
X336042000Y-171958000D03*
X342392000Y-169418000D03*
%TD*%
D13*
%TO.C,S45*%
X347345000Y-231648000D03*
D14*
X342265000Y-231648000D03*
D13*
X337185000Y-231648000D03*
D15*
X338455000Y-229108000D03*
X344805000Y-226568000D03*
%TD*%
D13*
%TO.C,S64*%
X249682000Y-193548000D03*
D14*
X244602000Y-193548000D03*
D13*
X239522000Y-193548000D03*
D15*
X240792000Y-191008000D03*
X247142000Y-188468000D03*
%TD*%
D13*
%TO.C,S9*%
X87884000Y-174498000D03*
D14*
X82804000Y-174498000D03*
D13*
X77724000Y-174498000D03*
D15*
X78994000Y-171958000D03*
X85344000Y-169418000D03*
%TD*%
D13*
%TO.C,S53*%
X291973000Y-174498000D03*
X302133000Y-174498000D03*
D14*
X297053000Y-174498000D03*
D15*
X293243000Y-171958000D03*
X299593000Y-169418000D03*
%TD*%
D14*
%TO.C,S18*%
X111252000Y-193548000D03*
D13*
X116332000Y-193548000D03*
X106172000Y-193548000D03*
D15*
X107442000Y-191008000D03*
X113792000Y-188468000D03*
%TD*%
D14*
%TO.C,S42*%
X104140000Y-231648000D03*
D13*
X99060000Y-231648000D03*
X109220000Y-231648000D03*
D15*
X100330000Y-229108000D03*
X106680000Y-226568000D03*
%TD*%
D13*
%TO.C,S52*%
X321183000Y-174498000D03*
X311023000Y-174498000D03*
D14*
X316103000Y-174498000D03*
D15*
X312293000Y-171958000D03*
X318643000Y-169418000D03*
%TD*%
D14*
%TO.C,S10*%
X106553000Y-174498000D03*
D13*
X101473000Y-174498000D03*
X111633000Y-174498000D03*
D15*
X102743000Y-171958000D03*
X109093000Y-169418000D03*
%TD*%
D13*
%TO.C,S29*%
X183007000Y-212598000D03*
D14*
X177927000Y-212598000D03*
D13*
X172847000Y-212598000D03*
D15*
X174117000Y-210058000D03*
X180467000Y-207518000D03*
%TD*%
D13*
%TO.C,S56*%
X244983000Y-174498000D03*
D14*
X239903000Y-174498000D03*
D13*
X234823000Y-174498000D03*
D15*
X236093000Y-171958000D03*
X242443000Y-169418000D03*
%TD*%
D13*
%TO.C,S36*%
X311658000Y-155448000D03*
X301498000Y-155448000D03*
D14*
X306578000Y-155448000D03*
D15*
X302768000Y-152908000D03*
X309118000Y-150368000D03*
%TD*%
D13*
%TO.C,S31*%
X210947000Y-212598000D03*
D14*
X216027000Y-212598000D03*
D13*
X221107000Y-212598000D03*
D15*
X212217000Y-210058000D03*
X218567000Y-207518000D03*
%TD*%
D16*
%TO.C,D32*%
X241046000Y-206403000D03*
X241046000Y-209903000D03*
%TD*%
%TO.C,D14*%
X188722000Y-168176000D03*
X188722000Y-171676000D03*
%TD*%
%TO.C,D51*%
X345821000Y-168303000D03*
X345821000Y-171803000D03*
%TD*%
%TO.C,D61*%
X307721000Y-187353000D03*
X307721000Y-190853000D03*
%TD*%
%TO.C,D28*%
X164973000Y-206276000D03*
X164973000Y-209776000D03*
%TD*%
%TO.C,D56*%
X245872000Y-168303000D03*
X245872000Y-171803000D03*
%TD*%
%TO.C,D58*%
X298196000Y-206403000D03*
X298196000Y-209903000D03*
%TD*%
%TO.C,D21*%
X174498000Y-187226000D03*
X174498000Y-190726000D03*
%TD*%
%TO.C,D47*%
X300609000Y-225453000D03*
X300609000Y-228953000D03*
%TD*%
%TO.C,D52*%
X321945000Y-168303000D03*
X321945000Y-171803000D03*
%TD*%
%TO.C,D26*%
X126746000Y-206403000D03*
X126746000Y-209903000D03*
%TD*%
%TO.C,D8*%
X217297000Y-149253000D03*
X217297000Y-152753000D03*
%TD*%
%TO.C,D24*%
X231648000Y-187226000D03*
X231648000Y-190726000D03*
%TD*%
%TO.C,D5*%
X160147000Y-149253000D03*
X160147000Y-152753000D03*
%TD*%
%TO.C,D55*%
X264922000Y-168303000D03*
X264922000Y-171803000D03*
%TD*%
%TO.C,D12*%
X150622000Y-168176000D03*
X150622000Y-171676000D03*
%TD*%
%TO.C,D29*%
X184023000Y-206276000D03*
X184023000Y-209776000D03*
%TD*%
%TO.C,D20*%
X155448000Y-187226000D03*
X155448000Y-190726000D03*
%TD*%
%TO.C,D27*%
X145796000Y-206403000D03*
X145796000Y-209903000D03*
%TD*%
%TO.C,D16*%
X226822000Y-168176000D03*
X226822000Y-171676000D03*
%TD*%
%TO.C,D42*%
X110236000Y-225326000D03*
X110236000Y-228826000D03*
%TD*%
%TO.C,D39*%
X255524000Y-149126000D03*
X255524000Y-152626000D03*
%TD*%
%TO.C,D35*%
X341249000Y-149126000D03*
X341249000Y-152626000D03*
%TD*%
%TO.C,D30*%
X202946000Y-206403000D03*
X202946000Y-209903000D03*
%TD*%
%TO.C,D54*%
X283972000Y-168303000D03*
X283972000Y-171803000D03*
%TD*%
%TO.C,D63*%
X269621000Y-187353000D03*
X269621000Y-190853000D03*
%TD*%
%TO.C,D25*%
X95885000Y-206276000D03*
X95885000Y-209776000D03*
%TD*%
%TO.C,D62*%
X288671000Y-187353000D03*
X288671000Y-190853000D03*
%TD*%
%TO.C,D15*%
X207645000Y-168303000D03*
X207645000Y-171803000D03*
%TD*%
%TO.C,D59*%
X338709000Y-187353000D03*
X338709000Y-190853000D03*
%TD*%
%TO.C,D13*%
X169672000Y-168176000D03*
X169672000Y-171676000D03*
%TD*%
%TO.C,D23*%
X212598000Y-187226000D03*
X212598000Y-190726000D03*
%TD*%
%TO.C,D2*%
X103124000Y-149126000D03*
X103124000Y-152626000D03*
%TD*%
%TO.C,D31*%
X222123000Y-206276000D03*
X222123000Y-209776000D03*
%TD*%
D17*
%TO.C,J1*%
X58206000Y-145573000D03*
X63206000Y-145573000D03*
D18*
X59406000Y-146673000D03*
X60056000Y-146673000D03*
X60706000Y-146673000D03*
X61356000Y-146673000D03*
X62006000Y-146673000D03*
D19*
X64431000Y-146623000D03*
D20*
X64581000Y-142823000D03*
X56831000Y-142823000D03*
D19*
X56981000Y-146623000D03*
%TD*%
D16*
%TO.C,D48*%
X276733000Y-225453000D03*
X276733000Y-228953000D03*
%TD*%
%TO.C,D10*%
X112522000Y-168176000D03*
X112522000Y-171676000D03*
%TD*%
%TO.C,D3*%
X122047000Y-149253000D03*
X122047000Y-152753000D03*
%TD*%
%TO.C,D6*%
X179197000Y-149126000D03*
X179197000Y-152626000D03*
%TD*%
%TO.C,D45*%
X348234000Y-225453000D03*
X348234000Y-228953000D03*
%TD*%
%TO.C,D1*%
X84074000Y-149126000D03*
X84074000Y-152626000D03*
%TD*%
%TO.C,D17*%
X91059000Y-187226000D03*
X91059000Y-190726000D03*
%TD*%
%TO.C,D41*%
X86360000Y-225326000D03*
X86360000Y-228826000D03*
%TD*%
%TO.C,D18*%
X117221000Y-187353000D03*
X117221000Y-190853000D03*
%TD*%
%TO.C,D64*%
X250571000Y-187353000D03*
X250571000Y-190853000D03*
%TD*%
%TO.C,D53*%
X303022000Y-168303000D03*
X303022000Y-171803000D03*
%TD*%
%TO.C,D7*%
X198247000Y-149126000D03*
X198247000Y-152626000D03*
%TD*%
%TO.C,D43*%
X133985000Y-225326000D03*
X133985000Y-228826000D03*
%TD*%
%TO.C,D37*%
X293497000Y-149126000D03*
X293497000Y-152626000D03*
%TD*%
%TO.C,D11*%
X131699000Y-168176000D03*
X131699000Y-171676000D03*
%TD*%
%TO.C,D34*%
X279146000Y-206403000D03*
X279146000Y-209903000D03*
%TD*%
%TO.C,D19*%
X136398000Y-187226000D03*
X136398000Y-190726000D03*
%TD*%
%TO.C,D4*%
X141097000Y-149253000D03*
X141097000Y-152753000D03*
%TD*%
%TO.C,D46*%
X324358000Y-225453000D03*
X324358000Y-228953000D03*
%TD*%
%TO.C,D22*%
X193421000Y-187226000D03*
X193421000Y-190726000D03*
%TD*%
%TO.C,D36*%
X312547000Y-149126000D03*
X312547000Y-152626000D03*
%TD*%
%TO.C,D38*%
X274447000Y-149126000D03*
X274447000Y-152626000D03*
%TD*%
%TO.C,D40*%
X236474000Y-149126000D03*
X236474000Y-152626000D03*
%TD*%
%TO.C,D50*%
X260096000Y-206403000D03*
X260096000Y-209903000D03*
%TD*%
%TO.C,D44*%
X205359000Y-225453000D03*
X205359000Y-228953000D03*
%TD*%
%TO.C,D60*%
X333756000Y-206403000D03*
X333756000Y-209903000D03*
%TD*%
%TO.C,D9*%
X88773000Y-168176000D03*
X88773000Y-171676000D03*
%TD*%
M02*
