%TF.GenerationSoftware,KiCad,Pcbnew,(6.0.7)*%
%TF.CreationDate,2022-09-03T19:18:48+08:00*%
%TF.ProjectId,Joker60_v2,4a6f6b65-7236-4305-9f76-322e6b696361,1.0*%
%TF.SameCoordinates,Original*%
%TF.FileFunction,Legend,Bot*%
%TF.FilePolarity,Positive*%
%FSLAX46Y46*%
G04 Gerber Fmt 4.6, Leading zero omitted, Abs format (unit mm)*
G04 Created by KiCad (PCBNEW (6.0.7)) date 2022-09-03 19:18:48*
%MOMM*%
%LPD*%
G01*
G04 APERTURE LIST*
%ADD10C,0.150000*%
%ADD11C,0.120000*%
G04 APERTURE END LIST*
D10*
%TO.C,R13*%
X55062380Y-217162142D02*
X54586190Y-216828809D01*
X55062380Y-216590714D02*
X54062380Y-216590714D01*
X54062380Y-216971666D01*
X54110000Y-217066904D01*
X54157619Y-217114523D01*
X54252857Y-217162142D01*
X54395714Y-217162142D01*
X54490952Y-217114523D01*
X54538571Y-217066904D01*
X54586190Y-216971666D01*
X54586190Y-216590714D01*
X55062380Y-218114523D02*
X55062380Y-217543095D01*
X55062380Y-217828809D02*
X54062380Y-217828809D01*
X54205238Y-217733571D01*
X54300476Y-217638333D01*
X54348095Y-217543095D01*
X54062380Y-218447857D02*
X54062380Y-219066904D01*
X54443333Y-218733571D01*
X54443333Y-218876428D01*
X54490952Y-218971666D01*
X54538571Y-219019285D01*
X54633809Y-219066904D01*
X54871904Y-219066904D01*
X54967142Y-219019285D01*
X55014761Y-218971666D01*
X55062380Y-218876428D01*
X55062380Y-218590714D01*
X55014761Y-218495476D01*
X54967142Y-218447857D01*
%TO.C,R11*%
X56967380Y-217162142D02*
X56491190Y-216828809D01*
X56967380Y-216590714D02*
X55967380Y-216590714D01*
X55967380Y-216971666D01*
X56015000Y-217066904D01*
X56062619Y-217114523D01*
X56157857Y-217162142D01*
X56300714Y-217162142D01*
X56395952Y-217114523D01*
X56443571Y-217066904D01*
X56491190Y-216971666D01*
X56491190Y-216590714D01*
X56967380Y-218114523D02*
X56967380Y-217543095D01*
X56967380Y-217828809D02*
X55967380Y-217828809D01*
X56110238Y-217733571D01*
X56205476Y-217638333D01*
X56253095Y-217543095D01*
X56967380Y-219066904D02*
X56967380Y-218495476D01*
X56967380Y-218781190D02*
X55967380Y-218781190D01*
X56110238Y-218685952D01*
X56205476Y-218590714D01*
X56253095Y-218495476D01*
%TO.C,D32*%
X244419380Y-206938714D02*
X243419380Y-206938714D01*
X243419380Y-207176809D01*
X243467000Y-207319666D01*
X243562238Y-207414904D01*
X243657476Y-207462523D01*
X243847952Y-207510142D01*
X243990809Y-207510142D01*
X244181285Y-207462523D01*
X244276523Y-207414904D01*
X244371761Y-207319666D01*
X244419380Y-207176809D01*
X244419380Y-206938714D01*
X243419380Y-207843476D02*
X243419380Y-208462523D01*
X243800333Y-208129190D01*
X243800333Y-208272047D01*
X243847952Y-208367285D01*
X243895571Y-208414904D01*
X243990809Y-208462523D01*
X244228904Y-208462523D01*
X244324142Y-208414904D01*
X244371761Y-208367285D01*
X244419380Y-208272047D01*
X244419380Y-207986333D01*
X244371761Y-207891095D01*
X244324142Y-207843476D01*
X243514619Y-208843476D02*
X243467000Y-208891095D01*
X243419380Y-208986333D01*
X243419380Y-209224428D01*
X243467000Y-209319666D01*
X243514619Y-209367285D01*
X243609857Y-209414904D01*
X243705095Y-209414904D01*
X243847952Y-209367285D01*
X244419380Y-208795857D01*
X244419380Y-209414904D01*
%TO.C,D14*%
X191841380Y-168711714D02*
X190841380Y-168711714D01*
X190841380Y-168949809D01*
X190889000Y-169092666D01*
X190984238Y-169187904D01*
X191079476Y-169235523D01*
X191269952Y-169283142D01*
X191412809Y-169283142D01*
X191603285Y-169235523D01*
X191698523Y-169187904D01*
X191793761Y-169092666D01*
X191841380Y-168949809D01*
X191841380Y-168711714D01*
X191841380Y-170235523D02*
X191841380Y-169664095D01*
X191841380Y-169949809D02*
X190841380Y-169949809D01*
X190984238Y-169854571D01*
X191079476Y-169759333D01*
X191127095Y-169664095D01*
X191174714Y-171092666D02*
X191841380Y-171092666D01*
X190793761Y-170854571D02*
X191508047Y-170616476D01*
X191508047Y-171235523D01*
%TO.C,D51*%
X348178380Y-168838714D02*
X347178380Y-168838714D01*
X347178380Y-169076809D01*
X347226000Y-169219666D01*
X347321238Y-169314904D01*
X347416476Y-169362523D01*
X347606952Y-169410142D01*
X347749809Y-169410142D01*
X347940285Y-169362523D01*
X348035523Y-169314904D01*
X348130761Y-169219666D01*
X348178380Y-169076809D01*
X348178380Y-168838714D01*
X347178380Y-170314904D02*
X347178380Y-169838714D01*
X347654571Y-169791095D01*
X347606952Y-169838714D01*
X347559333Y-169933952D01*
X347559333Y-170172047D01*
X347606952Y-170267285D01*
X347654571Y-170314904D01*
X347749809Y-170362523D01*
X347987904Y-170362523D01*
X348083142Y-170314904D01*
X348130761Y-170267285D01*
X348178380Y-170172047D01*
X348178380Y-169933952D01*
X348130761Y-169838714D01*
X348083142Y-169791095D01*
X348178380Y-171314904D02*
X348178380Y-170743476D01*
X348178380Y-171029190D02*
X347178380Y-171029190D01*
X347321238Y-170933952D01*
X347416476Y-170838714D01*
X347464095Y-170743476D01*
%TO.C,D61*%
X310967380Y-187888714D02*
X309967380Y-187888714D01*
X309967380Y-188126809D01*
X310015000Y-188269666D01*
X310110238Y-188364904D01*
X310205476Y-188412523D01*
X310395952Y-188460142D01*
X310538809Y-188460142D01*
X310729285Y-188412523D01*
X310824523Y-188364904D01*
X310919761Y-188269666D01*
X310967380Y-188126809D01*
X310967380Y-187888714D01*
X309967380Y-189317285D02*
X309967380Y-189126809D01*
X310015000Y-189031571D01*
X310062619Y-188983952D01*
X310205476Y-188888714D01*
X310395952Y-188841095D01*
X310776904Y-188841095D01*
X310872142Y-188888714D01*
X310919761Y-188936333D01*
X310967380Y-189031571D01*
X310967380Y-189222047D01*
X310919761Y-189317285D01*
X310872142Y-189364904D01*
X310776904Y-189412523D01*
X310538809Y-189412523D01*
X310443571Y-189364904D01*
X310395952Y-189317285D01*
X310348333Y-189222047D01*
X310348333Y-189031571D01*
X310395952Y-188936333D01*
X310443571Y-188888714D01*
X310538809Y-188841095D01*
X310967380Y-190364904D02*
X310967380Y-189793476D01*
X310967380Y-190079190D02*
X309967380Y-190079190D01*
X310110238Y-189983952D01*
X310205476Y-189888714D01*
X310253095Y-189793476D01*
%TO.C,D28*%
X167965380Y-206811714D02*
X166965380Y-206811714D01*
X166965380Y-207049809D01*
X167013000Y-207192666D01*
X167108238Y-207287904D01*
X167203476Y-207335523D01*
X167393952Y-207383142D01*
X167536809Y-207383142D01*
X167727285Y-207335523D01*
X167822523Y-207287904D01*
X167917761Y-207192666D01*
X167965380Y-207049809D01*
X167965380Y-206811714D01*
X167060619Y-207764095D02*
X167013000Y-207811714D01*
X166965380Y-207906952D01*
X166965380Y-208145047D01*
X167013000Y-208240285D01*
X167060619Y-208287904D01*
X167155857Y-208335523D01*
X167251095Y-208335523D01*
X167393952Y-208287904D01*
X167965380Y-207716476D01*
X167965380Y-208335523D01*
X167393952Y-208906952D02*
X167346333Y-208811714D01*
X167298714Y-208764095D01*
X167203476Y-208716476D01*
X167155857Y-208716476D01*
X167060619Y-208764095D01*
X167013000Y-208811714D01*
X166965380Y-208906952D01*
X166965380Y-209097428D01*
X167013000Y-209192666D01*
X167060619Y-209240285D01*
X167155857Y-209287904D01*
X167203476Y-209287904D01*
X167298714Y-209240285D01*
X167346333Y-209192666D01*
X167393952Y-209097428D01*
X167393952Y-208906952D01*
X167441571Y-208811714D01*
X167489190Y-208764095D01*
X167584428Y-208716476D01*
X167774904Y-208716476D01*
X167870142Y-208764095D01*
X167917761Y-208811714D01*
X167965380Y-208906952D01*
X167965380Y-209097428D01*
X167917761Y-209192666D01*
X167870142Y-209240285D01*
X167774904Y-209287904D01*
X167584428Y-209287904D01*
X167489190Y-209240285D01*
X167441571Y-209192666D01*
X167393952Y-209097428D01*
%TO.C,D56*%
X248610380Y-168838714D02*
X247610380Y-168838714D01*
X247610380Y-169076809D01*
X247658000Y-169219666D01*
X247753238Y-169314904D01*
X247848476Y-169362523D01*
X248038952Y-169410142D01*
X248181809Y-169410142D01*
X248372285Y-169362523D01*
X248467523Y-169314904D01*
X248562761Y-169219666D01*
X248610380Y-169076809D01*
X248610380Y-168838714D01*
X247610380Y-170314904D02*
X247610380Y-169838714D01*
X248086571Y-169791095D01*
X248038952Y-169838714D01*
X247991333Y-169933952D01*
X247991333Y-170172047D01*
X248038952Y-170267285D01*
X248086571Y-170314904D01*
X248181809Y-170362523D01*
X248419904Y-170362523D01*
X248515142Y-170314904D01*
X248562761Y-170267285D01*
X248610380Y-170172047D01*
X248610380Y-169933952D01*
X248562761Y-169838714D01*
X248515142Y-169791095D01*
X247610380Y-171219666D02*
X247610380Y-171029190D01*
X247658000Y-170933952D01*
X247705619Y-170886333D01*
X247848476Y-170791095D01*
X248038952Y-170743476D01*
X248419904Y-170743476D01*
X248515142Y-170791095D01*
X248562761Y-170838714D01*
X248610380Y-170933952D01*
X248610380Y-171124428D01*
X248562761Y-171219666D01*
X248515142Y-171267285D01*
X248419904Y-171314904D01*
X248181809Y-171314904D01*
X248086571Y-171267285D01*
X248038952Y-171219666D01*
X247991333Y-171124428D01*
X247991333Y-170933952D01*
X248038952Y-170838714D01*
X248086571Y-170791095D01*
X248181809Y-170743476D01*
%TO.C,D58*%
X301315380Y-206938714D02*
X300315380Y-206938714D01*
X300315380Y-207176809D01*
X300363000Y-207319666D01*
X300458238Y-207414904D01*
X300553476Y-207462523D01*
X300743952Y-207510142D01*
X300886809Y-207510142D01*
X301077285Y-207462523D01*
X301172523Y-207414904D01*
X301267761Y-207319666D01*
X301315380Y-207176809D01*
X301315380Y-206938714D01*
X300315380Y-208414904D02*
X300315380Y-207938714D01*
X300791571Y-207891095D01*
X300743952Y-207938714D01*
X300696333Y-208033952D01*
X300696333Y-208272047D01*
X300743952Y-208367285D01*
X300791571Y-208414904D01*
X300886809Y-208462523D01*
X301124904Y-208462523D01*
X301220142Y-208414904D01*
X301267761Y-208367285D01*
X301315380Y-208272047D01*
X301315380Y-208033952D01*
X301267761Y-207938714D01*
X301220142Y-207891095D01*
X300743952Y-209033952D02*
X300696333Y-208938714D01*
X300648714Y-208891095D01*
X300553476Y-208843476D01*
X300505857Y-208843476D01*
X300410619Y-208891095D01*
X300363000Y-208938714D01*
X300315380Y-209033952D01*
X300315380Y-209224428D01*
X300363000Y-209319666D01*
X300410619Y-209367285D01*
X300505857Y-209414904D01*
X300553476Y-209414904D01*
X300648714Y-209367285D01*
X300696333Y-209319666D01*
X300743952Y-209224428D01*
X300743952Y-209033952D01*
X300791571Y-208938714D01*
X300839190Y-208891095D01*
X300934428Y-208843476D01*
X301124904Y-208843476D01*
X301220142Y-208891095D01*
X301267761Y-208938714D01*
X301315380Y-209033952D01*
X301315380Y-209224428D01*
X301267761Y-209319666D01*
X301220142Y-209367285D01*
X301124904Y-209414904D01*
X300934428Y-209414904D01*
X300839190Y-209367285D01*
X300791571Y-209319666D01*
X300743952Y-209224428D01*
%TO.C,D21*%
X177617380Y-187761714D02*
X176617380Y-187761714D01*
X176617380Y-187999809D01*
X176665000Y-188142666D01*
X176760238Y-188237904D01*
X176855476Y-188285523D01*
X177045952Y-188333142D01*
X177188809Y-188333142D01*
X177379285Y-188285523D01*
X177474523Y-188237904D01*
X177569761Y-188142666D01*
X177617380Y-187999809D01*
X177617380Y-187761714D01*
X176712619Y-188714095D02*
X176665000Y-188761714D01*
X176617380Y-188856952D01*
X176617380Y-189095047D01*
X176665000Y-189190285D01*
X176712619Y-189237904D01*
X176807857Y-189285523D01*
X176903095Y-189285523D01*
X177045952Y-189237904D01*
X177617380Y-188666476D01*
X177617380Y-189285523D01*
X177617380Y-190237904D02*
X177617380Y-189666476D01*
X177617380Y-189952190D02*
X176617380Y-189952190D01*
X176760238Y-189856952D01*
X176855476Y-189761714D01*
X176903095Y-189666476D01*
%TO.C,D47*%
X303728380Y-225988714D02*
X302728380Y-225988714D01*
X302728380Y-226226809D01*
X302776000Y-226369666D01*
X302871238Y-226464904D01*
X302966476Y-226512523D01*
X303156952Y-226560142D01*
X303299809Y-226560142D01*
X303490285Y-226512523D01*
X303585523Y-226464904D01*
X303680761Y-226369666D01*
X303728380Y-226226809D01*
X303728380Y-225988714D01*
X303061714Y-227417285D02*
X303728380Y-227417285D01*
X302680761Y-227179190D02*
X303395047Y-226941095D01*
X303395047Y-227560142D01*
X302728380Y-227845857D02*
X302728380Y-228512523D01*
X303728380Y-228083952D01*
%TO.C,D52*%
X325191380Y-168838714D02*
X324191380Y-168838714D01*
X324191380Y-169076809D01*
X324239000Y-169219666D01*
X324334238Y-169314904D01*
X324429476Y-169362523D01*
X324619952Y-169410142D01*
X324762809Y-169410142D01*
X324953285Y-169362523D01*
X325048523Y-169314904D01*
X325143761Y-169219666D01*
X325191380Y-169076809D01*
X325191380Y-168838714D01*
X324191380Y-170314904D02*
X324191380Y-169838714D01*
X324667571Y-169791095D01*
X324619952Y-169838714D01*
X324572333Y-169933952D01*
X324572333Y-170172047D01*
X324619952Y-170267285D01*
X324667571Y-170314904D01*
X324762809Y-170362523D01*
X325000904Y-170362523D01*
X325096142Y-170314904D01*
X325143761Y-170267285D01*
X325191380Y-170172047D01*
X325191380Y-169933952D01*
X325143761Y-169838714D01*
X325096142Y-169791095D01*
X324286619Y-170743476D02*
X324239000Y-170791095D01*
X324191380Y-170886333D01*
X324191380Y-171124428D01*
X324239000Y-171219666D01*
X324286619Y-171267285D01*
X324381857Y-171314904D01*
X324477095Y-171314904D01*
X324619952Y-171267285D01*
X325191380Y-170695857D01*
X325191380Y-171314904D01*
%TO.C,D26*%
X129865380Y-206938714D02*
X128865380Y-206938714D01*
X128865380Y-207176809D01*
X128913000Y-207319666D01*
X129008238Y-207414904D01*
X129103476Y-207462523D01*
X129293952Y-207510142D01*
X129436809Y-207510142D01*
X129627285Y-207462523D01*
X129722523Y-207414904D01*
X129817761Y-207319666D01*
X129865380Y-207176809D01*
X129865380Y-206938714D01*
X128960619Y-207891095D02*
X128913000Y-207938714D01*
X128865380Y-208033952D01*
X128865380Y-208272047D01*
X128913000Y-208367285D01*
X128960619Y-208414904D01*
X129055857Y-208462523D01*
X129151095Y-208462523D01*
X129293952Y-208414904D01*
X129865380Y-207843476D01*
X129865380Y-208462523D01*
X128865380Y-209319666D02*
X128865380Y-209129190D01*
X128913000Y-209033952D01*
X128960619Y-208986333D01*
X129103476Y-208891095D01*
X129293952Y-208843476D01*
X129674904Y-208843476D01*
X129770142Y-208891095D01*
X129817761Y-208938714D01*
X129865380Y-209033952D01*
X129865380Y-209224428D01*
X129817761Y-209319666D01*
X129770142Y-209367285D01*
X129674904Y-209414904D01*
X129436809Y-209414904D01*
X129341571Y-209367285D01*
X129293952Y-209319666D01*
X129246333Y-209224428D01*
X129246333Y-209033952D01*
X129293952Y-208938714D01*
X129341571Y-208891095D01*
X129436809Y-208843476D01*
%TO.C,D8*%
X220162380Y-150264904D02*
X219162380Y-150264904D01*
X219162380Y-150503000D01*
X219210000Y-150645857D01*
X219305238Y-150741095D01*
X219400476Y-150788714D01*
X219590952Y-150836333D01*
X219733809Y-150836333D01*
X219924285Y-150788714D01*
X220019523Y-150741095D01*
X220114761Y-150645857D01*
X220162380Y-150503000D01*
X220162380Y-150264904D01*
X219590952Y-151407761D02*
X219543333Y-151312523D01*
X219495714Y-151264904D01*
X219400476Y-151217285D01*
X219352857Y-151217285D01*
X219257619Y-151264904D01*
X219210000Y-151312523D01*
X219162380Y-151407761D01*
X219162380Y-151598238D01*
X219210000Y-151693476D01*
X219257619Y-151741095D01*
X219352857Y-151788714D01*
X219400476Y-151788714D01*
X219495714Y-151741095D01*
X219543333Y-151693476D01*
X219590952Y-151598238D01*
X219590952Y-151407761D01*
X219638571Y-151312523D01*
X219686190Y-151264904D01*
X219781428Y-151217285D01*
X219971904Y-151217285D01*
X220067142Y-151264904D01*
X220114761Y-151312523D01*
X220162380Y-151407761D01*
X220162380Y-151598238D01*
X220114761Y-151693476D01*
X220067142Y-151741095D01*
X219971904Y-151788714D01*
X219781428Y-151788714D01*
X219686190Y-151741095D01*
X219638571Y-151693476D01*
X219590952Y-151598238D01*
%TO.C,D24*%
X234767380Y-187761714D02*
X233767380Y-187761714D01*
X233767380Y-187999809D01*
X233815000Y-188142666D01*
X233910238Y-188237904D01*
X234005476Y-188285523D01*
X234195952Y-188333142D01*
X234338809Y-188333142D01*
X234529285Y-188285523D01*
X234624523Y-188237904D01*
X234719761Y-188142666D01*
X234767380Y-187999809D01*
X234767380Y-187761714D01*
X233862619Y-188714095D02*
X233815000Y-188761714D01*
X233767380Y-188856952D01*
X233767380Y-189095047D01*
X233815000Y-189190285D01*
X233862619Y-189237904D01*
X233957857Y-189285523D01*
X234053095Y-189285523D01*
X234195952Y-189237904D01*
X234767380Y-188666476D01*
X234767380Y-189285523D01*
X234100714Y-190142666D02*
X234767380Y-190142666D01*
X233719761Y-189904571D02*
X234434047Y-189666476D01*
X234434047Y-190285523D01*
%TO.C,D5*%
X163393380Y-150264904D02*
X162393380Y-150264904D01*
X162393380Y-150503000D01*
X162441000Y-150645857D01*
X162536238Y-150741095D01*
X162631476Y-150788714D01*
X162821952Y-150836333D01*
X162964809Y-150836333D01*
X163155285Y-150788714D01*
X163250523Y-150741095D01*
X163345761Y-150645857D01*
X163393380Y-150503000D01*
X163393380Y-150264904D01*
X162393380Y-151741095D02*
X162393380Y-151264904D01*
X162869571Y-151217285D01*
X162821952Y-151264904D01*
X162774333Y-151360142D01*
X162774333Y-151598238D01*
X162821952Y-151693476D01*
X162869571Y-151741095D01*
X162964809Y-151788714D01*
X163202904Y-151788714D01*
X163298142Y-151741095D01*
X163345761Y-151693476D01*
X163393380Y-151598238D01*
X163393380Y-151360142D01*
X163345761Y-151264904D01*
X163298142Y-151217285D01*
%TO.C,D55*%
X268041380Y-168838714D02*
X267041380Y-168838714D01*
X267041380Y-169076809D01*
X267089000Y-169219666D01*
X267184238Y-169314904D01*
X267279476Y-169362523D01*
X267469952Y-169410142D01*
X267612809Y-169410142D01*
X267803285Y-169362523D01*
X267898523Y-169314904D01*
X267993761Y-169219666D01*
X268041380Y-169076809D01*
X268041380Y-168838714D01*
X267041380Y-170314904D02*
X267041380Y-169838714D01*
X267517571Y-169791095D01*
X267469952Y-169838714D01*
X267422333Y-169933952D01*
X267422333Y-170172047D01*
X267469952Y-170267285D01*
X267517571Y-170314904D01*
X267612809Y-170362523D01*
X267850904Y-170362523D01*
X267946142Y-170314904D01*
X267993761Y-170267285D01*
X268041380Y-170172047D01*
X268041380Y-169933952D01*
X267993761Y-169838714D01*
X267946142Y-169791095D01*
X267041380Y-171267285D02*
X267041380Y-170791095D01*
X267517571Y-170743476D01*
X267469952Y-170791095D01*
X267422333Y-170886333D01*
X267422333Y-171124428D01*
X267469952Y-171219666D01*
X267517571Y-171267285D01*
X267612809Y-171314904D01*
X267850904Y-171314904D01*
X267946142Y-171267285D01*
X267993761Y-171219666D01*
X268041380Y-171124428D01*
X268041380Y-170886333D01*
X267993761Y-170791095D01*
X267946142Y-170743476D01*
%TO.C,D12*%
X153741380Y-168711714D02*
X152741380Y-168711714D01*
X152741380Y-168949809D01*
X152789000Y-169092666D01*
X152884238Y-169187904D01*
X152979476Y-169235523D01*
X153169952Y-169283142D01*
X153312809Y-169283142D01*
X153503285Y-169235523D01*
X153598523Y-169187904D01*
X153693761Y-169092666D01*
X153741380Y-168949809D01*
X153741380Y-168711714D01*
X153741380Y-170235523D02*
X153741380Y-169664095D01*
X153741380Y-169949809D02*
X152741380Y-169949809D01*
X152884238Y-169854571D01*
X152979476Y-169759333D01*
X153027095Y-169664095D01*
X152836619Y-170616476D02*
X152789000Y-170664095D01*
X152741380Y-170759333D01*
X152741380Y-170997428D01*
X152789000Y-171092666D01*
X152836619Y-171140285D01*
X152931857Y-171187904D01*
X153027095Y-171187904D01*
X153169952Y-171140285D01*
X153741380Y-170568857D01*
X153741380Y-171187904D01*
%TO.C,D29*%
X187015380Y-206811714D02*
X186015380Y-206811714D01*
X186015380Y-207049809D01*
X186063000Y-207192666D01*
X186158238Y-207287904D01*
X186253476Y-207335523D01*
X186443952Y-207383142D01*
X186586809Y-207383142D01*
X186777285Y-207335523D01*
X186872523Y-207287904D01*
X186967761Y-207192666D01*
X187015380Y-207049809D01*
X187015380Y-206811714D01*
X186110619Y-207764095D02*
X186063000Y-207811714D01*
X186015380Y-207906952D01*
X186015380Y-208145047D01*
X186063000Y-208240285D01*
X186110619Y-208287904D01*
X186205857Y-208335523D01*
X186301095Y-208335523D01*
X186443952Y-208287904D01*
X187015380Y-207716476D01*
X187015380Y-208335523D01*
X187015380Y-208811714D02*
X187015380Y-209002190D01*
X186967761Y-209097428D01*
X186920142Y-209145047D01*
X186777285Y-209240285D01*
X186586809Y-209287904D01*
X186205857Y-209287904D01*
X186110619Y-209240285D01*
X186063000Y-209192666D01*
X186015380Y-209097428D01*
X186015380Y-208906952D01*
X186063000Y-208811714D01*
X186110619Y-208764095D01*
X186205857Y-208716476D01*
X186443952Y-208716476D01*
X186539190Y-208764095D01*
X186586809Y-208811714D01*
X186634428Y-208906952D01*
X186634428Y-209097428D01*
X186586809Y-209192666D01*
X186539190Y-209240285D01*
X186443952Y-209287904D01*
%TO.C,D20*%
X158440380Y-187761714D02*
X157440380Y-187761714D01*
X157440380Y-187999809D01*
X157488000Y-188142666D01*
X157583238Y-188237904D01*
X157678476Y-188285523D01*
X157868952Y-188333142D01*
X158011809Y-188333142D01*
X158202285Y-188285523D01*
X158297523Y-188237904D01*
X158392761Y-188142666D01*
X158440380Y-187999809D01*
X158440380Y-187761714D01*
X157535619Y-188714095D02*
X157488000Y-188761714D01*
X157440380Y-188856952D01*
X157440380Y-189095047D01*
X157488000Y-189190285D01*
X157535619Y-189237904D01*
X157630857Y-189285523D01*
X157726095Y-189285523D01*
X157868952Y-189237904D01*
X158440380Y-188666476D01*
X158440380Y-189285523D01*
X157440380Y-189904571D02*
X157440380Y-189999809D01*
X157488000Y-190095047D01*
X157535619Y-190142666D01*
X157630857Y-190190285D01*
X157821333Y-190237904D01*
X158059428Y-190237904D01*
X158249904Y-190190285D01*
X158345142Y-190142666D01*
X158392761Y-190095047D01*
X158440380Y-189999809D01*
X158440380Y-189904571D01*
X158392761Y-189809333D01*
X158345142Y-189761714D01*
X158249904Y-189714095D01*
X158059428Y-189666476D01*
X157821333Y-189666476D01*
X157630857Y-189714095D01*
X157535619Y-189761714D01*
X157488000Y-189809333D01*
X157440380Y-189904571D01*
%TO.C,D27*%
X149042380Y-206938714D02*
X148042380Y-206938714D01*
X148042380Y-207176809D01*
X148090000Y-207319666D01*
X148185238Y-207414904D01*
X148280476Y-207462523D01*
X148470952Y-207510142D01*
X148613809Y-207510142D01*
X148804285Y-207462523D01*
X148899523Y-207414904D01*
X148994761Y-207319666D01*
X149042380Y-207176809D01*
X149042380Y-206938714D01*
X148137619Y-207891095D02*
X148090000Y-207938714D01*
X148042380Y-208033952D01*
X148042380Y-208272047D01*
X148090000Y-208367285D01*
X148137619Y-208414904D01*
X148232857Y-208462523D01*
X148328095Y-208462523D01*
X148470952Y-208414904D01*
X149042380Y-207843476D01*
X149042380Y-208462523D01*
X148042380Y-208795857D02*
X148042380Y-209462523D01*
X149042380Y-209033952D01*
%TO.C,D16*%
X230068380Y-168711714D02*
X229068380Y-168711714D01*
X229068380Y-168949809D01*
X229116000Y-169092666D01*
X229211238Y-169187904D01*
X229306476Y-169235523D01*
X229496952Y-169283142D01*
X229639809Y-169283142D01*
X229830285Y-169235523D01*
X229925523Y-169187904D01*
X230020761Y-169092666D01*
X230068380Y-168949809D01*
X230068380Y-168711714D01*
X230068380Y-170235523D02*
X230068380Y-169664095D01*
X230068380Y-169949809D02*
X229068380Y-169949809D01*
X229211238Y-169854571D01*
X229306476Y-169759333D01*
X229354095Y-169664095D01*
X229068380Y-171092666D02*
X229068380Y-170902190D01*
X229116000Y-170806952D01*
X229163619Y-170759333D01*
X229306476Y-170664095D01*
X229496952Y-170616476D01*
X229877904Y-170616476D01*
X229973142Y-170664095D01*
X230020761Y-170711714D01*
X230068380Y-170806952D01*
X230068380Y-170997428D01*
X230020761Y-171092666D01*
X229973142Y-171140285D01*
X229877904Y-171187904D01*
X229639809Y-171187904D01*
X229544571Y-171140285D01*
X229496952Y-171092666D01*
X229449333Y-170997428D01*
X229449333Y-170806952D01*
X229496952Y-170711714D01*
X229544571Y-170664095D01*
X229639809Y-170616476D01*
%TO.C,D42*%
X113228380Y-225861714D02*
X112228380Y-225861714D01*
X112228380Y-226099809D01*
X112276000Y-226242666D01*
X112371238Y-226337904D01*
X112466476Y-226385523D01*
X112656952Y-226433142D01*
X112799809Y-226433142D01*
X112990285Y-226385523D01*
X113085523Y-226337904D01*
X113180761Y-226242666D01*
X113228380Y-226099809D01*
X113228380Y-225861714D01*
X112561714Y-227290285D02*
X113228380Y-227290285D01*
X112180761Y-227052190D02*
X112895047Y-226814095D01*
X112895047Y-227433142D01*
X112323619Y-227766476D02*
X112276000Y-227814095D01*
X112228380Y-227909333D01*
X112228380Y-228147428D01*
X112276000Y-228242666D01*
X112323619Y-228290285D01*
X112418857Y-228337904D01*
X112514095Y-228337904D01*
X112656952Y-228290285D01*
X113228380Y-227718857D01*
X113228380Y-228337904D01*
%TO.C,D39*%
X258643380Y-149661714D02*
X257643380Y-149661714D01*
X257643380Y-149899809D01*
X257691000Y-150042666D01*
X257786238Y-150137904D01*
X257881476Y-150185523D01*
X258071952Y-150233142D01*
X258214809Y-150233142D01*
X258405285Y-150185523D01*
X258500523Y-150137904D01*
X258595761Y-150042666D01*
X258643380Y-149899809D01*
X258643380Y-149661714D01*
X257643380Y-150566476D02*
X257643380Y-151185523D01*
X258024333Y-150852190D01*
X258024333Y-150995047D01*
X258071952Y-151090285D01*
X258119571Y-151137904D01*
X258214809Y-151185523D01*
X258452904Y-151185523D01*
X258548142Y-151137904D01*
X258595761Y-151090285D01*
X258643380Y-150995047D01*
X258643380Y-150709333D01*
X258595761Y-150614095D01*
X258548142Y-150566476D01*
X258643380Y-151661714D02*
X258643380Y-151852190D01*
X258595761Y-151947428D01*
X258548142Y-151995047D01*
X258405285Y-152090285D01*
X258214809Y-152137904D01*
X257833857Y-152137904D01*
X257738619Y-152090285D01*
X257691000Y-152042666D01*
X257643380Y-151947428D01*
X257643380Y-151756952D01*
X257691000Y-151661714D01*
X257738619Y-151614095D01*
X257833857Y-151566476D01*
X258071952Y-151566476D01*
X258167190Y-151614095D01*
X258214809Y-151661714D01*
X258262428Y-151756952D01*
X258262428Y-151947428D01*
X258214809Y-152042666D01*
X258167190Y-152090285D01*
X258071952Y-152137904D01*
%TO.C,D35*%
X344495380Y-149661714D02*
X343495380Y-149661714D01*
X343495380Y-149899809D01*
X343543000Y-150042666D01*
X343638238Y-150137904D01*
X343733476Y-150185523D01*
X343923952Y-150233142D01*
X344066809Y-150233142D01*
X344257285Y-150185523D01*
X344352523Y-150137904D01*
X344447761Y-150042666D01*
X344495380Y-149899809D01*
X344495380Y-149661714D01*
X343495380Y-150566476D02*
X343495380Y-151185523D01*
X343876333Y-150852190D01*
X343876333Y-150995047D01*
X343923952Y-151090285D01*
X343971571Y-151137904D01*
X344066809Y-151185523D01*
X344304904Y-151185523D01*
X344400142Y-151137904D01*
X344447761Y-151090285D01*
X344495380Y-150995047D01*
X344495380Y-150709333D01*
X344447761Y-150614095D01*
X344400142Y-150566476D01*
X343495380Y-152090285D02*
X343495380Y-151614095D01*
X343971571Y-151566476D01*
X343923952Y-151614095D01*
X343876333Y-151709333D01*
X343876333Y-151947428D01*
X343923952Y-152042666D01*
X343971571Y-152090285D01*
X344066809Y-152137904D01*
X344304904Y-152137904D01*
X344400142Y-152090285D01*
X344447761Y-152042666D01*
X344495380Y-151947428D01*
X344495380Y-151709333D01*
X344447761Y-151614095D01*
X344400142Y-151566476D01*
%TO.C,D30*%
X206192380Y-206938714D02*
X205192380Y-206938714D01*
X205192380Y-207176809D01*
X205240000Y-207319666D01*
X205335238Y-207414904D01*
X205430476Y-207462523D01*
X205620952Y-207510142D01*
X205763809Y-207510142D01*
X205954285Y-207462523D01*
X206049523Y-207414904D01*
X206144761Y-207319666D01*
X206192380Y-207176809D01*
X206192380Y-206938714D01*
X205192380Y-207843476D02*
X205192380Y-208462523D01*
X205573333Y-208129190D01*
X205573333Y-208272047D01*
X205620952Y-208367285D01*
X205668571Y-208414904D01*
X205763809Y-208462523D01*
X206001904Y-208462523D01*
X206097142Y-208414904D01*
X206144761Y-208367285D01*
X206192380Y-208272047D01*
X206192380Y-207986333D01*
X206144761Y-207891095D01*
X206097142Y-207843476D01*
X205192380Y-209081571D02*
X205192380Y-209176809D01*
X205240000Y-209272047D01*
X205287619Y-209319666D01*
X205382857Y-209367285D01*
X205573333Y-209414904D01*
X205811428Y-209414904D01*
X206001904Y-209367285D01*
X206097142Y-209319666D01*
X206144761Y-209272047D01*
X206192380Y-209176809D01*
X206192380Y-209081571D01*
X206144761Y-208986333D01*
X206097142Y-208938714D01*
X206001904Y-208891095D01*
X205811428Y-208843476D01*
X205573333Y-208843476D01*
X205382857Y-208891095D01*
X205287619Y-208938714D01*
X205240000Y-208986333D01*
X205192380Y-209081571D01*
%TO.C,D54*%
X286964380Y-168838714D02*
X285964380Y-168838714D01*
X285964380Y-169076809D01*
X286012000Y-169219666D01*
X286107238Y-169314904D01*
X286202476Y-169362523D01*
X286392952Y-169410142D01*
X286535809Y-169410142D01*
X286726285Y-169362523D01*
X286821523Y-169314904D01*
X286916761Y-169219666D01*
X286964380Y-169076809D01*
X286964380Y-168838714D01*
X285964380Y-170314904D02*
X285964380Y-169838714D01*
X286440571Y-169791095D01*
X286392952Y-169838714D01*
X286345333Y-169933952D01*
X286345333Y-170172047D01*
X286392952Y-170267285D01*
X286440571Y-170314904D01*
X286535809Y-170362523D01*
X286773904Y-170362523D01*
X286869142Y-170314904D01*
X286916761Y-170267285D01*
X286964380Y-170172047D01*
X286964380Y-169933952D01*
X286916761Y-169838714D01*
X286869142Y-169791095D01*
X286297714Y-171219666D02*
X286964380Y-171219666D01*
X285916761Y-170981571D02*
X286631047Y-170743476D01*
X286631047Y-171362523D01*
%TO.C,D63*%
X272740380Y-187888714D02*
X271740380Y-187888714D01*
X271740380Y-188126809D01*
X271788000Y-188269666D01*
X271883238Y-188364904D01*
X271978476Y-188412523D01*
X272168952Y-188460142D01*
X272311809Y-188460142D01*
X272502285Y-188412523D01*
X272597523Y-188364904D01*
X272692761Y-188269666D01*
X272740380Y-188126809D01*
X272740380Y-187888714D01*
X271740380Y-189317285D02*
X271740380Y-189126809D01*
X271788000Y-189031571D01*
X271835619Y-188983952D01*
X271978476Y-188888714D01*
X272168952Y-188841095D01*
X272549904Y-188841095D01*
X272645142Y-188888714D01*
X272692761Y-188936333D01*
X272740380Y-189031571D01*
X272740380Y-189222047D01*
X272692761Y-189317285D01*
X272645142Y-189364904D01*
X272549904Y-189412523D01*
X272311809Y-189412523D01*
X272216571Y-189364904D01*
X272168952Y-189317285D01*
X272121333Y-189222047D01*
X272121333Y-189031571D01*
X272168952Y-188936333D01*
X272216571Y-188888714D01*
X272311809Y-188841095D01*
X271740380Y-189745857D02*
X271740380Y-190364904D01*
X272121333Y-190031571D01*
X272121333Y-190174428D01*
X272168952Y-190269666D01*
X272216571Y-190317285D01*
X272311809Y-190364904D01*
X272549904Y-190364904D01*
X272645142Y-190317285D01*
X272692761Y-190269666D01*
X272740380Y-190174428D01*
X272740380Y-189888714D01*
X272692761Y-189793476D01*
X272645142Y-189745857D01*
%TO.C,D25*%
X99004380Y-206811714D02*
X98004380Y-206811714D01*
X98004380Y-207049809D01*
X98052000Y-207192666D01*
X98147238Y-207287904D01*
X98242476Y-207335523D01*
X98432952Y-207383142D01*
X98575809Y-207383142D01*
X98766285Y-207335523D01*
X98861523Y-207287904D01*
X98956761Y-207192666D01*
X99004380Y-207049809D01*
X99004380Y-206811714D01*
X98099619Y-207764095D02*
X98052000Y-207811714D01*
X98004380Y-207906952D01*
X98004380Y-208145047D01*
X98052000Y-208240285D01*
X98099619Y-208287904D01*
X98194857Y-208335523D01*
X98290095Y-208335523D01*
X98432952Y-208287904D01*
X99004380Y-207716476D01*
X99004380Y-208335523D01*
X98004380Y-209240285D02*
X98004380Y-208764095D01*
X98480571Y-208716476D01*
X98432952Y-208764095D01*
X98385333Y-208859333D01*
X98385333Y-209097428D01*
X98432952Y-209192666D01*
X98480571Y-209240285D01*
X98575809Y-209287904D01*
X98813904Y-209287904D01*
X98909142Y-209240285D01*
X98956761Y-209192666D01*
X99004380Y-209097428D01*
X99004380Y-208859333D01*
X98956761Y-208764095D01*
X98909142Y-208716476D01*
%TO.C,D62*%
X291790380Y-187888714D02*
X290790380Y-187888714D01*
X290790380Y-188126809D01*
X290838000Y-188269666D01*
X290933238Y-188364904D01*
X291028476Y-188412523D01*
X291218952Y-188460142D01*
X291361809Y-188460142D01*
X291552285Y-188412523D01*
X291647523Y-188364904D01*
X291742761Y-188269666D01*
X291790380Y-188126809D01*
X291790380Y-187888714D01*
X290790380Y-189317285D02*
X290790380Y-189126809D01*
X290838000Y-189031571D01*
X290885619Y-188983952D01*
X291028476Y-188888714D01*
X291218952Y-188841095D01*
X291599904Y-188841095D01*
X291695142Y-188888714D01*
X291742761Y-188936333D01*
X291790380Y-189031571D01*
X291790380Y-189222047D01*
X291742761Y-189317285D01*
X291695142Y-189364904D01*
X291599904Y-189412523D01*
X291361809Y-189412523D01*
X291266571Y-189364904D01*
X291218952Y-189317285D01*
X291171333Y-189222047D01*
X291171333Y-189031571D01*
X291218952Y-188936333D01*
X291266571Y-188888714D01*
X291361809Y-188841095D01*
X290885619Y-189793476D02*
X290838000Y-189841095D01*
X290790380Y-189936333D01*
X290790380Y-190174428D01*
X290838000Y-190269666D01*
X290885619Y-190317285D01*
X290980857Y-190364904D01*
X291076095Y-190364904D01*
X291218952Y-190317285D01*
X291790380Y-189745857D01*
X291790380Y-190364904D01*
%TO.C,D15*%
X211018380Y-168838714D02*
X210018380Y-168838714D01*
X210018380Y-169076809D01*
X210066000Y-169219666D01*
X210161238Y-169314904D01*
X210256476Y-169362523D01*
X210446952Y-169410142D01*
X210589809Y-169410142D01*
X210780285Y-169362523D01*
X210875523Y-169314904D01*
X210970761Y-169219666D01*
X211018380Y-169076809D01*
X211018380Y-168838714D01*
X211018380Y-170362523D02*
X211018380Y-169791095D01*
X211018380Y-170076809D02*
X210018380Y-170076809D01*
X210161238Y-169981571D01*
X210256476Y-169886333D01*
X210304095Y-169791095D01*
X210018380Y-171267285D02*
X210018380Y-170791095D01*
X210494571Y-170743476D01*
X210446952Y-170791095D01*
X210399333Y-170886333D01*
X210399333Y-171124428D01*
X210446952Y-171219666D01*
X210494571Y-171267285D01*
X210589809Y-171314904D01*
X210827904Y-171314904D01*
X210923142Y-171267285D01*
X210970761Y-171219666D01*
X211018380Y-171124428D01*
X211018380Y-170886333D01*
X210970761Y-170791095D01*
X210923142Y-170743476D01*
%TO.C,D59*%
X341828380Y-187888714D02*
X340828380Y-187888714D01*
X340828380Y-188126809D01*
X340876000Y-188269666D01*
X340971238Y-188364904D01*
X341066476Y-188412523D01*
X341256952Y-188460142D01*
X341399809Y-188460142D01*
X341590285Y-188412523D01*
X341685523Y-188364904D01*
X341780761Y-188269666D01*
X341828380Y-188126809D01*
X341828380Y-187888714D01*
X340828380Y-189364904D02*
X340828380Y-188888714D01*
X341304571Y-188841095D01*
X341256952Y-188888714D01*
X341209333Y-188983952D01*
X341209333Y-189222047D01*
X341256952Y-189317285D01*
X341304571Y-189364904D01*
X341399809Y-189412523D01*
X341637904Y-189412523D01*
X341733142Y-189364904D01*
X341780761Y-189317285D01*
X341828380Y-189222047D01*
X341828380Y-188983952D01*
X341780761Y-188888714D01*
X341733142Y-188841095D01*
X341828380Y-189888714D02*
X341828380Y-190079190D01*
X341780761Y-190174428D01*
X341733142Y-190222047D01*
X341590285Y-190317285D01*
X341399809Y-190364904D01*
X341018857Y-190364904D01*
X340923619Y-190317285D01*
X340876000Y-190269666D01*
X340828380Y-190174428D01*
X340828380Y-189983952D01*
X340876000Y-189888714D01*
X340923619Y-189841095D01*
X341018857Y-189793476D01*
X341256952Y-189793476D01*
X341352190Y-189841095D01*
X341399809Y-189888714D01*
X341447428Y-189983952D01*
X341447428Y-190174428D01*
X341399809Y-190269666D01*
X341352190Y-190317285D01*
X341256952Y-190364904D01*
%TO.C,D13*%
X172791380Y-168711714D02*
X171791380Y-168711714D01*
X171791380Y-168949809D01*
X171839000Y-169092666D01*
X171934238Y-169187904D01*
X172029476Y-169235523D01*
X172219952Y-169283142D01*
X172362809Y-169283142D01*
X172553285Y-169235523D01*
X172648523Y-169187904D01*
X172743761Y-169092666D01*
X172791380Y-168949809D01*
X172791380Y-168711714D01*
X172791380Y-170235523D02*
X172791380Y-169664095D01*
X172791380Y-169949809D02*
X171791380Y-169949809D01*
X171934238Y-169854571D01*
X172029476Y-169759333D01*
X172077095Y-169664095D01*
X171791380Y-170568857D02*
X171791380Y-171187904D01*
X172172333Y-170854571D01*
X172172333Y-170997428D01*
X172219952Y-171092666D01*
X172267571Y-171140285D01*
X172362809Y-171187904D01*
X172600904Y-171187904D01*
X172696142Y-171140285D01*
X172743761Y-171092666D01*
X172791380Y-170997428D01*
X172791380Y-170711714D01*
X172743761Y-170616476D01*
X172696142Y-170568857D01*
%TO.C,D23*%
X215717380Y-187761714D02*
X214717380Y-187761714D01*
X214717380Y-187999809D01*
X214765000Y-188142666D01*
X214860238Y-188237904D01*
X214955476Y-188285523D01*
X215145952Y-188333142D01*
X215288809Y-188333142D01*
X215479285Y-188285523D01*
X215574523Y-188237904D01*
X215669761Y-188142666D01*
X215717380Y-187999809D01*
X215717380Y-187761714D01*
X214812619Y-188714095D02*
X214765000Y-188761714D01*
X214717380Y-188856952D01*
X214717380Y-189095047D01*
X214765000Y-189190285D01*
X214812619Y-189237904D01*
X214907857Y-189285523D01*
X215003095Y-189285523D01*
X215145952Y-189237904D01*
X215717380Y-188666476D01*
X215717380Y-189285523D01*
X214717380Y-189618857D02*
X214717380Y-190237904D01*
X215098333Y-189904571D01*
X215098333Y-190047428D01*
X215145952Y-190142666D01*
X215193571Y-190190285D01*
X215288809Y-190237904D01*
X215526904Y-190237904D01*
X215622142Y-190190285D01*
X215669761Y-190142666D01*
X215717380Y-190047428D01*
X215717380Y-189761714D01*
X215669761Y-189666476D01*
X215622142Y-189618857D01*
%TO.C,D2*%
X105481380Y-150137904D02*
X104481380Y-150137904D01*
X104481380Y-150376000D01*
X104529000Y-150518857D01*
X104624238Y-150614095D01*
X104719476Y-150661714D01*
X104909952Y-150709333D01*
X105052809Y-150709333D01*
X105243285Y-150661714D01*
X105338523Y-150614095D01*
X105433761Y-150518857D01*
X105481380Y-150376000D01*
X105481380Y-150137904D01*
X104576619Y-151090285D02*
X104529000Y-151137904D01*
X104481380Y-151233142D01*
X104481380Y-151471238D01*
X104529000Y-151566476D01*
X104576619Y-151614095D01*
X104671857Y-151661714D01*
X104767095Y-151661714D01*
X104909952Y-151614095D01*
X105481380Y-151042666D01*
X105481380Y-151661714D01*
%TO.C,D31*%
X225115380Y-206811714D02*
X224115380Y-206811714D01*
X224115380Y-207049809D01*
X224163000Y-207192666D01*
X224258238Y-207287904D01*
X224353476Y-207335523D01*
X224543952Y-207383142D01*
X224686809Y-207383142D01*
X224877285Y-207335523D01*
X224972523Y-207287904D01*
X225067761Y-207192666D01*
X225115380Y-207049809D01*
X225115380Y-206811714D01*
X224115380Y-207716476D02*
X224115380Y-208335523D01*
X224496333Y-208002190D01*
X224496333Y-208145047D01*
X224543952Y-208240285D01*
X224591571Y-208287904D01*
X224686809Y-208335523D01*
X224924904Y-208335523D01*
X225020142Y-208287904D01*
X225067761Y-208240285D01*
X225115380Y-208145047D01*
X225115380Y-207859333D01*
X225067761Y-207764095D01*
X225020142Y-207716476D01*
X225115380Y-209287904D02*
X225115380Y-208716476D01*
X225115380Y-209002190D02*
X224115380Y-209002190D01*
X224258238Y-208906952D01*
X224353476Y-208811714D01*
X224401095Y-208716476D01*
%TO.C,J1*%
X61039333Y-147725380D02*
X61039333Y-148439666D01*
X61086952Y-148582523D01*
X61182190Y-148677761D01*
X61325047Y-148725380D01*
X61420285Y-148725380D01*
X60039333Y-148725380D02*
X60610761Y-148725380D01*
X60325047Y-148725380D02*
X60325047Y-147725380D01*
X60420285Y-147868238D01*
X60515523Y-147963476D01*
X60610761Y-148011095D01*
%TO.C,D48*%
X279852380Y-225988714D02*
X278852380Y-225988714D01*
X278852380Y-226226809D01*
X278900000Y-226369666D01*
X278995238Y-226464904D01*
X279090476Y-226512523D01*
X279280952Y-226560142D01*
X279423809Y-226560142D01*
X279614285Y-226512523D01*
X279709523Y-226464904D01*
X279804761Y-226369666D01*
X279852380Y-226226809D01*
X279852380Y-225988714D01*
X279185714Y-227417285D02*
X279852380Y-227417285D01*
X278804761Y-227179190D02*
X279519047Y-226941095D01*
X279519047Y-227560142D01*
X279280952Y-228083952D02*
X279233333Y-227988714D01*
X279185714Y-227941095D01*
X279090476Y-227893476D01*
X279042857Y-227893476D01*
X278947619Y-227941095D01*
X278900000Y-227988714D01*
X278852380Y-228083952D01*
X278852380Y-228274428D01*
X278900000Y-228369666D01*
X278947619Y-228417285D01*
X279042857Y-228464904D01*
X279090476Y-228464904D01*
X279185714Y-228417285D01*
X279233333Y-228369666D01*
X279280952Y-228274428D01*
X279280952Y-228083952D01*
X279328571Y-227988714D01*
X279376190Y-227941095D01*
X279471428Y-227893476D01*
X279661904Y-227893476D01*
X279757142Y-227941095D01*
X279804761Y-227988714D01*
X279852380Y-228083952D01*
X279852380Y-228274428D01*
X279804761Y-228369666D01*
X279757142Y-228417285D01*
X279661904Y-228464904D01*
X279471428Y-228464904D01*
X279376190Y-228417285D01*
X279328571Y-228369666D01*
X279280952Y-228274428D01*
%TO.C,D10*%
X115895380Y-168711714D02*
X114895380Y-168711714D01*
X114895380Y-168949809D01*
X114943000Y-169092666D01*
X115038238Y-169187904D01*
X115133476Y-169235523D01*
X115323952Y-169283142D01*
X115466809Y-169283142D01*
X115657285Y-169235523D01*
X115752523Y-169187904D01*
X115847761Y-169092666D01*
X115895380Y-168949809D01*
X115895380Y-168711714D01*
X115895380Y-170235523D02*
X115895380Y-169664095D01*
X115895380Y-169949809D02*
X114895380Y-169949809D01*
X115038238Y-169854571D01*
X115133476Y-169759333D01*
X115181095Y-169664095D01*
X114895380Y-170854571D02*
X114895380Y-170949809D01*
X114943000Y-171045047D01*
X114990619Y-171092666D01*
X115085857Y-171140285D01*
X115276333Y-171187904D01*
X115514428Y-171187904D01*
X115704904Y-171140285D01*
X115800142Y-171092666D01*
X115847761Y-171045047D01*
X115895380Y-170949809D01*
X115895380Y-170854571D01*
X115847761Y-170759333D01*
X115800142Y-170711714D01*
X115704904Y-170664095D01*
X115514428Y-170616476D01*
X115276333Y-170616476D01*
X115085857Y-170664095D01*
X114990619Y-170711714D01*
X114943000Y-170759333D01*
X114895380Y-170854571D01*
%TO.C,D3*%
X124404380Y-150391904D02*
X123404380Y-150391904D01*
X123404380Y-150630000D01*
X123452000Y-150772857D01*
X123547238Y-150868095D01*
X123642476Y-150915714D01*
X123832952Y-150963333D01*
X123975809Y-150963333D01*
X124166285Y-150915714D01*
X124261523Y-150868095D01*
X124356761Y-150772857D01*
X124404380Y-150630000D01*
X124404380Y-150391904D01*
X123404380Y-151296666D02*
X123404380Y-151915714D01*
X123785333Y-151582380D01*
X123785333Y-151725238D01*
X123832952Y-151820476D01*
X123880571Y-151868095D01*
X123975809Y-151915714D01*
X124213904Y-151915714D01*
X124309142Y-151868095D01*
X124356761Y-151820476D01*
X124404380Y-151725238D01*
X124404380Y-151439523D01*
X124356761Y-151344285D01*
X124309142Y-151296666D01*
%TO.C,D6*%
X182824380Y-150137904D02*
X181824380Y-150137904D01*
X181824380Y-150376000D01*
X181872000Y-150518857D01*
X181967238Y-150614095D01*
X182062476Y-150661714D01*
X182252952Y-150709333D01*
X182395809Y-150709333D01*
X182586285Y-150661714D01*
X182681523Y-150614095D01*
X182776761Y-150518857D01*
X182824380Y-150376000D01*
X182824380Y-150137904D01*
X181824380Y-151566476D02*
X181824380Y-151376000D01*
X181872000Y-151280761D01*
X181919619Y-151233142D01*
X182062476Y-151137904D01*
X182252952Y-151090285D01*
X182633904Y-151090285D01*
X182729142Y-151137904D01*
X182776761Y-151185523D01*
X182824380Y-151280761D01*
X182824380Y-151471238D01*
X182776761Y-151566476D01*
X182729142Y-151614095D01*
X182633904Y-151661714D01*
X182395809Y-151661714D01*
X182300571Y-151614095D01*
X182252952Y-151566476D01*
X182205333Y-151471238D01*
X182205333Y-151280761D01*
X182252952Y-151185523D01*
X182300571Y-151137904D01*
X182395809Y-151090285D01*
%TO.C,D45*%
X351226380Y-225988714D02*
X350226380Y-225988714D01*
X350226380Y-226226809D01*
X350274000Y-226369666D01*
X350369238Y-226464904D01*
X350464476Y-226512523D01*
X350654952Y-226560142D01*
X350797809Y-226560142D01*
X350988285Y-226512523D01*
X351083523Y-226464904D01*
X351178761Y-226369666D01*
X351226380Y-226226809D01*
X351226380Y-225988714D01*
X350559714Y-227417285D02*
X351226380Y-227417285D01*
X350178761Y-227179190D02*
X350893047Y-226941095D01*
X350893047Y-227560142D01*
X350226380Y-228417285D02*
X350226380Y-227941095D01*
X350702571Y-227893476D01*
X350654952Y-227941095D01*
X350607333Y-228036333D01*
X350607333Y-228274428D01*
X350654952Y-228369666D01*
X350702571Y-228417285D01*
X350797809Y-228464904D01*
X351035904Y-228464904D01*
X351131142Y-228417285D01*
X351178761Y-228369666D01*
X351226380Y-228274428D01*
X351226380Y-228036333D01*
X351178761Y-227941095D01*
X351131142Y-227893476D01*
%TO.C,D1*%
X86558380Y-150137904D02*
X85558380Y-150137904D01*
X85558380Y-150376000D01*
X85606000Y-150518857D01*
X85701238Y-150614095D01*
X85796476Y-150661714D01*
X85986952Y-150709333D01*
X86129809Y-150709333D01*
X86320285Y-150661714D01*
X86415523Y-150614095D01*
X86510761Y-150518857D01*
X86558380Y-150376000D01*
X86558380Y-150137904D01*
X86558380Y-151661714D02*
X86558380Y-151090285D01*
X86558380Y-151376000D02*
X85558380Y-151376000D01*
X85701238Y-151280761D01*
X85796476Y-151185523D01*
X85844095Y-151090285D01*
%TO.C,D17*%
X94305380Y-187761714D02*
X93305380Y-187761714D01*
X93305380Y-187999809D01*
X93353000Y-188142666D01*
X93448238Y-188237904D01*
X93543476Y-188285523D01*
X93733952Y-188333142D01*
X93876809Y-188333142D01*
X94067285Y-188285523D01*
X94162523Y-188237904D01*
X94257761Y-188142666D01*
X94305380Y-187999809D01*
X94305380Y-187761714D01*
X94305380Y-189285523D02*
X94305380Y-188714095D01*
X94305380Y-188999809D02*
X93305380Y-188999809D01*
X93448238Y-188904571D01*
X93543476Y-188809333D01*
X93591095Y-188714095D01*
X93305380Y-189618857D02*
X93305380Y-190285523D01*
X94305380Y-189856952D01*
%TO.C,D41*%
X89479380Y-225861714D02*
X88479380Y-225861714D01*
X88479380Y-226099809D01*
X88527000Y-226242666D01*
X88622238Y-226337904D01*
X88717476Y-226385523D01*
X88907952Y-226433142D01*
X89050809Y-226433142D01*
X89241285Y-226385523D01*
X89336523Y-226337904D01*
X89431761Y-226242666D01*
X89479380Y-226099809D01*
X89479380Y-225861714D01*
X88812714Y-227290285D02*
X89479380Y-227290285D01*
X88431761Y-227052190D02*
X89146047Y-226814095D01*
X89146047Y-227433142D01*
X89479380Y-228337904D02*
X89479380Y-227766476D01*
X89479380Y-228052190D02*
X88479380Y-228052190D01*
X88622238Y-227956952D01*
X88717476Y-227861714D01*
X88765095Y-227766476D01*
%TO.C,D18*%
X120467380Y-187888714D02*
X119467380Y-187888714D01*
X119467380Y-188126809D01*
X119515000Y-188269666D01*
X119610238Y-188364904D01*
X119705476Y-188412523D01*
X119895952Y-188460142D01*
X120038809Y-188460142D01*
X120229285Y-188412523D01*
X120324523Y-188364904D01*
X120419761Y-188269666D01*
X120467380Y-188126809D01*
X120467380Y-187888714D01*
X120467380Y-189412523D02*
X120467380Y-188841095D01*
X120467380Y-189126809D02*
X119467380Y-189126809D01*
X119610238Y-189031571D01*
X119705476Y-188936333D01*
X119753095Y-188841095D01*
X119895952Y-189983952D02*
X119848333Y-189888714D01*
X119800714Y-189841095D01*
X119705476Y-189793476D01*
X119657857Y-189793476D01*
X119562619Y-189841095D01*
X119515000Y-189888714D01*
X119467380Y-189983952D01*
X119467380Y-190174428D01*
X119515000Y-190269666D01*
X119562619Y-190317285D01*
X119657857Y-190364904D01*
X119705476Y-190364904D01*
X119800714Y-190317285D01*
X119848333Y-190269666D01*
X119895952Y-190174428D01*
X119895952Y-189983952D01*
X119943571Y-189888714D01*
X119991190Y-189841095D01*
X120086428Y-189793476D01*
X120276904Y-189793476D01*
X120372142Y-189841095D01*
X120419761Y-189888714D01*
X120467380Y-189983952D01*
X120467380Y-190174428D01*
X120419761Y-190269666D01*
X120372142Y-190317285D01*
X120276904Y-190364904D01*
X120086428Y-190364904D01*
X119991190Y-190317285D01*
X119943571Y-190269666D01*
X119895952Y-190174428D01*
%TO.C,D64*%
X253690380Y-187888714D02*
X252690380Y-187888714D01*
X252690380Y-188126809D01*
X252738000Y-188269666D01*
X252833238Y-188364904D01*
X252928476Y-188412523D01*
X253118952Y-188460142D01*
X253261809Y-188460142D01*
X253452285Y-188412523D01*
X253547523Y-188364904D01*
X253642761Y-188269666D01*
X253690380Y-188126809D01*
X253690380Y-187888714D01*
X252690380Y-189317285D02*
X252690380Y-189126809D01*
X252738000Y-189031571D01*
X252785619Y-188983952D01*
X252928476Y-188888714D01*
X253118952Y-188841095D01*
X253499904Y-188841095D01*
X253595142Y-188888714D01*
X253642761Y-188936333D01*
X253690380Y-189031571D01*
X253690380Y-189222047D01*
X253642761Y-189317285D01*
X253595142Y-189364904D01*
X253499904Y-189412523D01*
X253261809Y-189412523D01*
X253166571Y-189364904D01*
X253118952Y-189317285D01*
X253071333Y-189222047D01*
X253071333Y-189031571D01*
X253118952Y-188936333D01*
X253166571Y-188888714D01*
X253261809Y-188841095D01*
X253023714Y-190269666D02*
X253690380Y-190269666D01*
X252642761Y-190031571D02*
X253357047Y-189793476D01*
X253357047Y-190412523D01*
%TO.C,D53*%
X306014380Y-168838714D02*
X305014380Y-168838714D01*
X305014380Y-169076809D01*
X305062000Y-169219666D01*
X305157238Y-169314904D01*
X305252476Y-169362523D01*
X305442952Y-169410142D01*
X305585809Y-169410142D01*
X305776285Y-169362523D01*
X305871523Y-169314904D01*
X305966761Y-169219666D01*
X306014380Y-169076809D01*
X306014380Y-168838714D01*
X305014380Y-170314904D02*
X305014380Y-169838714D01*
X305490571Y-169791095D01*
X305442952Y-169838714D01*
X305395333Y-169933952D01*
X305395333Y-170172047D01*
X305442952Y-170267285D01*
X305490571Y-170314904D01*
X305585809Y-170362523D01*
X305823904Y-170362523D01*
X305919142Y-170314904D01*
X305966761Y-170267285D01*
X306014380Y-170172047D01*
X306014380Y-169933952D01*
X305966761Y-169838714D01*
X305919142Y-169791095D01*
X305014380Y-170695857D02*
X305014380Y-171314904D01*
X305395333Y-170981571D01*
X305395333Y-171124428D01*
X305442952Y-171219666D01*
X305490571Y-171267285D01*
X305585809Y-171314904D01*
X305823904Y-171314904D01*
X305919142Y-171267285D01*
X305966761Y-171219666D01*
X306014380Y-171124428D01*
X306014380Y-170838714D01*
X305966761Y-170743476D01*
X305919142Y-170695857D01*
%TO.C,D7*%
X201366380Y-150137904D02*
X200366380Y-150137904D01*
X200366380Y-150376000D01*
X200414000Y-150518857D01*
X200509238Y-150614095D01*
X200604476Y-150661714D01*
X200794952Y-150709333D01*
X200937809Y-150709333D01*
X201128285Y-150661714D01*
X201223523Y-150614095D01*
X201318761Y-150518857D01*
X201366380Y-150376000D01*
X201366380Y-150137904D01*
X200366380Y-151042666D02*
X200366380Y-151709333D01*
X201366380Y-151280761D01*
%TO.C,D43*%
X137104380Y-225861714D02*
X136104380Y-225861714D01*
X136104380Y-226099809D01*
X136152000Y-226242666D01*
X136247238Y-226337904D01*
X136342476Y-226385523D01*
X136532952Y-226433142D01*
X136675809Y-226433142D01*
X136866285Y-226385523D01*
X136961523Y-226337904D01*
X137056761Y-226242666D01*
X137104380Y-226099809D01*
X137104380Y-225861714D01*
X136437714Y-227290285D02*
X137104380Y-227290285D01*
X136056761Y-227052190D02*
X136771047Y-226814095D01*
X136771047Y-227433142D01*
X136104380Y-227718857D02*
X136104380Y-228337904D01*
X136485333Y-228004571D01*
X136485333Y-228147428D01*
X136532952Y-228242666D01*
X136580571Y-228290285D01*
X136675809Y-228337904D01*
X136913904Y-228337904D01*
X137009142Y-228290285D01*
X137056761Y-228242666D01*
X137104380Y-228147428D01*
X137104380Y-227861714D01*
X137056761Y-227766476D01*
X137009142Y-227718857D01*
%TO.C,D37*%
X296616380Y-149661714D02*
X295616380Y-149661714D01*
X295616380Y-149899809D01*
X295664000Y-150042666D01*
X295759238Y-150137904D01*
X295854476Y-150185523D01*
X296044952Y-150233142D01*
X296187809Y-150233142D01*
X296378285Y-150185523D01*
X296473523Y-150137904D01*
X296568761Y-150042666D01*
X296616380Y-149899809D01*
X296616380Y-149661714D01*
X295616380Y-150566476D02*
X295616380Y-151185523D01*
X295997333Y-150852190D01*
X295997333Y-150995047D01*
X296044952Y-151090285D01*
X296092571Y-151137904D01*
X296187809Y-151185523D01*
X296425904Y-151185523D01*
X296521142Y-151137904D01*
X296568761Y-151090285D01*
X296616380Y-150995047D01*
X296616380Y-150709333D01*
X296568761Y-150614095D01*
X296521142Y-150566476D01*
X295616380Y-151518857D02*
X295616380Y-152185523D01*
X296616380Y-151756952D01*
%TO.C,D11*%
X134691380Y-168711714D02*
X133691380Y-168711714D01*
X133691380Y-168949809D01*
X133739000Y-169092666D01*
X133834238Y-169187904D01*
X133929476Y-169235523D01*
X134119952Y-169283142D01*
X134262809Y-169283142D01*
X134453285Y-169235523D01*
X134548523Y-169187904D01*
X134643761Y-169092666D01*
X134691380Y-168949809D01*
X134691380Y-168711714D01*
X134691380Y-170235523D02*
X134691380Y-169664095D01*
X134691380Y-169949809D02*
X133691380Y-169949809D01*
X133834238Y-169854571D01*
X133929476Y-169759333D01*
X133977095Y-169664095D01*
X134691380Y-171187904D02*
X134691380Y-170616476D01*
X134691380Y-170902190D02*
X133691380Y-170902190D01*
X133834238Y-170806952D01*
X133929476Y-170711714D01*
X133977095Y-170616476D01*
%TO.C,D34*%
X282392380Y-206938714D02*
X281392380Y-206938714D01*
X281392380Y-207176809D01*
X281440000Y-207319666D01*
X281535238Y-207414904D01*
X281630476Y-207462523D01*
X281820952Y-207510142D01*
X281963809Y-207510142D01*
X282154285Y-207462523D01*
X282249523Y-207414904D01*
X282344761Y-207319666D01*
X282392380Y-207176809D01*
X282392380Y-206938714D01*
X281392380Y-207843476D02*
X281392380Y-208462523D01*
X281773333Y-208129190D01*
X281773333Y-208272047D01*
X281820952Y-208367285D01*
X281868571Y-208414904D01*
X281963809Y-208462523D01*
X282201904Y-208462523D01*
X282297142Y-208414904D01*
X282344761Y-208367285D01*
X282392380Y-208272047D01*
X282392380Y-207986333D01*
X282344761Y-207891095D01*
X282297142Y-207843476D01*
X281725714Y-209319666D02*
X282392380Y-209319666D01*
X281344761Y-209081571D02*
X282059047Y-208843476D01*
X282059047Y-209462523D01*
%TO.C,D19*%
X139517380Y-187761714D02*
X138517380Y-187761714D01*
X138517380Y-187999809D01*
X138565000Y-188142666D01*
X138660238Y-188237904D01*
X138755476Y-188285523D01*
X138945952Y-188333142D01*
X139088809Y-188333142D01*
X139279285Y-188285523D01*
X139374523Y-188237904D01*
X139469761Y-188142666D01*
X139517380Y-187999809D01*
X139517380Y-187761714D01*
X139517380Y-189285523D02*
X139517380Y-188714095D01*
X139517380Y-188999809D02*
X138517380Y-188999809D01*
X138660238Y-188904571D01*
X138755476Y-188809333D01*
X138803095Y-188714095D01*
X139517380Y-189761714D02*
X139517380Y-189952190D01*
X139469761Y-190047428D01*
X139422142Y-190095047D01*
X139279285Y-190190285D01*
X139088809Y-190237904D01*
X138707857Y-190237904D01*
X138612619Y-190190285D01*
X138565000Y-190142666D01*
X138517380Y-190047428D01*
X138517380Y-189856952D01*
X138565000Y-189761714D01*
X138612619Y-189714095D01*
X138707857Y-189666476D01*
X138945952Y-189666476D01*
X139041190Y-189714095D01*
X139088809Y-189761714D01*
X139136428Y-189856952D01*
X139136428Y-190047428D01*
X139088809Y-190142666D01*
X139041190Y-190190285D01*
X138945952Y-190237904D01*
%TO.C,D4*%
X143835380Y-150264904D02*
X142835380Y-150264904D01*
X142835380Y-150503000D01*
X142883000Y-150645857D01*
X142978238Y-150741095D01*
X143073476Y-150788714D01*
X143263952Y-150836333D01*
X143406809Y-150836333D01*
X143597285Y-150788714D01*
X143692523Y-150741095D01*
X143787761Y-150645857D01*
X143835380Y-150503000D01*
X143835380Y-150264904D01*
X143168714Y-151693476D02*
X143835380Y-151693476D01*
X142787761Y-151455380D02*
X143502047Y-151217285D01*
X143502047Y-151836333D01*
%TO.C,D46*%
X327350380Y-225988714D02*
X326350380Y-225988714D01*
X326350380Y-226226809D01*
X326398000Y-226369666D01*
X326493238Y-226464904D01*
X326588476Y-226512523D01*
X326778952Y-226560142D01*
X326921809Y-226560142D01*
X327112285Y-226512523D01*
X327207523Y-226464904D01*
X327302761Y-226369666D01*
X327350380Y-226226809D01*
X327350380Y-225988714D01*
X326683714Y-227417285D02*
X327350380Y-227417285D01*
X326302761Y-227179190D02*
X327017047Y-226941095D01*
X327017047Y-227560142D01*
X326350380Y-228369666D02*
X326350380Y-228179190D01*
X326398000Y-228083952D01*
X326445619Y-228036333D01*
X326588476Y-227941095D01*
X326778952Y-227893476D01*
X327159904Y-227893476D01*
X327255142Y-227941095D01*
X327302761Y-227988714D01*
X327350380Y-228083952D01*
X327350380Y-228274428D01*
X327302761Y-228369666D01*
X327255142Y-228417285D01*
X327159904Y-228464904D01*
X326921809Y-228464904D01*
X326826571Y-228417285D01*
X326778952Y-228369666D01*
X326731333Y-228274428D01*
X326731333Y-228083952D01*
X326778952Y-227988714D01*
X326826571Y-227941095D01*
X326921809Y-227893476D01*
%TO.C,D22*%
X196667380Y-187761714D02*
X195667380Y-187761714D01*
X195667380Y-187999809D01*
X195715000Y-188142666D01*
X195810238Y-188237904D01*
X195905476Y-188285523D01*
X196095952Y-188333142D01*
X196238809Y-188333142D01*
X196429285Y-188285523D01*
X196524523Y-188237904D01*
X196619761Y-188142666D01*
X196667380Y-187999809D01*
X196667380Y-187761714D01*
X195762619Y-188714095D02*
X195715000Y-188761714D01*
X195667380Y-188856952D01*
X195667380Y-189095047D01*
X195715000Y-189190285D01*
X195762619Y-189237904D01*
X195857857Y-189285523D01*
X195953095Y-189285523D01*
X196095952Y-189237904D01*
X196667380Y-188666476D01*
X196667380Y-189285523D01*
X195762619Y-189666476D02*
X195715000Y-189714095D01*
X195667380Y-189809333D01*
X195667380Y-190047428D01*
X195715000Y-190142666D01*
X195762619Y-190190285D01*
X195857857Y-190237904D01*
X195953095Y-190237904D01*
X196095952Y-190190285D01*
X196667380Y-189618857D01*
X196667380Y-190237904D01*
%TO.C,D36*%
X315666380Y-149661714D02*
X314666380Y-149661714D01*
X314666380Y-149899809D01*
X314714000Y-150042666D01*
X314809238Y-150137904D01*
X314904476Y-150185523D01*
X315094952Y-150233142D01*
X315237809Y-150233142D01*
X315428285Y-150185523D01*
X315523523Y-150137904D01*
X315618761Y-150042666D01*
X315666380Y-149899809D01*
X315666380Y-149661714D01*
X314666380Y-150566476D02*
X314666380Y-151185523D01*
X315047333Y-150852190D01*
X315047333Y-150995047D01*
X315094952Y-151090285D01*
X315142571Y-151137904D01*
X315237809Y-151185523D01*
X315475904Y-151185523D01*
X315571142Y-151137904D01*
X315618761Y-151090285D01*
X315666380Y-150995047D01*
X315666380Y-150709333D01*
X315618761Y-150614095D01*
X315571142Y-150566476D01*
X314666380Y-152042666D02*
X314666380Y-151852190D01*
X314714000Y-151756952D01*
X314761619Y-151709333D01*
X314904476Y-151614095D01*
X315094952Y-151566476D01*
X315475904Y-151566476D01*
X315571142Y-151614095D01*
X315618761Y-151661714D01*
X315666380Y-151756952D01*
X315666380Y-151947428D01*
X315618761Y-152042666D01*
X315571142Y-152090285D01*
X315475904Y-152137904D01*
X315237809Y-152137904D01*
X315142571Y-152090285D01*
X315094952Y-152042666D01*
X315047333Y-151947428D01*
X315047333Y-151756952D01*
X315094952Y-151661714D01*
X315142571Y-151614095D01*
X315237809Y-151566476D01*
%TO.C,D38*%
X277566380Y-149661714D02*
X276566380Y-149661714D01*
X276566380Y-149899809D01*
X276614000Y-150042666D01*
X276709238Y-150137904D01*
X276804476Y-150185523D01*
X276994952Y-150233142D01*
X277137809Y-150233142D01*
X277328285Y-150185523D01*
X277423523Y-150137904D01*
X277518761Y-150042666D01*
X277566380Y-149899809D01*
X277566380Y-149661714D01*
X276566380Y-150566476D02*
X276566380Y-151185523D01*
X276947333Y-150852190D01*
X276947333Y-150995047D01*
X276994952Y-151090285D01*
X277042571Y-151137904D01*
X277137809Y-151185523D01*
X277375904Y-151185523D01*
X277471142Y-151137904D01*
X277518761Y-151090285D01*
X277566380Y-150995047D01*
X277566380Y-150709333D01*
X277518761Y-150614095D01*
X277471142Y-150566476D01*
X276994952Y-151756952D02*
X276947333Y-151661714D01*
X276899714Y-151614095D01*
X276804476Y-151566476D01*
X276756857Y-151566476D01*
X276661619Y-151614095D01*
X276614000Y-151661714D01*
X276566380Y-151756952D01*
X276566380Y-151947428D01*
X276614000Y-152042666D01*
X276661619Y-152090285D01*
X276756857Y-152137904D01*
X276804476Y-152137904D01*
X276899714Y-152090285D01*
X276947333Y-152042666D01*
X276994952Y-151947428D01*
X276994952Y-151756952D01*
X277042571Y-151661714D01*
X277090190Y-151614095D01*
X277185428Y-151566476D01*
X277375904Y-151566476D01*
X277471142Y-151614095D01*
X277518761Y-151661714D01*
X277566380Y-151756952D01*
X277566380Y-151947428D01*
X277518761Y-152042666D01*
X277471142Y-152090285D01*
X277375904Y-152137904D01*
X277185428Y-152137904D01*
X277090190Y-152090285D01*
X277042571Y-152042666D01*
X276994952Y-151947428D01*
%TO.C,D40*%
X239466380Y-149661714D02*
X238466380Y-149661714D01*
X238466380Y-149899809D01*
X238514000Y-150042666D01*
X238609238Y-150137904D01*
X238704476Y-150185523D01*
X238894952Y-150233142D01*
X239037809Y-150233142D01*
X239228285Y-150185523D01*
X239323523Y-150137904D01*
X239418761Y-150042666D01*
X239466380Y-149899809D01*
X239466380Y-149661714D01*
X238799714Y-151090285D02*
X239466380Y-151090285D01*
X238418761Y-150852190D02*
X239133047Y-150614095D01*
X239133047Y-151233142D01*
X238466380Y-151804571D02*
X238466380Y-151899809D01*
X238514000Y-151995047D01*
X238561619Y-152042666D01*
X238656857Y-152090285D01*
X238847333Y-152137904D01*
X239085428Y-152137904D01*
X239275904Y-152090285D01*
X239371142Y-152042666D01*
X239418761Y-151995047D01*
X239466380Y-151899809D01*
X239466380Y-151804571D01*
X239418761Y-151709333D01*
X239371142Y-151661714D01*
X239275904Y-151614095D01*
X239085428Y-151566476D01*
X238847333Y-151566476D01*
X238656857Y-151614095D01*
X238561619Y-151661714D01*
X238514000Y-151709333D01*
X238466380Y-151804571D01*
%TO.C,D50*%
X263215380Y-206938714D02*
X262215380Y-206938714D01*
X262215380Y-207176809D01*
X262263000Y-207319666D01*
X262358238Y-207414904D01*
X262453476Y-207462523D01*
X262643952Y-207510142D01*
X262786809Y-207510142D01*
X262977285Y-207462523D01*
X263072523Y-207414904D01*
X263167761Y-207319666D01*
X263215380Y-207176809D01*
X263215380Y-206938714D01*
X262215380Y-208414904D02*
X262215380Y-207938714D01*
X262691571Y-207891095D01*
X262643952Y-207938714D01*
X262596333Y-208033952D01*
X262596333Y-208272047D01*
X262643952Y-208367285D01*
X262691571Y-208414904D01*
X262786809Y-208462523D01*
X263024904Y-208462523D01*
X263120142Y-208414904D01*
X263167761Y-208367285D01*
X263215380Y-208272047D01*
X263215380Y-208033952D01*
X263167761Y-207938714D01*
X263120142Y-207891095D01*
X262215380Y-209081571D02*
X262215380Y-209176809D01*
X262263000Y-209272047D01*
X262310619Y-209319666D01*
X262405857Y-209367285D01*
X262596333Y-209414904D01*
X262834428Y-209414904D01*
X263024904Y-209367285D01*
X263120142Y-209319666D01*
X263167761Y-209272047D01*
X263215380Y-209176809D01*
X263215380Y-209081571D01*
X263167761Y-208986333D01*
X263120142Y-208938714D01*
X263024904Y-208891095D01*
X262834428Y-208843476D01*
X262596333Y-208843476D01*
X262405857Y-208891095D01*
X262310619Y-208938714D01*
X262263000Y-208986333D01*
X262215380Y-209081571D01*
%TO.C,D44*%
X208478380Y-225988714D02*
X207478380Y-225988714D01*
X207478380Y-226226809D01*
X207526000Y-226369666D01*
X207621238Y-226464904D01*
X207716476Y-226512523D01*
X207906952Y-226560142D01*
X208049809Y-226560142D01*
X208240285Y-226512523D01*
X208335523Y-226464904D01*
X208430761Y-226369666D01*
X208478380Y-226226809D01*
X208478380Y-225988714D01*
X207811714Y-227417285D02*
X208478380Y-227417285D01*
X207430761Y-227179190D02*
X208145047Y-226941095D01*
X208145047Y-227560142D01*
X207811714Y-228369666D02*
X208478380Y-228369666D01*
X207430761Y-228131571D02*
X208145047Y-227893476D01*
X208145047Y-228512523D01*
%TO.C,D60*%
X336875380Y-206938714D02*
X335875380Y-206938714D01*
X335875380Y-207176809D01*
X335923000Y-207319666D01*
X336018238Y-207414904D01*
X336113476Y-207462523D01*
X336303952Y-207510142D01*
X336446809Y-207510142D01*
X336637285Y-207462523D01*
X336732523Y-207414904D01*
X336827761Y-207319666D01*
X336875380Y-207176809D01*
X336875380Y-206938714D01*
X335875380Y-208367285D02*
X335875380Y-208176809D01*
X335923000Y-208081571D01*
X335970619Y-208033952D01*
X336113476Y-207938714D01*
X336303952Y-207891095D01*
X336684904Y-207891095D01*
X336780142Y-207938714D01*
X336827761Y-207986333D01*
X336875380Y-208081571D01*
X336875380Y-208272047D01*
X336827761Y-208367285D01*
X336780142Y-208414904D01*
X336684904Y-208462523D01*
X336446809Y-208462523D01*
X336351571Y-208414904D01*
X336303952Y-208367285D01*
X336256333Y-208272047D01*
X336256333Y-208081571D01*
X336303952Y-207986333D01*
X336351571Y-207938714D01*
X336446809Y-207891095D01*
X335875380Y-209081571D02*
X335875380Y-209176809D01*
X335923000Y-209272047D01*
X335970619Y-209319666D01*
X336065857Y-209367285D01*
X336256333Y-209414904D01*
X336494428Y-209414904D01*
X336684904Y-209367285D01*
X336780142Y-209319666D01*
X336827761Y-209272047D01*
X336875380Y-209176809D01*
X336875380Y-209081571D01*
X336827761Y-208986333D01*
X336780142Y-208938714D01*
X336684904Y-208891095D01*
X336494428Y-208843476D01*
X336256333Y-208843476D01*
X336065857Y-208891095D01*
X335970619Y-208938714D01*
X335923000Y-208986333D01*
X335875380Y-209081571D01*
%TO.C,D9*%
X92019380Y-169187904D02*
X91019380Y-169187904D01*
X91019380Y-169426000D01*
X91067000Y-169568857D01*
X91162238Y-169664095D01*
X91257476Y-169711714D01*
X91447952Y-169759333D01*
X91590809Y-169759333D01*
X91781285Y-169711714D01*
X91876523Y-169664095D01*
X91971761Y-169568857D01*
X92019380Y-169426000D01*
X92019380Y-169187904D01*
X92019380Y-170235523D02*
X92019380Y-170426000D01*
X91971761Y-170521238D01*
X91924142Y-170568857D01*
X91781285Y-170664095D01*
X91590809Y-170711714D01*
X91209857Y-170711714D01*
X91114619Y-170664095D01*
X91067000Y-170616476D01*
X91019380Y-170521238D01*
X91019380Y-170330761D01*
X91067000Y-170235523D01*
X91114619Y-170187904D01*
X91209857Y-170140285D01*
X91447952Y-170140285D01*
X91543190Y-170187904D01*
X91590809Y-170235523D01*
X91638428Y-170330761D01*
X91638428Y-170521238D01*
X91590809Y-170616476D01*
X91543190Y-170664095D01*
X91447952Y-170711714D01*
D11*
%TO.C,R13*%
X55218000Y-221334064D02*
X55218000Y-220879936D01*
X53748000Y-221334064D02*
X53748000Y-220879936D01*
%TO.C,R11*%
X57250000Y-220879936D02*
X57250000Y-221334064D01*
X55780000Y-220879936D02*
X55780000Y-221334064D01*
%TO.C,D32*%
X240046000Y-205603000D02*
X242046000Y-205603000D01*
X242046000Y-205603000D02*
X242046000Y-209903000D01*
X240046000Y-209903000D02*
X240046000Y-205603000D01*
%TO.C,D14*%
X189722000Y-167376000D02*
X189722000Y-171676000D01*
X187722000Y-171676000D02*
X187722000Y-167376000D01*
X187722000Y-167376000D02*
X189722000Y-167376000D01*
%TO.C,D51*%
X346821000Y-167503000D02*
X346821000Y-171803000D01*
X344821000Y-167503000D02*
X346821000Y-167503000D01*
X344821000Y-171803000D02*
X344821000Y-167503000D01*
%TO.C,D61*%
X306721000Y-186553000D02*
X308721000Y-186553000D01*
X306721000Y-190853000D02*
X306721000Y-186553000D01*
X308721000Y-186553000D02*
X308721000Y-190853000D01*
%TO.C,D28*%
X163973000Y-209776000D02*
X163973000Y-205476000D01*
X165973000Y-205476000D02*
X165973000Y-209776000D01*
X163973000Y-205476000D02*
X165973000Y-205476000D01*
%TO.C,D56*%
X244872000Y-167503000D02*
X246872000Y-167503000D01*
X244872000Y-171803000D02*
X244872000Y-167503000D01*
X246872000Y-167503000D02*
X246872000Y-171803000D01*
%TO.C,D58*%
X297196000Y-209903000D02*
X297196000Y-205603000D01*
X299196000Y-205603000D02*
X299196000Y-209903000D01*
X297196000Y-205603000D02*
X299196000Y-205603000D01*
%TO.C,D21*%
X173498000Y-190726000D02*
X173498000Y-186426000D01*
X175498000Y-186426000D02*
X175498000Y-190726000D01*
X173498000Y-186426000D02*
X175498000Y-186426000D01*
%TO.C,D47*%
X301609000Y-224653000D02*
X301609000Y-228953000D01*
X299609000Y-224653000D02*
X301609000Y-224653000D01*
X299609000Y-228953000D02*
X299609000Y-224653000D01*
%TO.C,D52*%
X320945000Y-167503000D02*
X322945000Y-167503000D01*
X322945000Y-167503000D02*
X322945000Y-171803000D01*
X320945000Y-171803000D02*
X320945000Y-167503000D01*
%TO.C,D26*%
X125746000Y-205603000D02*
X127746000Y-205603000D01*
X125746000Y-209903000D02*
X125746000Y-205603000D01*
X127746000Y-205603000D02*
X127746000Y-209903000D01*
%TO.C,D8*%
X216297000Y-152753000D02*
X216297000Y-148453000D01*
X216297000Y-148453000D02*
X218297000Y-148453000D01*
X218297000Y-148453000D02*
X218297000Y-152753000D01*
%TO.C,D24*%
X230648000Y-186426000D02*
X232648000Y-186426000D01*
X232648000Y-186426000D02*
X232648000Y-190726000D01*
X230648000Y-190726000D02*
X230648000Y-186426000D01*
%TO.C,D5*%
X161147000Y-148453000D02*
X161147000Y-152753000D01*
X159147000Y-152753000D02*
X159147000Y-148453000D01*
X159147000Y-148453000D02*
X161147000Y-148453000D01*
%TO.C,D55*%
X263922000Y-167503000D02*
X265922000Y-167503000D01*
X263922000Y-171803000D02*
X263922000Y-167503000D01*
X265922000Y-167503000D02*
X265922000Y-171803000D01*
%TO.C,D12*%
X149622000Y-167376000D02*
X151622000Y-167376000D01*
X149622000Y-171676000D02*
X149622000Y-167376000D01*
X151622000Y-167376000D02*
X151622000Y-171676000D01*
%TO.C,D29*%
X185023000Y-205476000D02*
X185023000Y-209776000D01*
X183023000Y-209776000D02*
X183023000Y-205476000D01*
X183023000Y-205476000D02*
X185023000Y-205476000D01*
%TO.C,D20*%
X156448000Y-186426000D02*
X156448000Y-190726000D01*
X154448000Y-190726000D02*
X154448000Y-186426000D01*
X154448000Y-186426000D02*
X156448000Y-186426000D01*
%TO.C,D27*%
X146796000Y-205603000D02*
X146796000Y-209903000D01*
X144796000Y-205603000D02*
X146796000Y-205603000D01*
X144796000Y-209903000D02*
X144796000Y-205603000D01*
%TO.C,D16*%
X227822000Y-167376000D02*
X227822000Y-171676000D01*
X225822000Y-171676000D02*
X225822000Y-167376000D01*
X225822000Y-167376000D02*
X227822000Y-167376000D01*
%TO.C,D42*%
X109236000Y-228826000D02*
X109236000Y-224526000D01*
X109236000Y-224526000D02*
X111236000Y-224526000D01*
X111236000Y-224526000D02*
X111236000Y-228826000D01*
%TO.C,D39*%
X256524000Y-148326000D02*
X256524000Y-152626000D01*
X254524000Y-148326000D02*
X256524000Y-148326000D01*
X254524000Y-152626000D02*
X254524000Y-148326000D01*
%TO.C,D35*%
X340249000Y-152626000D02*
X340249000Y-148326000D01*
X342249000Y-148326000D02*
X342249000Y-152626000D01*
X340249000Y-148326000D02*
X342249000Y-148326000D01*
%TO.C,D30*%
X201946000Y-205603000D02*
X203946000Y-205603000D01*
X203946000Y-205603000D02*
X203946000Y-209903000D01*
X201946000Y-209903000D02*
X201946000Y-205603000D01*
%TO.C,D54*%
X282972000Y-171803000D02*
X282972000Y-167503000D01*
X282972000Y-167503000D02*
X284972000Y-167503000D01*
X284972000Y-167503000D02*
X284972000Y-171803000D01*
%TO.C,D63*%
X268621000Y-186553000D02*
X270621000Y-186553000D01*
X270621000Y-186553000D02*
X270621000Y-190853000D01*
X268621000Y-190853000D02*
X268621000Y-186553000D01*
%TO.C,D25*%
X94885000Y-209776000D02*
X94885000Y-205476000D01*
X96885000Y-205476000D02*
X96885000Y-209776000D01*
X94885000Y-205476000D02*
X96885000Y-205476000D01*
%TO.C,D62*%
X287671000Y-190853000D02*
X287671000Y-186553000D01*
X287671000Y-186553000D02*
X289671000Y-186553000D01*
X289671000Y-186553000D02*
X289671000Y-190853000D01*
%TO.C,D15*%
X206645000Y-167503000D02*
X208645000Y-167503000D01*
X206645000Y-171803000D02*
X206645000Y-167503000D01*
X208645000Y-167503000D02*
X208645000Y-171803000D01*
%TO.C,D59*%
X339709000Y-186553000D02*
X339709000Y-190853000D01*
X337709000Y-186553000D02*
X339709000Y-186553000D01*
X337709000Y-190853000D02*
X337709000Y-186553000D01*
%TO.C,D13*%
X168672000Y-167376000D02*
X170672000Y-167376000D01*
X170672000Y-167376000D02*
X170672000Y-171676000D01*
X168672000Y-171676000D02*
X168672000Y-167376000D01*
%TO.C,D23*%
X213598000Y-186426000D02*
X213598000Y-190726000D01*
X211598000Y-186426000D02*
X213598000Y-186426000D01*
X211598000Y-190726000D02*
X211598000Y-186426000D01*
%TO.C,D2*%
X102124000Y-148326000D02*
X104124000Y-148326000D01*
X102124000Y-152626000D02*
X102124000Y-148326000D01*
X104124000Y-148326000D02*
X104124000Y-152626000D01*
%TO.C,D31*%
X221123000Y-209776000D02*
X221123000Y-205476000D01*
X223123000Y-205476000D02*
X223123000Y-209776000D01*
X221123000Y-205476000D02*
X223123000Y-205476000D01*
D10*
%TO.C,J1*%
X64856000Y-141473000D02*
X64856000Y-141623000D01*
X56556000Y-141623000D02*
X56556000Y-141473000D01*
X58906000Y-147598000D02*
X58906000Y-147173000D01*
X56556000Y-141473000D02*
X56856000Y-141473000D01*
X64556000Y-141023000D02*
X64556000Y-141473000D01*
X56556000Y-145423000D02*
X56556000Y-144023000D01*
X58906000Y-147173000D02*
X58181000Y-147173000D01*
X56856000Y-141473000D02*
X56856000Y-141023000D01*
X64556000Y-141473000D02*
X64856000Y-141473000D01*
X64856000Y-144023000D02*
X64856000Y-145423000D01*
X59631000Y-147598000D02*
X58906000Y-147598000D01*
X62506000Y-147173000D02*
X63231000Y-147173000D01*
D11*
%TO.C,D48*%
X275733000Y-224653000D02*
X277733000Y-224653000D01*
X275733000Y-228953000D02*
X275733000Y-224653000D01*
X277733000Y-224653000D02*
X277733000Y-228953000D01*
%TO.C,D10*%
X111522000Y-167376000D02*
X113522000Y-167376000D01*
X113522000Y-167376000D02*
X113522000Y-171676000D01*
X111522000Y-171676000D02*
X111522000Y-167376000D01*
%TO.C,D3*%
X121047000Y-152753000D02*
X121047000Y-148453000D01*
X123047000Y-148453000D02*
X123047000Y-152753000D01*
X121047000Y-148453000D02*
X123047000Y-148453000D01*
%TO.C,D6*%
X178197000Y-152626000D02*
X178197000Y-148326000D01*
X180197000Y-148326000D02*
X180197000Y-152626000D01*
X178197000Y-148326000D02*
X180197000Y-148326000D01*
%TO.C,D45*%
X349234000Y-224653000D02*
X349234000Y-228953000D01*
X347234000Y-224653000D02*
X349234000Y-224653000D01*
X347234000Y-228953000D02*
X347234000Y-224653000D01*
%TO.C,D1*%
X83074000Y-148326000D02*
X85074000Y-148326000D01*
X83074000Y-152626000D02*
X83074000Y-148326000D01*
X85074000Y-148326000D02*
X85074000Y-152626000D01*
%TO.C,D17*%
X92059000Y-186426000D02*
X92059000Y-190726000D01*
X90059000Y-190726000D02*
X90059000Y-186426000D01*
X90059000Y-186426000D02*
X92059000Y-186426000D01*
%TO.C,D41*%
X85360000Y-224526000D02*
X87360000Y-224526000D01*
X85360000Y-228826000D02*
X85360000Y-224526000D01*
X87360000Y-224526000D02*
X87360000Y-228826000D01*
%TO.C,D18*%
X116221000Y-186553000D02*
X118221000Y-186553000D01*
X118221000Y-186553000D02*
X118221000Y-190853000D01*
X116221000Y-190853000D02*
X116221000Y-186553000D01*
%TO.C,D64*%
X249571000Y-190853000D02*
X249571000Y-186553000D01*
X249571000Y-186553000D02*
X251571000Y-186553000D01*
X251571000Y-186553000D02*
X251571000Y-190853000D01*
%TO.C,D53*%
X302022000Y-171803000D02*
X302022000Y-167503000D01*
X302022000Y-167503000D02*
X304022000Y-167503000D01*
X304022000Y-167503000D02*
X304022000Y-171803000D01*
%TO.C,D7*%
X197247000Y-148326000D02*
X199247000Y-148326000D01*
X197247000Y-152626000D02*
X197247000Y-148326000D01*
X199247000Y-148326000D02*
X199247000Y-152626000D01*
%TO.C,D43*%
X134985000Y-224526000D02*
X134985000Y-228826000D01*
X132985000Y-228826000D02*
X132985000Y-224526000D01*
X132985000Y-224526000D02*
X134985000Y-224526000D01*
%TO.C,D37*%
X292497000Y-152626000D02*
X292497000Y-148326000D01*
X292497000Y-148326000D02*
X294497000Y-148326000D01*
X294497000Y-148326000D02*
X294497000Y-152626000D01*
%TO.C,D11*%
X130699000Y-167376000D02*
X132699000Y-167376000D01*
X132699000Y-167376000D02*
X132699000Y-171676000D01*
X130699000Y-171676000D02*
X130699000Y-167376000D01*
%TO.C,D34*%
X280146000Y-205603000D02*
X280146000Y-209903000D01*
X278146000Y-209903000D02*
X278146000Y-205603000D01*
X278146000Y-205603000D02*
X280146000Y-205603000D01*
%TO.C,D19*%
X135398000Y-190726000D02*
X135398000Y-186426000D01*
X135398000Y-186426000D02*
X137398000Y-186426000D01*
X137398000Y-186426000D02*
X137398000Y-190726000D01*
%TO.C,D4*%
X140097000Y-148453000D02*
X142097000Y-148453000D01*
X142097000Y-148453000D02*
X142097000Y-152753000D01*
X140097000Y-152753000D02*
X140097000Y-148453000D01*
%TO.C,D46*%
X323358000Y-228953000D02*
X323358000Y-224653000D01*
X323358000Y-224653000D02*
X325358000Y-224653000D01*
X325358000Y-224653000D02*
X325358000Y-228953000D01*
%TO.C,D22*%
X192421000Y-190726000D02*
X192421000Y-186426000D01*
X192421000Y-186426000D02*
X194421000Y-186426000D01*
X194421000Y-186426000D02*
X194421000Y-190726000D01*
%TO.C,D36*%
X311547000Y-148326000D02*
X313547000Y-148326000D01*
X311547000Y-152626000D02*
X311547000Y-148326000D01*
X313547000Y-148326000D02*
X313547000Y-152626000D01*
%TO.C,D38*%
X273447000Y-148326000D02*
X275447000Y-148326000D01*
X275447000Y-148326000D02*
X275447000Y-152626000D01*
X273447000Y-152626000D02*
X273447000Y-148326000D01*
%TO.C,D40*%
X235474000Y-148326000D02*
X237474000Y-148326000D01*
X235474000Y-152626000D02*
X235474000Y-148326000D01*
X237474000Y-148326000D02*
X237474000Y-152626000D01*
%TO.C,D50*%
X259096000Y-205603000D02*
X261096000Y-205603000D01*
X261096000Y-205603000D02*
X261096000Y-209903000D01*
X259096000Y-209903000D02*
X259096000Y-205603000D01*
%TO.C,D44*%
X204359000Y-224653000D02*
X206359000Y-224653000D01*
X206359000Y-224653000D02*
X206359000Y-228953000D01*
X204359000Y-228953000D02*
X204359000Y-224653000D01*
%TO.C,D60*%
X332756000Y-209903000D02*
X332756000Y-205603000D01*
X332756000Y-205603000D02*
X334756000Y-205603000D01*
X334756000Y-205603000D02*
X334756000Y-209903000D01*
%TO.C,D9*%
X87773000Y-171676000D02*
X87773000Y-167376000D01*
X87773000Y-167376000D02*
X89773000Y-167376000D01*
X89773000Y-167376000D02*
X89773000Y-171676000D01*
%TD*%
M02*
