%TF.GenerationSoftware,KiCad,Pcbnew,(6.0.7)*%
%TF.CreationDate,2022-09-03T19:18:48+08:00*%
%TF.ProjectId,Joker60_v2,4a6f6b65-7236-4305-9f76-322e6b696361,1.0*%
%TF.SameCoordinates,Original*%
%TF.FileFunction,Legend,Top*%
%TF.FilePolarity,Positive*%
%FSLAX46Y46*%
G04 Gerber Fmt 4.6, Leading zero omitted, Abs format (unit mm)*
G04 Created by KiCad (PCBNEW (6.0.7)) date 2022-09-03 19:18:48*
%MOMM*%
%LPD*%
G01*
G04 APERTURE LIST*
%ADD10C,0.300000*%
%ADD11C,0.200000*%
%ADD12C,0.150000*%
%ADD13C,0.120000*%
G04 APERTURE END LIST*
D10*
X39636142Y-195266571D02*
X39636142Y-196480857D01*
X39707571Y-196623714D01*
X39779000Y-196695142D01*
X39921857Y-196766571D01*
X40207571Y-196766571D01*
X40350428Y-196695142D01*
X40421857Y-196623714D01*
X40493285Y-196480857D01*
X40493285Y-195266571D01*
X41136142Y-196695142D02*
X41350428Y-196766571D01*
X41707571Y-196766571D01*
X41850428Y-196695142D01*
X41921857Y-196623714D01*
X41993285Y-196480857D01*
X41993285Y-196338000D01*
X41921857Y-196195142D01*
X41850428Y-196123714D01*
X41707571Y-196052285D01*
X41421857Y-195980857D01*
X41279000Y-195909428D01*
X41207571Y-195838000D01*
X41136142Y-195695142D01*
X41136142Y-195552285D01*
X41207571Y-195409428D01*
X41279000Y-195338000D01*
X41421857Y-195266571D01*
X41779000Y-195266571D01*
X41993285Y-195338000D01*
X43136142Y-195980857D02*
X43350428Y-196052285D01*
X43421857Y-196123714D01*
X43493285Y-196266571D01*
X43493285Y-196480857D01*
X43421857Y-196623714D01*
X43350428Y-196695142D01*
X43207571Y-196766571D01*
X42636142Y-196766571D01*
X42636142Y-195266571D01*
X43136142Y-195266571D01*
X43279000Y-195338000D01*
X43350428Y-195409428D01*
X43421857Y-195552285D01*
X43421857Y-195695142D01*
X43350428Y-195838000D01*
X43279000Y-195909428D01*
X43136142Y-195980857D01*
X42636142Y-195980857D01*
D11*
X199243000Y-152489300D02*
X200044000Y-152489300D01*
X114318800Y-177339300D02*
X113518000Y-177339300D01*
X166192300Y-161389900D02*
X166192300Y-162388900D01*
X279693000Y-161389900D02*
X280494000Y-161389900D01*
X213531000Y-190589300D02*
X214330000Y-190589300D01*
X247736000Y-238358930D02*
X247736000Y-239340090D01*
X345369000Y-162158900D02*
X345369000Y-163140000D01*
X319450000Y-214840000D02*
X320974000Y-214840000D01*
X321567000Y-148937900D02*
X321567000Y-149860000D01*
X190006000Y-215439400D02*
X189205000Y-215439400D01*
X314425000Y-207009900D02*
X312700000Y-207009900D01*
X294781000Y-199489900D02*
X294781000Y-200488900D01*
X237343000Y-162388900D02*
X237343000Y-161389900D01*
X199531000Y-196389300D02*
X198730000Y-196389300D01*
X256393000Y-161389900D02*
X257194000Y-161389900D01*
X246355000Y-218540000D02*
X247156000Y-218540000D01*
X270969000Y-171539300D02*
X270969000Y-177339300D01*
X142893800Y-152489300D02*
X142893800Y-149390100D01*
X104281200Y-199489900D02*
X104281200Y-200488900D01*
X342118000Y-157689900D02*
X343644000Y-157689900D01*
X265405000Y-209637900D02*
X266206000Y-209637900D01*
X346881000Y-168440100D02*
X346881000Y-167439600D01*
X277824000Y-234489410D02*
X277824000Y-228687900D01*
X137618700Y-177339300D02*
X136817900Y-177339300D01*
X89993700Y-158289300D02*
X89193000Y-158289300D01*
X227305000Y-218540000D02*
X228106000Y-218540000D01*
X156668700Y-181438900D02*
X170668000Y-181438900D01*
X70943650Y-148389600D02*
X70943650Y-149390100D01*
X256681000Y-196389300D02*
X255880000Y-196389300D01*
X96849400Y-205539700D02*
X82849900Y-205539700D01*
X146855500Y-219539100D02*
X146855500Y-218540000D01*
X161942400Y-158289300D02*
X161143000Y-158289300D01*
X100098800Y-206087900D02*
X100098800Y-207009900D01*
X332881000Y-180439900D02*
X332881000Y-181438900D01*
X266206000Y-209637900D02*
X266206000Y-215439400D01*
X161942400Y-149390100D02*
X161143000Y-149390100D01*
X118568700Y-168440100D02*
X117767900Y-168440100D01*
X195280000Y-196389300D02*
X194481000Y-196389300D01*
X232068000Y-180439900D02*
X232869000Y-180439900D01*
X209056000Y-218540000D02*
X209056000Y-219539100D01*
X275443000Y-152489300D02*
X276244000Y-152489300D01*
X241593000Y-149390100D02*
X241593000Y-152489300D01*
X142381200Y-200488900D02*
X156380500Y-200488900D01*
X328119000Y-158289300D02*
X327318000Y-158289300D01*
X354169000Y-145865200D02*
X354169000Y-241115007D01*
X152418800Y-171539300D02*
X152418800Y-168440100D01*
X185242000Y-158289300D02*
X184443000Y-158289300D01*
X293980000Y-187490100D02*
X293980000Y-190589300D01*
X191587000Y-237589970D02*
X192386000Y-237589970D01*
X342118000Y-153090100D02*
X342118000Y-152489300D01*
X87324400Y-234489410D02*
X87324400Y-228687900D01*
X346881000Y-167439600D02*
X332881000Y-167439600D01*
X323068000Y-167439600D02*
X309069000Y-167439600D01*
X207186000Y-234489410D02*
X206387000Y-234489410D01*
X204006000Y-205539700D02*
X190006000Y-205539700D01*
X241593000Y-161389900D02*
X242394000Y-161389900D01*
X96849400Y-209637900D02*
X97650000Y-209637900D01*
X193968000Y-180439900D02*
X194769000Y-180439900D01*
X332080000Y-177339300D02*
X332080000Y-180439900D01*
X89993700Y-161389900D02*
X89993700Y-162388900D01*
X81324400Y-219308900D02*
X81324400Y-214840000D01*
X237631000Y-196389300D02*
X236830000Y-196389300D01*
X92886200Y-187490100D02*
X92086900Y-187490100D01*
X175719000Y-177339300D02*
X174918000Y-177339300D01*
X75706160Y-181438900D02*
X89705700Y-181438900D01*
X146855500Y-206540000D02*
X146855500Y-205539700D01*
X142893800Y-158289300D02*
X142093000Y-158289300D01*
X142093000Y-152489300D02*
X142893800Y-152489300D01*
X263024000Y-234489410D02*
X263024000Y-237589970D01*
X334974000Y-206540000D02*
X334974000Y-205539700D01*
X97650000Y-218540000D02*
X97650000Y-215439400D01*
X349262000Y-238589060D02*
X349262000Y-237589970D01*
X334974000Y-209637900D02*
X335775000Y-209637900D01*
X237343000Y-152489300D02*
X238144000Y-152489300D01*
X206387000Y-233888590D02*
X246011000Y-233888590D01*
X151105400Y-218540000D02*
X151906200Y-218540000D01*
X170668000Y-168440100D02*
X170668000Y-167439600D01*
X213531000Y-187490100D02*
X213531000Y-186489600D01*
X208768000Y-168440100D02*
X208768000Y-167439600D01*
X89705700Y-171539300D02*
X90504900Y-171539300D01*
X138129900Y-199489900D02*
X138129900Y-196389300D01*
X118568700Y-171539300D02*
X118568700Y-177339300D01*
X147736000Y-239340090D02*
X151036600Y-239340090D01*
X335261000Y-228687900D02*
X335261000Y-234489410D01*
X82049300Y-218540000D02*
X82849900Y-218540000D01*
X285256000Y-215439400D02*
X284455000Y-215439400D01*
X266719000Y-171539300D02*
X266719000Y-168440100D01*
X289731000Y-187490100D02*
X289731000Y-186489600D01*
X275443000Y-158289300D02*
X275443000Y-152489300D01*
X270168000Y-180439900D02*
X270969000Y-180439900D01*
X170956000Y-218540000D02*
X170956000Y-219539100D01*
X312700000Y-210240100D02*
X311874000Y-210240100D01*
X185755000Y-215439400D02*
X184956000Y-215439400D01*
X263825000Y-224589600D02*
X263825000Y-225590000D01*
X284968000Y-167439600D02*
X270969000Y-167439600D01*
X151906200Y-205539700D02*
X151906200Y-206540000D01*
X170668000Y-181438900D02*
X170668000Y-180439900D01*
X341261000Y-195789900D02*
X341261000Y-200258900D01*
X152762100Y-226059900D02*
X151036600Y-226059900D01*
X138129900Y-190589300D02*
X138129900Y-187490100D01*
X334462000Y-237589970D02*
X335261000Y-237589970D01*
X252762000Y-238358930D02*
X252762000Y-232088860D01*
X246011000Y-229290100D02*
X206387000Y-229290100D01*
X170155000Y-206540000D02*
X170155000Y-209637900D01*
X256681000Y-200488900D02*
X270681000Y-200488900D01*
X134949300Y-224589600D02*
X120950000Y-224589600D01*
X280206000Y-206540000D02*
X280206000Y-205539700D01*
X74905530Y-171539300D02*
X75706160Y-171539300D01*
X347680000Y-168440100D02*
X346881000Y-168440100D01*
X113518000Y-181438900D02*
X113518000Y-180439900D01*
X261444000Y-149390100D02*
X260643000Y-149390100D01*
X349262000Y-234489410D02*
X349262000Y-228687900D01*
X85743800Y-161389900D02*
X85743800Y-158289300D01*
X189205000Y-206540000D02*
X189205000Y-209637900D01*
X320974000Y-205539700D02*
X320974000Y-206540000D01*
X208768000Y-171539300D02*
X209569000Y-171539300D01*
X350393000Y-149860000D02*
X348668000Y-149860000D01*
X285769000Y-180439900D02*
X285769000Y-177339300D01*
X198730000Y-190589300D02*
X199531000Y-190589300D01*
X299544000Y-161389900D02*
X299544000Y-162388900D01*
X301637000Y-234489410D02*
X301637000Y-228687900D01*
X300055000Y-209637900D02*
X300055000Y-206540000D01*
X208255000Y-215439400D02*
X208255000Y-218540000D01*
X308781000Y-199489900D02*
X309580000Y-199489900D01*
X75706160Y-180439900D02*
X75706160Y-181438900D01*
X246868000Y-167439600D02*
X232869000Y-167439600D01*
X179680000Y-190589300D02*
X180481000Y-190589300D01*
X70143010Y-158289300D02*
X70143010Y-161389900D01*
X165905500Y-215439400D02*
X165905500Y-209637900D01*
X348012000Y-187960000D02*
X346287000Y-187960000D01*
X103399200Y-206087900D02*
X100098800Y-206087900D01*
X317724000Y-220290100D02*
X317724000Y-219308900D01*
X304018000Y-171539300D02*
X304819000Y-171539300D01*
X146011000Y-226059900D02*
X146011000Y-229290100D01*
X105124400Y-219308900D02*
X105124400Y-213038900D01*
X192386000Y-229290100D02*
X152762100Y-229290100D01*
X266719000Y-180439900D02*
X266719000Y-177339300D01*
X97136000Y-237589970D02*
X97136000Y-238589060D01*
X339737000Y-199489900D02*
X340536000Y-199489900D01*
X326250000Y-234489410D02*
X325449000Y-234489410D01*
X127805500Y-218540000D02*
X128604900Y-218540000D01*
X270168000Y-177339300D02*
X270168000Y-180439900D01*
X175719000Y-168440100D02*
X174918000Y-168440100D01*
X160630400Y-196389300D02*
X160630400Y-199489900D01*
X251919000Y-180439900D02*
X251919000Y-181438900D01*
X251919000Y-177339300D02*
X251118000Y-177339300D01*
X270681000Y-187490100D02*
X270681000Y-186489600D01*
X132055400Y-206540000D02*
X132055400Y-209637900D01*
X208255000Y-218540000D02*
X209056000Y-218540000D01*
X284968000Y-180439900D02*
X285769000Y-180439900D01*
X323068000Y-168440100D02*
X323068000Y-167439600D01*
X156668700Y-168440100D02*
X155867900Y-168440100D01*
X82849900Y-205539700D02*
X82849900Y-206540000D01*
X342118000Y-152489300D02*
X342919000Y-152489300D01*
X312700000Y-213038900D02*
X312700000Y-219308900D01*
X113518000Y-180439900D02*
X114318800Y-180439900D01*
X223344000Y-149390100D02*
X222543000Y-149390100D01*
X285769000Y-168440100D02*
X284968000Y-168440100D01*
X203493000Y-158289300D02*
X203493000Y-161389900D01*
X218293000Y-149390100D02*
X218293000Y-148389600D01*
X103399200Y-219308900D02*
X105124400Y-219308900D01*
X223855000Y-206540000D02*
X223056000Y-206540000D01*
X103993000Y-162388900D02*
X103993000Y-161389900D01*
X270168000Y-168440100D02*
X270168000Y-171539300D01*
X311450000Y-238589060D02*
X325449000Y-238589060D01*
X217780000Y-199489900D02*
X218581000Y-199489900D01*
X214330000Y-187490100D02*
X213531000Y-187490100D01*
X261444000Y-161389900D02*
X261444000Y-162388900D01*
X155867900Y-177339300D02*
X155867900Y-180439900D01*
X90504900Y-168440100D02*
X89705700Y-168440100D01*
X342986000Y-187960000D02*
X341261000Y-187960000D01*
X265918000Y-171539300D02*
X266719000Y-171539300D01*
X165905500Y-206540000D02*
X165905500Y-205539700D01*
X134949300Y-234489410D02*
X134949300Y-228687900D01*
X251118000Y-177339300D02*
X251118000Y-180439900D01*
X255880000Y-196389300D02*
X255880000Y-199489900D01*
X242394000Y-162388900D02*
X256393000Y-162388900D01*
X242106000Y-209637900D02*
X242905000Y-209637900D01*
X98718000Y-171539300D02*
X99518700Y-171539300D01*
X280494000Y-158289300D02*
X279693000Y-158289300D01*
X209056000Y-206540000D02*
X208255000Y-206540000D01*
X180193000Y-158289300D02*
X180193000Y-152489300D01*
X319844000Y-153090100D02*
X319018000Y-153090100D01*
X190519000Y-171539300D02*
X190519000Y-168440100D01*
X89993700Y-152489300D02*
X89993700Y-158289300D01*
X309069000Y-181438900D02*
X323068000Y-181438900D01*
X141580400Y-196389300D02*
X141580400Y-199489900D01*
X348668000Y-149860000D02*
X348668000Y-148937900D01*
X321567000Y-162158900D02*
X321567000Y-163140000D01*
X351219000Y-153090100D02*
X350393000Y-153090100D01*
X247156000Y-219539100D02*
X261156000Y-219539100D01*
X82049300Y-215439400D02*
X82049300Y-218540000D01*
X135750100Y-234489410D02*
X134949300Y-234489410D01*
X97136000Y-225590000D02*
X96336800Y-225590000D01*
X104281200Y-186489600D02*
X104281200Y-187490100D01*
X266719000Y-168440100D02*
X265918000Y-168440100D01*
X166704900Y-209637900D02*
X166704900Y-206540000D01*
X204006000Y-215439400D02*
X204006000Y-209637900D01*
X317724000Y-207009900D02*
X317724000Y-206087900D01*
X74574800Y-213038900D02*
X74574800Y-219308900D01*
X161431200Y-196389300D02*
X160630400Y-196389300D01*
X92886200Y-196389300D02*
X92086900Y-196389300D01*
X311450000Y-224589600D02*
X311450000Y-225590000D01*
X341261000Y-187960000D02*
X341261000Y-191190100D01*
X132856200Y-206540000D02*
X132055400Y-206540000D01*
X322485000Y-200258900D02*
X324212000Y-200258900D01*
X82849900Y-209637900D02*
X82849900Y-210240100D01*
X277824000Y-238589060D02*
X277824000Y-237589970D01*
X263825000Y-237589970D02*
X263825000Y-238589060D01*
X261444000Y-152489300D02*
X261444000Y-158289300D01*
X109043700Y-152489300D02*
X109043700Y-158289300D01*
X279693000Y-152489300D02*
X280494000Y-152489300D01*
X151105400Y-215439400D02*
X151105400Y-218540000D01*
X137330500Y-199489900D02*
X138129900Y-199489900D01*
X351219000Y-155889000D02*
X351219000Y-153090100D01*
X114318800Y-171539300D02*
X114318800Y-168440100D01*
X341524000Y-220290100D02*
X341524000Y-219308900D01*
X200044000Y-158289300D02*
X199243000Y-158289300D01*
X146342900Y-152489300D02*
X147143700Y-152489300D01*
X345369000Y-163140000D02*
X348668000Y-163140000D01*
X299544000Y-162388900D02*
X313543000Y-162388900D01*
X228106000Y-206540000D02*
X227305000Y-206540000D01*
X323068000Y-171539300D02*
X323869000Y-171539300D01*
X270681000Y-200488900D02*
X270681000Y-199489900D01*
X304018000Y-168440100D02*
X304018000Y-167439600D01*
X314344000Y-152489300D02*
X314344000Y-149390100D01*
X111936200Y-234489410D02*
X111136800Y-234489410D01*
X142893800Y-149390100D02*
X142093000Y-149390100D01*
X142381200Y-190589300D02*
X142381200Y-196389300D01*
X209569000Y-180439900D02*
X209569000Y-177339300D01*
X338224000Y-206087900D02*
X338224000Y-207009900D01*
X120149200Y-225590000D02*
X120149200Y-228687900D01*
X137330500Y-190589300D02*
X138129900Y-190589300D01*
X199531000Y-190589300D02*
X199531000Y-196389300D01*
X348012000Y-200258900D02*
X348012000Y-193989000D01*
X89993700Y-149390100D02*
X89193000Y-149390100D01*
X327318000Y-149390100D02*
X327318000Y-152489300D01*
X314425000Y-219308900D02*
X314425000Y-220290100D01*
X123331200Y-187490100D02*
X122530400Y-187490100D01*
X348836000Y-193989000D02*
X348836000Y-191190100D01*
X242106000Y-219539100D02*
X242106000Y-218540000D01*
X218293000Y-158289300D02*
X218293000Y-152489300D01*
X289218000Y-180439900D02*
X290019000Y-180439900D01*
X132568000Y-181438900D02*
X132568000Y-180439900D01*
X108242900Y-158289300D02*
X108242900Y-161389900D01*
X151105400Y-206540000D02*
X151105400Y-209637900D01*
X199531000Y-199489900D02*
X199531000Y-200488900D01*
X70943650Y-161389900D02*
X70943650Y-162388900D01*
X180481000Y-199489900D02*
X180481000Y-200488900D01*
X122530400Y-187490100D02*
X122530400Y-190589300D01*
X238144000Y-149390100D02*
X237343000Y-149390100D01*
X98374900Y-210240100D02*
X96849400Y-210240100D01*
X206387000Y-228687900D02*
X207186000Y-228687900D01*
X242905000Y-209637900D02*
X242905000Y-206540000D01*
X347680000Y-171539300D02*
X347680000Y-168440100D01*
X251631000Y-196389300D02*
X251631000Y-190589300D01*
X228619000Y-180439900D02*
X228619000Y-177339300D01*
X133368800Y-171539300D02*
X133368800Y-168440100D01*
X84943200Y-152489300D02*
X85743800Y-152489300D01*
X346287000Y-201240000D02*
X346287000Y-200258900D01*
X316637000Y-193989000D02*
X317461000Y-193989000D01*
X251631000Y-200488900D02*
X251631000Y-199489900D01*
X189718000Y-167439600D02*
X175719000Y-167439600D01*
X251631000Y-199489900D02*
X252430000Y-199489900D01*
X98374900Y-207009900D02*
X98374900Y-210240100D01*
X253586000Y-232088860D02*
X253586000Y-229290100D01*
X311450000Y-234489410D02*
X310649000Y-234489410D01*
X294781000Y-200488900D02*
X308781000Y-200488900D01*
X156380500Y-196389300D02*
X156380500Y-190589300D01*
X151618000Y-171539300D02*
X152418800Y-171539300D01*
X293980000Y-196389300D02*
X293980000Y-199489900D01*
X311450000Y-225590000D02*
X310649000Y-225590000D01*
X161143000Y-149390100D02*
X161143000Y-148389600D01*
X308781000Y-187490100D02*
X308781000Y-186489600D01*
X96849400Y-218540000D02*
X97650000Y-218540000D01*
X325449000Y-234489410D02*
X325449000Y-228687900D01*
X290019000Y-177339300D02*
X289218000Y-177339300D01*
X209056000Y-219539100D02*
X223056000Y-219539100D01*
X323068000Y-177339300D02*
X323068000Y-171539300D01*
X332881000Y-177339300D02*
X332080000Y-177339300D01*
X180193000Y-148389600D02*
X166192300Y-148389600D01*
X242106000Y-215439400D02*
X242106000Y-209637900D01*
X342919000Y-152489300D02*
X342919000Y-149390100D01*
X247736000Y-226059900D02*
X246011000Y-226059900D01*
X142093000Y-148389600D02*
X128093700Y-148389600D01*
X136817900Y-180439900D02*
X137618700Y-180439900D01*
X185242000Y-152489300D02*
X185242000Y-158289300D01*
X233380000Y-187490100D02*
X232581000Y-187490100D01*
X300055000Y-206540000D02*
X299256000Y-206540000D01*
X81324400Y-214840000D02*
X82849900Y-214840000D01*
X184956000Y-219539100D02*
X184956000Y-218540000D01*
X342118000Y-148389600D02*
X328119000Y-148389600D01*
X348836000Y-191190100D02*
X348012000Y-191190100D01*
X147736000Y-238358930D02*
X147736000Y-239340090D01*
X180481000Y-187490100D02*
X179680000Y-187490100D01*
X334974000Y-205539700D02*
X320974000Y-205539700D01*
X238144000Y-152489300D02*
X238144000Y-149390100D01*
X336500000Y-214840000D02*
X336500000Y-219308900D01*
X156380500Y-187490100D02*
X156380500Y-186489600D01*
X277824000Y-237589970D02*
X278625000Y-237589970D01*
X142093000Y-158289300D02*
X142093000Y-152489300D01*
X319450000Y-210240100D02*
X319450000Y-207009900D01*
X232068000Y-177339300D02*
X232068000Y-180439900D01*
X217780000Y-187490100D02*
X217780000Y-190589300D01*
X320974000Y-219539100D02*
X334974000Y-219539100D01*
X142381200Y-196389300D02*
X141580400Y-196389300D01*
X260643000Y-149390100D02*
X260643000Y-152489300D01*
X206387000Y-238589060D02*
X206387000Y-237589970D01*
X147654900Y-218540000D02*
X147654900Y-215439400D01*
X132856200Y-209637900D02*
X132856200Y-215439400D01*
X90504900Y-171539300D02*
X90504900Y-168440100D01*
X209569000Y-177339300D02*
X208768000Y-177339300D01*
X251919000Y-171539300D02*
X251919000Y-177339300D01*
X228619000Y-177339300D02*
X227818000Y-177339300D01*
X185242000Y-161389900D02*
X185242000Y-162388900D01*
X261955000Y-209637900D02*
X261955000Y-206540000D01*
X82849900Y-206540000D02*
X82049300Y-206540000D01*
X89705700Y-181438900D02*
X89705700Y-180439900D01*
X191587000Y-234489410D02*
X191587000Y-237589970D01*
X180992000Y-152489300D02*
X180992000Y-149390100D01*
X109043700Y-148389600D02*
X109043700Y-149390100D01*
X247736000Y-225138000D02*
X247736000Y-226059900D01*
X242394000Y-158289300D02*
X241593000Y-158289300D01*
X147143700Y-158289300D02*
X146342900Y-158289300D01*
X251037000Y-238358930D02*
X252762000Y-238358930D01*
X341524000Y-207009900D02*
X341524000Y-206087900D01*
X354169000Y-241115007D02*
X68419085Y-241115007D01*
X108242900Y-161389900D02*
X109043700Y-161389900D01*
X222543000Y-161389900D02*
X223344000Y-161389900D01*
X263024000Y-225590000D02*
X263024000Y-228687900D01*
X223344000Y-162388900D02*
X237343000Y-162388900D01*
X123043000Y-161389900D02*
X123843800Y-161389900D01*
X199243000Y-149390100D02*
X199243000Y-148389600D01*
X346881000Y-171539300D02*
X347680000Y-171539300D01*
X103993000Y-148389600D02*
X89993700Y-148389600D01*
X206387000Y-237589970D02*
X207186000Y-237589970D01*
X246868000Y-171539300D02*
X247669000Y-171539300D01*
X190519000Y-168440100D02*
X189718000Y-168440100D01*
X317461000Y-187960000D02*
X317461000Y-191190100D01*
X327318000Y-152489300D02*
X328119000Y-152489300D01*
X314425000Y-206087900D02*
X314425000Y-207009900D01*
X343644000Y-157689900D02*
X343644000Y-162158900D01*
X156380500Y-199489900D02*
X157179900Y-199489900D01*
X335261000Y-237589970D02*
X335261000Y-238589060D01*
X132055400Y-215439400D02*
X132055400Y-218540000D01*
X179680000Y-187490100D02*
X179680000Y-190589300D01*
X218581000Y-187490100D02*
X217780000Y-187490100D01*
X123043000Y-149390100D02*
X123043000Y-148389600D01*
X276244000Y-158289300D02*
X275443000Y-158289300D01*
X280494000Y-162388900D02*
X294493000Y-162388900D01*
X342986000Y-201240000D02*
X346287000Y-201240000D01*
X92086900Y-190589300D02*
X92886200Y-190589300D01*
X309069000Y-167439600D02*
X309069000Y-168440100D01*
X232869000Y-168440100D02*
X232068000Y-168440100D01*
X118280500Y-186489600D02*
X104281200Y-186489600D01*
X223056000Y-218540000D02*
X223855000Y-218540000D01*
X99518700Y-177339300D02*
X98718000Y-177339300D01*
X338224000Y-220290100D02*
X341524000Y-220290100D01*
X185755000Y-218540000D02*
X185755000Y-215439400D01*
X339737000Y-186489600D02*
X325736000Y-186489600D01*
X266206000Y-219539100D02*
X280206000Y-219539100D01*
X152762100Y-233888590D02*
X192386000Y-233888590D01*
X213018000Y-168440100D02*
X213018000Y-171539300D01*
X103993000Y-158289300D02*
X103993000Y-152489300D01*
X213531000Y-200488900D02*
X213531000Y-199489900D01*
X161431200Y-190589300D02*
X161431200Y-196389300D01*
X342118000Y-161389900D02*
X342919000Y-161389900D01*
X280494000Y-148389600D02*
X280494000Y-149390100D01*
X223056000Y-219539100D02*
X223056000Y-218540000D01*
X175719000Y-167439600D02*
X175719000Y-168440100D01*
X194769000Y-177339300D02*
X193968000Y-177339300D01*
X304819000Y-180439900D02*
X304819000Y-177339300D01*
X304819000Y-171539300D02*
X304819000Y-168440100D01*
X280494000Y-161389900D02*
X280494000Y-162388900D01*
X156380500Y-200488900D02*
X156380500Y-199489900D01*
X321567000Y-149860000D02*
X319844000Y-149860000D01*
X160630400Y-199489900D02*
X161431200Y-199489900D01*
X278625000Y-225590000D02*
X277824000Y-225590000D01*
X223344000Y-152489300D02*
X223344000Y-158289300D01*
X242106000Y-218540000D02*
X242905000Y-218540000D01*
X251919000Y-181438900D02*
X265918000Y-181438900D01*
X156668700Y-167439600D02*
X156668700Y-168440100D01*
X175719000Y-180439900D02*
X175719000Y-181438900D01*
X294781000Y-187490100D02*
X293980000Y-187490100D01*
X275731000Y-186489600D02*
X275731000Y-187490100D01*
X309069000Y-177339300D02*
X308268000Y-177339300D01*
X232869000Y-180439900D02*
X232869000Y-181438900D01*
X155867900Y-168440100D02*
X155867900Y-171539300D01*
X189718000Y-171539300D02*
X190519000Y-171539300D01*
X213531000Y-196389300D02*
X213531000Y-190589300D01*
X275731000Y-200488900D02*
X289731000Y-200488900D01*
X105949900Y-210240100D02*
X105124400Y-210240100D01*
X278625000Y-228687900D02*
X278625000Y-225590000D01*
X350061000Y-237589970D02*
X350061000Y-234489410D01*
X127805500Y-219539100D02*
X127805500Y-218540000D01*
X350061000Y-225590000D02*
X349262000Y-225590000D01*
X213018000Y-177339300D02*
X213018000Y-180439900D01*
X104793800Y-161389900D02*
X104793800Y-158289300D01*
X311874000Y-210240100D02*
X311874000Y-213038900D01*
X332080000Y-180439900D02*
X332881000Y-180439900D01*
X298743000Y-158289300D02*
X298743000Y-161389900D01*
X175431000Y-187490100D02*
X175431000Y-186489600D01*
X325736000Y-190589300D02*
X325736000Y-191190100D01*
X123331200Y-190589300D02*
X123331200Y-196389300D01*
X311874000Y-213038900D02*
X312700000Y-213038900D01*
X247669000Y-171539300D02*
X247669000Y-168440100D01*
X166192300Y-158289300D02*
X165392900Y-158289300D01*
X326593000Y-153090100D02*
X326593000Y-149860000D01*
X147143700Y-162388900D02*
X161143000Y-162388900D01*
X228106000Y-218540000D02*
X228106000Y-219539100D01*
X88125000Y-237589970D02*
X88125000Y-234489410D01*
X128604900Y-218540000D02*
X128604900Y-215439400D01*
X209569000Y-171539300D02*
X209569000Y-168440100D01*
X204805000Y-206540000D02*
X204006000Y-206540000D01*
X286837000Y-228687900D02*
X287636000Y-228687900D01*
X96336800Y-228687900D02*
X97136000Y-228687900D01*
X251631000Y-190589300D02*
X252430000Y-190589300D01*
X174918000Y-177339300D02*
X174918000Y-180439900D01*
X208768000Y-180439900D02*
X209569000Y-180439900D01*
X237631000Y-190589300D02*
X237631000Y-196389300D01*
X146855500Y-218540000D02*
X147654900Y-218540000D01*
X132568000Y-167439600D02*
X118568700Y-167439600D01*
X287636000Y-225590000D02*
X286837000Y-225590000D01*
X284968000Y-181438900D02*
X284968000Y-180439900D01*
X223056000Y-205539700D02*
X209056000Y-205539700D01*
X185242000Y-149390100D02*
X184443000Y-149390100D01*
X263825000Y-238589060D02*
X277824000Y-238589060D01*
X339737000Y-200488900D02*
X339737000Y-199489900D01*
X280494000Y-152489300D02*
X280494000Y-158289300D01*
X199243000Y-162388900D02*
X199243000Y-161389900D01*
X120149200Y-237589970D02*
X120950000Y-237589970D01*
X227818000Y-171539300D02*
X228619000Y-171539300D01*
X68419085Y-241115007D02*
X68419085Y-145865200D01*
X256681000Y-190589300D02*
X256681000Y-196389300D01*
X335261000Y-224589600D02*
X335261000Y-225590000D01*
X304018000Y-181438900D02*
X304018000Y-180439900D01*
X242106000Y-205539700D02*
X228106000Y-205539700D01*
X350393000Y-153090100D02*
X350393000Y-149860000D01*
X274930000Y-190589300D02*
X275731000Y-190589300D01*
X340536000Y-190589300D02*
X340536000Y-187490100D01*
X232581000Y-186489600D02*
X218581000Y-186489600D01*
X175431000Y-196389300D02*
X175431000Y-190589300D01*
X241593000Y-152489300D02*
X242394000Y-152489300D01*
X204294000Y-158289300D02*
X203493000Y-158289300D01*
X341261000Y-191190100D02*
X339737000Y-191190100D01*
X161143000Y-158289300D02*
X161143000Y-152489300D01*
X92086900Y-187490100D02*
X92086900Y-186489600D01*
X251919000Y-167439600D02*
X251919000Y-168440100D01*
X344075000Y-210240100D02*
X343249000Y-210240100D01*
X146855500Y-209637900D02*
X147654900Y-209637900D01*
X280206000Y-215439400D02*
X280206000Y-209637900D01*
X199243000Y-148389600D02*
X185242000Y-148389600D01*
X206387000Y-234489410D02*
X206387000Y-233888590D01*
X175431000Y-200488900D02*
X175431000Y-199489900D01*
X99518700Y-171539300D02*
X99518700Y-177339300D01*
X161143000Y-152489300D02*
X161942400Y-152489300D01*
X218581000Y-186489600D02*
X218581000Y-187490100D01*
X190006000Y-209637900D02*
X190006000Y-215439400D01*
X70943650Y-152489300D02*
X70943650Y-158289300D01*
X334462000Y-228687900D02*
X335261000Y-228687900D01*
X237343000Y-161389900D02*
X238144000Y-161389900D01*
X85743800Y-152489300D02*
X85743800Y-149390100D01*
X311450000Y-237589970D02*
X311450000Y-238589060D01*
X119079900Y-187490100D02*
X118280500Y-187490100D01*
X344075000Y-213038900D02*
X344075000Y-210240100D01*
X289731000Y-200488900D02*
X289731000Y-199489900D01*
X165905500Y-209637900D02*
X166704900Y-209637900D01*
X151036600Y-225138000D02*
X147736000Y-225138000D01*
X136817900Y-171539300D02*
X137618700Y-171539300D01*
X222543000Y-149390100D02*
X222543000Y-152489300D01*
X90504900Y-177339300D02*
X89705700Y-177339300D01*
X346287000Y-187960000D02*
X346287000Y-187039300D01*
X339737000Y-187490100D02*
X339737000Y-186489600D01*
X247156000Y-205539700D02*
X247156000Y-206540000D01*
X313543000Y-149390100D02*
X313543000Y-148389600D01*
X204294000Y-149390100D02*
X203493000Y-149390100D01*
X113806200Y-218540000D02*
X113806200Y-219539100D01*
X299544000Y-152489300D02*
X299544000Y-158289300D01*
X192386000Y-225590000D02*
X191587000Y-225590000D01*
X251631000Y-187490100D02*
X251631000Y-186489600D01*
X323068000Y-180439900D02*
X323869000Y-180439900D01*
X132856200Y-205539700D02*
X132856200Y-206540000D01*
X214330000Y-196389300D02*
X213531000Y-196389300D01*
X128604900Y-215439400D02*
X127805500Y-215439400D01*
X302436000Y-228687900D02*
X302436000Y-225590000D01*
X151618000Y-167439600D02*
X137618700Y-167439600D01*
X284968000Y-168440100D02*
X284968000Y-167439600D01*
X301637000Y-238589060D02*
X301637000Y-237589970D01*
X89193000Y-158289300D02*
X89193000Y-161389900D01*
X194769000Y-181438900D02*
X208768000Y-181438900D01*
X208768000Y-177339300D02*
X208768000Y-171539300D01*
X324212000Y-200258900D02*
X324212000Y-195789900D01*
X233380000Y-199489900D02*
X233380000Y-196389300D01*
X184956000Y-218540000D02*
X185755000Y-218540000D01*
X350061000Y-234489410D02*
X349262000Y-234489410D01*
X151906200Y-219539100D02*
X165905500Y-219539100D01*
X261156000Y-209637900D02*
X261955000Y-209637900D01*
X103399200Y-207009900D02*
X103399200Y-206087900D01*
X111936200Y-237589970D02*
X111936200Y-234489410D01*
X320974000Y-210240100D02*
X319450000Y-210240100D01*
X127805500Y-206540000D02*
X127805500Y-205539700D01*
X109043700Y-158289300D02*
X108242900Y-158289300D01*
X89193000Y-149390100D02*
X89193000Y-152489300D01*
X156668700Y-171539300D02*
X156668700Y-177339300D01*
X161431200Y-186489600D02*
X161431200Y-187490100D01*
X335775000Y-218540000D02*
X335775000Y-215439400D01*
X70943650Y-158289300D02*
X70143010Y-158289300D01*
X147736000Y-225138000D02*
X147736000Y-226059900D01*
X343249000Y-210240100D02*
X343249000Y-207009900D01*
X252430000Y-199489900D02*
X252430000Y-196389300D01*
X265405000Y-206540000D02*
X265405000Y-209637900D01*
X105124400Y-207009900D02*
X103399200Y-207009900D01*
X332080000Y-168440100D02*
X332080000Y-171539300D01*
X223344000Y-158289300D02*
X222543000Y-158289300D01*
X228619000Y-171539300D02*
X228619000Y-168440100D01*
X280206000Y-209637900D02*
X281005000Y-209637900D01*
X128093700Y-152489300D02*
X128093700Y-158289300D01*
X146342900Y-158289300D02*
X146342900Y-161389900D01*
X85743800Y-149390100D02*
X84943200Y-149390100D01*
X85743800Y-158289300D02*
X84943200Y-158289300D01*
X246355000Y-209637900D02*
X247156000Y-209637900D01*
X200044000Y-152489300D02*
X200044000Y-149390100D01*
X70143010Y-152489300D02*
X70943650Y-152489300D01*
X339737000Y-190589300D02*
X340536000Y-190589300D01*
X73749330Y-213038900D02*
X74574800Y-213038900D01*
X87324400Y-224589600D02*
X73324910Y-224589600D01*
X319844000Y-162158900D02*
X321567000Y-162158900D01*
X237343000Y-158289300D02*
X237343000Y-152489300D01*
X109043700Y-162388900D02*
X123043000Y-162388900D01*
X276244000Y-152489300D02*
X276244000Y-149390100D01*
X290019000Y-180439900D02*
X290019000Y-181438900D01*
X308268000Y-180439900D02*
X309069000Y-180439900D01*
X151036600Y-238358930D02*
X152762100Y-238358930D01*
X165905500Y-205539700D02*
X151906200Y-205539700D01*
X310649000Y-228687900D02*
X311450000Y-228687900D01*
X192386000Y-234489410D02*
X191587000Y-234489410D01*
X97650000Y-215439400D02*
X96849400Y-215439400D01*
X295294000Y-161389900D02*
X295294000Y-158289300D01*
X157179900Y-187490100D02*
X156380500Y-187490100D01*
X332881000Y-168440100D02*
X332080000Y-168440100D01*
X79599100Y-206087900D02*
X76300090Y-206087900D01*
X281005000Y-218540000D02*
X281005000Y-215439400D01*
X236830000Y-190589300D02*
X237631000Y-190589300D01*
X327318000Y-161389900D02*
X328119000Y-161389900D01*
X151906200Y-218540000D02*
X151906200Y-219539100D01*
X340536000Y-187490100D02*
X339737000Y-187490100D01*
X256393000Y-148389600D02*
X242394000Y-148389600D01*
X314344000Y-149390100D02*
X313543000Y-149390100D01*
X179680000Y-199489900D02*
X180481000Y-199489900D01*
X70143010Y-149390100D02*
X70143010Y-152489300D01*
X265918000Y-181438900D02*
X265918000Y-180439900D01*
X263024000Y-228687900D02*
X263825000Y-228687900D01*
X142093000Y-162388900D02*
X142093000Y-161389900D01*
X170668000Y-180439900D02*
X171469000Y-180439900D01*
X289218000Y-177339300D02*
X289218000Y-180439900D01*
X301637000Y-224589600D02*
X287636000Y-224589600D01*
X227818000Y-180439900D02*
X228619000Y-180439900D01*
X294781000Y-186489600D02*
X294781000Y-187490100D01*
X275443000Y-162388900D02*
X275443000Y-161389900D01*
X325736000Y-191190100D02*
X324212000Y-191190100D01*
X184956000Y-206540000D02*
X184956000Y-205539700D01*
X308268000Y-168440100D02*
X308268000Y-171539300D01*
X209569000Y-168440100D02*
X208768000Y-168440100D01*
X72524280Y-228687900D02*
X73324910Y-228687900D01*
X213819000Y-168440100D02*
X213018000Y-168440100D01*
X113806200Y-219539100D02*
X127805500Y-219539100D01*
X324212000Y-187960000D02*
X322485000Y-187960000D01*
X123331200Y-200488900D02*
X137330500Y-200488900D01*
X279693000Y-149390100D02*
X279693000Y-152489300D01*
X309069000Y-168440100D02*
X308268000Y-168440100D01*
X263024000Y-237589970D02*
X263825000Y-237589970D01*
X227305000Y-206540000D02*
X227305000Y-209637900D01*
X194481000Y-199489900D02*
X195280000Y-199489900D01*
X349262000Y-237589970D02*
X350061000Y-237589970D01*
X170956000Y-215439400D02*
X170155000Y-215439400D01*
X317461000Y-200258900D02*
X319186000Y-200258900D01*
X309580000Y-190589300D02*
X309580000Y-187490100D01*
X237631000Y-199489900D02*
X237631000Y-200488900D01*
X180193000Y-162388900D02*
X180193000Y-161389900D01*
X277824000Y-225590000D02*
X277824000Y-224589600D01*
X341524000Y-219308900D02*
X343249000Y-219308900D01*
X242905000Y-206540000D02*
X242106000Y-206540000D01*
X81324400Y-210240100D02*
X81324400Y-207009900D01*
X199531000Y-200488900D02*
X213531000Y-200488900D01*
X323869000Y-171539300D02*
X323869000Y-168440100D01*
X285256000Y-206540000D02*
X284455000Y-206540000D01*
X123043000Y-158289300D02*
X123043000Y-152489300D01*
X100098800Y-219308900D02*
X100098800Y-220290100D01*
X137330500Y-200488900D02*
X137330500Y-199489900D01*
X285256000Y-205539700D02*
X285256000Y-206540000D01*
X332881000Y-167439600D02*
X332881000Y-168440100D01*
X324935000Y-196389300D02*
X324935000Y-199489900D01*
X147654900Y-209637900D02*
X147654900Y-206540000D01*
X334462000Y-225590000D02*
X334462000Y-228687900D01*
X105949900Y-213038900D02*
X105949900Y-210240100D01*
X223056000Y-215439400D02*
X223056000Y-209637900D01*
X82849900Y-215439400D02*
X82049300Y-215439400D01*
X208255000Y-209637900D02*
X209056000Y-209637900D01*
X152418800Y-180439900D02*
X152418800Y-177339300D01*
X320974000Y-218540000D02*
X320974000Y-219539100D01*
X232869000Y-171539300D02*
X232869000Y-177339300D01*
X137330500Y-187490100D02*
X137330500Y-186489600D01*
X275731000Y-199489900D02*
X275731000Y-200488900D01*
X232581000Y-187490100D02*
X232581000Y-186489600D01*
X328119000Y-152489300D02*
X328119000Y-153090100D01*
X349262000Y-225590000D02*
X349262000Y-224589600D01*
X137618700Y-181438900D02*
X151618000Y-181438900D01*
X92886200Y-199489900D02*
X92886200Y-196389300D01*
X289731000Y-190589300D02*
X290530000Y-190589300D01*
X195280000Y-190589300D02*
X195280000Y-187490100D01*
X104281200Y-196389300D02*
X103480500Y-196389300D01*
X174918000Y-171539300D02*
X175719000Y-171539300D01*
X89705700Y-177339300D02*
X89705700Y-171539300D01*
X246355000Y-215439400D02*
X246355000Y-218540000D01*
X77286780Y-190589300D02*
X78086030Y-190589300D01*
X270168000Y-171539300D02*
X270969000Y-171539300D01*
X310649000Y-225590000D02*
X310649000Y-228687900D01*
X274930000Y-196389300D02*
X274930000Y-199489900D01*
X336500000Y-210240100D02*
X334974000Y-210240100D01*
X189718000Y-177339300D02*
X189718000Y-171539300D01*
X247156000Y-206540000D02*
X246355000Y-206540000D01*
X118568700Y-167439600D02*
X118568700Y-168440100D01*
X218293000Y-161389900D02*
X219094000Y-161389900D01*
X104281200Y-200488900D02*
X118280500Y-200488900D01*
X218293000Y-162388900D02*
X218293000Y-161389900D01*
X189718000Y-180439900D02*
X190519000Y-180439900D01*
X207186000Y-225590000D02*
X206387000Y-225590000D01*
X320173000Y-218540000D02*
X320974000Y-218540000D01*
X198730000Y-187490100D02*
X198730000Y-190589300D01*
X294781000Y-196389300D02*
X293980000Y-196389300D01*
X313543000Y-158289300D02*
X313543000Y-152489300D01*
X213819000Y-177339300D02*
X213018000Y-177339300D01*
X228106000Y-205539700D02*
X228106000Y-206540000D01*
X73749330Y-210240100D02*
X73749330Y-213038900D01*
X78086030Y-190589300D02*
X78086030Y-196389300D01*
X146342900Y-149390100D02*
X146342900Y-152489300D01*
X157179900Y-190589300D02*
X157179900Y-187490100D01*
X108242900Y-152489300D02*
X109043700Y-152489300D01*
X200044000Y-161389900D02*
X200044000Y-158289300D01*
X204006000Y-219539100D02*
X204006000Y-218540000D01*
X252762000Y-229290100D02*
X252762000Y-226059900D01*
X103480500Y-199489900D02*
X104281200Y-199489900D01*
X242394000Y-152489300D02*
X242394000Y-158289300D01*
X141580400Y-199489900D02*
X142381200Y-199489900D01*
X204294000Y-148389600D02*
X204294000Y-149390100D01*
X270969000Y-167439600D02*
X270969000Y-168440100D01*
X265918000Y-180439900D02*
X266719000Y-180439900D01*
X256393000Y-162388900D02*
X256393000Y-161389900D01*
X319844000Y-155889000D02*
X319844000Y-162158900D01*
X132568000Y-171539300D02*
X133368800Y-171539300D01*
X252430000Y-190589300D02*
X252430000Y-187490100D01*
X96849400Y-219539100D02*
X96849400Y-218540000D01*
X123043000Y-152489300D02*
X123843800Y-152489300D01*
X336500000Y-207009900D02*
X336500000Y-210240100D01*
X280206000Y-219539100D02*
X280206000Y-218540000D01*
X284455000Y-209637900D02*
X285256000Y-209637900D01*
X132856200Y-215439400D02*
X132055400Y-215439400D01*
X72524280Y-234489410D02*
X72524280Y-237589970D01*
X123043000Y-162388900D02*
X123043000Y-161389900D01*
X170668000Y-177339300D02*
X170668000Y-171539300D01*
X161431200Y-200488900D02*
X175431000Y-200488900D01*
X111136800Y-238589060D02*
X111136800Y-237589970D01*
X128093700Y-149390100D02*
X127292900Y-149390100D01*
X346287000Y-200258900D02*
X348012000Y-200258900D01*
X127805500Y-209637900D02*
X128604900Y-209637900D01*
X180481000Y-186489600D02*
X180481000Y-187490100D01*
X223344000Y-148389600D02*
X223344000Y-149390100D01*
X120149200Y-234489410D02*
X120149200Y-237589970D01*
X300055000Y-215439400D02*
X299256000Y-215439400D01*
X319018000Y-153090100D02*
X319018000Y-155889000D01*
X128604900Y-209637900D02*
X128604900Y-206540000D01*
X133368800Y-168440100D02*
X132568000Y-168440100D01*
X309580000Y-196389300D02*
X308781000Y-196389300D01*
X287636000Y-224589600D02*
X287636000Y-225590000D01*
X105124400Y-213038900D02*
X105949900Y-213038900D01*
X328119000Y-162388900D02*
X342118000Y-162388900D01*
X170956000Y-219539100D02*
X184956000Y-219539100D01*
X323869000Y-180439900D02*
X323869000Y-177339300D01*
X347680000Y-180439900D02*
X347680000Y-177339300D01*
X320173000Y-215439400D02*
X320173000Y-218540000D01*
X78086030Y-200488900D02*
X92086900Y-200488900D01*
X98374900Y-219308900D02*
X100098800Y-219308900D01*
X322485000Y-187039300D02*
X319186000Y-187039300D01*
X113005400Y-215439400D02*
X113005400Y-218540000D01*
X289731000Y-196389300D02*
X289731000Y-190589300D01*
X284455000Y-218540000D02*
X285256000Y-218540000D01*
X274930000Y-199489900D02*
X275731000Y-199489900D01*
X299256000Y-206540000D02*
X299256000Y-205539700D01*
X343644000Y-149860000D02*
X343644000Y-153090100D01*
X309580000Y-187490100D02*
X308781000Y-187490100D01*
X175431000Y-186489600D02*
X161431200Y-186489600D01*
X109043700Y-161389900D02*
X109043700Y-162388900D01*
X175719000Y-181438900D02*
X189718000Y-181438900D01*
X147654900Y-215439400D02*
X146855500Y-215439400D01*
X286837000Y-237589970D02*
X287636000Y-237589970D01*
X246011000Y-226059900D02*
X246011000Y-229290100D01*
X332881000Y-171539300D02*
X332881000Y-177339300D01*
X308781000Y-196389300D02*
X308781000Y-190589300D01*
X161431200Y-187490100D02*
X160630400Y-187490100D01*
X151906200Y-215439400D02*
X151105400Y-215439400D01*
X302436000Y-225590000D02*
X301637000Y-225590000D01*
X152418800Y-177339300D02*
X151618000Y-177339300D01*
X322485000Y-187960000D02*
X322485000Y-187039300D01*
X260643000Y-152489300D02*
X261444000Y-152489300D01*
X326593000Y-162158900D02*
X326593000Y-157689900D01*
X290530000Y-187490100D02*
X289731000Y-187490100D01*
X348012000Y-193989000D02*
X348836000Y-193989000D01*
X263825000Y-225590000D02*
X263024000Y-225590000D01*
X346881000Y-177339300D02*
X346881000Y-171539300D01*
X192386000Y-224589600D02*
X192386000Y-225590000D01*
X298743000Y-149390100D02*
X298743000Y-152489300D01*
X105124400Y-210240100D02*
X105124400Y-207009900D01*
X75706160Y-167439600D02*
X75706160Y-168440100D01*
X217780000Y-190589300D02*
X218581000Y-190589300D01*
X319186000Y-187039300D02*
X319186000Y-187960000D01*
X190006000Y-205539700D02*
X190006000Y-206540000D01*
X103399200Y-220290100D02*
X103399200Y-219308900D01*
X194481000Y-200488900D02*
X194481000Y-199489900D01*
X134949300Y-225590000D02*
X134949300Y-224589600D01*
X180481000Y-190589300D02*
X180481000Y-196389300D01*
X265918000Y-177339300D02*
X265918000Y-171539300D01*
X312700000Y-207009900D02*
X312700000Y-210240100D01*
X194769000Y-171539300D02*
X194769000Y-177339300D01*
X113518000Y-167439600D02*
X99518700Y-167439600D01*
X96336800Y-234489410D02*
X96336800Y-237589970D01*
X242106000Y-206540000D02*
X242106000Y-205539700D01*
X180481000Y-200488900D02*
X194481000Y-200488900D01*
X325736000Y-196389300D02*
X324935000Y-196389300D01*
X84943200Y-161389900D02*
X85743800Y-161389900D01*
X349262000Y-228687900D02*
X350061000Y-228687900D01*
X174918000Y-168440100D02*
X174918000Y-171539300D01*
X246011000Y-238358930D02*
X247736000Y-238358930D01*
X335775000Y-209637900D02*
X335775000Y-206540000D01*
X299544000Y-149390100D02*
X298743000Y-149390100D01*
X166192300Y-148389600D02*
X166192300Y-149390100D01*
X324212000Y-195789900D02*
X325736000Y-195789900D01*
X320974000Y-214840000D02*
X320974000Y-215439400D01*
X294493000Y-149390100D02*
X294493000Y-148389600D01*
X332080000Y-171539300D02*
X332881000Y-171539300D01*
X227305000Y-209637900D02*
X228106000Y-209637900D01*
X227818000Y-181438900D02*
X227818000Y-180439900D01*
X92886200Y-190589300D02*
X92886200Y-187490100D01*
X274930000Y-187490100D02*
X274930000Y-190589300D01*
X171469000Y-180439900D02*
X171469000Y-177339300D01*
X311450000Y-228687900D02*
X311450000Y-234489410D01*
X314344000Y-158289300D02*
X313543000Y-158289300D01*
X261156000Y-205539700D02*
X247156000Y-205539700D01*
X70143010Y-161389900D02*
X70943650Y-161389900D01*
X199531000Y-186489600D02*
X199531000Y-187490100D01*
X340536000Y-199489900D02*
X340536000Y-196389300D01*
X120149200Y-228687900D02*
X120950000Y-228687900D01*
X170956000Y-206540000D02*
X170155000Y-206540000D01*
X127805500Y-205539700D02*
X113806200Y-205539700D01*
X247669000Y-177339300D02*
X246868000Y-177339300D01*
X232581000Y-199489900D02*
X233380000Y-199489900D01*
X190519000Y-177339300D02*
X189718000Y-177339300D01*
X290019000Y-168440100D02*
X289218000Y-168440100D01*
X343644000Y-162158900D02*
X345369000Y-162158900D01*
X222543000Y-158289300D02*
X222543000Y-161389900D01*
X103480500Y-187490100D02*
X103480500Y-190589300D01*
X204006000Y-218540000D02*
X204805000Y-218540000D01*
X275731000Y-196389300D02*
X274930000Y-196389300D01*
X206387000Y-225590000D02*
X206387000Y-224589600D01*
X137618700Y-167439600D02*
X137618700Y-168440100D01*
X256681000Y-187490100D02*
X255880000Y-187490100D01*
X75706160Y-171539300D02*
X75706160Y-177339300D01*
X96849400Y-214840000D02*
X98374900Y-214840000D01*
X77286780Y-196389300D02*
X77286780Y-199489900D01*
X252762000Y-232088860D02*
X253586000Y-232088860D01*
X104793800Y-158289300D02*
X103993000Y-158289300D01*
X304018000Y-167439600D02*
X290019000Y-167439600D01*
X319450000Y-219308900D02*
X319450000Y-214840000D01*
X194481000Y-190589300D02*
X195280000Y-190589300D01*
X184443000Y-152489300D02*
X185242000Y-152489300D01*
X103480500Y-190589300D02*
X104281200Y-190589300D01*
X334462000Y-234489410D02*
X334462000Y-237589970D01*
X284968000Y-171539300D02*
X285769000Y-171539300D01*
X295294000Y-152489300D02*
X295294000Y-149390100D01*
X214330000Y-199489900D02*
X214330000Y-196389300D01*
X142893800Y-161389900D02*
X142893800Y-158289300D01*
X147143700Y-149390100D02*
X146342900Y-149390100D01*
X252762000Y-226059900D02*
X251037000Y-226059900D01*
X198730000Y-199489900D02*
X199531000Y-199489900D01*
X104793800Y-152489300D02*
X104793800Y-149390100D01*
X263825000Y-234489410D02*
X263024000Y-234489410D01*
X343249000Y-213038900D02*
X344075000Y-213038900D01*
X118280500Y-199489900D02*
X119079900Y-199489900D01*
X74574800Y-207009900D02*
X74574800Y-210240100D01*
X218581000Y-190589300D02*
X218581000Y-196389300D01*
X119079900Y-199489900D02*
X119079900Y-196389300D01*
X120950000Y-237589970D02*
X120950000Y-238589060D01*
X326250000Y-237589970D02*
X326250000Y-234489410D01*
X227818000Y-177339300D02*
X227818000Y-171539300D01*
X348668000Y-162158900D02*
X350393000Y-162158900D01*
X223056000Y-209637900D02*
X223855000Y-209637900D01*
X73324910Y-225590000D02*
X72524280Y-225590000D01*
X317724000Y-219308900D02*
X319450000Y-219308900D01*
X265405000Y-215439400D02*
X265405000Y-218540000D01*
X233380000Y-190589300D02*
X233380000Y-187490100D01*
X189718000Y-181438900D02*
X189718000Y-180439900D01*
X89993700Y-162388900D02*
X103993000Y-162388900D01*
X237343000Y-149390100D02*
X237343000Y-148389600D01*
X203493000Y-152489300D02*
X204294000Y-152489300D01*
X97650000Y-209637900D02*
X97650000Y-206540000D01*
X204294000Y-161389900D02*
X204294000Y-162388900D01*
X79599100Y-219308900D02*
X81324400Y-219308900D01*
X166704900Y-215439400D02*
X165905500Y-215439400D01*
X242394000Y-148389600D02*
X242394000Y-149390100D01*
X350061000Y-228687900D02*
X350061000Y-225590000D01*
X98718000Y-180439900D02*
X99518700Y-180439900D01*
X147143700Y-152489300D02*
X147143700Y-158289300D01*
X304819000Y-177339300D02*
X304018000Y-177339300D01*
X132568000Y-168440100D02*
X132568000Y-167439600D01*
X265918000Y-167439600D02*
X251919000Y-167439600D01*
X96849400Y-210240100D02*
X96849400Y-209637900D01*
X256393000Y-152489300D02*
X257194000Y-152489300D01*
X199243000Y-158289300D02*
X199243000Y-152489300D01*
X108242900Y-149390100D02*
X108242900Y-152489300D01*
X118280500Y-200488900D02*
X118280500Y-199489900D01*
X97136000Y-228687900D02*
X97136000Y-234489410D01*
X285769000Y-171539300D02*
X285769000Y-168440100D01*
X246868000Y-180439900D02*
X247669000Y-180439900D01*
X241593000Y-158289300D02*
X241593000Y-161389900D01*
X227818000Y-167439600D02*
X213819000Y-167439600D01*
X119079900Y-196389300D02*
X118280500Y-196389300D01*
X185242000Y-148389600D02*
X185242000Y-149390100D01*
X77286780Y-187490100D02*
X77286780Y-190589300D01*
X77286780Y-199489900D02*
X78086030Y-199489900D01*
X327318000Y-158289300D02*
X327318000Y-161389900D01*
X84943200Y-158289300D02*
X84943200Y-152489300D01*
X74905530Y-177339300D02*
X74905530Y-180439900D01*
X304819000Y-168440100D02*
X304018000Y-168440100D01*
X81324400Y-207009900D02*
X79599100Y-207009900D01*
X280494000Y-149390100D02*
X279693000Y-149390100D01*
X294493000Y-161389900D02*
X295294000Y-161389900D01*
X151906200Y-209637900D02*
X151906200Y-215439400D01*
X203493000Y-161389900D02*
X204294000Y-161389900D01*
X157179900Y-199489900D02*
X157179900Y-196389300D01*
X171469000Y-168440100D02*
X170668000Y-168440100D01*
X120950000Y-238589060D02*
X134949300Y-238589060D01*
X87324400Y-225590000D02*
X87324400Y-224589600D01*
X219094000Y-152489300D02*
X219094000Y-149390100D01*
X98374900Y-214840000D02*
X98374900Y-219308900D01*
X265405000Y-218540000D02*
X266206000Y-218540000D01*
X84943200Y-162388900D02*
X84943200Y-161389900D01*
X284455000Y-206540000D02*
X284455000Y-209637900D01*
X76300090Y-207009900D02*
X74574800Y-207009900D01*
X151618000Y-181438900D02*
X151618000Y-180439900D01*
X285256000Y-209637900D02*
X285256000Y-215439400D01*
X286837000Y-225590000D02*
X286837000Y-228687900D01*
X128093700Y-158289300D02*
X127292900Y-158289300D01*
X277824000Y-224589600D02*
X263825000Y-224589600D01*
X304018000Y-177339300D02*
X304018000Y-171539300D01*
X349262000Y-224589600D02*
X335261000Y-224589600D01*
X133368800Y-180439900D02*
X133368800Y-177339300D01*
X236830000Y-199489900D02*
X237631000Y-199489900D01*
X193968000Y-168440100D02*
X193968000Y-171539300D01*
X111136800Y-228687900D02*
X111936200Y-228687900D01*
X185755000Y-206540000D02*
X184956000Y-206540000D01*
X328119000Y-148389600D02*
X328119000Y-149390100D01*
X294493000Y-148389600D02*
X280494000Y-148389600D01*
X335261000Y-234489410D02*
X334462000Y-234489410D01*
X310649000Y-237589970D02*
X311450000Y-237589970D01*
X120950000Y-228687900D02*
X120950000Y-234489410D01*
X213819000Y-181438900D02*
X227818000Y-181438900D01*
X280206000Y-218540000D02*
X281005000Y-218540000D01*
X185755000Y-209637900D02*
X185755000Y-206540000D01*
X251919000Y-168440100D02*
X251118000Y-168440100D01*
X161143000Y-148389600D02*
X147143700Y-148389600D01*
X146011000Y-238358930D02*
X147736000Y-238358930D01*
X298743000Y-161389900D02*
X299544000Y-161389900D01*
X341524000Y-206087900D02*
X338224000Y-206087900D01*
X135750100Y-228687900D02*
X135750100Y-225590000D01*
X165392900Y-149390100D02*
X165392900Y-152489300D01*
X334974000Y-219539100D02*
X334974000Y-218540000D01*
X242905000Y-218540000D02*
X242905000Y-215439400D01*
X320974000Y-206540000D02*
X320173000Y-206540000D01*
X113005400Y-218540000D02*
X113806200Y-218540000D01*
X87324400Y-237589970D02*
X88125000Y-237589970D01*
X232581000Y-190589300D02*
X233380000Y-190589300D01*
X193968000Y-177339300D02*
X193968000Y-180439900D01*
X88125000Y-228687900D02*
X88125000Y-225590000D01*
X271480000Y-199489900D02*
X271480000Y-196389300D01*
X252430000Y-187490100D02*
X251631000Y-187490100D01*
X270681000Y-196389300D02*
X270681000Y-190589300D01*
X89705700Y-167439600D02*
X75706160Y-167439600D01*
X170668000Y-167439600D02*
X156668700Y-167439600D01*
X313543000Y-161389900D02*
X314344000Y-161389900D01*
X123331200Y-196389300D02*
X122530400Y-196389300D01*
X209056000Y-215439400D02*
X208255000Y-215439400D01*
X247156000Y-218540000D02*
X247156000Y-219539100D01*
X132568000Y-177339300D02*
X132568000Y-171539300D01*
X184956000Y-215439400D02*
X184956000Y-209637900D01*
X270969000Y-177339300D02*
X270168000Y-177339300D01*
X194481000Y-186489600D02*
X180481000Y-186489600D01*
X285256000Y-218540000D02*
X285256000Y-219539100D01*
X261156000Y-219539100D02*
X261156000Y-218540000D01*
X316637000Y-191190100D02*
X316637000Y-193989000D01*
X275443000Y-148389600D02*
X261444000Y-148389600D01*
X336500000Y-219308900D02*
X338224000Y-219308900D01*
X194769000Y-168440100D02*
X193968000Y-168440100D01*
X142381200Y-187490100D02*
X141580400Y-187490100D01*
X113806200Y-215439400D02*
X113005400Y-215439400D01*
X299544000Y-148389600D02*
X299544000Y-149390100D01*
X92086900Y-200488900D02*
X92086900Y-199489900D01*
X75706160Y-177339300D02*
X74905530Y-177339300D01*
X214330000Y-190589300D02*
X214330000Y-187490100D01*
X261156000Y-218540000D02*
X261955000Y-218540000D01*
X109043700Y-149390100D02*
X108242900Y-149390100D01*
X270969000Y-168440100D02*
X270168000Y-168440100D01*
X309069000Y-180439900D02*
X309069000Y-181438900D01*
X180992000Y-149390100D02*
X180193000Y-149390100D01*
X100098800Y-207009900D02*
X98374900Y-207009900D01*
X204006000Y-206540000D02*
X204006000Y-205539700D01*
X324868000Y-163140000D02*
X324868000Y-162158900D01*
X236830000Y-187490100D02*
X236830000Y-190589300D01*
X266206000Y-215439400D02*
X265405000Y-215439400D01*
X88125000Y-225590000D02*
X87324400Y-225590000D01*
X257194000Y-161389900D02*
X257194000Y-158289300D01*
X207186000Y-228687900D02*
X207186000Y-225590000D01*
X147654900Y-206540000D02*
X146855500Y-206540000D01*
X118568700Y-177339300D02*
X117767900Y-177339300D01*
X325736000Y-195789900D02*
X325736000Y-196389300D01*
X75706160Y-168440100D02*
X74905530Y-168440100D01*
X287636000Y-238589060D02*
X301637000Y-238589060D01*
X180193000Y-152489300D02*
X180992000Y-152489300D01*
X194769000Y-167439600D02*
X194769000Y-168440100D01*
X118280500Y-187490100D02*
X118280500Y-186489600D01*
X281005000Y-206540000D02*
X280206000Y-206540000D01*
X308781000Y-186489600D02*
X294781000Y-186489600D01*
X271480000Y-187490100D02*
X270681000Y-187490100D01*
X122530400Y-190589300D02*
X123331200Y-190589300D01*
X324935000Y-187490100D02*
X324935000Y-190589300D01*
X301637000Y-237589970D02*
X302436000Y-237589970D01*
X289218000Y-168440100D02*
X289218000Y-171539300D01*
X340536000Y-196389300D02*
X339737000Y-196389300D01*
X78086030Y-187490100D02*
X77286780Y-187490100D01*
X113806200Y-209637900D02*
X113806200Y-215439400D01*
X227305000Y-215439400D02*
X227305000Y-218540000D01*
X161942400Y-152489300D02*
X161942400Y-149390100D01*
X326250000Y-225590000D02*
X325449000Y-225590000D01*
X228106000Y-209637900D02*
X228106000Y-215439400D01*
X326250000Y-228687900D02*
X326250000Y-225590000D01*
X161143000Y-161389900D02*
X161942400Y-161389900D01*
X208255000Y-206540000D02*
X208255000Y-209637900D01*
X213531000Y-199489900D02*
X214330000Y-199489900D01*
X326593000Y-149860000D02*
X324868000Y-149860000D01*
X346881000Y-181438900D02*
X346881000Y-180439900D01*
X113518000Y-171539300D02*
X114318800Y-171539300D01*
X170155000Y-215439400D02*
X170155000Y-218540000D01*
X223855000Y-215439400D02*
X223056000Y-215439400D01*
X319018000Y-155889000D02*
X319844000Y-155889000D01*
X204805000Y-215439400D02*
X204006000Y-215439400D01*
X204006000Y-209637900D02*
X204805000Y-209637900D01*
X246011000Y-233888590D02*
X246011000Y-238358930D01*
X117767900Y-168440100D02*
X117767900Y-171539300D01*
X118280500Y-196389300D02*
X118280500Y-190589300D01*
X285256000Y-219539100D02*
X299256000Y-219539100D01*
X298743000Y-152489300D02*
X299544000Y-152489300D01*
X96849400Y-215439400D02*
X96849400Y-214840000D01*
X166192300Y-162388900D02*
X180193000Y-162388900D01*
X218581000Y-200488900D02*
X232581000Y-200488900D01*
X237631000Y-187490100D02*
X236830000Y-187490100D01*
X175719000Y-171539300D02*
X175719000Y-177339300D01*
X232581000Y-200488900D02*
X232581000Y-199489900D01*
X266206000Y-218540000D02*
X266206000Y-219539100D01*
X137618700Y-180439900D02*
X137618700Y-181438900D01*
X132856200Y-219539100D02*
X146855500Y-219539100D01*
X118568700Y-180439900D02*
X118568700Y-181438900D01*
X281005000Y-215439400D02*
X280206000Y-215439400D01*
X127292900Y-149390100D02*
X127292900Y-152489300D01*
X72524280Y-225590000D02*
X72524280Y-228687900D01*
X261156000Y-206540000D02*
X261156000Y-205539700D01*
X246868000Y-177339300D02*
X246868000Y-171539300D01*
X195280000Y-187490100D02*
X194481000Y-187490100D01*
X293980000Y-190589300D02*
X294781000Y-190589300D01*
X302436000Y-237589970D02*
X302436000Y-234489410D01*
X171469000Y-171539300D02*
X171469000Y-168440100D01*
X347680000Y-177339300D02*
X346881000Y-177339300D01*
X92086900Y-196389300D02*
X92086900Y-190589300D01*
X233380000Y-196389300D02*
X232581000Y-196389300D01*
X265918000Y-168440100D02*
X265918000Y-167439600D01*
X98718000Y-168440100D02*
X98718000Y-171539300D01*
X325736000Y-199489900D02*
X325736000Y-200488900D01*
X342919000Y-161389900D02*
X342919000Y-158289300D01*
X135750100Y-237589970D02*
X135750100Y-234489410D01*
X279693000Y-158289300D02*
X279693000Y-161389900D01*
X247669000Y-180439900D02*
X247669000Y-177339300D01*
X155867900Y-171539300D02*
X156668700Y-171539300D01*
X70943650Y-149390100D02*
X70143010Y-149390100D01*
X199243000Y-161389900D02*
X200044000Y-161389900D01*
X132055400Y-218540000D02*
X132856200Y-218540000D01*
X151036600Y-239340090D02*
X151036600Y-238358930D01*
X350393000Y-155889000D02*
X351219000Y-155889000D01*
X313543000Y-148389600D02*
X299544000Y-148389600D01*
X189718000Y-168440100D02*
X189718000Y-167439600D01*
X294493000Y-162388900D02*
X294493000Y-161389900D01*
X111936200Y-228687900D02*
X111936200Y-225590000D01*
X98718000Y-177339300D02*
X98718000Y-180439900D01*
X270681000Y-186489600D02*
X256681000Y-186489600D01*
X147143700Y-161389900D02*
X147143700Y-162388900D01*
X103993000Y-152489300D02*
X104793800Y-152489300D01*
X78086030Y-186489600D02*
X78086030Y-187490100D01*
X90504900Y-180439900D02*
X90504900Y-177339300D01*
X325736000Y-186489600D02*
X325736000Y-187490100D01*
X275443000Y-161389900D02*
X276244000Y-161389900D01*
X338224000Y-207009900D02*
X336500000Y-207009900D01*
X89705700Y-168440100D02*
X89705700Y-167439600D01*
X270969000Y-180439900D02*
X270969000Y-181438900D01*
X96336800Y-237589970D02*
X97136000Y-237589970D01*
X228106000Y-219539100D02*
X242106000Y-219539100D01*
X165392900Y-158289300D02*
X165392900Y-161389900D01*
X99518700Y-167439600D02*
X99518700Y-168440100D01*
X74905530Y-168440100D02*
X74905530Y-171539300D01*
X137618700Y-168440100D02*
X136817900Y-168440100D01*
X103480500Y-196389300D02*
X103480500Y-199489900D01*
X247156000Y-209637900D02*
X247156000Y-215439400D01*
X145186900Y-229290100D02*
X145186900Y-232088860D01*
X232869000Y-181438900D02*
X246868000Y-181438900D01*
X192386000Y-228687900D02*
X192386000Y-229290100D01*
X89705700Y-180439900D02*
X90504900Y-180439900D01*
X335775000Y-215439400D02*
X334974000Y-215439400D01*
X135750100Y-225590000D02*
X134949300Y-225590000D01*
X256681000Y-186489600D02*
X256681000Y-187490100D01*
X317461000Y-193989000D02*
X317461000Y-200258900D01*
X348668000Y-148937900D02*
X345369000Y-148937900D01*
X334974000Y-210240100D02*
X334974000Y-209637900D01*
X174918000Y-180439900D02*
X175719000Y-180439900D01*
X74905530Y-180439900D02*
X75706160Y-180439900D01*
X132055400Y-209637900D02*
X132856200Y-209637900D01*
X82049300Y-209637900D02*
X82849900Y-209637900D01*
X122530400Y-196389300D02*
X122530400Y-199489900D01*
X111136800Y-234489410D02*
X111136800Y-228687900D01*
X323869000Y-177339300D02*
X323068000Y-177339300D01*
X103993000Y-161389900D02*
X104793800Y-161389900D01*
X198730000Y-196389300D02*
X198730000Y-199489900D01*
X320173000Y-209637900D02*
X320974000Y-209637900D01*
X189205000Y-209637900D02*
X190006000Y-209637900D01*
X78086030Y-196389300D02*
X77286780Y-196389300D01*
X113518000Y-168440100D02*
X113518000Y-167439600D01*
X76300090Y-219308900D02*
X76300090Y-220290100D01*
X289731000Y-186489600D02*
X275731000Y-186489600D01*
X120950000Y-224589600D02*
X120950000Y-225590000D01*
X341261000Y-200258900D02*
X342986000Y-200258900D01*
X166704900Y-218540000D02*
X166704900Y-215439400D01*
X175431000Y-199489900D02*
X176230000Y-199489900D01*
X117767900Y-180439900D02*
X118568700Y-180439900D01*
X166704900Y-206540000D02*
X165905500Y-206540000D01*
X208768000Y-181438900D02*
X208768000Y-180439900D01*
X114318800Y-168440100D02*
X113518000Y-168440100D01*
X314425000Y-220290100D02*
X317724000Y-220290100D01*
X134949300Y-238589060D02*
X134949300Y-237589970D01*
X199531000Y-187490100D02*
X198730000Y-187490100D01*
X257194000Y-158289300D02*
X256393000Y-158289300D01*
X78086030Y-199489900D02*
X78086030Y-200488900D01*
X209056000Y-205539700D02*
X209056000Y-206540000D01*
X335775000Y-206540000D02*
X334974000Y-206540000D01*
X156380500Y-186489600D02*
X142381200Y-186489600D01*
X253586000Y-229290100D02*
X252762000Y-229290100D01*
X332881000Y-181438900D02*
X346881000Y-181438900D01*
X68419085Y-145865200D02*
X354169000Y-145865200D01*
X142093000Y-149390100D02*
X142093000Y-148389600D01*
X342986000Y-187039300D02*
X342986000Y-187960000D01*
X275731000Y-190589300D02*
X275731000Y-196389300D01*
X141580400Y-190589300D02*
X142381200Y-190589300D01*
X82849900Y-219539100D02*
X96849400Y-219539100D01*
X180992000Y-158289300D02*
X180193000Y-158289300D01*
X314344000Y-161389900D02*
X314344000Y-158289300D01*
X236830000Y-196389300D02*
X236830000Y-199489900D01*
X328119000Y-149390100D02*
X327318000Y-149390100D01*
X295294000Y-158289300D02*
X294493000Y-158289300D01*
X328119000Y-161389900D02*
X328119000Y-162388900D01*
X73324910Y-224589600D02*
X73324910Y-225590000D01*
X179680000Y-196389300D02*
X179680000Y-199489900D01*
X343644000Y-153090100D02*
X342118000Y-153090100D01*
X111136800Y-237589970D02*
X111936200Y-237589970D01*
X191587000Y-228687900D02*
X192386000Y-228687900D01*
X247669000Y-168440100D02*
X246868000Y-168440100D01*
X204805000Y-218540000D02*
X204805000Y-215439400D01*
X284968000Y-177339300D02*
X284968000Y-171539300D01*
X134949300Y-237589970D02*
X135750100Y-237589970D01*
X104793800Y-149390100D02*
X103993000Y-149390100D01*
X161143000Y-162388900D02*
X161143000Y-161389900D01*
X111936200Y-225590000D02*
X111136800Y-225590000D01*
X313543000Y-162388900D02*
X313543000Y-161389900D01*
X256681000Y-199489900D02*
X256681000Y-200488900D01*
X299256000Y-219539100D02*
X299256000Y-218540000D01*
X160630400Y-187490100D02*
X160630400Y-190589300D01*
X127292900Y-161389900D02*
X128093700Y-161389900D01*
X99518700Y-180439900D02*
X99518700Y-181438900D01*
X338224000Y-219308900D02*
X338224000Y-220290100D01*
X218581000Y-196389300D02*
X217780000Y-196389300D01*
X237631000Y-186489600D02*
X237631000Y-187490100D01*
X114318800Y-180439900D02*
X114318800Y-177339300D01*
X190006000Y-219539100D02*
X204006000Y-219539100D01*
X218293000Y-152489300D02*
X219094000Y-152489300D01*
X232068000Y-168440100D02*
X232068000Y-171539300D01*
X146011000Y-229290100D02*
X145186900Y-229290100D01*
X170956000Y-205539700D02*
X170956000Y-206540000D01*
X270681000Y-199489900D02*
X271480000Y-199489900D01*
X299256000Y-218540000D02*
X300055000Y-218540000D01*
X146855500Y-215439400D02*
X146855500Y-209637900D01*
X319186000Y-200258900D02*
X319186000Y-201240000D01*
X73324910Y-238589060D02*
X87324400Y-238589060D01*
X113518000Y-177339300D02*
X113518000Y-171539300D01*
X319844000Y-149860000D02*
X319844000Y-153090100D01*
X87324400Y-228687900D02*
X88125000Y-228687900D01*
X334974000Y-218540000D02*
X335775000Y-218540000D01*
X204805000Y-209637900D02*
X204805000Y-206540000D01*
X103993000Y-149390100D02*
X103993000Y-148389600D01*
X209056000Y-209637900D02*
X209056000Y-215439400D01*
X260643000Y-161389900D02*
X261444000Y-161389900D01*
X319450000Y-207009900D02*
X317724000Y-207009900D01*
X89193000Y-152489300D02*
X89993700Y-152489300D01*
X299544000Y-158289300D02*
X298743000Y-158289300D01*
X251118000Y-171539300D02*
X251919000Y-171539300D01*
X290019000Y-167439600D02*
X290019000Y-168440100D01*
X263825000Y-228687900D02*
X263825000Y-234489410D01*
X290019000Y-181438900D02*
X304018000Y-181438900D01*
X320974000Y-209637900D02*
X320974000Y-210240100D01*
X276244000Y-161389900D02*
X276244000Y-158289300D01*
X128093700Y-162388900D02*
X142093000Y-162388900D01*
X290530000Y-196389300D02*
X289731000Y-196389300D01*
X232869000Y-167439600D02*
X232869000Y-168440100D01*
X285769000Y-177339300D02*
X284968000Y-177339300D01*
X294781000Y-190589300D02*
X294781000Y-196389300D01*
X213819000Y-180439900D02*
X213819000Y-181438900D01*
X345369000Y-149860000D02*
X343644000Y-149860000D01*
X73324910Y-234489410D02*
X72524280Y-234489410D01*
X156380500Y-190589300D02*
X157179900Y-190589300D01*
X146855500Y-205539700D02*
X132856200Y-205539700D01*
X342919000Y-158289300D02*
X342118000Y-158289300D01*
X194481000Y-196389300D02*
X194481000Y-190589300D01*
X119079900Y-190589300D02*
X119079900Y-187490100D01*
X203493000Y-149390100D02*
X203493000Y-152489300D01*
X192386000Y-233888590D02*
X192386000Y-234489410D01*
X287636000Y-228687900D02*
X287636000Y-234489410D01*
X111136800Y-225590000D02*
X111136800Y-224589600D01*
X97136000Y-238589060D02*
X111136800Y-238589060D01*
X290019000Y-171539300D02*
X290019000Y-177339300D01*
X266206000Y-206540000D02*
X265405000Y-206540000D01*
X326593000Y-157689900D02*
X328119000Y-157689900D01*
X295294000Y-149390100D02*
X294493000Y-149390100D01*
X190519000Y-180439900D02*
X190519000Y-177339300D01*
X309580000Y-199489900D02*
X309580000Y-196389300D01*
X176230000Y-199489900D02*
X176230000Y-196389300D01*
X151906200Y-206540000D02*
X151105400Y-206540000D01*
X260643000Y-158289300D02*
X260643000Y-161389900D01*
X251037000Y-225138000D02*
X247736000Y-225138000D01*
X343249000Y-207009900D02*
X341524000Y-207009900D01*
X128093700Y-148389600D02*
X128093700Y-149390100D01*
X180481000Y-196389300D02*
X179680000Y-196389300D01*
X238144000Y-161389900D02*
X238144000Y-158289300D01*
X190006000Y-206540000D02*
X189205000Y-206540000D01*
X324868000Y-149860000D02*
X324868000Y-148937900D01*
X97650000Y-206540000D02*
X96849400Y-206540000D01*
X301637000Y-225590000D02*
X301637000Y-224589600D01*
X128604900Y-206540000D02*
X127805500Y-206540000D01*
X287636000Y-237589970D02*
X287636000Y-238589060D01*
X89993700Y-148389600D02*
X89993700Y-149390100D01*
X290530000Y-199489900D02*
X290530000Y-196389300D01*
X152418800Y-168440100D02*
X151618000Y-168440100D01*
X278625000Y-237589970D02*
X278625000Y-234489410D01*
X348668000Y-163140000D02*
X348668000Y-162158900D01*
X137330500Y-196389300D02*
X137330500Y-190589300D01*
X138129900Y-187490100D02*
X137330500Y-187490100D01*
X218293000Y-148389600D02*
X204294000Y-148389600D01*
X223855000Y-209637900D02*
X223855000Y-206540000D01*
X255880000Y-187490100D02*
X255880000Y-190589300D01*
X339737000Y-195789900D02*
X341261000Y-195789900D01*
X320974000Y-215439400D02*
X320173000Y-215439400D01*
X324935000Y-190589300D02*
X325736000Y-190589300D01*
X176230000Y-190589300D02*
X176230000Y-187490100D01*
X194481000Y-187490100D02*
X194481000Y-186489600D01*
X348012000Y-191190100D02*
X348012000Y-187960000D01*
X104281200Y-190589300D02*
X104281200Y-196389300D01*
X300055000Y-218540000D02*
X300055000Y-215439400D01*
X223855000Y-218540000D02*
X223855000Y-215439400D01*
X280206000Y-205539700D02*
X266206000Y-205539700D01*
X165392900Y-152489300D02*
X166192300Y-152489300D01*
X82849900Y-214840000D02*
X82849900Y-215439400D01*
X261444000Y-158289300D02*
X260643000Y-158289300D01*
X310649000Y-234489410D02*
X310649000Y-237589970D01*
X161942400Y-161389900D02*
X161942400Y-158289300D01*
X308781000Y-190589300D02*
X309580000Y-190589300D01*
X213018000Y-180439900D02*
X213819000Y-180439900D01*
X76300090Y-220290100D02*
X79599100Y-220290100D01*
X189205000Y-218540000D02*
X190006000Y-218540000D01*
X278625000Y-234489410D02*
X277824000Y-234489410D01*
X242394000Y-161389900D02*
X242394000Y-162388900D01*
X328119000Y-157689900D02*
X328119000Y-158289300D01*
X251118000Y-180439900D02*
X251919000Y-180439900D01*
X79599100Y-220290100D02*
X79599100Y-219308900D01*
X195280000Y-199489900D02*
X195280000Y-196389300D01*
X247736000Y-239340090D02*
X251037000Y-239340090D01*
X92086900Y-186489600D02*
X78086030Y-186489600D01*
X342919000Y-149390100D02*
X342118000Y-149390100D01*
X117767900Y-171539300D02*
X118568700Y-171539300D01*
X152762100Y-229290100D02*
X152762100Y-226059900D01*
X118280500Y-190589300D02*
X119079900Y-190589300D01*
X213018000Y-171539300D02*
X213819000Y-171539300D01*
X246868000Y-168440100D02*
X246868000Y-167439600D01*
X142093000Y-161389900D02*
X142893800Y-161389900D01*
X127292900Y-158289300D02*
X127292900Y-161389900D01*
X156668700Y-177339300D02*
X155867900Y-177339300D01*
X343249000Y-219308900D02*
X343249000Y-213038900D01*
X89193000Y-161389900D02*
X89993700Y-161389900D01*
X247156000Y-215439400D02*
X246355000Y-215439400D01*
X324935000Y-199489900D02*
X325736000Y-199489900D01*
X342118000Y-158289300D02*
X342118000Y-157689900D01*
X204294000Y-152489300D02*
X204294000Y-158289300D01*
X293980000Y-199489900D02*
X294781000Y-199489900D01*
X242905000Y-215439400D02*
X242106000Y-215439400D01*
X281005000Y-209637900D02*
X281005000Y-206540000D01*
X275443000Y-149390100D02*
X275443000Y-148389600D01*
X161431200Y-199489900D02*
X161431200Y-200488900D01*
X123843800Y-161389900D02*
X123843800Y-158289300D01*
X334974000Y-214840000D02*
X336500000Y-214840000D01*
X208768000Y-167439600D02*
X194769000Y-167439600D01*
X111136800Y-224589600D02*
X97136000Y-224589600D01*
X194769000Y-180439900D02*
X194769000Y-181438900D01*
X171469000Y-177339300D02*
X170668000Y-177339300D01*
X100098800Y-220290100D02*
X103399200Y-220290100D01*
X74574800Y-219308900D02*
X76300090Y-219308900D01*
X79599100Y-207009900D02*
X79599100Y-206087900D01*
X152762100Y-238358930D02*
X152762100Y-233888590D01*
X104281200Y-187490100D02*
X103480500Y-187490100D01*
X270969000Y-181438900D02*
X284968000Y-181438900D01*
X325449000Y-225590000D02*
X325449000Y-224589600D01*
X96849400Y-206540000D02*
X96849400Y-205539700D01*
X232869000Y-177339300D02*
X232068000Y-177339300D01*
X151618000Y-168440100D02*
X151618000Y-167439600D01*
X82849900Y-210240100D02*
X81324400Y-210240100D01*
X266206000Y-205539700D02*
X266206000Y-206540000D01*
X350393000Y-162158900D02*
X350393000Y-155889000D01*
X342118000Y-149390100D02*
X342118000Y-148389600D01*
X136817900Y-168440100D02*
X136817900Y-171539300D01*
X133368800Y-177339300D02*
X132568000Y-177339300D01*
X322485000Y-201240000D02*
X322485000Y-200258900D01*
X84943200Y-148389600D02*
X70943650Y-148389600D01*
X301637000Y-228687900D02*
X302436000Y-228687900D01*
X246868000Y-181438900D02*
X246868000Y-180439900D01*
X170155000Y-209637900D02*
X170956000Y-209637900D01*
X256393000Y-149390100D02*
X256393000Y-148389600D01*
X342118000Y-162388900D02*
X342118000Y-161389900D01*
X289218000Y-171539300D02*
X290019000Y-171539300D01*
X213819000Y-171539300D02*
X213819000Y-177339300D01*
X142381200Y-186489600D02*
X142381200Y-187490100D01*
X156668700Y-180439900D02*
X156668700Y-181438900D01*
X270681000Y-190589300D02*
X271480000Y-190589300D01*
X123331200Y-186489600D02*
X123331200Y-187490100D01*
X184956000Y-209637900D02*
X185755000Y-209637900D01*
X117767900Y-177339300D02*
X117767900Y-180439900D01*
X257194000Y-149390100D02*
X256393000Y-149390100D01*
X192386000Y-237589970D02*
X192386000Y-238589060D01*
X84943200Y-149390100D02*
X84943200Y-148389600D01*
X151618000Y-177339300D02*
X151618000Y-171539300D01*
X165392900Y-161389900D02*
X166192300Y-161389900D01*
X191587000Y-225590000D02*
X191587000Y-228687900D01*
X251631000Y-186489600D02*
X237631000Y-186489600D01*
X184956000Y-205539700D02*
X170956000Y-205539700D01*
X127292900Y-152489300D02*
X128093700Y-152489300D01*
X123331200Y-199489900D02*
X123331200Y-200488900D01*
X289731000Y-199489900D02*
X290530000Y-199489900D01*
X277824000Y-228687900D02*
X278625000Y-228687900D01*
X346287000Y-187039300D02*
X342986000Y-187039300D01*
X207186000Y-237589970D02*
X207186000Y-234489410D01*
X213531000Y-186489600D02*
X199531000Y-186489600D01*
X325449000Y-224589600D02*
X311450000Y-224589600D01*
X190006000Y-218540000D02*
X190006000Y-219539100D01*
X170668000Y-171539300D02*
X171469000Y-171539300D01*
X290530000Y-190589300D02*
X290530000Y-187490100D01*
X184443000Y-158289300D02*
X184443000Y-161389900D01*
X185242000Y-162388900D02*
X199243000Y-162388900D01*
X312700000Y-219308900D02*
X314425000Y-219308900D01*
X176230000Y-196389300D02*
X175431000Y-196389300D01*
X170155000Y-218540000D02*
X170956000Y-218540000D01*
X299256000Y-215439400D02*
X299256000Y-209637900D01*
X345369000Y-148937900D02*
X345369000Y-149860000D01*
X141580400Y-187490100D02*
X141580400Y-190589300D01*
X70943650Y-162388900D02*
X84943200Y-162388900D01*
X308781000Y-200488900D02*
X308781000Y-199489900D01*
X99518700Y-181438900D02*
X113518000Y-181438900D01*
X324868000Y-148937900D02*
X321567000Y-148937900D01*
X137330500Y-186489600D02*
X123331200Y-186489600D01*
X261955000Y-215439400D02*
X261156000Y-215439400D01*
X184443000Y-149390100D02*
X184443000Y-152489300D01*
X151618000Y-180439900D02*
X152418800Y-180439900D01*
X204294000Y-162388900D02*
X218293000Y-162388900D01*
X227818000Y-168440100D02*
X227818000Y-167439600D01*
X157179900Y-196389300D02*
X156380500Y-196389300D01*
X237631000Y-200488900D02*
X251631000Y-200488900D01*
X339737000Y-191190100D02*
X339737000Y-190589300D01*
X175431000Y-190589300D02*
X176230000Y-190589300D01*
X275731000Y-187490100D02*
X274930000Y-187490100D01*
X323869000Y-168440100D02*
X323068000Y-168440100D01*
X176230000Y-187490100D02*
X175431000Y-187490100D01*
X251037000Y-239340090D02*
X251037000Y-238358930D01*
X120950000Y-225590000D02*
X120149200Y-225590000D01*
X99518700Y-168440100D02*
X98718000Y-168440100D01*
X255880000Y-199489900D02*
X256681000Y-199489900D01*
X346881000Y-180439900D02*
X347680000Y-180439900D01*
X302436000Y-234489410D02*
X301637000Y-234489410D01*
X321567000Y-163140000D02*
X324868000Y-163140000D01*
X339737000Y-196389300D02*
X339737000Y-195789900D01*
X123843800Y-152489300D02*
X123843800Y-149390100D01*
X132856200Y-218540000D02*
X132856200Y-219539100D01*
X219094000Y-161389900D02*
X219094000Y-158289300D01*
X317724000Y-206087900D02*
X314425000Y-206087900D01*
X151105400Y-209637900D02*
X151906200Y-209637900D01*
X294493000Y-152489300D02*
X295294000Y-152489300D01*
X113005400Y-206540000D02*
X113005400Y-209637900D01*
X113005400Y-209637900D02*
X113806200Y-209637900D01*
X128093700Y-161389900D02*
X128093700Y-162388900D01*
X261444000Y-162388900D02*
X275443000Y-162388900D01*
X317461000Y-191190100D02*
X316637000Y-191190100D01*
X261955000Y-218540000D02*
X261955000Y-215439400D01*
X328119000Y-153090100D02*
X326593000Y-153090100D01*
X325449000Y-237589970D02*
X326250000Y-237589970D01*
X155867900Y-180439900D02*
X156668700Y-180439900D01*
X325736000Y-200488900D02*
X339737000Y-200488900D01*
X335261000Y-225590000D02*
X334462000Y-225590000D01*
X113806200Y-205539700D02*
X113806200Y-206540000D01*
X342986000Y-200258900D02*
X342986000Y-201240000D01*
X286837000Y-234489410D02*
X286837000Y-237589970D01*
X82049300Y-206540000D02*
X82049300Y-209637900D01*
X145186900Y-232088860D02*
X146011000Y-232088860D01*
X74574800Y-210240100D02*
X73749330Y-210240100D01*
X325449000Y-238589060D02*
X325449000Y-237589970D01*
X136817900Y-177339300D02*
X136817900Y-180439900D01*
X238144000Y-158289300D02*
X237343000Y-158289300D01*
X137618700Y-171539300D02*
X137618700Y-177339300D01*
X146011000Y-232088860D02*
X146011000Y-238358930D01*
X242394000Y-149390100D02*
X241593000Y-149390100D01*
X334974000Y-215439400D02*
X334974000Y-214840000D01*
X228106000Y-215439400D02*
X227305000Y-215439400D01*
X122530400Y-199489900D02*
X123331200Y-199489900D01*
X132568000Y-180439900D02*
X133368800Y-180439900D01*
X72524280Y-237589970D02*
X73324910Y-237589970D01*
X294493000Y-158289300D02*
X294493000Y-152489300D01*
X308268000Y-177339300D02*
X308268000Y-180439900D01*
X87324400Y-238589060D02*
X87324400Y-237589970D01*
X147143700Y-148389600D02*
X147143700Y-149390100D01*
X222543000Y-152489300D02*
X223344000Y-152489300D01*
X180992000Y-161389900D02*
X180992000Y-158289300D01*
X166192300Y-149390100D02*
X165392900Y-149390100D01*
X213819000Y-167439600D02*
X213819000Y-168440100D01*
X319186000Y-201240000D02*
X322485000Y-201240000D01*
X217780000Y-196389300D02*
X217780000Y-199489900D01*
X218581000Y-199489900D02*
X218581000Y-200488900D01*
X192386000Y-238589060D02*
X206387000Y-238589060D01*
X170956000Y-209637900D02*
X170956000Y-215439400D01*
X276244000Y-149390100D02*
X275443000Y-149390100D01*
X147736000Y-226059900D02*
X146011000Y-226059900D01*
X118568700Y-181438900D02*
X132568000Y-181438900D01*
X180193000Y-149390100D02*
X180193000Y-148389600D01*
X97136000Y-234489410D02*
X96336800Y-234489410D01*
X261444000Y-148389600D02*
X261444000Y-149390100D01*
X335261000Y-238589060D02*
X349262000Y-238589060D01*
X323068000Y-181438900D02*
X323068000Y-180439900D01*
X223056000Y-206540000D02*
X223056000Y-205539700D01*
X180193000Y-161389900D02*
X180992000Y-161389900D01*
X309069000Y-171539300D02*
X309069000Y-177339300D01*
X308268000Y-171539300D02*
X309069000Y-171539300D01*
X73324910Y-228687900D02*
X73324910Y-234489410D01*
X271480000Y-190589300D02*
X271480000Y-187490100D01*
X228619000Y-168440100D02*
X227818000Y-168440100D01*
X82849900Y-218540000D02*
X82849900Y-219539100D01*
X246355000Y-206540000D02*
X246355000Y-209637900D01*
X251037000Y-226059900D02*
X251037000Y-225138000D01*
X299256000Y-209637900D02*
X300055000Y-209637900D01*
X266719000Y-177339300D02*
X265918000Y-177339300D01*
X200044000Y-149390100D02*
X199243000Y-149390100D01*
X96336800Y-225590000D02*
X96336800Y-228687900D01*
X304018000Y-180439900D02*
X304819000Y-180439900D01*
X189205000Y-215439400D02*
X189205000Y-218540000D01*
X284455000Y-215439400D02*
X284455000Y-218540000D01*
X193968000Y-171539300D02*
X194769000Y-171539300D01*
X271480000Y-196389300D02*
X270681000Y-196389300D01*
X261156000Y-215439400D02*
X261156000Y-209637900D01*
X324868000Y-162158900D02*
X326593000Y-162158900D01*
X123843800Y-158289300D02*
X123043000Y-158289300D01*
X257194000Y-152489300D02*
X257194000Y-149390100D01*
X206387000Y-229290100D02*
X206387000Y-228687900D01*
X319186000Y-187960000D02*
X317461000Y-187960000D01*
X255880000Y-190589300D02*
X256681000Y-190589300D01*
X223344000Y-161389900D02*
X223344000Y-162388900D01*
X113806200Y-206540000D02*
X113005400Y-206540000D01*
X324212000Y-191190100D02*
X324212000Y-187960000D01*
X146342900Y-161389900D02*
X147143700Y-161389900D01*
X232581000Y-196389300D02*
X232581000Y-190589300D01*
X256393000Y-158289300D02*
X256393000Y-152489300D01*
X160630400Y-190589300D02*
X161431200Y-190589300D01*
X206387000Y-224589600D02*
X192386000Y-224589600D01*
X127805500Y-215439400D02*
X127805500Y-209637900D01*
X261955000Y-206540000D02*
X261156000Y-206540000D01*
X97136000Y-224589600D02*
X97136000Y-225590000D01*
X120950000Y-234489410D02*
X120149200Y-234489410D01*
X142381200Y-199489900D02*
X142381200Y-200488900D01*
X237343000Y-148389600D02*
X223344000Y-148389600D01*
X165905500Y-219539100D02*
X165905500Y-218540000D01*
X313543000Y-152489300D02*
X314344000Y-152489300D01*
X219094000Y-149390100D02*
X218293000Y-149390100D01*
X134949300Y-228687900D02*
X135750100Y-228687900D01*
X166192300Y-152489300D02*
X166192300Y-158289300D01*
X252430000Y-196389300D02*
X251631000Y-196389300D01*
X138129900Y-196389300D02*
X137330500Y-196389300D01*
X123843800Y-149390100D02*
X123043000Y-149390100D01*
X219094000Y-158289300D02*
X218293000Y-158289300D01*
X299256000Y-205539700D02*
X285256000Y-205539700D01*
X184443000Y-161389900D02*
X185242000Y-161389900D01*
X251118000Y-168440100D02*
X251118000Y-171539300D01*
X76300090Y-206087900D02*
X76300090Y-207009900D01*
X88125000Y-234489410D02*
X87324400Y-234489410D01*
X287636000Y-234489410D02*
X286837000Y-234489410D01*
X92086900Y-199489900D02*
X92886200Y-199489900D01*
X151036600Y-226059900D02*
X151036600Y-225138000D01*
X320173000Y-206540000D02*
X320173000Y-209637900D01*
X325736000Y-187490100D02*
X324935000Y-187490100D01*
X232068000Y-171539300D02*
X232869000Y-171539300D01*
X123043000Y-148389600D02*
X109043700Y-148389600D01*
X165905500Y-218540000D02*
X166704900Y-218540000D01*
X73324910Y-237589970D02*
X73324910Y-238589060D01*
X325449000Y-228687900D02*
X326250000Y-228687900D01*
D12*
%TO.C,U5*%
X51689095Y-150582380D02*
X51689095Y-151391904D01*
X51736714Y-151487142D01*
X51784333Y-151534761D01*
X51879571Y-151582380D01*
X52070047Y-151582380D01*
X52165285Y-151534761D01*
X52212904Y-151487142D01*
X52260523Y-151391904D01*
X52260523Y-150582380D01*
X53212904Y-150582380D02*
X52736714Y-150582380D01*
X52689095Y-151058571D01*
X52736714Y-151010952D01*
X52831952Y-150963333D01*
X53070047Y-150963333D01*
X53165285Y-151010952D01*
X53212904Y-151058571D01*
X53260523Y-151153809D01*
X53260523Y-151391904D01*
X53212904Y-151487142D01*
X53165285Y-151534761D01*
X53070047Y-151582380D01*
X52831952Y-151582380D01*
X52736714Y-151534761D01*
X52689095Y-151487142D01*
X50879523Y-144930761D02*
X51022380Y-144978380D01*
X51260476Y-144978380D01*
X51355714Y-144930761D01*
X51403333Y-144883142D01*
X51450952Y-144787904D01*
X51450952Y-144692666D01*
X51403333Y-144597428D01*
X51355714Y-144549809D01*
X51260476Y-144502190D01*
X51070000Y-144454571D01*
X50974761Y-144406952D01*
X50927142Y-144359333D01*
X50879523Y-144264095D01*
X50879523Y-144168857D01*
X50927142Y-144073619D01*
X50974761Y-144026000D01*
X51070000Y-143978380D01*
X51308095Y-143978380D01*
X51450952Y-144026000D01*
X52450952Y-144883142D02*
X52403333Y-144930761D01*
X52260476Y-144978380D01*
X52165238Y-144978380D01*
X52022380Y-144930761D01*
X51927142Y-144835523D01*
X51879523Y-144740285D01*
X51831904Y-144549809D01*
X51831904Y-144406952D01*
X51879523Y-144216476D01*
X51927142Y-144121238D01*
X52022380Y-144026000D01*
X52165238Y-143978380D01*
X52260476Y-143978380D01*
X52403333Y-144026000D01*
X52450952Y-144073619D01*
X53355714Y-144978380D02*
X52879523Y-144978380D01*
X52879523Y-143978380D01*
X46101095Y-142883000D02*
X46005857Y-142835380D01*
X45863000Y-142835380D01*
X45720142Y-142883000D01*
X45624904Y-142978238D01*
X45577285Y-143073476D01*
X45529666Y-143263952D01*
X45529666Y-143406809D01*
X45577285Y-143597285D01*
X45624904Y-143692523D01*
X45720142Y-143787761D01*
X45863000Y-143835380D01*
X45958238Y-143835380D01*
X46101095Y-143787761D01*
X46148714Y-143740142D01*
X46148714Y-143406809D01*
X45958238Y-143406809D01*
X46577285Y-143835380D02*
X46577285Y-142835380D01*
X47148714Y-143835380D01*
X47148714Y-142835380D01*
X47624904Y-143835380D02*
X47624904Y-142835380D01*
X47863000Y-142835380D01*
X48005857Y-142883000D01*
X48101095Y-142978238D01*
X48148714Y-143073476D01*
X48196333Y-143263952D01*
X48196333Y-143406809D01*
X48148714Y-143597285D01*
X48101095Y-143692523D01*
X48005857Y-143787761D01*
X47863000Y-143835380D01*
X47624904Y-143835380D01*
X53268714Y-148994761D02*
X53411571Y-149042380D01*
X53649666Y-149042380D01*
X53744904Y-148994761D01*
X53792523Y-148947142D01*
X53840142Y-148851904D01*
X53840142Y-148756666D01*
X53792523Y-148661428D01*
X53744904Y-148613809D01*
X53649666Y-148566190D01*
X53459190Y-148518571D01*
X53363952Y-148470952D01*
X53316333Y-148423333D01*
X53268714Y-148328095D01*
X53268714Y-148232857D01*
X53316333Y-148137619D01*
X53363952Y-148090000D01*
X53459190Y-148042380D01*
X53697285Y-148042380D01*
X53840142Y-148090000D01*
X54268714Y-149042380D02*
X54268714Y-148042380D01*
X54506809Y-148042380D01*
X54649666Y-148090000D01*
X54744904Y-148185238D01*
X54792523Y-148280476D01*
X54840142Y-148470952D01*
X54840142Y-148613809D01*
X54792523Y-148804285D01*
X54744904Y-148899523D01*
X54649666Y-148994761D01*
X54506809Y-149042380D01*
X54268714Y-149042380D01*
X55221095Y-148756666D02*
X55697285Y-148756666D01*
X55125857Y-149042380D02*
X55459190Y-148042380D01*
X55792523Y-149042380D01*
X48069666Y-148042380D02*
X48403000Y-149042380D01*
X48736333Y-148042380D01*
X49641095Y-148947142D02*
X49593476Y-148994761D01*
X49450619Y-149042380D01*
X49355380Y-149042380D01*
X49212523Y-148994761D01*
X49117285Y-148899523D01*
X49069666Y-148804285D01*
X49022047Y-148613809D01*
X49022047Y-148470952D01*
X49069666Y-148280476D01*
X49117285Y-148185238D01*
X49212523Y-148090000D01*
X49355380Y-148042380D01*
X49450619Y-148042380D01*
X49593476Y-148090000D01*
X49641095Y-148137619D01*
X50641095Y-148947142D02*
X50593476Y-148994761D01*
X50450619Y-149042380D01*
X50355380Y-149042380D01*
X50212523Y-148994761D01*
X50117285Y-148899523D01*
X50069666Y-148804285D01*
X50022047Y-148613809D01*
X50022047Y-148470952D01*
X50069666Y-148280476D01*
X50117285Y-148185238D01*
X50212523Y-148090000D01*
X50355380Y-148042380D01*
X50450619Y-148042380D01*
X50593476Y-148090000D01*
X50641095Y-148137619D01*
%TO.C,R12*%
X41521142Y-231465380D02*
X41187809Y-230989190D01*
X40949714Y-231465380D02*
X40949714Y-230465380D01*
X41330666Y-230465380D01*
X41425904Y-230513000D01*
X41473523Y-230560619D01*
X41521142Y-230655857D01*
X41521142Y-230798714D01*
X41473523Y-230893952D01*
X41425904Y-230941571D01*
X41330666Y-230989190D01*
X40949714Y-230989190D01*
X42473523Y-231465380D02*
X41902095Y-231465380D01*
X42187809Y-231465380D02*
X42187809Y-230465380D01*
X42092571Y-230608238D01*
X41997333Y-230703476D01*
X41902095Y-230751095D01*
X42854476Y-230560619D02*
X42902095Y-230513000D01*
X42997333Y-230465380D01*
X43235428Y-230465380D01*
X43330666Y-230513000D01*
X43378285Y-230560619D01*
X43425904Y-230655857D01*
X43425904Y-230751095D01*
X43378285Y-230893952D01*
X42806857Y-231465380D01*
X43425904Y-231465380D01*
%TO.C,R10*%
X41902142Y-188794380D02*
X41568809Y-188318190D01*
X41330714Y-188794380D02*
X41330714Y-187794380D01*
X41711666Y-187794380D01*
X41806904Y-187842000D01*
X41854523Y-187889619D01*
X41902142Y-187984857D01*
X41902142Y-188127714D01*
X41854523Y-188222952D01*
X41806904Y-188270571D01*
X41711666Y-188318190D01*
X41330714Y-188318190D01*
X42854523Y-188794380D02*
X42283095Y-188794380D01*
X42568809Y-188794380D02*
X42568809Y-187794380D01*
X42473571Y-187937238D01*
X42378333Y-188032476D01*
X42283095Y-188080095D01*
X43473571Y-187794380D02*
X43568809Y-187794380D01*
X43664047Y-187842000D01*
X43711666Y-187889619D01*
X43759285Y-187984857D01*
X43806904Y-188175333D01*
X43806904Y-188413428D01*
X43759285Y-188603904D01*
X43711666Y-188699142D01*
X43664047Y-188746761D01*
X43568809Y-188794380D01*
X43473571Y-188794380D01*
X43378333Y-188746761D01*
X43330714Y-188699142D01*
X43283095Y-188603904D01*
X43235476Y-188413428D01*
X43235476Y-188175333D01*
X43283095Y-187984857D01*
X43330714Y-187889619D01*
X43378333Y-187842000D01*
X43473571Y-187794380D01*
%TO.C,D33*%
X43631380Y-194254285D02*
X42631380Y-194254285D01*
X42631380Y-194016190D01*
X42679000Y-193873333D01*
X42774238Y-193778095D01*
X42869476Y-193730476D01*
X43059952Y-193682857D01*
X43202809Y-193682857D01*
X43393285Y-193730476D01*
X43488523Y-193778095D01*
X43583761Y-193873333D01*
X43631380Y-194016190D01*
X43631380Y-194254285D01*
X42631380Y-193349523D02*
X42631380Y-192730476D01*
X43012333Y-193063809D01*
X43012333Y-192920952D01*
X43059952Y-192825714D01*
X43107571Y-192778095D01*
X43202809Y-192730476D01*
X43440904Y-192730476D01*
X43536142Y-192778095D01*
X43583761Y-192825714D01*
X43631380Y-192920952D01*
X43631380Y-193206666D01*
X43583761Y-193301904D01*
X43536142Y-193349523D01*
X42631380Y-192397142D02*
X42631380Y-191778095D01*
X43012333Y-192111428D01*
X43012333Y-191968571D01*
X43059952Y-191873333D01*
X43107571Y-191825714D01*
X43202809Y-191778095D01*
X43440904Y-191778095D01*
X43536142Y-191825714D01*
X43583761Y-191873333D01*
X43631380Y-191968571D01*
X43631380Y-192254285D01*
X43583761Y-192349523D01*
X43536142Y-192397142D01*
%TO.C,U4*%
X46061380Y-188213904D02*
X46870904Y-188213904D01*
X46966142Y-188166285D01*
X47013761Y-188118666D01*
X47061380Y-188023428D01*
X47061380Y-187832952D01*
X47013761Y-187737714D01*
X46966142Y-187690095D01*
X46870904Y-187642476D01*
X46061380Y-187642476D01*
X46394714Y-186737714D02*
X47061380Y-186737714D01*
X46013761Y-186975809D02*
X46728047Y-187213904D01*
X46728047Y-186594857D01*
%TO.C,C8*%
X47347142Y-179109666D02*
X47394761Y-179157285D01*
X47442380Y-179300142D01*
X47442380Y-179395380D01*
X47394761Y-179538238D01*
X47299523Y-179633476D01*
X47204285Y-179681095D01*
X47013809Y-179728714D01*
X46870952Y-179728714D01*
X46680476Y-179681095D01*
X46585238Y-179633476D01*
X46490000Y-179538238D01*
X46442380Y-179395380D01*
X46442380Y-179300142D01*
X46490000Y-179157285D01*
X46537619Y-179109666D01*
X46870952Y-178538238D02*
X46823333Y-178633476D01*
X46775714Y-178681095D01*
X46680476Y-178728714D01*
X46632857Y-178728714D01*
X46537619Y-178681095D01*
X46490000Y-178633476D01*
X46442380Y-178538238D01*
X46442380Y-178347761D01*
X46490000Y-178252523D01*
X46537619Y-178204904D01*
X46632857Y-178157285D01*
X46680476Y-178157285D01*
X46775714Y-178204904D01*
X46823333Y-178252523D01*
X46870952Y-178347761D01*
X46870952Y-178538238D01*
X46918571Y-178633476D01*
X46966190Y-178681095D01*
X47061428Y-178728714D01*
X47251904Y-178728714D01*
X47347142Y-178681095D01*
X47394761Y-178633476D01*
X47442380Y-178538238D01*
X47442380Y-178347761D01*
X47394761Y-178252523D01*
X47347142Y-178204904D01*
X47251904Y-178157285D01*
X47061428Y-178157285D01*
X46966190Y-178204904D01*
X46918571Y-178252523D01*
X46870952Y-178347761D01*
%TO.C,C3*%
X43381142Y-181903666D02*
X43428761Y-181951285D01*
X43476380Y-182094142D01*
X43476380Y-182189380D01*
X43428761Y-182332238D01*
X43333523Y-182427476D01*
X43238285Y-182475095D01*
X43047809Y-182522714D01*
X42904952Y-182522714D01*
X42714476Y-182475095D01*
X42619238Y-182427476D01*
X42524000Y-182332238D01*
X42476380Y-182189380D01*
X42476380Y-182094142D01*
X42524000Y-181951285D01*
X42571619Y-181903666D01*
X42476380Y-181570333D02*
X42476380Y-180951285D01*
X42857333Y-181284619D01*
X42857333Y-181141761D01*
X42904952Y-181046523D01*
X42952571Y-180998904D01*
X43047809Y-180951285D01*
X43285904Y-180951285D01*
X43381142Y-180998904D01*
X43428761Y-181046523D01*
X43476380Y-181141761D01*
X43476380Y-181427476D01*
X43428761Y-181522714D01*
X43381142Y-181570333D01*
%TO.C,C2*%
X47067742Y-177153866D02*
X47115361Y-177201485D01*
X47162980Y-177344342D01*
X47162980Y-177439580D01*
X47115361Y-177582438D01*
X47020123Y-177677676D01*
X46924885Y-177725295D01*
X46734409Y-177772914D01*
X46591552Y-177772914D01*
X46401076Y-177725295D01*
X46305838Y-177677676D01*
X46210600Y-177582438D01*
X46162980Y-177439580D01*
X46162980Y-177344342D01*
X46210600Y-177201485D01*
X46258219Y-177153866D01*
X46258219Y-176772914D02*
X46210600Y-176725295D01*
X46162980Y-176630057D01*
X46162980Y-176391961D01*
X46210600Y-176296723D01*
X46258219Y-176249104D01*
X46353457Y-176201485D01*
X46448695Y-176201485D01*
X46591552Y-176249104D01*
X47162980Y-176820533D01*
X47162980Y-176201485D01*
%TO.C,R4*%
X64511180Y-184875466D02*
X64034990Y-185208800D01*
X64511180Y-185446895D02*
X63511180Y-185446895D01*
X63511180Y-185065942D01*
X63558800Y-184970704D01*
X63606419Y-184923085D01*
X63701657Y-184875466D01*
X63844514Y-184875466D01*
X63939752Y-184923085D01*
X63987371Y-184970704D01*
X64034990Y-185065942D01*
X64034990Y-185446895D01*
X63844514Y-184018323D02*
X64511180Y-184018323D01*
X63463561Y-184256419D02*
X64177847Y-184494514D01*
X64177847Y-183875466D01*
%TO.C,S62*%
X281463904Y-185152761D02*
X281606761Y-185200380D01*
X281844857Y-185200380D01*
X281940095Y-185152761D01*
X281987714Y-185105142D01*
X282035333Y-185009904D01*
X282035333Y-184914666D01*
X281987714Y-184819428D01*
X281940095Y-184771809D01*
X281844857Y-184724190D01*
X281654380Y-184676571D01*
X281559142Y-184628952D01*
X281511523Y-184581333D01*
X281463904Y-184486095D01*
X281463904Y-184390857D01*
X281511523Y-184295619D01*
X281559142Y-184248000D01*
X281654380Y-184200380D01*
X281892476Y-184200380D01*
X282035333Y-184248000D01*
X282892476Y-184200380D02*
X282702000Y-184200380D01*
X282606761Y-184248000D01*
X282559142Y-184295619D01*
X282463904Y-184438476D01*
X282416285Y-184628952D01*
X282416285Y-185009904D01*
X282463904Y-185105142D01*
X282511523Y-185152761D01*
X282606761Y-185200380D01*
X282797238Y-185200380D01*
X282892476Y-185152761D01*
X282940095Y-185105142D01*
X282987714Y-185009904D01*
X282987714Y-184771809D01*
X282940095Y-184676571D01*
X282892476Y-184628952D01*
X282797238Y-184581333D01*
X282606761Y-184581333D01*
X282511523Y-184628952D01*
X282463904Y-184676571D01*
X282416285Y-184771809D01*
X283368666Y-184295619D02*
X283416285Y-184248000D01*
X283511523Y-184200380D01*
X283749619Y-184200380D01*
X283844857Y-184248000D01*
X283892476Y-184295619D01*
X283940095Y-184390857D01*
X283940095Y-184486095D01*
X283892476Y-184628952D01*
X283321047Y-185200380D01*
X283940095Y-185200380D01*
%TO.C,S14*%
X181514904Y-166102761D02*
X181657761Y-166150380D01*
X181895857Y-166150380D01*
X181991095Y-166102761D01*
X182038714Y-166055142D01*
X182086333Y-165959904D01*
X182086333Y-165864666D01*
X182038714Y-165769428D01*
X181991095Y-165721809D01*
X181895857Y-165674190D01*
X181705380Y-165626571D01*
X181610142Y-165578952D01*
X181562523Y-165531333D01*
X181514904Y-165436095D01*
X181514904Y-165340857D01*
X181562523Y-165245619D01*
X181610142Y-165198000D01*
X181705380Y-165150380D01*
X181943476Y-165150380D01*
X182086333Y-165198000D01*
X183038714Y-166150380D02*
X182467285Y-166150380D01*
X182753000Y-166150380D02*
X182753000Y-165150380D01*
X182657761Y-165293238D01*
X182562523Y-165388476D01*
X182467285Y-165436095D01*
X183895857Y-165483714D02*
X183895857Y-166150380D01*
X183657761Y-165102761D02*
X183419666Y-165817047D01*
X184038714Y-165817047D01*
%TO.C,S26*%
X119538904Y-204329761D02*
X119681761Y-204377380D01*
X119919857Y-204377380D01*
X120015095Y-204329761D01*
X120062714Y-204282142D01*
X120110333Y-204186904D01*
X120110333Y-204091666D01*
X120062714Y-203996428D01*
X120015095Y-203948809D01*
X119919857Y-203901190D01*
X119729380Y-203853571D01*
X119634142Y-203805952D01*
X119586523Y-203758333D01*
X119538904Y-203663095D01*
X119538904Y-203567857D01*
X119586523Y-203472619D01*
X119634142Y-203425000D01*
X119729380Y-203377380D01*
X119967476Y-203377380D01*
X120110333Y-203425000D01*
X120491285Y-203472619D02*
X120538904Y-203425000D01*
X120634142Y-203377380D01*
X120872238Y-203377380D01*
X120967476Y-203425000D01*
X121015095Y-203472619D01*
X121062714Y-203567857D01*
X121062714Y-203663095D01*
X121015095Y-203805952D01*
X120443666Y-204377380D01*
X121062714Y-204377380D01*
X121919857Y-203377380D02*
X121729380Y-203377380D01*
X121634142Y-203425000D01*
X121586523Y-203472619D01*
X121491285Y-203615476D01*
X121443666Y-203805952D01*
X121443666Y-204186904D01*
X121491285Y-204282142D01*
X121538904Y-204329761D01*
X121634142Y-204377380D01*
X121824619Y-204377380D01*
X121919857Y-204329761D01*
X121967476Y-204282142D01*
X122015095Y-204186904D01*
X122015095Y-203948809D01*
X121967476Y-203853571D01*
X121919857Y-203805952D01*
X121824619Y-203758333D01*
X121634142Y-203758333D01*
X121538904Y-203805952D01*
X121491285Y-203853571D01*
X121443666Y-203948809D01*
%TO.C,S30*%
X195865904Y-204202761D02*
X196008761Y-204250380D01*
X196246857Y-204250380D01*
X196342095Y-204202761D01*
X196389714Y-204155142D01*
X196437333Y-204059904D01*
X196437333Y-203964666D01*
X196389714Y-203869428D01*
X196342095Y-203821809D01*
X196246857Y-203774190D01*
X196056380Y-203726571D01*
X195961142Y-203678952D01*
X195913523Y-203631333D01*
X195865904Y-203536095D01*
X195865904Y-203440857D01*
X195913523Y-203345619D01*
X195961142Y-203298000D01*
X196056380Y-203250380D01*
X196294476Y-203250380D01*
X196437333Y-203298000D01*
X196770666Y-203250380D02*
X197389714Y-203250380D01*
X197056380Y-203631333D01*
X197199238Y-203631333D01*
X197294476Y-203678952D01*
X197342095Y-203726571D01*
X197389714Y-203821809D01*
X197389714Y-204059904D01*
X197342095Y-204155142D01*
X197294476Y-204202761D01*
X197199238Y-204250380D01*
X196913523Y-204250380D01*
X196818285Y-204202761D01*
X196770666Y-204155142D01*
X198008761Y-203250380D02*
X198104000Y-203250380D01*
X198199238Y-203298000D01*
X198246857Y-203345619D01*
X198294476Y-203440857D01*
X198342095Y-203631333D01*
X198342095Y-203869428D01*
X198294476Y-204059904D01*
X198246857Y-204155142D01*
X198199238Y-204202761D01*
X198104000Y-204250380D01*
X198008761Y-204250380D01*
X197913523Y-204202761D01*
X197865904Y-204155142D01*
X197818285Y-204059904D01*
X197770666Y-203869428D01*
X197770666Y-203631333D01*
X197818285Y-203440857D01*
X197865904Y-203345619D01*
X197913523Y-203298000D01*
X198008761Y-203250380D01*
%TO.C,S24*%
X224313904Y-185152761D02*
X224456761Y-185200380D01*
X224694857Y-185200380D01*
X224790095Y-185152761D01*
X224837714Y-185105142D01*
X224885333Y-185009904D01*
X224885333Y-184914666D01*
X224837714Y-184819428D01*
X224790095Y-184771809D01*
X224694857Y-184724190D01*
X224504380Y-184676571D01*
X224409142Y-184628952D01*
X224361523Y-184581333D01*
X224313904Y-184486095D01*
X224313904Y-184390857D01*
X224361523Y-184295619D01*
X224409142Y-184248000D01*
X224504380Y-184200380D01*
X224742476Y-184200380D01*
X224885333Y-184248000D01*
X225266285Y-184295619D02*
X225313904Y-184248000D01*
X225409142Y-184200380D01*
X225647238Y-184200380D01*
X225742476Y-184248000D01*
X225790095Y-184295619D01*
X225837714Y-184390857D01*
X225837714Y-184486095D01*
X225790095Y-184628952D01*
X225218666Y-185200380D01*
X225837714Y-185200380D01*
X226694857Y-184533714D02*
X226694857Y-185200380D01*
X226456761Y-184152761D02*
X226218666Y-184867047D01*
X226837714Y-184867047D01*
%TO.C,S41*%
X79152904Y-223252761D02*
X79295761Y-223300380D01*
X79533857Y-223300380D01*
X79629095Y-223252761D01*
X79676714Y-223205142D01*
X79724333Y-223109904D01*
X79724333Y-223014666D01*
X79676714Y-222919428D01*
X79629095Y-222871809D01*
X79533857Y-222824190D01*
X79343380Y-222776571D01*
X79248142Y-222728952D01*
X79200523Y-222681333D01*
X79152904Y-222586095D01*
X79152904Y-222490857D01*
X79200523Y-222395619D01*
X79248142Y-222348000D01*
X79343380Y-222300380D01*
X79581476Y-222300380D01*
X79724333Y-222348000D01*
X80581476Y-222633714D02*
X80581476Y-223300380D01*
X80343380Y-222252761D02*
X80105285Y-222967047D01*
X80724333Y-222967047D01*
X81629095Y-223300380D02*
X81057666Y-223300380D01*
X81343380Y-223300380D02*
X81343380Y-222300380D01*
X81248142Y-222443238D01*
X81152904Y-222538476D01*
X81057666Y-222586095D01*
%TO.C,S25*%
X88550904Y-204202761D02*
X88693761Y-204250380D01*
X88931857Y-204250380D01*
X89027095Y-204202761D01*
X89074714Y-204155142D01*
X89122333Y-204059904D01*
X89122333Y-203964666D01*
X89074714Y-203869428D01*
X89027095Y-203821809D01*
X88931857Y-203774190D01*
X88741380Y-203726571D01*
X88646142Y-203678952D01*
X88598523Y-203631333D01*
X88550904Y-203536095D01*
X88550904Y-203440857D01*
X88598523Y-203345619D01*
X88646142Y-203298000D01*
X88741380Y-203250380D01*
X88979476Y-203250380D01*
X89122333Y-203298000D01*
X89503285Y-203345619D02*
X89550904Y-203298000D01*
X89646142Y-203250380D01*
X89884238Y-203250380D01*
X89979476Y-203298000D01*
X90027095Y-203345619D01*
X90074714Y-203440857D01*
X90074714Y-203536095D01*
X90027095Y-203678952D01*
X89455666Y-204250380D01*
X90074714Y-204250380D01*
X90979476Y-203250380D02*
X90503285Y-203250380D01*
X90455666Y-203726571D01*
X90503285Y-203678952D01*
X90598523Y-203631333D01*
X90836619Y-203631333D01*
X90931857Y-203678952D01*
X90979476Y-203726571D01*
X91027095Y-203821809D01*
X91027095Y-204059904D01*
X90979476Y-204155142D01*
X90931857Y-204202761D01*
X90836619Y-204250380D01*
X90598523Y-204250380D01*
X90503285Y-204202761D01*
X90455666Y-204155142D01*
%TO.C,S46*%
X317150904Y-223252761D02*
X317293761Y-223300380D01*
X317531857Y-223300380D01*
X317627095Y-223252761D01*
X317674714Y-223205142D01*
X317722333Y-223109904D01*
X317722333Y-223014666D01*
X317674714Y-222919428D01*
X317627095Y-222871809D01*
X317531857Y-222824190D01*
X317341380Y-222776571D01*
X317246142Y-222728952D01*
X317198523Y-222681333D01*
X317150904Y-222586095D01*
X317150904Y-222490857D01*
X317198523Y-222395619D01*
X317246142Y-222348000D01*
X317341380Y-222300380D01*
X317579476Y-222300380D01*
X317722333Y-222348000D01*
X318579476Y-222633714D02*
X318579476Y-223300380D01*
X318341380Y-222252761D02*
X318103285Y-222967047D01*
X318722333Y-222967047D01*
X319531857Y-222300380D02*
X319341380Y-222300380D01*
X319246142Y-222348000D01*
X319198523Y-222395619D01*
X319103285Y-222538476D01*
X319055666Y-222728952D01*
X319055666Y-223109904D01*
X319103285Y-223205142D01*
X319150904Y-223252761D01*
X319246142Y-223300380D01*
X319436619Y-223300380D01*
X319531857Y-223252761D01*
X319579476Y-223205142D01*
X319627095Y-223109904D01*
X319627095Y-222871809D01*
X319579476Y-222776571D01*
X319531857Y-222728952D01*
X319436619Y-222681333D01*
X319246142Y-222681333D01*
X319150904Y-222728952D01*
X319103285Y-222776571D01*
X319055666Y-222871809D01*
%TO.C,R1*%
X41473380Y-209168666D02*
X40997190Y-209502000D01*
X41473380Y-209740095D02*
X40473380Y-209740095D01*
X40473380Y-209359142D01*
X40521000Y-209263904D01*
X40568619Y-209216285D01*
X40663857Y-209168666D01*
X40806714Y-209168666D01*
X40901952Y-209216285D01*
X40949571Y-209263904D01*
X40997190Y-209359142D01*
X40997190Y-209740095D01*
X41473380Y-208216285D02*
X41473380Y-208787714D01*
X41473380Y-208502000D02*
X40473380Y-208502000D01*
X40616238Y-208597238D01*
X40711476Y-208692476D01*
X40759095Y-208787714D01*
%TO.C,S3*%
X115189095Y-147052761D02*
X115331952Y-147100380D01*
X115570047Y-147100380D01*
X115665285Y-147052761D01*
X115712904Y-147005142D01*
X115760523Y-146909904D01*
X115760523Y-146814666D01*
X115712904Y-146719428D01*
X115665285Y-146671809D01*
X115570047Y-146624190D01*
X115379571Y-146576571D01*
X115284333Y-146528952D01*
X115236714Y-146481333D01*
X115189095Y-146386095D01*
X115189095Y-146290857D01*
X115236714Y-146195619D01*
X115284333Y-146148000D01*
X115379571Y-146100380D01*
X115617666Y-146100380D01*
X115760523Y-146148000D01*
X116093857Y-146100380D02*
X116712904Y-146100380D01*
X116379571Y-146481333D01*
X116522428Y-146481333D01*
X116617666Y-146528952D01*
X116665285Y-146576571D01*
X116712904Y-146671809D01*
X116712904Y-146909904D01*
X116665285Y-147005142D01*
X116617666Y-147052761D01*
X116522428Y-147100380D01*
X116236714Y-147100380D01*
X116141476Y-147052761D01*
X116093857Y-147005142D01*
%TO.C,S50*%
X252888904Y-204202761D02*
X253031761Y-204250380D01*
X253269857Y-204250380D01*
X253365095Y-204202761D01*
X253412714Y-204155142D01*
X253460333Y-204059904D01*
X253460333Y-203964666D01*
X253412714Y-203869428D01*
X253365095Y-203821809D01*
X253269857Y-203774190D01*
X253079380Y-203726571D01*
X252984142Y-203678952D01*
X252936523Y-203631333D01*
X252888904Y-203536095D01*
X252888904Y-203440857D01*
X252936523Y-203345619D01*
X252984142Y-203298000D01*
X253079380Y-203250380D01*
X253317476Y-203250380D01*
X253460333Y-203298000D01*
X254365095Y-203250380D02*
X253888904Y-203250380D01*
X253841285Y-203726571D01*
X253888904Y-203678952D01*
X253984142Y-203631333D01*
X254222238Y-203631333D01*
X254317476Y-203678952D01*
X254365095Y-203726571D01*
X254412714Y-203821809D01*
X254412714Y-204059904D01*
X254365095Y-204155142D01*
X254317476Y-204202761D01*
X254222238Y-204250380D01*
X253984142Y-204250380D01*
X253888904Y-204202761D01*
X253841285Y-204155142D01*
X255031761Y-203250380D02*
X255127000Y-203250380D01*
X255222238Y-203298000D01*
X255269857Y-203345619D01*
X255317476Y-203440857D01*
X255365095Y-203631333D01*
X255365095Y-203869428D01*
X255317476Y-204059904D01*
X255269857Y-204155142D01*
X255222238Y-204202761D01*
X255127000Y-204250380D01*
X255031761Y-204250380D01*
X254936523Y-204202761D01*
X254888904Y-204155142D01*
X254841285Y-204059904D01*
X254793666Y-203869428D01*
X254793666Y-203631333D01*
X254841285Y-203440857D01*
X254888904Y-203345619D01*
X254936523Y-203298000D01*
X255031761Y-203250380D01*
%TO.C,C1*%
X39346142Y-209215666D02*
X39393761Y-209263285D01*
X39441380Y-209406142D01*
X39441380Y-209501380D01*
X39393761Y-209644238D01*
X39298523Y-209739476D01*
X39203285Y-209787095D01*
X39012809Y-209834714D01*
X38869952Y-209834714D01*
X38679476Y-209787095D01*
X38584238Y-209739476D01*
X38489000Y-209644238D01*
X38441380Y-209501380D01*
X38441380Y-209406142D01*
X38489000Y-209263285D01*
X38536619Y-209215666D01*
X39441380Y-208263285D02*
X39441380Y-208834714D01*
X39441380Y-208549000D02*
X38441380Y-208549000D01*
X38584238Y-208644238D01*
X38679476Y-208739476D01*
X38727095Y-208834714D01*
%TO.C,S32*%
X233838904Y-204202761D02*
X233981761Y-204250380D01*
X234219857Y-204250380D01*
X234315095Y-204202761D01*
X234362714Y-204155142D01*
X234410333Y-204059904D01*
X234410333Y-203964666D01*
X234362714Y-203869428D01*
X234315095Y-203821809D01*
X234219857Y-203774190D01*
X234029380Y-203726571D01*
X233934142Y-203678952D01*
X233886523Y-203631333D01*
X233838904Y-203536095D01*
X233838904Y-203440857D01*
X233886523Y-203345619D01*
X233934142Y-203298000D01*
X234029380Y-203250380D01*
X234267476Y-203250380D01*
X234410333Y-203298000D01*
X234743666Y-203250380D02*
X235362714Y-203250380D01*
X235029380Y-203631333D01*
X235172238Y-203631333D01*
X235267476Y-203678952D01*
X235315095Y-203726571D01*
X235362714Y-203821809D01*
X235362714Y-204059904D01*
X235315095Y-204155142D01*
X235267476Y-204202761D01*
X235172238Y-204250380D01*
X234886523Y-204250380D01*
X234791285Y-204202761D01*
X234743666Y-204155142D01*
X235743666Y-203345619D02*
X235791285Y-203298000D01*
X235886523Y-203250380D01*
X236124619Y-203250380D01*
X236219857Y-203298000D01*
X236267476Y-203345619D01*
X236315095Y-203440857D01*
X236315095Y-203536095D01*
X236267476Y-203678952D01*
X235696047Y-204250380D01*
X236315095Y-204250380D01*
%TO.C,Sw1*%
X52889161Y-177764914D02*
X52936780Y-177622057D01*
X52936780Y-177383961D01*
X52889161Y-177288723D01*
X52841542Y-177241104D01*
X52746304Y-177193485D01*
X52651066Y-177193485D01*
X52555828Y-177241104D01*
X52508209Y-177288723D01*
X52460590Y-177383961D01*
X52412971Y-177574438D01*
X52365352Y-177669676D01*
X52317733Y-177717295D01*
X52222495Y-177764914D01*
X52127257Y-177764914D01*
X52032019Y-177717295D01*
X51984400Y-177669676D01*
X51936780Y-177574438D01*
X51936780Y-177336342D01*
X51984400Y-177193485D01*
X52270114Y-176860152D02*
X52936780Y-176669676D01*
X52460590Y-176479200D01*
X52936780Y-176288723D01*
X52270114Y-176098247D01*
X52936780Y-175193485D02*
X52936780Y-175764914D01*
X52936780Y-175479200D02*
X51936780Y-175479200D01*
X52079638Y-175574438D01*
X52174876Y-175669676D01*
X52222495Y-175764914D01*
%TO.C,S4*%
X134366095Y-147052761D02*
X134508952Y-147100380D01*
X134747047Y-147100380D01*
X134842285Y-147052761D01*
X134889904Y-147005142D01*
X134937523Y-146909904D01*
X134937523Y-146814666D01*
X134889904Y-146719428D01*
X134842285Y-146671809D01*
X134747047Y-146624190D01*
X134556571Y-146576571D01*
X134461333Y-146528952D01*
X134413714Y-146481333D01*
X134366095Y-146386095D01*
X134366095Y-146290857D01*
X134413714Y-146195619D01*
X134461333Y-146148000D01*
X134556571Y-146100380D01*
X134794666Y-146100380D01*
X134937523Y-146148000D01*
X135794666Y-146433714D02*
X135794666Y-147100380D01*
X135556571Y-146052761D02*
X135318476Y-146767047D01*
X135937523Y-146767047D01*
%TO.C,S54*%
X276764904Y-166102761D02*
X276907761Y-166150380D01*
X277145857Y-166150380D01*
X277241095Y-166102761D01*
X277288714Y-166055142D01*
X277336333Y-165959904D01*
X277336333Y-165864666D01*
X277288714Y-165769428D01*
X277241095Y-165721809D01*
X277145857Y-165674190D01*
X276955380Y-165626571D01*
X276860142Y-165578952D01*
X276812523Y-165531333D01*
X276764904Y-165436095D01*
X276764904Y-165340857D01*
X276812523Y-165245619D01*
X276860142Y-165198000D01*
X276955380Y-165150380D01*
X277193476Y-165150380D01*
X277336333Y-165198000D01*
X278241095Y-165150380D02*
X277764904Y-165150380D01*
X277717285Y-165626571D01*
X277764904Y-165578952D01*
X277860142Y-165531333D01*
X278098238Y-165531333D01*
X278193476Y-165578952D01*
X278241095Y-165626571D01*
X278288714Y-165721809D01*
X278288714Y-165959904D01*
X278241095Y-166055142D01*
X278193476Y-166102761D01*
X278098238Y-166150380D01*
X277860142Y-166150380D01*
X277764904Y-166102761D01*
X277717285Y-166055142D01*
X279145857Y-165483714D02*
X279145857Y-166150380D01*
X278907761Y-165102761D02*
X278669666Y-165817047D01*
X279288714Y-165817047D01*
%TO.C,S19*%
X129063904Y-185152761D02*
X129206761Y-185200380D01*
X129444857Y-185200380D01*
X129540095Y-185152761D01*
X129587714Y-185105142D01*
X129635333Y-185009904D01*
X129635333Y-184914666D01*
X129587714Y-184819428D01*
X129540095Y-184771809D01*
X129444857Y-184724190D01*
X129254380Y-184676571D01*
X129159142Y-184628952D01*
X129111523Y-184581333D01*
X129063904Y-184486095D01*
X129063904Y-184390857D01*
X129111523Y-184295619D01*
X129159142Y-184248000D01*
X129254380Y-184200380D01*
X129492476Y-184200380D01*
X129635333Y-184248000D01*
X130587714Y-185200380D02*
X130016285Y-185200380D01*
X130302000Y-185200380D02*
X130302000Y-184200380D01*
X130206761Y-184343238D01*
X130111523Y-184438476D01*
X130016285Y-184486095D01*
X131063904Y-185200380D02*
X131254380Y-185200380D01*
X131349619Y-185152761D01*
X131397238Y-185105142D01*
X131492476Y-184962285D01*
X131540095Y-184771809D01*
X131540095Y-184390857D01*
X131492476Y-184295619D01*
X131444857Y-184248000D01*
X131349619Y-184200380D01*
X131159142Y-184200380D01*
X131063904Y-184248000D01*
X131016285Y-184295619D01*
X130968666Y-184390857D01*
X130968666Y-184628952D01*
X131016285Y-184724190D01*
X131063904Y-184771809D01*
X131159142Y-184819428D01*
X131349619Y-184819428D01*
X131444857Y-184771809D01*
X131492476Y-184724190D01*
X131540095Y-184628952D01*
%TO.C,S6*%
X172466095Y-147052761D02*
X172608952Y-147100380D01*
X172847047Y-147100380D01*
X172942285Y-147052761D01*
X172989904Y-147005142D01*
X173037523Y-146909904D01*
X173037523Y-146814666D01*
X172989904Y-146719428D01*
X172942285Y-146671809D01*
X172847047Y-146624190D01*
X172656571Y-146576571D01*
X172561333Y-146528952D01*
X172513714Y-146481333D01*
X172466095Y-146386095D01*
X172466095Y-146290857D01*
X172513714Y-146195619D01*
X172561333Y-146148000D01*
X172656571Y-146100380D01*
X172894666Y-146100380D01*
X173037523Y-146148000D01*
X173894666Y-146100380D02*
X173704190Y-146100380D01*
X173608952Y-146148000D01*
X173561333Y-146195619D01*
X173466095Y-146338476D01*
X173418476Y-146528952D01*
X173418476Y-146909904D01*
X173466095Y-147005142D01*
X173513714Y-147052761D01*
X173608952Y-147100380D01*
X173799428Y-147100380D01*
X173894666Y-147052761D01*
X173942285Y-147005142D01*
X173989904Y-146909904D01*
X173989904Y-146671809D01*
X173942285Y-146576571D01*
X173894666Y-146528952D01*
X173799428Y-146481333D01*
X173608952Y-146481333D01*
X173513714Y-146528952D01*
X173466095Y-146576571D01*
X173418476Y-146671809D01*
%TO.C,S63*%
X262413904Y-185152761D02*
X262556761Y-185200380D01*
X262794857Y-185200380D01*
X262890095Y-185152761D01*
X262937714Y-185105142D01*
X262985333Y-185009904D01*
X262985333Y-184914666D01*
X262937714Y-184819428D01*
X262890095Y-184771809D01*
X262794857Y-184724190D01*
X262604380Y-184676571D01*
X262509142Y-184628952D01*
X262461523Y-184581333D01*
X262413904Y-184486095D01*
X262413904Y-184390857D01*
X262461523Y-184295619D01*
X262509142Y-184248000D01*
X262604380Y-184200380D01*
X262842476Y-184200380D01*
X262985333Y-184248000D01*
X263842476Y-184200380D02*
X263652000Y-184200380D01*
X263556761Y-184248000D01*
X263509142Y-184295619D01*
X263413904Y-184438476D01*
X263366285Y-184628952D01*
X263366285Y-185009904D01*
X263413904Y-185105142D01*
X263461523Y-185152761D01*
X263556761Y-185200380D01*
X263747238Y-185200380D01*
X263842476Y-185152761D01*
X263890095Y-185105142D01*
X263937714Y-185009904D01*
X263937714Y-184771809D01*
X263890095Y-184676571D01*
X263842476Y-184628952D01*
X263747238Y-184581333D01*
X263556761Y-184581333D01*
X263461523Y-184628952D01*
X263413904Y-184676571D01*
X263366285Y-184771809D01*
X264271047Y-184200380D02*
X264890095Y-184200380D01*
X264556761Y-184581333D01*
X264699619Y-184581333D01*
X264794857Y-184628952D01*
X264842476Y-184676571D01*
X264890095Y-184771809D01*
X264890095Y-185009904D01*
X264842476Y-185105142D01*
X264794857Y-185152761D01*
X264699619Y-185200380D01*
X264413904Y-185200380D01*
X264318666Y-185152761D01*
X264271047Y-185105142D01*
%TO.C,R6*%
X59837580Y-199489866D02*
X59361390Y-199823200D01*
X59837580Y-200061295D02*
X58837580Y-200061295D01*
X58837580Y-199680342D01*
X58885200Y-199585104D01*
X58932819Y-199537485D01*
X59028057Y-199489866D01*
X59170914Y-199489866D01*
X59266152Y-199537485D01*
X59313771Y-199585104D01*
X59361390Y-199680342D01*
X59361390Y-200061295D01*
X58837580Y-198632723D02*
X58837580Y-198823200D01*
X58885200Y-198918438D01*
X58932819Y-198966057D01*
X59075676Y-199061295D01*
X59266152Y-199108914D01*
X59647104Y-199108914D01*
X59742342Y-199061295D01*
X59789961Y-199013676D01*
X59837580Y-198918438D01*
X59837580Y-198727961D01*
X59789961Y-198632723D01*
X59742342Y-198585104D01*
X59647104Y-198537485D01*
X59409009Y-198537485D01*
X59313771Y-198585104D01*
X59266152Y-198632723D01*
X59218533Y-198727961D01*
X59218533Y-198918438D01*
X59266152Y-199013676D01*
X59313771Y-199061295D01*
X59409009Y-199108914D01*
%TO.C,S47*%
X293401904Y-223252761D02*
X293544761Y-223300380D01*
X293782857Y-223300380D01*
X293878095Y-223252761D01*
X293925714Y-223205142D01*
X293973333Y-223109904D01*
X293973333Y-223014666D01*
X293925714Y-222919428D01*
X293878095Y-222871809D01*
X293782857Y-222824190D01*
X293592380Y-222776571D01*
X293497142Y-222728952D01*
X293449523Y-222681333D01*
X293401904Y-222586095D01*
X293401904Y-222490857D01*
X293449523Y-222395619D01*
X293497142Y-222348000D01*
X293592380Y-222300380D01*
X293830476Y-222300380D01*
X293973333Y-222348000D01*
X294830476Y-222633714D02*
X294830476Y-223300380D01*
X294592380Y-222252761D02*
X294354285Y-222967047D01*
X294973333Y-222967047D01*
X295259047Y-222300380D02*
X295925714Y-222300380D01*
X295497142Y-223300380D01*
%TO.C,S7*%
X191516095Y-147052761D02*
X191658952Y-147100380D01*
X191897047Y-147100380D01*
X191992285Y-147052761D01*
X192039904Y-147005142D01*
X192087523Y-146909904D01*
X192087523Y-146814666D01*
X192039904Y-146719428D01*
X191992285Y-146671809D01*
X191897047Y-146624190D01*
X191706571Y-146576571D01*
X191611333Y-146528952D01*
X191563714Y-146481333D01*
X191516095Y-146386095D01*
X191516095Y-146290857D01*
X191563714Y-146195619D01*
X191611333Y-146148000D01*
X191706571Y-146100380D01*
X191944666Y-146100380D01*
X192087523Y-146148000D01*
X192420857Y-146100380D02*
X193087523Y-146100380D01*
X192658952Y-147100380D01*
%TO.C,S12*%
X143414904Y-166102761D02*
X143557761Y-166150380D01*
X143795857Y-166150380D01*
X143891095Y-166102761D01*
X143938714Y-166055142D01*
X143986333Y-165959904D01*
X143986333Y-165864666D01*
X143938714Y-165769428D01*
X143891095Y-165721809D01*
X143795857Y-165674190D01*
X143605380Y-165626571D01*
X143510142Y-165578952D01*
X143462523Y-165531333D01*
X143414904Y-165436095D01*
X143414904Y-165340857D01*
X143462523Y-165245619D01*
X143510142Y-165198000D01*
X143605380Y-165150380D01*
X143843476Y-165150380D01*
X143986333Y-165198000D01*
X144938714Y-166150380D02*
X144367285Y-166150380D01*
X144653000Y-166150380D02*
X144653000Y-165150380D01*
X144557761Y-165293238D01*
X144462523Y-165388476D01*
X144367285Y-165436095D01*
X145319666Y-165245619D02*
X145367285Y-165198000D01*
X145462523Y-165150380D01*
X145700619Y-165150380D01*
X145795857Y-165198000D01*
X145843476Y-165245619D01*
X145891095Y-165340857D01*
X145891095Y-165436095D01*
X145843476Y-165578952D01*
X145272047Y-166150380D01*
X145891095Y-166150380D01*
%TO.C,S1*%
X77216095Y-147052761D02*
X77358952Y-147100380D01*
X77597047Y-147100380D01*
X77692285Y-147052761D01*
X77739904Y-147005142D01*
X77787523Y-146909904D01*
X77787523Y-146814666D01*
X77739904Y-146719428D01*
X77692285Y-146671809D01*
X77597047Y-146624190D01*
X77406571Y-146576571D01*
X77311333Y-146528952D01*
X77263714Y-146481333D01*
X77216095Y-146386095D01*
X77216095Y-146290857D01*
X77263714Y-146195619D01*
X77311333Y-146148000D01*
X77406571Y-146100380D01*
X77644666Y-146100380D01*
X77787523Y-146148000D01*
X78739904Y-147100380D02*
X78168476Y-147100380D01*
X78454190Y-147100380D02*
X78454190Y-146100380D01*
X78358952Y-146243238D01*
X78263714Y-146338476D01*
X78168476Y-146386095D01*
%TO.C,R5*%
X66746380Y-184875466D02*
X66270190Y-185208800D01*
X66746380Y-185446895D02*
X65746380Y-185446895D01*
X65746380Y-185065942D01*
X65794000Y-184970704D01*
X65841619Y-184923085D01*
X65936857Y-184875466D01*
X66079714Y-184875466D01*
X66174952Y-184923085D01*
X66222571Y-184970704D01*
X66270190Y-185065942D01*
X66270190Y-185446895D01*
X65746380Y-183970704D02*
X65746380Y-184446895D01*
X66222571Y-184494514D01*
X66174952Y-184446895D01*
X66127333Y-184351657D01*
X66127333Y-184113561D01*
X66174952Y-184018323D01*
X66222571Y-183970704D01*
X66317809Y-183923085D01*
X66555904Y-183923085D01*
X66651142Y-183970704D01*
X66698761Y-184018323D01*
X66746380Y-184113561D01*
X66746380Y-184351657D01*
X66698761Y-184446895D01*
X66651142Y-184494514D01*
%TO.C,S61*%
X300513904Y-185152761D02*
X300656761Y-185200380D01*
X300894857Y-185200380D01*
X300990095Y-185152761D01*
X301037714Y-185105142D01*
X301085333Y-185009904D01*
X301085333Y-184914666D01*
X301037714Y-184819428D01*
X300990095Y-184771809D01*
X300894857Y-184724190D01*
X300704380Y-184676571D01*
X300609142Y-184628952D01*
X300561523Y-184581333D01*
X300513904Y-184486095D01*
X300513904Y-184390857D01*
X300561523Y-184295619D01*
X300609142Y-184248000D01*
X300704380Y-184200380D01*
X300942476Y-184200380D01*
X301085333Y-184248000D01*
X301942476Y-184200380D02*
X301752000Y-184200380D01*
X301656761Y-184248000D01*
X301609142Y-184295619D01*
X301513904Y-184438476D01*
X301466285Y-184628952D01*
X301466285Y-185009904D01*
X301513904Y-185105142D01*
X301561523Y-185152761D01*
X301656761Y-185200380D01*
X301847238Y-185200380D01*
X301942476Y-185152761D01*
X301990095Y-185105142D01*
X302037714Y-185009904D01*
X302037714Y-184771809D01*
X301990095Y-184676571D01*
X301942476Y-184628952D01*
X301847238Y-184581333D01*
X301656761Y-184581333D01*
X301561523Y-184628952D01*
X301513904Y-184676571D01*
X301466285Y-184771809D01*
X302990095Y-185200380D02*
X302418666Y-185200380D01*
X302704380Y-185200380D02*
X302704380Y-184200380D01*
X302609142Y-184343238D01*
X302513904Y-184438476D01*
X302418666Y-184486095D01*
%TO.C,S21*%
X167163904Y-185152761D02*
X167306761Y-185200380D01*
X167544857Y-185200380D01*
X167640095Y-185152761D01*
X167687714Y-185105142D01*
X167735333Y-185009904D01*
X167735333Y-184914666D01*
X167687714Y-184819428D01*
X167640095Y-184771809D01*
X167544857Y-184724190D01*
X167354380Y-184676571D01*
X167259142Y-184628952D01*
X167211523Y-184581333D01*
X167163904Y-184486095D01*
X167163904Y-184390857D01*
X167211523Y-184295619D01*
X167259142Y-184248000D01*
X167354380Y-184200380D01*
X167592476Y-184200380D01*
X167735333Y-184248000D01*
X168116285Y-184295619D02*
X168163904Y-184248000D01*
X168259142Y-184200380D01*
X168497238Y-184200380D01*
X168592476Y-184248000D01*
X168640095Y-184295619D01*
X168687714Y-184390857D01*
X168687714Y-184486095D01*
X168640095Y-184628952D01*
X168068666Y-185200380D01*
X168687714Y-185200380D01*
X169640095Y-185200380D02*
X169068666Y-185200380D01*
X169354380Y-185200380D02*
X169354380Y-184200380D01*
X169259142Y-184343238D01*
X169163904Y-184438476D01*
X169068666Y-184486095D01*
%TO.C,S37*%
X286289904Y-147052761D02*
X286432761Y-147100380D01*
X286670857Y-147100380D01*
X286766095Y-147052761D01*
X286813714Y-147005142D01*
X286861333Y-146909904D01*
X286861333Y-146814666D01*
X286813714Y-146719428D01*
X286766095Y-146671809D01*
X286670857Y-146624190D01*
X286480380Y-146576571D01*
X286385142Y-146528952D01*
X286337523Y-146481333D01*
X286289904Y-146386095D01*
X286289904Y-146290857D01*
X286337523Y-146195619D01*
X286385142Y-146148000D01*
X286480380Y-146100380D01*
X286718476Y-146100380D01*
X286861333Y-146148000D01*
X287194666Y-146100380D02*
X287813714Y-146100380D01*
X287480380Y-146481333D01*
X287623238Y-146481333D01*
X287718476Y-146528952D01*
X287766095Y-146576571D01*
X287813714Y-146671809D01*
X287813714Y-146909904D01*
X287766095Y-147005142D01*
X287718476Y-147052761D01*
X287623238Y-147100380D01*
X287337523Y-147100380D01*
X287242285Y-147052761D01*
X287194666Y-147005142D01*
X288147047Y-146100380D02*
X288813714Y-146100380D01*
X288385142Y-147100380D01*
%TO.C,S59*%
X331501904Y-185152761D02*
X331644761Y-185200380D01*
X331882857Y-185200380D01*
X331978095Y-185152761D01*
X332025714Y-185105142D01*
X332073333Y-185009904D01*
X332073333Y-184914666D01*
X332025714Y-184819428D01*
X331978095Y-184771809D01*
X331882857Y-184724190D01*
X331692380Y-184676571D01*
X331597142Y-184628952D01*
X331549523Y-184581333D01*
X331501904Y-184486095D01*
X331501904Y-184390857D01*
X331549523Y-184295619D01*
X331597142Y-184248000D01*
X331692380Y-184200380D01*
X331930476Y-184200380D01*
X332073333Y-184248000D01*
X332978095Y-184200380D02*
X332501904Y-184200380D01*
X332454285Y-184676571D01*
X332501904Y-184628952D01*
X332597142Y-184581333D01*
X332835238Y-184581333D01*
X332930476Y-184628952D01*
X332978095Y-184676571D01*
X333025714Y-184771809D01*
X333025714Y-185009904D01*
X332978095Y-185105142D01*
X332930476Y-185152761D01*
X332835238Y-185200380D01*
X332597142Y-185200380D01*
X332501904Y-185152761D01*
X332454285Y-185105142D01*
X333501904Y-185200380D02*
X333692380Y-185200380D01*
X333787619Y-185152761D01*
X333835238Y-185105142D01*
X333930476Y-184962285D01*
X333978095Y-184771809D01*
X333978095Y-184390857D01*
X333930476Y-184295619D01*
X333882857Y-184248000D01*
X333787619Y-184200380D01*
X333597142Y-184200380D01*
X333501904Y-184248000D01*
X333454285Y-184295619D01*
X333406666Y-184390857D01*
X333406666Y-184628952D01*
X333454285Y-184724190D01*
X333501904Y-184771809D01*
X333597142Y-184819428D01*
X333787619Y-184819428D01*
X333882857Y-184771809D01*
X333930476Y-184724190D01*
X333978095Y-184628952D01*
%TO.C,R9*%
X67000380Y-199473866D02*
X66524190Y-199807200D01*
X67000380Y-200045295D02*
X66000380Y-200045295D01*
X66000380Y-199664342D01*
X66048000Y-199569104D01*
X66095619Y-199521485D01*
X66190857Y-199473866D01*
X66333714Y-199473866D01*
X66428952Y-199521485D01*
X66476571Y-199569104D01*
X66524190Y-199664342D01*
X66524190Y-200045295D01*
X67000380Y-198997676D02*
X67000380Y-198807200D01*
X66952761Y-198711961D01*
X66905142Y-198664342D01*
X66762285Y-198569104D01*
X66571809Y-198521485D01*
X66190857Y-198521485D01*
X66095619Y-198569104D01*
X66048000Y-198616723D01*
X66000380Y-198711961D01*
X66000380Y-198902438D01*
X66048000Y-198997676D01*
X66095619Y-199045295D01*
X66190857Y-199092914D01*
X66428952Y-199092914D01*
X66524190Y-199045295D01*
X66571809Y-198997676D01*
X66619428Y-198902438D01*
X66619428Y-198711961D01*
X66571809Y-198616723D01*
X66524190Y-198569104D01*
X66428952Y-198521485D01*
%TO.C,S43*%
X126777904Y-223252761D02*
X126920761Y-223300380D01*
X127158857Y-223300380D01*
X127254095Y-223252761D01*
X127301714Y-223205142D01*
X127349333Y-223109904D01*
X127349333Y-223014666D01*
X127301714Y-222919428D01*
X127254095Y-222871809D01*
X127158857Y-222824190D01*
X126968380Y-222776571D01*
X126873142Y-222728952D01*
X126825523Y-222681333D01*
X126777904Y-222586095D01*
X126777904Y-222490857D01*
X126825523Y-222395619D01*
X126873142Y-222348000D01*
X126968380Y-222300380D01*
X127206476Y-222300380D01*
X127349333Y-222348000D01*
X128206476Y-222633714D02*
X128206476Y-223300380D01*
X127968380Y-222252761D02*
X127730285Y-222967047D01*
X128349333Y-222967047D01*
X128635047Y-222300380D02*
X129254095Y-222300380D01*
X128920761Y-222681333D01*
X129063619Y-222681333D01*
X129158857Y-222728952D01*
X129206476Y-222776571D01*
X129254095Y-222871809D01*
X129254095Y-223109904D01*
X129206476Y-223205142D01*
X129158857Y-223252761D01*
X129063619Y-223300380D01*
X128777904Y-223300380D01*
X128682666Y-223252761D01*
X128635047Y-223205142D01*
%TO.C,R7*%
X62326780Y-199540666D02*
X61850590Y-199874000D01*
X62326780Y-200112095D02*
X61326780Y-200112095D01*
X61326780Y-199731142D01*
X61374400Y-199635904D01*
X61422019Y-199588285D01*
X61517257Y-199540666D01*
X61660114Y-199540666D01*
X61755352Y-199588285D01*
X61802971Y-199635904D01*
X61850590Y-199731142D01*
X61850590Y-200112095D01*
X61326780Y-199207333D02*
X61326780Y-198540666D01*
X62326780Y-198969238D01*
%TO.C,S48*%
X269525904Y-223252761D02*
X269668761Y-223300380D01*
X269906857Y-223300380D01*
X270002095Y-223252761D01*
X270049714Y-223205142D01*
X270097333Y-223109904D01*
X270097333Y-223014666D01*
X270049714Y-222919428D01*
X270002095Y-222871809D01*
X269906857Y-222824190D01*
X269716380Y-222776571D01*
X269621142Y-222728952D01*
X269573523Y-222681333D01*
X269525904Y-222586095D01*
X269525904Y-222490857D01*
X269573523Y-222395619D01*
X269621142Y-222348000D01*
X269716380Y-222300380D01*
X269954476Y-222300380D01*
X270097333Y-222348000D01*
X270954476Y-222633714D02*
X270954476Y-223300380D01*
X270716380Y-222252761D02*
X270478285Y-222967047D01*
X271097333Y-222967047D01*
X271621142Y-222728952D02*
X271525904Y-222681333D01*
X271478285Y-222633714D01*
X271430666Y-222538476D01*
X271430666Y-222490857D01*
X271478285Y-222395619D01*
X271525904Y-222348000D01*
X271621142Y-222300380D01*
X271811619Y-222300380D01*
X271906857Y-222348000D01*
X271954476Y-222395619D01*
X272002095Y-222490857D01*
X272002095Y-222538476D01*
X271954476Y-222633714D01*
X271906857Y-222681333D01*
X271811619Y-222728952D01*
X271621142Y-222728952D01*
X271525904Y-222776571D01*
X271478285Y-222824190D01*
X271430666Y-222919428D01*
X271430666Y-223109904D01*
X271478285Y-223205142D01*
X271525904Y-223252761D01*
X271621142Y-223300380D01*
X271811619Y-223300380D01*
X271906857Y-223252761D01*
X271954476Y-223205142D01*
X272002095Y-223109904D01*
X272002095Y-222919428D01*
X271954476Y-222824190D01*
X271906857Y-222776571D01*
X271811619Y-222728952D01*
%TO.C,S28*%
X157765904Y-204202761D02*
X157908761Y-204250380D01*
X158146857Y-204250380D01*
X158242095Y-204202761D01*
X158289714Y-204155142D01*
X158337333Y-204059904D01*
X158337333Y-203964666D01*
X158289714Y-203869428D01*
X158242095Y-203821809D01*
X158146857Y-203774190D01*
X157956380Y-203726571D01*
X157861142Y-203678952D01*
X157813523Y-203631333D01*
X157765904Y-203536095D01*
X157765904Y-203440857D01*
X157813523Y-203345619D01*
X157861142Y-203298000D01*
X157956380Y-203250380D01*
X158194476Y-203250380D01*
X158337333Y-203298000D01*
X158718285Y-203345619D02*
X158765904Y-203298000D01*
X158861142Y-203250380D01*
X159099238Y-203250380D01*
X159194476Y-203298000D01*
X159242095Y-203345619D01*
X159289714Y-203440857D01*
X159289714Y-203536095D01*
X159242095Y-203678952D01*
X158670666Y-204250380D01*
X159289714Y-204250380D01*
X159861142Y-203678952D02*
X159765904Y-203631333D01*
X159718285Y-203583714D01*
X159670666Y-203488476D01*
X159670666Y-203440857D01*
X159718285Y-203345619D01*
X159765904Y-203298000D01*
X159861142Y-203250380D01*
X160051619Y-203250380D01*
X160146857Y-203298000D01*
X160194476Y-203345619D01*
X160242095Y-203440857D01*
X160242095Y-203488476D01*
X160194476Y-203583714D01*
X160146857Y-203631333D01*
X160051619Y-203678952D01*
X159861142Y-203678952D01*
X159765904Y-203726571D01*
X159718285Y-203774190D01*
X159670666Y-203869428D01*
X159670666Y-204059904D01*
X159718285Y-204155142D01*
X159765904Y-204202761D01*
X159861142Y-204250380D01*
X160051619Y-204250380D01*
X160146857Y-204202761D01*
X160194476Y-204155142D01*
X160242095Y-204059904D01*
X160242095Y-203869428D01*
X160194476Y-203774190D01*
X160146857Y-203726571D01*
X160051619Y-203678952D01*
%TO.C,S17*%
X83851904Y-185152761D02*
X83994761Y-185200380D01*
X84232857Y-185200380D01*
X84328095Y-185152761D01*
X84375714Y-185105142D01*
X84423333Y-185009904D01*
X84423333Y-184914666D01*
X84375714Y-184819428D01*
X84328095Y-184771809D01*
X84232857Y-184724190D01*
X84042380Y-184676571D01*
X83947142Y-184628952D01*
X83899523Y-184581333D01*
X83851904Y-184486095D01*
X83851904Y-184390857D01*
X83899523Y-184295619D01*
X83947142Y-184248000D01*
X84042380Y-184200380D01*
X84280476Y-184200380D01*
X84423333Y-184248000D01*
X85375714Y-185200380D02*
X84804285Y-185200380D01*
X85090000Y-185200380D02*
X85090000Y-184200380D01*
X84994761Y-184343238D01*
X84899523Y-184438476D01*
X84804285Y-184486095D01*
X85709047Y-184200380D02*
X86375714Y-184200380D01*
X85947142Y-185200380D01*
%TO.C,R8*%
X64612780Y-199575466D02*
X64136590Y-199908800D01*
X64612780Y-200146895D02*
X63612780Y-200146895D01*
X63612780Y-199765942D01*
X63660400Y-199670704D01*
X63708019Y-199623085D01*
X63803257Y-199575466D01*
X63946114Y-199575466D01*
X64041352Y-199623085D01*
X64088971Y-199670704D01*
X64136590Y-199765942D01*
X64136590Y-200146895D01*
X64041352Y-199004038D02*
X63993733Y-199099276D01*
X63946114Y-199146895D01*
X63850876Y-199194514D01*
X63803257Y-199194514D01*
X63708019Y-199146895D01*
X63660400Y-199099276D01*
X63612780Y-199004038D01*
X63612780Y-198813561D01*
X63660400Y-198718323D01*
X63708019Y-198670704D01*
X63803257Y-198623085D01*
X63850876Y-198623085D01*
X63946114Y-198670704D01*
X63993733Y-198718323D01*
X64041352Y-198813561D01*
X64041352Y-199004038D01*
X64088971Y-199099276D01*
X64136590Y-199146895D01*
X64231828Y-199194514D01*
X64422304Y-199194514D01*
X64517542Y-199146895D01*
X64565161Y-199099276D01*
X64612780Y-199004038D01*
X64612780Y-198813561D01*
X64565161Y-198718323D01*
X64517542Y-198670704D01*
X64422304Y-198623085D01*
X64231828Y-198623085D01*
X64136590Y-198670704D01*
X64088971Y-198718323D01*
X64041352Y-198813561D01*
%TO.C,U1*%
X44871095Y-207900380D02*
X44871095Y-208709904D01*
X44918714Y-208805142D01*
X44966333Y-208852761D01*
X45061571Y-208900380D01*
X45252047Y-208900380D01*
X45347285Y-208852761D01*
X45394904Y-208805142D01*
X45442523Y-208709904D01*
X45442523Y-207900380D01*
X46442523Y-208900380D02*
X45871095Y-208900380D01*
X46156809Y-208900380D02*
X46156809Y-207900380D01*
X46061571Y-208043238D01*
X45966333Y-208138476D01*
X45871095Y-208186095D01*
%TO.C,S15*%
X200564904Y-166102761D02*
X200707761Y-166150380D01*
X200945857Y-166150380D01*
X201041095Y-166102761D01*
X201088714Y-166055142D01*
X201136333Y-165959904D01*
X201136333Y-165864666D01*
X201088714Y-165769428D01*
X201041095Y-165721809D01*
X200945857Y-165674190D01*
X200755380Y-165626571D01*
X200660142Y-165578952D01*
X200612523Y-165531333D01*
X200564904Y-165436095D01*
X200564904Y-165340857D01*
X200612523Y-165245619D01*
X200660142Y-165198000D01*
X200755380Y-165150380D01*
X200993476Y-165150380D01*
X201136333Y-165198000D01*
X202088714Y-166150380D02*
X201517285Y-166150380D01*
X201803000Y-166150380D02*
X201803000Y-165150380D01*
X201707761Y-165293238D01*
X201612523Y-165388476D01*
X201517285Y-165436095D01*
X202993476Y-165150380D02*
X202517285Y-165150380D01*
X202469666Y-165626571D01*
X202517285Y-165578952D01*
X202612523Y-165531333D01*
X202850619Y-165531333D01*
X202945857Y-165578952D01*
X202993476Y-165626571D01*
X203041095Y-165721809D01*
X203041095Y-165959904D01*
X202993476Y-166055142D01*
X202945857Y-166102761D01*
X202850619Y-166150380D01*
X202612523Y-166150380D01*
X202517285Y-166102761D01*
X202469666Y-166055142D01*
%TO.C,S58*%
X290988904Y-204202761D02*
X291131761Y-204250380D01*
X291369857Y-204250380D01*
X291465095Y-204202761D01*
X291512714Y-204155142D01*
X291560333Y-204059904D01*
X291560333Y-203964666D01*
X291512714Y-203869428D01*
X291465095Y-203821809D01*
X291369857Y-203774190D01*
X291179380Y-203726571D01*
X291084142Y-203678952D01*
X291036523Y-203631333D01*
X290988904Y-203536095D01*
X290988904Y-203440857D01*
X291036523Y-203345619D01*
X291084142Y-203298000D01*
X291179380Y-203250380D01*
X291417476Y-203250380D01*
X291560333Y-203298000D01*
X292465095Y-203250380D02*
X291988904Y-203250380D01*
X291941285Y-203726571D01*
X291988904Y-203678952D01*
X292084142Y-203631333D01*
X292322238Y-203631333D01*
X292417476Y-203678952D01*
X292465095Y-203726571D01*
X292512714Y-203821809D01*
X292512714Y-204059904D01*
X292465095Y-204155142D01*
X292417476Y-204202761D01*
X292322238Y-204250380D01*
X292084142Y-204250380D01*
X291988904Y-204202761D01*
X291941285Y-204155142D01*
X293084142Y-203678952D02*
X292988904Y-203631333D01*
X292941285Y-203583714D01*
X292893666Y-203488476D01*
X292893666Y-203440857D01*
X292941285Y-203345619D01*
X292988904Y-203298000D01*
X293084142Y-203250380D01*
X293274619Y-203250380D01*
X293369857Y-203298000D01*
X293417476Y-203345619D01*
X293465095Y-203440857D01*
X293465095Y-203488476D01*
X293417476Y-203583714D01*
X293369857Y-203631333D01*
X293274619Y-203678952D01*
X293084142Y-203678952D01*
X292988904Y-203726571D01*
X292941285Y-203774190D01*
X292893666Y-203869428D01*
X292893666Y-204059904D01*
X292941285Y-204155142D01*
X292988904Y-204202761D01*
X293084142Y-204250380D01*
X293274619Y-204250380D01*
X293369857Y-204202761D01*
X293417476Y-204155142D01*
X293465095Y-204059904D01*
X293465095Y-203869428D01*
X293417476Y-203774190D01*
X293369857Y-203726571D01*
X293274619Y-203678952D01*
%TO.C,S16*%
X219614904Y-166102761D02*
X219757761Y-166150380D01*
X219995857Y-166150380D01*
X220091095Y-166102761D01*
X220138714Y-166055142D01*
X220186333Y-165959904D01*
X220186333Y-165864666D01*
X220138714Y-165769428D01*
X220091095Y-165721809D01*
X219995857Y-165674190D01*
X219805380Y-165626571D01*
X219710142Y-165578952D01*
X219662523Y-165531333D01*
X219614904Y-165436095D01*
X219614904Y-165340857D01*
X219662523Y-165245619D01*
X219710142Y-165198000D01*
X219805380Y-165150380D01*
X220043476Y-165150380D01*
X220186333Y-165198000D01*
X221138714Y-166150380D02*
X220567285Y-166150380D01*
X220853000Y-166150380D02*
X220853000Y-165150380D01*
X220757761Y-165293238D01*
X220662523Y-165388476D01*
X220567285Y-165436095D01*
X221995857Y-165150380D02*
X221805380Y-165150380D01*
X221710142Y-165198000D01*
X221662523Y-165245619D01*
X221567285Y-165388476D01*
X221519666Y-165578952D01*
X221519666Y-165959904D01*
X221567285Y-166055142D01*
X221614904Y-166102761D01*
X221710142Y-166150380D01*
X221900619Y-166150380D01*
X221995857Y-166102761D01*
X222043476Y-166055142D01*
X222091095Y-165959904D01*
X222091095Y-165721809D01*
X222043476Y-165626571D01*
X221995857Y-165578952D01*
X221900619Y-165531333D01*
X221710142Y-165531333D01*
X221614904Y-165578952D01*
X221567285Y-165626571D01*
X221519666Y-165721809D01*
%TO.C,U2*%
X51467980Y-169316304D02*
X52277504Y-169316304D01*
X52372742Y-169268685D01*
X52420361Y-169221066D01*
X52467980Y-169125828D01*
X52467980Y-168935352D01*
X52420361Y-168840114D01*
X52372742Y-168792495D01*
X52277504Y-168744876D01*
X51467980Y-168744876D01*
X51563219Y-168316304D02*
X51515600Y-168268685D01*
X51467980Y-168173447D01*
X51467980Y-167935352D01*
X51515600Y-167840114D01*
X51563219Y-167792495D01*
X51658457Y-167744876D01*
X51753695Y-167744876D01*
X51896552Y-167792495D01*
X52467980Y-168363923D01*
X52467980Y-167744876D01*
%TO.C,C4*%
X39854142Y-148608166D02*
X39901761Y-148655785D01*
X39949380Y-148798642D01*
X39949380Y-148893880D01*
X39901761Y-149036738D01*
X39806523Y-149131976D01*
X39711285Y-149179595D01*
X39520809Y-149227214D01*
X39377952Y-149227214D01*
X39187476Y-149179595D01*
X39092238Y-149131976D01*
X38997000Y-149036738D01*
X38949380Y-148893880D01*
X38949380Y-148798642D01*
X38997000Y-148655785D01*
X39044619Y-148608166D01*
X39282714Y-147751023D02*
X39949380Y-147751023D01*
X38901761Y-147989119D02*
X39616047Y-148227214D01*
X39616047Y-147608166D01*
%TO.C,C5*%
X42013142Y-148608166D02*
X42060761Y-148655785D01*
X42108380Y-148798642D01*
X42108380Y-148893880D01*
X42060761Y-149036738D01*
X41965523Y-149131976D01*
X41870285Y-149179595D01*
X41679809Y-149227214D01*
X41536952Y-149227214D01*
X41346476Y-149179595D01*
X41251238Y-149131976D01*
X41156000Y-149036738D01*
X41108380Y-148893880D01*
X41108380Y-148798642D01*
X41156000Y-148655785D01*
X41203619Y-148608166D01*
X41108380Y-147703404D02*
X41108380Y-148179595D01*
X41584571Y-148227214D01*
X41536952Y-148179595D01*
X41489333Y-148084357D01*
X41489333Y-147846261D01*
X41536952Y-147751023D01*
X41584571Y-147703404D01*
X41679809Y-147655785D01*
X41917904Y-147655785D01*
X42013142Y-147703404D01*
X42060761Y-147751023D01*
X42108380Y-147846261D01*
X42108380Y-148084357D01*
X42060761Y-148179595D01*
X42013142Y-148227214D01*
%TO.C,R3*%
X62225180Y-184824666D02*
X61748990Y-185158000D01*
X62225180Y-185396095D02*
X61225180Y-185396095D01*
X61225180Y-185015142D01*
X61272800Y-184919904D01*
X61320419Y-184872285D01*
X61415657Y-184824666D01*
X61558514Y-184824666D01*
X61653752Y-184872285D01*
X61701371Y-184919904D01*
X61748990Y-185015142D01*
X61748990Y-185396095D01*
X61225180Y-184491333D02*
X61225180Y-183872285D01*
X61606133Y-184205619D01*
X61606133Y-184062761D01*
X61653752Y-183967523D01*
X61701371Y-183919904D01*
X61796609Y-183872285D01*
X62034704Y-183872285D01*
X62129942Y-183919904D01*
X62177561Y-183967523D01*
X62225180Y-184062761D01*
X62225180Y-184348476D01*
X62177561Y-184443714D01*
X62129942Y-184491333D01*
%TO.C,S27*%
X138588904Y-204329761D02*
X138731761Y-204377380D01*
X138969857Y-204377380D01*
X139065095Y-204329761D01*
X139112714Y-204282142D01*
X139160333Y-204186904D01*
X139160333Y-204091666D01*
X139112714Y-203996428D01*
X139065095Y-203948809D01*
X138969857Y-203901190D01*
X138779380Y-203853571D01*
X138684142Y-203805952D01*
X138636523Y-203758333D01*
X138588904Y-203663095D01*
X138588904Y-203567857D01*
X138636523Y-203472619D01*
X138684142Y-203425000D01*
X138779380Y-203377380D01*
X139017476Y-203377380D01*
X139160333Y-203425000D01*
X139541285Y-203472619D02*
X139588904Y-203425000D01*
X139684142Y-203377380D01*
X139922238Y-203377380D01*
X140017476Y-203425000D01*
X140065095Y-203472619D01*
X140112714Y-203567857D01*
X140112714Y-203663095D01*
X140065095Y-203805952D01*
X139493666Y-204377380D01*
X140112714Y-204377380D01*
X140446047Y-203377380D02*
X141112714Y-203377380D01*
X140684142Y-204377380D01*
%TO.C,S8*%
X210566095Y-147052761D02*
X210708952Y-147100380D01*
X210947047Y-147100380D01*
X211042285Y-147052761D01*
X211089904Y-147005142D01*
X211137523Y-146909904D01*
X211137523Y-146814666D01*
X211089904Y-146719428D01*
X211042285Y-146671809D01*
X210947047Y-146624190D01*
X210756571Y-146576571D01*
X210661333Y-146528952D01*
X210613714Y-146481333D01*
X210566095Y-146386095D01*
X210566095Y-146290857D01*
X210613714Y-146195619D01*
X210661333Y-146148000D01*
X210756571Y-146100380D01*
X210994666Y-146100380D01*
X211137523Y-146148000D01*
X211708952Y-146528952D02*
X211613714Y-146481333D01*
X211566095Y-146433714D01*
X211518476Y-146338476D01*
X211518476Y-146290857D01*
X211566095Y-146195619D01*
X211613714Y-146148000D01*
X211708952Y-146100380D01*
X211899428Y-146100380D01*
X211994666Y-146148000D01*
X212042285Y-146195619D01*
X212089904Y-146290857D01*
X212089904Y-146338476D01*
X212042285Y-146433714D01*
X211994666Y-146481333D01*
X211899428Y-146528952D01*
X211708952Y-146528952D01*
X211613714Y-146576571D01*
X211566095Y-146624190D01*
X211518476Y-146719428D01*
X211518476Y-146909904D01*
X211566095Y-147005142D01*
X211613714Y-147052761D01*
X211708952Y-147100380D01*
X211899428Y-147100380D01*
X211994666Y-147052761D01*
X212042285Y-147005142D01*
X212089904Y-146909904D01*
X212089904Y-146719428D01*
X212042285Y-146624190D01*
X211994666Y-146576571D01*
X211899428Y-146528952D01*
%TO.C,S5*%
X153416095Y-147052761D02*
X153558952Y-147100380D01*
X153797047Y-147100380D01*
X153892285Y-147052761D01*
X153939904Y-147005142D01*
X153987523Y-146909904D01*
X153987523Y-146814666D01*
X153939904Y-146719428D01*
X153892285Y-146671809D01*
X153797047Y-146624190D01*
X153606571Y-146576571D01*
X153511333Y-146528952D01*
X153463714Y-146481333D01*
X153416095Y-146386095D01*
X153416095Y-146290857D01*
X153463714Y-146195619D01*
X153511333Y-146148000D01*
X153606571Y-146100380D01*
X153844666Y-146100380D01*
X153987523Y-146148000D01*
X154892285Y-146100380D02*
X154416095Y-146100380D01*
X154368476Y-146576571D01*
X154416095Y-146528952D01*
X154511333Y-146481333D01*
X154749428Y-146481333D01*
X154844666Y-146528952D01*
X154892285Y-146576571D01*
X154939904Y-146671809D01*
X154939904Y-146909904D01*
X154892285Y-147005142D01*
X154844666Y-147052761D01*
X154749428Y-147100380D01*
X154511333Y-147100380D01*
X154416095Y-147052761D01*
X154368476Y-147005142D01*
%TO.C,S13*%
X162464904Y-166102761D02*
X162607761Y-166150380D01*
X162845857Y-166150380D01*
X162941095Y-166102761D01*
X162988714Y-166055142D01*
X163036333Y-165959904D01*
X163036333Y-165864666D01*
X162988714Y-165769428D01*
X162941095Y-165721809D01*
X162845857Y-165674190D01*
X162655380Y-165626571D01*
X162560142Y-165578952D01*
X162512523Y-165531333D01*
X162464904Y-165436095D01*
X162464904Y-165340857D01*
X162512523Y-165245619D01*
X162560142Y-165198000D01*
X162655380Y-165150380D01*
X162893476Y-165150380D01*
X163036333Y-165198000D01*
X163988714Y-166150380D02*
X163417285Y-166150380D01*
X163703000Y-166150380D02*
X163703000Y-165150380D01*
X163607761Y-165293238D01*
X163512523Y-165388476D01*
X163417285Y-165436095D01*
X164322047Y-165150380D02*
X164941095Y-165150380D01*
X164607761Y-165531333D01*
X164750619Y-165531333D01*
X164845857Y-165578952D01*
X164893476Y-165626571D01*
X164941095Y-165721809D01*
X164941095Y-165959904D01*
X164893476Y-166055142D01*
X164845857Y-166102761D01*
X164750619Y-166150380D01*
X164464904Y-166150380D01*
X164369666Y-166102761D01*
X164322047Y-166055142D01*
%TO.C,S35*%
X333914904Y-147052761D02*
X334057761Y-147100380D01*
X334295857Y-147100380D01*
X334391095Y-147052761D01*
X334438714Y-147005142D01*
X334486333Y-146909904D01*
X334486333Y-146814666D01*
X334438714Y-146719428D01*
X334391095Y-146671809D01*
X334295857Y-146624190D01*
X334105380Y-146576571D01*
X334010142Y-146528952D01*
X333962523Y-146481333D01*
X333914904Y-146386095D01*
X333914904Y-146290857D01*
X333962523Y-146195619D01*
X334010142Y-146148000D01*
X334105380Y-146100380D01*
X334343476Y-146100380D01*
X334486333Y-146148000D01*
X334819666Y-146100380D02*
X335438714Y-146100380D01*
X335105380Y-146481333D01*
X335248238Y-146481333D01*
X335343476Y-146528952D01*
X335391095Y-146576571D01*
X335438714Y-146671809D01*
X335438714Y-146909904D01*
X335391095Y-147005142D01*
X335343476Y-147052761D01*
X335248238Y-147100380D01*
X334962523Y-147100380D01*
X334867285Y-147052761D01*
X334819666Y-147005142D01*
X336343476Y-146100380D02*
X335867285Y-146100380D01*
X335819666Y-146576571D01*
X335867285Y-146528952D01*
X335962523Y-146481333D01*
X336200619Y-146481333D01*
X336295857Y-146528952D01*
X336343476Y-146576571D01*
X336391095Y-146671809D01*
X336391095Y-146909904D01*
X336343476Y-147005142D01*
X336295857Y-147052761D01*
X336200619Y-147100380D01*
X335962523Y-147100380D01*
X335867285Y-147052761D01*
X335819666Y-147005142D01*
%TO.C,C6*%
X46712142Y-148756666D02*
X46759761Y-148804285D01*
X46807380Y-148947142D01*
X46807380Y-149042380D01*
X46759761Y-149185238D01*
X46664523Y-149280476D01*
X46569285Y-149328095D01*
X46378809Y-149375714D01*
X46235952Y-149375714D01*
X46045476Y-149328095D01*
X45950238Y-149280476D01*
X45855000Y-149185238D01*
X45807380Y-149042380D01*
X45807380Y-148947142D01*
X45855000Y-148804285D01*
X45902619Y-148756666D01*
X45807380Y-147899523D02*
X45807380Y-148090000D01*
X45855000Y-148185238D01*
X45902619Y-148232857D01*
X46045476Y-148328095D01*
X46235952Y-148375714D01*
X46616904Y-148375714D01*
X46712142Y-148328095D01*
X46759761Y-148280476D01*
X46807380Y-148185238D01*
X46807380Y-147994761D01*
X46759761Y-147899523D01*
X46712142Y-147851904D01*
X46616904Y-147804285D01*
X46378809Y-147804285D01*
X46283571Y-147851904D01*
X46235952Y-147899523D01*
X46188333Y-147994761D01*
X46188333Y-148185238D01*
X46235952Y-148280476D01*
X46283571Y-148328095D01*
X46378809Y-148375714D01*
%TO.C,S20*%
X148113904Y-185152761D02*
X148256761Y-185200380D01*
X148494857Y-185200380D01*
X148590095Y-185152761D01*
X148637714Y-185105142D01*
X148685333Y-185009904D01*
X148685333Y-184914666D01*
X148637714Y-184819428D01*
X148590095Y-184771809D01*
X148494857Y-184724190D01*
X148304380Y-184676571D01*
X148209142Y-184628952D01*
X148161523Y-184581333D01*
X148113904Y-184486095D01*
X148113904Y-184390857D01*
X148161523Y-184295619D01*
X148209142Y-184248000D01*
X148304380Y-184200380D01*
X148542476Y-184200380D01*
X148685333Y-184248000D01*
X149066285Y-184295619D02*
X149113904Y-184248000D01*
X149209142Y-184200380D01*
X149447238Y-184200380D01*
X149542476Y-184248000D01*
X149590095Y-184295619D01*
X149637714Y-184390857D01*
X149637714Y-184486095D01*
X149590095Y-184628952D01*
X149018666Y-185200380D01*
X149637714Y-185200380D01*
X150256761Y-184200380D02*
X150352000Y-184200380D01*
X150447238Y-184248000D01*
X150494857Y-184295619D01*
X150542476Y-184390857D01*
X150590095Y-184581333D01*
X150590095Y-184819428D01*
X150542476Y-185009904D01*
X150494857Y-185105142D01*
X150447238Y-185152761D01*
X150352000Y-185200380D01*
X150256761Y-185200380D01*
X150161523Y-185152761D01*
X150113904Y-185105142D01*
X150066285Y-185009904D01*
X150018666Y-184819428D01*
X150018666Y-184581333D01*
X150066285Y-184390857D01*
X150113904Y-184295619D01*
X150161523Y-184248000D01*
X150256761Y-184200380D01*
%TO.C,S11*%
X124364904Y-166102761D02*
X124507761Y-166150380D01*
X124745857Y-166150380D01*
X124841095Y-166102761D01*
X124888714Y-166055142D01*
X124936333Y-165959904D01*
X124936333Y-165864666D01*
X124888714Y-165769428D01*
X124841095Y-165721809D01*
X124745857Y-165674190D01*
X124555380Y-165626571D01*
X124460142Y-165578952D01*
X124412523Y-165531333D01*
X124364904Y-165436095D01*
X124364904Y-165340857D01*
X124412523Y-165245619D01*
X124460142Y-165198000D01*
X124555380Y-165150380D01*
X124793476Y-165150380D01*
X124936333Y-165198000D01*
X125888714Y-166150380D02*
X125317285Y-166150380D01*
X125603000Y-166150380D02*
X125603000Y-165150380D01*
X125507761Y-165293238D01*
X125412523Y-165388476D01*
X125317285Y-165436095D01*
X126841095Y-166150380D02*
X126269666Y-166150380D01*
X126555380Y-166150380D02*
X126555380Y-165150380D01*
X126460142Y-165293238D01*
X126364904Y-165388476D01*
X126269666Y-165436095D01*
%TO.C,S22*%
X186213904Y-185152761D02*
X186356761Y-185200380D01*
X186594857Y-185200380D01*
X186690095Y-185152761D01*
X186737714Y-185105142D01*
X186785333Y-185009904D01*
X186785333Y-184914666D01*
X186737714Y-184819428D01*
X186690095Y-184771809D01*
X186594857Y-184724190D01*
X186404380Y-184676571D01*
X186309142Y-184628952D01*
X186261523Y-184581333D01*
X186213904Y-184486095D01*
X186213904Y-184390857D01*
X186261523Y-184295619D01*
X186309142Y-184248000D01*
X186404380Y-184200380D01*
X186642476Y-184200380D01*
X186785333Y-184248000D01*
X187166285Y-184295619D02*
X187213904Y-184248000D01*
X187309142Y-184200380D01*
X187547238Y-184200380D01*
X187642476Y-184248000D01*
X187690095Y-184295619D01*
X187737714Y-184390857D01*
X187737714Y-184486095D01*
X187690095Y-184628952D01*
X187118666Y-185200380D01*
X187737714Y-185200380D01*
X188118666Y-184295619D02*
X188166285Y-184248000D01*
X188261523Y-184200380D01*
X188499619Y-184200380D01*
X188594857Y-184248000D01*
X188642476Y-184295619D01*
X188690095Y-184390857D01*
X188690095Y-184486095D01*
X188642476Y-184628952D01*
X188071047Y-185200380D01*
X188690095Y-185200380D01*
%TO.C,S60*%
X326675904Y-204202761D02*
X326818761Y-204250380D01*
X327056857Y-204250380D01*
X327152095Y-204202761D01*
X327199714Y-204155142D01*
X327247333Y-204059904D01*
X327247333Y-203964666D01*
X327199714Y-203869428D01*
X327152095Y-203821809D01*
X327056857Y-203774190D01*
X326866380Y-203726571D01*
X326771142Y-203678952D01*
X326723523Y-203631333D01*
X326675904Y-203536095D01*
X326675904Y-203440857D01*
X326723523Y-203345619D01*
X326771142Y-203298000D01*
X326866380Y-203250380D01*
X327104476Y-203250380D01*
X327247333Y-203298000D01*
X328104476Y-203250380D02*
X327914000Y-203250380D01*
X327818761Y-203298000D01*
X327771142Y-203345619D01*
X327675904Y-203488476D01*
X327628285Y-203678952D01*
X327628285Y-204059904D01*
X327675904Y-204155142D01*
X327723523Y-204202761D01*
X327818761Y-204250380D01*
X328009238Y-204250380D01*
X328104476Y-204202761D01*
X328152095Y-204155142D01*
X328199714Y-204059904D01*
X328199714Y-203821809D01*
X328152095Y-203726571D01*
X328104476Y-203678952D01*
X328009238Y-203631333D01*
X327818761Y-203631333D01*
X327723523Y-203678952D01*
X327675904Y-203726571D01*
X327628285Y-203821809D01*
X328818761Y-203250380D02*
X328914000Y-203250380D01*
X329009238Y-203298000D01*
X329056857Y-203345619D01*
X329104476Y-203440857D01*
X329152095Y-203631333D01*
X329152095Y-203869428D01*
X329104476Y-204059904D01*
X329056857Y-204155142D01*
X329009238Y-204202761D01*
X328914000Y-204250380D01*
X328818761Y-204250380D01*
X328723523Y-204202761D01*
X328675904Y-204155142D01*
X328628285Y-204059904D01*
X328580666Y-203869428D01*
X328580666Y-203631333D01*
X328628285Y-203440857D01*
X328675904Y-203345619D01*
X328723523Y-203298000D01*
X328818761Y-203250380D01*
%TO.C,S23*%
X205263904Y-185152761D02*
X205406761Y-185200380D01*
X205644857Y-185200380D01*
X205740095Y-185152761D01*
X205787714Y-185105142D01*
X205835333Y-185009904D01*
X205835333Y-184914666D01*
X205787714Y-184819428D01*
X205740095Y-184771809D01*
X205644857Y-184724190D01*
X205454380Y-184676571D01*
X205359142Y-184628952D01*
X205311523Y-184581333D01*
X205263904Y-184486095D01*
X205263904Y-184390857D01*
X205311523Y-184295619D01*
X205359142Y-184248000D01*
X205454380Y-184200380D01*
X205692476Y-184200380D01*
X205835333Y-184248000D01*
X206216285Y-184295619D02*
X206263904Y-184248000D01*
X206359142Y-184200380D01*
X206597238Y-184200380D01*
X206692476Y-184248000D01*
X206740095Y-184295619D01*
X206787714Y-184390857D01*
X206787714Y-184486095D01*
X206740095Y-184628952D01*
X206168666Y-185200380D01*
X206787714Y-185200380D01*
X207121047Y-184200380D02*
X207740095Y-184200380D01*
X207406761Y-184581333D01*
X207549619Y-184581333D01*
X207644857Y-184628952D01*
X207692476Y-184676571D01*
X207740095Y-184771809D01*
X207740095Y-185009904D01*
X207692476Y-185105142D01*
X207644857Y-185152761D01*
X207549619Y-185200380D01*
X207263904Y-185200380D01*
X207168666Y-185152761D01*
X207121047Y-185105142D01*
%TO.C,S40*%
X229139904Y-147052761D02*
X229282761Y-147100380D01*
X229520857Y-147100380D01*
X229616095Y-147052761D01*
X229663714Y-147005142D01*
X229711333Y-146909904D01*
X229711333Y-146814666D01*
X229663714Y-146719428D01*
X229616095Y-146671809D01*
X229520857Y-146624190D01*
X229330380Y-146576571D01*
X229235142Y-146528952D01*
X229187523Y-146481333D01*
X229139904Y-146386095D01*
X229139904Y-146290857D01*
X229187523Y-146195619D01*
X229235142Y-146148000D01*
X229330380Y-146100380D01*
X229568476Y-146100380D01*
X229711333Y-146148000D01*
X230568476Y-146433714D02*
X230568476Y-147100380D01*
X230330380Y-146052761D02*
X230092285Y-146767047D01*
X230711333Y-146767047D01*
X231282761Y-146100380D02*
X231378000Y-146100380D01*
X231473238Y-146148000D01*
X231520857Y-146195619D01*
X231568476Y-146290857D01*
X231616095Y-146481333D01*
X231616095Y-146719428D01*
X231568476Y-146909904D01*
X231520857Y-147005142D01*
X231473238Y-147052761D01*
X231378000Y-147100380D01*
X231282761Y-147100380D01*
X231187523Y-147052761D01*
X231139904Y-147005142D01*
X231092285Y-146909904D01*
X231044666Y-146719428D01*
X231044666Y-146481333D01*
X231092285Y-146290857D01*
X231139904Y-146195619D01*
X231187523Y-146148000D01*
X231282761Y-146100380D01*
%TO.C,C7*%
X44553142Y-148756666D02*
X44600761Y-148804285D01*
X44648380Y-148947142D01*
X44648380Y-149042380D01*
X44600761Y-149185238D01*
X44505523Y-149280476D01*
X44410285Y-149328095D01*
X44219809Y-149375714D01*
X44076952Y-149375714D01*
X43886476Y-149328095D01*
X43791238Y-149280476D01*
X43696000Y-149185238D01*
X43648380Y-149042380D01*
X43648380Y-148947142D01*
X43696000Y-148804285D01*
X43743619Y-148756666D01*
X43648380Y-148423333D02*
X43648380Y-147756666D01*
X44648380Y-148185238D01*
%TO.C,S38*%
X267239904Y-147052761D02*
X267382761Y-147100380D01*
X267620857Y-147100380D01*
X267716095Y-147052761D01*
X267763714Y-147005142D01*
X267811333Y-146909904D01*
X267811333Y-146814666D01*
X267763714Y-146719428D01*
X267716095Y-146671809D01*
X267620857Y-146624190D01*
X267430380Y-146576571D01*
X267335142Y-146528952D01*
X267287523Y-146481333D01*
X267239904Y-146386095D01*
X267239904Y-146290857D01*
X267287523Y-146195619D01*
X267335142Y-146148000D01*
X267430380Y-146100380D01*
X267668476Y-146100380D01*
X267811333Y-146148000D01*
X268144666Y-146100380D02*
X268763714Y-146100380D01*
X268430380Y-146481333D01*
X268573238Y-146481333D01*
X268668476Y-146528952D01*
X268716095Y-146576571D01*
X268763714Y-146671809D01*
X268763714Y-146909904D01*
X268716095Y-147005142D01*
X268668476Y-147052761D01*
X268573238Y-147100380D01*
X268287523Y-147100380D01*
X268192285Y-147052761D01*
X268144666Y-147005142D01*
X269335142Y-146528952D02*
X269239904Y-146481333D01*
X269192285Y-146433714D01*
X269144666Y-146338476D01*
X269144666Y-146290857D01*
X269192285Y-146195619D01*
X269239904Y-146148000D01*
X269335142Y-146100380D01*
X269525619Y-146100380D01*
X269620857Y-146148000D01*
X269668476Y-146195619D01*
X269716095Y-146290857D01*
X269716095Y-146338476D01*
X269668476Y-146433714D01*
X269620857Y-146481333D01*
X269525619Y-146528952D01*
X269335142Y-146528952D01*
X269239904Y-146576571D01*
X269192285Y-146624190D01*
X269144666Y-146719428D01*
X269144666Y-146909904D01*
X269192285Y-147005142D01*
X269239904Y-147052761D01*
X269335142Y-147100380D01*
X269525619Y-147100380D01*
X269620857Y-147052761D01*
X269668476Y-147005142D01*
X269716095Y-146909904D01*
X269716095Y-146719428D01*
X269668476Y-146624190D01*
X269620857Y-146576571D01*
X269525619Y-146528952D01*
%TO.C,U3*%
X47894380Y-159384904D02*
X48703904Y-159384904D01*
X48799142Y-159337285D01*
X48846761Y-159289666D01*
X48894380Y-159194428D01*
X48894380Y-159003952D01*
X48846761Y-158908714D01*
X48799142Y-158861095D01*
X48703904Y-158813476D01*
X47894380Y-158813476D01*
X47894380Y-158432523D02*
X47894380Y-157813476D01*
X48275333Y-158146809D01*
X48275333Y-158003952D01*
X48322952Y-157908714D01*
X48370571Y-157861095D01*
X48465809Y-157813476D01*
X48703904Y-157813476D01*
X48799142Y-157861095D01*
X48846761Y-157908714D01*
X48894380Y-158003952D01*
X48894380Y-158289666D01*
X48846761Y-158384904D01*
X48799142Y-158432523D01*
%TO.C,S44*%
X198151904Y-223252761D02*
X198294761Y-223300380D01*
X198532857Y-223300380D01*
X198628095Y-223252761D01*
X198675714Y-223205142D01*
X198723333Y-223109904D01*
X198723333Y-223014666D01*
X198675714Y-222919428D01*
X198628095Y-222871809D01*
X198532857Y-222824190D01*
X198342380Y-222776571D01*
X198247142Y-222728952D01*
X198199523Y-222681333D01*
X198151904Y-222586095D01*
X198151904Y-222490857D01*
X198199523Y-222395619D01*
X198247142Y-222348000D01*
X198342380Y-222300380D01*
X198580476Y-222300380D01*
X198723333Y-222348000D01*
X199580476Y-222633714D02*
X199580476Y-223300380D01*
X199342380Y-222252761D02*
X199104285Y-222967047D01*
X199723333Y-222967047D01*
X200532857Y-222633714D02*
X200532857Y-223300380D01*
X200294761Y-222252761D02*
X200056666Y-222967047D01*
X200675714Y-222967047D01*
%TO.C,S55*%
X257714904Y-166102761D02*
X257857761Y-166150380D01*
X258095857Y-166150380D01*
X258191095Y-166102761D01*
X258238714Y-166055142D01*
X258286333Y-165959904D01*
X258286333Y-165864666D01*
X258238714Y-165769428D01*
X258191095Y-165721809D01*
X258095857Y-165674190D01*
X257905380Y-165626571D01*
X257810142Y-165578952D01*
X257762523Y-165531333D01*
X257714904Y-165436095D01*
X257714904Y-165340857D01*
X257762523Y-165245619D01*
X257810142Y-165198000D01*
X257905380Y-165150380D01*
X258143476Y-165150380D01*
X258286333Y-165198000D01*
X259191095Y-165150380D02*
X258714904Y-165150380D01*
X258667285Y-165626571D01*
X258714904Y-165578952D01*
X258810142Y-165531333D01*
X259048238Y-165531333D01*
X259143476Y-165578952D01*
X259191095Y-165626571D01*
X259238714Y-165721809D01*
X259238714Y-165959904D01*
X259191095Y-166055142D01*
X259143476Y-166102761D01*
X259048238Y-166150380D01*
X258810142Y-166150380D01*
X258714904Y-166102761D01*
X258667285Y-166055142D01*
X260143476Y-165150380D02*
X259667285Y-165150380D01*
X259619666Y-165626571D01*
X259667285Y-165578952D01*
X259762523Y-165531333D01*
X260000619Y-165531333D01*
X260095857Y-165578952D01*
X260143476Y-165626571D01*
X260191095Y-165721809D01*
X260191095Y-165959904D01*
X260143476Y-166055142D01*
X260095857Y-166102761D01*
X260000619Y-166150380D01*
X259762523Y-166150380D01*
X259667285Y-166102761D01*
X259619666Y-166055142D01*
%TO.C,S39*%
X248189904Y-147052761D02*
X248332761Y-147100380D01*
X248570857Y-147100380D01*
X248666095Y-147052761D01*
X248713714Y-147005142D01*
X248761333Y-146909904D01*
X248761333Y-146814666D01*
X248713714Y-146719428D01*
X248666095Y-146671809D01*
X248570857Y-146624190D01*
X248380380Y-146576571D01*
X248285142Y-146528952D01*
X248237523Y-146481333D01*
X248189904Y-146386095D01*
X248189904Y-146290857D01*
X248237523Y-146195619D01*
X248285142Y-146148000D01*
X248380380Y-146100380D01*
X248618476Y-146100380D01*
X248761333Y-146148000D01*
X249094666Y-146100380D02*
X249713714Y-146100380D01*
X249380380Y-146481333D01*
X249523238Y-146481333D01*
X249618476Y-146528952D01*
X249666095Y-146576571D01*
X249713714Y-146671809D01*
X249713714Y-146909904D01*
X249666095Y-147005142D01*
X249618476Y-147052761D01*
X249523238Y-147100380D01*
X249237523Y-147100380D01*
X249142285Y-147052761D01*
X249094666Y-147005142D01*
X250189904Y-147100380D02*
X250380380Y-147100380D01*
X250475619Y-147052761D01*
X250523238Y-147005142D01*
X250618476Y-146862285D01*
X250666095Y-146671809D01*
X250666095Y-146290857D01*
X250618476Y-146195619D01*
X250570857Y-146148000D01*
X250475619Y-146100380D01*
X250285142Y-146100380D01*
X250189904Y-146148000D01*
X250142285Y-146195619D01*
X250094666Y-146290857D01*
X250094666Y-146528952D01*
X250142285Y-146624190D01*
X250189904Y-146671809D01*
X250285142Y-146719428D01*
X250475619Y-146719428D01*
X250570857Y-146671809D01*
X250618476Y-146624190D01*
X250666095Y-146528952D01*
%TO.C,R2*%
X59837580Y-184773866D02*
X59361390Y-185107200D01*
X59837580Y-185345295D02*
X58837580Y-185345295D01*
X58837580Y-184964342D01*
X58885200Y-184869104D01*
X58932819Y-184821485D01*
X59028057Y-184773866D01*
X59170914Y-184773866D01*
X59266152Y-184821485D01*
X59313771Y-184869104D01*
X59361390Y-184964342D01*
X59361390Y-185345295D01*
X58932819Y-184392914D02*
X58885200Y-184345295D01*
X58837580Y-184250057D01*
X58837580Y-184011961D01*
X58885200Y-183916723D01*
X58932819Y-183869104D01*
X59028057Y-183821485D01*
X59123295Y-183821485D01*
X59266152Y-183869104D01*
X59837580Y-184440533D01*
X59837580Y-183821485D01*
%TO.C,S2*%
X96266095Y-147052761D02*
X96408952Y-147100380D01*
X96647047Y-147100380D01*
X96742285Y-147052761D01*
X96789904Y-147005142D01*
X96837523Y-146909904D01*
X96837523Y-146814666D01*
X96789904Y-146719428D01*
X96742285Y-146671809D01*
X96647047Y-146624190D01*
X96456571Y-146576571D01*
X96361333Y-146528952D01*
X96313714Y-146481333D01*
X96266095Y-146386095D01*
X96266095Y-146290857D01*
X96313714Y-146195619D01*
X96361333Y-146148000D01*
X96456571Y-146100380D01*
X96694666Y-146100380D01*
X96837523Y-146148000D01*
X97218476Y-146195619D02*
X97266095Y-146148000D01*
X97361333Y-146100380D01*
X97599428Y-146100380D01*
X97694666Y-146148000D01*
X97742285Y-146195619D01*
X97789904Y-146290857D01*
X97789904Y-146386095D01*
X97742285Y-146528952D01*
X97170857Y-147100380D01*
X97789904Y-147100380D01*
%TO.C,S34*%
X271938904Y-204075761D02*
X272081761Y-204123380D01*
X272319857Y-204123380D01*
X272415095Y-204075761D01*
X272462714Y-204028142D01*
X272510333Y-203932904D01*
X272510333Y-203837666D01*
X272462714Y-203742428D01*
X272415095Y-203694809D01*
X272319857Y-203647190D01*
X272129380Y-203599571D01*
X272034142Y-203551952D01*
X271986523Y-203504333D01*
X271938904Y-203409095D01*
X271938904Y-203313857D01*
X271986523Y-203218619D01*
X272034142Y-203171000D01*
X272129380Y-203123380D01*
X272367476Y-203123380D01*
X272510333Y-203171000D01*
X272843666Y-203123380D02*
X273462714Y-203123380D01*
X273129380Y-203504333D01*
X273272238Y-203504333D01*
X273367476Y-203551952D01*
X273415095Y-203599571D01*
X273462714Y-203694809D01*
X273462714Y-203932904D01*
X273415095Y-204028142D01*
X273367476Y-204075761D01*
X273272238Y-204123380D01*
X272986523Y-204123380D01*
X272891285Y-204075761D01*
X272843666Y-204028142D01*
X274319857Y-203456714D02*
X274319857Y-204123380D01*
X274081761Y-203075761D02*
X273843666Y-203790047D01*
X274462714Y-203790047D01*
%TO.C,S51*%
X338613904Y-166102761D02*
X338756761Y-166150380D01*
X338994857Y-166150380D01*
X339090095Y-166102761D01*
X339137714Y-166055142D01*
X339185333Y-165959904D01*
X339185333Y-165864666D01*
X339137714Y-165769428D01*
X339090095Y-165721809D01*
X338994857Y-165674190D01*
X338804380Y-165626571D01*
X338709142Y-165578952D01*
X338661523Y-165531333D01*
X338613904Y-165436095D01*
X338613904Y-165340857D01*
X338661523Y-165245619D01*
X338709142Y-165198000D01*
X338804380Y-165150380D01*
X339042476Y-165150380D01*
X339185333Y-165198000D01*
X340090095Y-165150380D02*
X339613904Y-165150380D01*
X339566285Y-165626571D01*
X339613904Y-165578952D01*
X339709142Y-165531333D01*
X339947238Y-165531333D01*
X340042476Y-165578952D01*
X340090095Y-165626571D01*
X340137714Y-165721809D01*
X340137714Y-165959904D01*
X340090095Y-166055142D01*
X340042476Y-166102761D01*
X339947238Y-166150380D01*
X339709142Y-166150380D01*
X339613904Y-166102761D01*
X339566285Y-166055142D01*
X341090095Y-166150380D02*
X340518666Y-166150380D01*
X340804380Y-166150380D02*
X340804380Y-165150380D01*
X340709142Y-165293238D01*
X340613904Y-165388476D01*
X340518666Y-165436095D01*
%TO.C,S45*%
X341026904Y-223252761D02*
X341169761Y-223300380D01*
X341407857Y-223300380D01*
X341503095Y-223252761D01*
X341550714Y-223205142D01*
X341598333Y-223109904D01*
X341598333Y-223014666D01*
X341550714Y-222919428D01*
X341503095Y-222871809D01*
X341407857Y-222824190D01*
X341217380Y-222776571D01*
X341122142Y-222728952D01*
X341074523Y-222681333D01*
X341026904Y-222586095D01*
X341026904Y-222490857D01*
X341074523Y-222395619D01*
X341122142Y-222348000D01*
X341217380Y-222300380D01*
X341455476Y-222300380D01*
X341598333Y-222348000D01*
X342455476Y-222633714D02*
X342455476Y-223300380D01*
X342217380Y-222252761D02*
X341979285Y-222967047D01*
X342598333Y-222967047D01*
X343455476Y-222300380D02*
X342979285Y-222300380D01*
X342931666Y-222776571D01*
X342979285Y-222728952D01*
X343074523Y-222681333D01*
X343312619Y-222681333D01*
X343407857Y-222728952D01*
X343455476Y-222776571D01*
X343503095Y-222871809D01*
X343503095Y-223109904D01*
X343455476Y-223205142D01*
X343407857Y-223252761D01*
X343312619Y-223300380D01*
X343074523Y-223300380D01*
X342979285Y-223252761D01*
X342931666Y-223205142D01*
%TO.C,S64*%
X243363904Y-185152761D02*
X243506761Y-185200380D01*
X243744857Y-185200380D01*
X243840095Y-185152761D01*
X243887714Y-185105142D01*
X243935333Y-185009904D01*
X243935333Y-184914666D01*
X243887714Y-184819428D01*
X243840095Y-184771809D01*
X243744857Y-184724190D01*
X243554380Y-184676571D01*
X243459142Y-184628952D01*
X243411523Y-184581333D01*
X243363904Y-184486095D01*
X243363904Y-184390857D01*
X243411523Y-184295619D01*
X243459142Y-184248000D01*
X243554380Y-184200380D01*
X243792476Y-184200380D01*
X243935333Y-184248000D01*
X244792476Y-184200380D02*
X244602000Y-184200380D01*
X244506761Y-184248000D01*
X244459142Y-184295619D01*
X244363904Y-184438476D01*
X244316285Y-184628952D01*
X244316285Y-185009904D01*
X244363904Y-185105142D01*
X244411523Y-185152761D01*
X244506761Y-185200380D01*
X244697238Y-185200380D01*
X244792476Y-185152761D01*
X244840095Y-185105142D01*
X244887714Y-185009904D01*
X244887714Y-184771809D01*
X244840095Y-184676571D01*
X244792476Y-184628952D01*
X244697238Y-184581333D01*
X244506761Y-184581333D01*
X244411523Y-184628952D01*
X244363904Y-184676571D01*
X244316285Y-184771809D01*
X245744857Y-184533714D02*
X245744857Y-185200380D01*
X245506761Y-184152761D02*
X245268666Y-184867047D01*
X245887714Y-184867047D01*
%TO.C,S9*%
X82042095Y-166102761D02*
X82184952Y-166150380D01*
X82423047Y-166150380D01*
X82518285Y-166102761D01*
X82565904Y-166055142D01*
X82613523Y-165959904D01*
X82613523Y-165864666D01*
X82565904Y-165769428D01*
X82518285Y-165721809D01*
X82423047Y-165674190D01*
X82232571Y-165626571D01*
X82137333Y-165578952D01*
X82089714Y-165531333D01*
X82042095Y-165436095D01*
X82042095Y-165340857D01*
X82089714Y-165245619D01*
X82137333Y-165198000D01*
X82232571Y-165150380D01*
X82470666Y-165150380D01*
X82613523Y-165198000D01*
X83089714Y-166150380D02*
X83280190Y-166150380D01*
X83375428Y-166102761D01*
X83423047Y-166055142D01*
X83518285Y-165912285D01*
X83565904Y-165721809D01*
X83565904Y-165340857D01*
X83518285Y-165245619D01*
X83470666Y-165198000D01*
X83375428Y-165150380D01*
X83184952Y-165150380D01*
X83089714Y-165198000D01*
X83042095Y-165245619D01*
X82994476Y-165340857D01*
X82994476Y-165578952D01*
X83042095Y-165674190D01*
X83089714Y-165721809D01*
X83184952Y-165769428D01*
X83375428Y-165769428D01*
X83470666Y-165721809D01*
X83518285Y-165674190D01*
X83565904Y-165578952D01*
%TO.C,S53*%
X295814904Y-166102761D02*
X295957761Y-166150380D01*
X296195857Y-166150380D01*
X296291095Y-166102761D01*
X296338714Y-166055142D01*
X296386333Y-165959904D01*
X296386333Y-165864666D01*
X296338714Y-165769428D01*
X296291095Y-165721809D01*
X296195857Y-165674190D01*
X296005380Y-165626571D01*
X295910142Y-165578952D01*
X295862523Y-165531333D01*
X295814904Y-165436095D01*
X295814904Y-165340857D01*
X295862523Y-165245619D01*
X295910142Y-165198000D01*
X296005380Y-165150380D01*
X296243476Y-165150380D01*
X296386333Y-165198000D01*
X297291095Y-165150380D02*
X296814904Y-165150380D01*
X296767285Y-165626571D01*
X296814904Y-165578952D01*
X296910142Y-165531333D01*
X297148238Y-165531333D01*
X297243476Y-165578952D01*
X297291095Y-165626571D01*
X297338714Y-165721809D01*
X297338714Y-165959904D01*
X297291095Y-166055142D01*
X297243476Y-166102761D01*
X297148238Y-166150380D01*
X296910142Y-166150380D01*
X296814904Y-166102761D01*
X296767285Y-166055142D01*
X297672047Y-165150380D02*
X298291095Y-165150380D01*
X297957761Y-165531333D01*
X298100619Y-165531333D01*
X298195857Y-165578952D01*
X298243476Y-165626571D01*
X298291095Y-165721809D01*
X298291095Y-165959904D01*
X298243476Y-166055142D01*
X298195857Y-166102761D01*
X298100619Y-166150380D01*
X297814904Y-166150380D01*
X297719666Y-166102761D01*
X297672047Y-166055142D01*
%TO.C,S18*%
X110013904Y-185152761D02*
X110156761Y-185200380D01*
X110394857Y-185200380D01*
X110490095Y-185152761D01*
X110537714Y-185105142D01*
X110585333Y-185009904D01*
X110585333Y-184914666D01*
X110537714Y-184819428D01*
X110490095Y-184771809D01*
X110394857Y-184724190D01*
X110204380Y-184676571D01*
X110109142Y-184628952D01*
X110061523Y-184581333D01*
X110013904Y-184486095D01*
X110013904Y-184390857D01*
X110061523Y-184295619D01*
X110109142Y-184248000D01*
X110204380Y-184200380D01*
X110442476Y-184200380D01*
X110585333Y-184248000D01*
X111537714Y-185200380D02*
X110966285Y-185200380D01*
X111252000Y-185200380D02*
X111252000Y-184200380D01*
X111156761Y-184343238D01*
X111061523Y-184438476D01*
X110966285Y-184486095D01*
X112109142Y-184628952D02*
X112013904Y-184581333D01*
X111966285Y-184533714D01*
X111918666Y-184438476D01*
X111918666Y-184390857D01*
X111966285Y-184295619D01*
X112013904Y-184248000D01*
X112109142Y-184200380D01*
X112299619Y-184200380D01*
X112394857Y-184248000D01*
X112442476Y-184295619D01*
X112490095Y-184390857D01*
X112490095Y-184438476D01*
X112442476Y-184533714D01*
X112394857Y-184581333D01*
X112299619Y-184628952D01*
X112109142Y-184628952D01*
X112013904Y-184676571D01*
X111966285Y-184724190D01*
X111918666Y-184819428D01*
X111918666Y-185009904D01*
X111966285Y-185105142D01*
X112013904Y-185152761D01*
X112109142Y-185200380D01*
X112299619Y-185200380D01*
X112394857Y-185152761D01*
X112442476Y-185105142D01*
X112490095Y-185009904D01*
X112490095Y-184819428D01*
X112442476Y-184724190D01*
X112394857Y-184676571D01*
X112299619Y-184628952D01*
%TO.C,S42*%
X102901904Y-223252761D02*
X103044761Y-223300380D01*
X103282857Y-223300380D01*
X103378095Y-223252761D01*
X103425714Y-223205142D01*
X103473333Y-223109904D01*
X103473333Y-223014666D01*
X103425714Y-222919428D01*
X103378095Y-222871809D01*
X103282857Y-222824190D01*
X103092380Y-222776571D01*
X102997142Y-222728952D01*
X102949523Y-222681333D01*
X102901904Y-222586095D01*
X102901904Y-222490857D01*
X102949523Y-222395619D01*
X102997142Y-222348000D01*
X103092380Y-222300380D01*
X103330476Y-222300380D01*
X103473333Y-222348000D01*
X104330476Y-222633714D02*
X104330476Y-223300380D01*
X104092380Y-222252761D02*
X103854285Y-222967047D01*
X104473333Y-222967047D01*
X104806666Y-222395619D02*
X104854285Y-222348000D01*
X104949523Y-222300380D01*
X105187619Y-222300380D01*
X105282857Y-222348000D01*
X105330476Y-222395619D01*
X105378095Y-222490857D01*
X105378095Y-222586095D01*
X105330476Y-222728952D01*
X104759047Y-223300380D01*
X105378095Y-223300380D01*
%TO.C,S52*%
X314864904Y-166102761D02*
X315007761Y-166150380D01*
X315245857Y-166150380D01*
X315341095Y-166102761D01*
X315388714Y-166055142D01*
X315436333Y-165959904D01*
X315436333Y-165864666D01*
X315388714Y-165769428D01*
X315341095Y-165721809D01*
X315245857Y-165674190D01*
X315055380Y-165626571D01*
X314960142Y-165578952D01*
X314912523Y-165531333D01*
X314864904Y-165436095D01*
X314864904Y-165340857D01*
X314912523Y-165245619D01*
X314960142Y-165198000D01*
X315055380Y-165150380D01*
X315293476Y-165150380D01*
X315436333Y-165198000D01*
X316341095Y-165150380D02*
X315864904Y-165150380D01*
X315817285Y-165626571D01*
X315864904Y-165578952D01*
X315960142Y-165531333D01*
X316198238Y-165531333D01*
X316293476Y-165578952D01*
X316341095Y-165626571D01*
X316388714Y-165721809D01*
X316388714Y-165959904D01*
X316341095Y-166055142D01*
X316293476Y-166102761D01*
X316198238Y-166150380D01*
X315960142Y-166150380D01*
X315864904Y-166102761D01*
X315817285Y-166055142D01*
X316769666Y-165245619D02*
X316817285Y-165198000D01*
X316912523Y-165150380D01*
X317150619Y-165150380D01*
X317245857Y-165198000D01*
X317293476Y-165245619D01*
X317341095Y-165340857D01*
X317341095Y-165436095D01*
X317293476Y-165578952D01*
X316722047Y-166150380D01*
X317341095Y-166150380D01*
%TO.C,S10*%
X105314904Y-166102761D02*
X105457761Y-166150380D01*
X105695857Y-166150380D01*
X105791095Y-166102761D01*
X105838714Y-166055142D01*
X105886333Y-165959904D01*
X105886333Y-165864666D01*
X105838714Y-165769428D01*
X105791095Y-165721809D01*
X105695857Y-165674190D01*
X105505380Y-165626571D01*
X105410142Y-165578952D01*
X105362523Y-165531333D01*
X105314904Y-165436095D01*
X105314904Y-165340857D01*
X105362523Y-165245619D01*
X105410142Y-165198000D01*
X105505380Y-165150380D01*
X105743476Y-165150380D01*
X105886333Y-165198000D01*
X106838714Y-166150380D02*
X106267285Y-166150380D01*
X106553000Y-166150380D02*
X106553000Y-165150380D01*
X106457761Y-165293238D01*
X106362523Y-165388476D01*
X106267285Y-165436095D01*
X107457761Y-165150380D02*
X107553000Y-165150380D01*
X107648238Y-165198000D01*
X107695857Y-165245619D01*
X107743476Y-165340857D01*
X107791095Y-165531333D01*
X107791095Y-165769428D01*
X107743476Y-165959904D01*
X107695857Y-166055142D01*
X107648238Y-166102761D01*
X107553000Y-166150380D01*
X107457761Y-166150380D01*
X107362523Y-166102761D01*
X107314904Y-166055142D01*
X107267285Y-165959904D01*
X107219666Y-165769428D01*
X107219666Y-165531333D01*
X107267285Y-165340857D01*
X107314904Y-165245619D01*
X107362523Y-165198000D01*
X107457761Y-165150380D01*
%TO.C,S29*%
X176688904Y-204202761D02*
X176831761Y-204250380D01*
X177069857Y-204250380D01*
X177165095Y-204202761D01*
X177212714Y-204155142D01*
X177260333Y-204059904D01*
X177260333Y-203964666D01*
X177212714Y-203869428D01*
X177165095Y-203821809D01*
X177069857Y-203774190D01*
X176879380Y-203726571D01*
X176784142Y-203678952D01*
X176736523Y-203631333D01*
X176688904Y-203536095D01*
X176688904Y-203440857D01*
X176736523Y-203345619D01*
X176784142Y-203298000D01*
X176879380Y-203250380D01*
X177117476Y-203250380D01*
X177260333Y-203298000D01*
X177641285Y-203345619D02*
X177688904Y-203298000D01*
X177784142Y-203250380D01*
X178022238Y-203250380D01*
X178117476Y-203298000D01*
X178165095Y-203345619D01*
X178212714Y-203440857D01*
X178212714Y-203536095D01*
X178165095Y-203678952D01*
X177593666Y-204250380D01*
X178212714Y-204250380D01*
X178688904Y-204250380D02*
X178879380Y-204250380D01*
X178974619Y-204202761D01*
X179022238Y-204155142D01*
X179117476Y-204012285D01*
X179165095Y-203821809D01*
X179165095Y-203440857D01*
X179117476Y-203345619D01*
X179069857Y-203298000D01*
X178974619Y-203250380D01*
X178784142Y-203250380D01*
X178688904Y-203298000D01*
X178641285Y-203345619D01*
X178593666Y-203440857D01*
X178593666Y-203678952D01*
X178641285Y-203774190D01*
X178688904Y-203821809D01*
X178784142Y-203869428D01*
X178974619Y-203869428D01*
X179069857Y-203821809D01*
X179117476Y-203774190D01*
X179165095Y-203678952D01*
%TO.C,S56*%
X238664904Y-166102761D02*
X238807761Y-166150380D01*
X239045857Y-166150380D01*
X239141095Y-166102761D01*
X239188714Y-166055142D01*
X239236333Y-165959904D01*
X239236333Y-165864666D01*
X239188714Y-165769428D01*
X239141095Y-165721809D01*
X239045857Y-165674190D01*
X238855380Y-165626571D01*
X238760142Y-165578952D01*
X238712523Y-165531333D01*
X238664904Y-165436095D01*
X238664904Y-165340857D01*
X238712523Y-165245619D01*
X238760142Y-165198000D01*
X238855380Y-165150380D01*
X239093476Y-165150380D01*
X239236333Y-165198000D01*
X240141095Y-165150380D02*
X239664904Y-165150380D01*
X239617285Y-165626571D01*
X239664904Y-165578952D01*
X239760142Y-165531333D01*
X239998238Y-165531333D01*
X240093476Y-165578952D01*
X240141095Y-165626571D01*
X240188714Y-165721809D01*
X240188714Y-165959904D01*
X240141095Y-166055142D01*
X240093476Y-166102761D01*
X239998238Y-166150380D01*
X239760142Y-166150380D01*
X239664904Y-166102761D01*
X239617285Y-166055142D01*
X241045857Y-165150380D02*
X240855380Y-165150380D01*
X240760142Y-165198000D01*
X240712523Y-165245619D01*
X240617285Y-165388476D01*
X240569666Y-165578952D01*
X240569666Y-165959904D01*
X240617285Y-166055142D01*
X240664904Y-166102761D01*
X240760142Y-166150380D01*
X240950619Y-166150380D01*
X241045857Y-166102761D01*
X241093476Y-166055142D01*
X241141095Y-165959904D01*
X241141095Y-165721809D01*
X241093476Y-165626571D01*
X241045857Y-165578952D01*
X240950619Y-165531333D01*
X240760142Y-165531333D01*
X240664904Y-165578952D01*
X240617285Y-165626571D01*
X240569666Y-165721809D01*
%TO.C,S36*%
X305339904Y-147052761D02*
X305482761Y-147100380D01*
X305720857Y-147100380D01*
X305816095Y-147052761D01*
X305863714Y-147005142D01*
X305911333Y-146909904D01*
X305911333Y-146814666D01*
X305863714Y-146719428D01*
X305816095Y-146671809D01*
X305720857Y-146624190D01*
X305530380Y-146576571D01*
X305435142Y-146528952D01*
X305387523Y-146481333D01*
X305339904Y-146386095D01*
X305339904Y-146290857D01*
X305387523Y-146195619D01*
X305435142Y-146148000D01*
X305530380Y-146100380D01*
X305768476Y-146100380D01*
X305911333Y-146148000D01*
X306244666Y-146100380D02*
X306863714Y-146100380D01*
X306530380Y-146481333D01*
X306673238Y-146481333D01*
X306768476Y-146528952D01*
X306816095Y-146576571D01*
X306863714Y-146671809D01*
X306863714Y-146909904D01*
X306816095Y-147005142D01*
X306768476Y-147052761D01*
X306673238Y-147100380D01*
X306387523Y-147100380D01*
X306292285Y-147052761D01*
X306244666Y-147005142D01*
X307720857Y-146100380D02*
X307530380Y-146100380D01*
X307435142Y-146148000D01*
X307387523Y-146195619D01*
X307292285Y-146338476D01*
X307244666Y-146528952D01*
X307244666Y-146909904D01*
X307292285Y-147005142D01*
X307339904Y-147052761D01*
X307435142Y-147100380D01*
X307625619Y-147100380D01*
X307720857Y-147052761D01*
X307768476Y-147005142D01*
X307816095Y-146909904D01*
X307816095Y-146671809D01*
X307768476Y-146576571D01*
X307720857Y-146528952D01*
X307625619Y-146481333D01*
X307435142Y-146481333D01*
X307339904Y-146528952D01*
X307292285Y-146576571D01*
X307244666Y-146671809D01*
%TO.C,S31*%
X214788904Y-204202761D02*
X214931761Y-204250380D01*
X215169857Y-204250380D01*
X215265095Y-204202761D01*
X215312714Y-204155142D01*
X215360333Y-204059904D01*
X215360333Y-203964666D01*
X215312714Y-203869428D01*
X215265095Y-203821809D01*
X215169857Y-203774190D01*
X214979380Y-203726571D01*
X214884142Y-203678952D01*
X214836523Y-203631333D01*
X214788904Y-203536095D01*
X214788904Y-203440857D01*
X214836523Y-203345619D01*
X214884142Y-203298000D01*
X214979380Y-203250380D01*
X215217476Y-203250380D01*
X215360333Y-203298000D01*
X215693666Y-203250380D02*
X216312714Y-203250380D01*
X215979380Y-203631333D01*
X216122238Y-203631333D01*
X216217476Y-203678952D01*
X216265095Y-203726571D01*
X216312714Y-203821809D01*
X216312714Y-204059904D01*
X216265095Y-204155142D01*
X216217476Y-204202761D01*
X216122238Y-204250380D01*
X215836523Y-204250380D01*
X215741285Y-204202761D01*
X215693666Y-204155142D01*
X217265095Y-204250380D02*
X216693666Y-204250380D01*
X216979380Y-204250380D02*
X216979380Y-203250380D01*
X216884142Y-203393238D01*
X216788904Y-203488476D01*
X216693666Y-203536095D01*
D13*
%TO.C,U5*%
X37023000Y-144677000D02*
X64323000Y-144677000D01*
X64323000Y-144677000D02*
X64323000Y-172477000D01*
X64323000Y-172477000D02*
X37023000Y-172477000D01*
X37023000Y-172477000D02*
X37023000Y-144677000D01*
%TO.C,R12*%
X45111936Y-230278000D02*
X45566064Y-230278000D01*
X45111936Y-231748000D02*
X45566064Y-231748000D01*
%TO.C,R10*%
X42317936Y-189257000D02*
X42772064Y-189257000D01*
X42317936Y-190727000D02*
X42772064Y-190727000D01*
%TO.C,D33*%
X40569000Y-191180000D02*
X40569000Y-194040000D01*
X42489000Y-194040000D02*
X42489000Y-191180000D01*
X42489000Y-191180000D02*
X40569000Y-191180000D01*
%TO.C,U4*%
X44724000Y-187452000D02*
X44724000Y-190952000D01*
X54844000Y-187452000D02*
X54844000Y-189402000D01*
X54844000Y-187452000D02*
X54844000Y-185502000D01*
X44724000Y-187452000D02*
X44724000Y-185502000D01*
%TO.C,C8*%
X47471000Y-181998252D02*
X47471000Y-181475748D01*
X46001000Y-181998252D02*
X46001000Y-181475748D01*
%TO.C,C3*%
X43969000Y-181998252D02*
X43969000Y-181475748D01*
X45439000Y-181998252D02*
X45439000Y-181475748D01*
%TO.C,C2*%
X45874000Y-174454452D02*
X45874000Y-173931948D01*
X47344000Y-174454452D02*
X47344000Y-173931948D01*
%TO.C,R4*%
X64793800Y-187682136D02*
X64793800Y-188136264D01*
X63323800Y-187682136D02*
X63323800Y-188136264D01*
%TO.C,R1*%
X40286000Y-211869936D02*
X40286000Y-212324064D01*
X41756000Y-211869936D02*
X41756000Y-212324064D01*
%TO.C,C1*%
X38254000Y-211835748D02*
X38254000Y-212358252D01*
X39724000Y-211835748D02*
X39724000Y-212358252D01*
%TO.C,R6*%
X60120200Y-196149736D02*
X60120200Y-196603864D01*
X58650200Y-196149736D02*
X58650200Y-196603864D01*
%TO.C,R5*%
X65559000Y-187682136D02*
X65559000Y-188136264D01*
X67029000Y-187682136D02*
X67029000Y-188136264D01*
%TO.C,R9*%
X67283000Y-196133736D02*
X67283000Y-196587864D01*
X65813000Y-196133736D02*
X65813000Y-196587864D01*
%TO.C,R7*%
X62609400Y-196149736D02*
X62609400Y-196603864D01*
X61139400Y-196149736D02*
X61139400Y-196603864D01*
%TO.C,R8*%
X64895400Y-196133736D02*
X64895400Y-196587864D01*
X63425400Y-196133736D02*
X63425400Y-196587864D01*
%TO.C,U1*%
X62333000Y-228048000D02*
X62333000Y-228668000D01*
X44093000Y-209228000D02*
X44093000Y-209648000D01*
X62333000Y-228668000D02*
X61333000Y-228668000D01*
X44093000Y-228048000D02*
X44093000Y-228668000D01*
X62333000Y-209228000D02*
X62333000Y-209648000D01*
X44093000Y-209228000D02*
X62333000Y-209228000D01*
X44093000Y-228668000D02*
X45093000Y-228668000D01*
X44093000Y-209648000D02*
X43713000Y-209648000D01*
%TO.C,U2*%
X46055600Y-168554400D02*
X46055600Y-170504400D01*
X51175600Y-168554400D02*
X51175600Y-170504400D01*
X46055600Y-168554400D02*
X46055600Y-166604400D01*
X51175600Y-168554400D02*
X51175600Y-165104400D01*
%TO.C,C4*%
X40232000Y-151877752D02*
X40232000Y-151355248D01*
X38762000Y-151877752D02*
X38762000Y-151355248D01*
%TO.C,C5*%
X42391000Y-151861752D02*
X42391000Y-151339248D01*
X40921000Y-151861752D02*
X40921000Y-151339248D01*
%TO.C,R3*%
X62507800Y-187682136D02*
X62507800Y-188136264D01*
X61037800Y-187682136D02*
X61037800Y-188136264D01*
%TO.C,C6*%
X47090000Y-151899252D02*
X47090000Y-151376748D01*
X45620000Y-151899252D02*
X45620000Y-151376748D01*
%TO.C,C7*%
X43461000Y-151899252D02*
X43461000Y-151376748D01*
X44931000Y-151899252D02*
X44931000Y-151376748D01*
%TO.C,U3*%
X47352000Y-160533000D02*
X46092000Y-160533000D01*
X40532000Y-156773000D02*
X40532000Y-160533000D01*
X47352000Y-154523000D02*
X47352000Y-160533000D01*
X40532000Y-160533000D02*
X41792000Y-160533000D01*
%TO.C,R2*%
X60120200Y-187682136D02*
X60120200Y-188136264D01*
X58650200Y-187682136D02*
X58650200Y-188136264D01*
%TD*%
M02*
