%TF.GenerationSoftware,KiCad,Pcbnew,(6.0.7)*%
%TF.CreationDate,2022-09-03T19:18:48+08:00*%
%TF.ProjectId,Joker60_v2,4a6f6b65-7236-4305-9f76-322e6b696361,1.0*%
%TF.SameCoordinates,Original*%
%TF.FileFunction,Paste,Top*%
%TF.FilePolarity,Positive*%
%FSLAX46Y46*%
G04 Gerber Fmt 4.6, Leading zero omitted, Abs format (unit mm)*
G04 Created by KiCad (PCBNEW (6.0.7)) date 2022-09-03 19:18:48*
%MOMM*%
%LPD*%
G01*
G04 APERTURE LIST*
G04 Aperture macros list*
%AMRoundRect*
0 Rectangle with rounded corners*
0 $1 Rounding radius*
0 $2 $3 $4 $5 $6 $7 $8 $9 X,Y pos of 4 corners*
0 Add a 4 corners polygon primitive as box body*
4,1,4,$2,$3,$4,$5,$6,$7,$8,$9,$2,$3,0*
0 Add four circle primitives for the rounded corners*
1,1,$1+$1,$2,$3*
1,1,$1+$1,$4,$5*
1,1,$1+$1,$6,$7*
1,1,$1+$1,$8,$9*
0 Add four rect primitives between the rounded corners*
20,1,$1+$1,$2,$3,$4,$5,0*
20,1,$1+$1,$4,$5,$6,$7,0*
20,1,$1+$1,$6,$7,$8,$9,0*
20,1,$1+$1,$8,$9,$2,$3,0*%
G04 Aperture macros list end*
%ADD10RoundRect,0.250000X-0.350000X-0.450000X0.350000X-0.450000X0.350000X0.450000X-0.350000X0.450000X0*%
%ADD11RoundRect,0.250000X-0.450000X0.325000X-0.450000X-0.325000X0.450000X-0.325000X0.450000X0.325000X0*%
%ADD12RoundRect,0.150000X0.150000X-0.850000X0.150000X0.850000X-0.150000X0.850000X-0.150000X-0.850000X0*%
%ADD13RoundRect,0.250000X0.475000X-0.337500X0.475000X0.337500X-0.475000X0.337500X-0.475000X-0.337500X0*%
%ADD14RoundRect,0.250000X-0.450000X0.350000X-0.450000X-0.350000X0.450000X-0.350000X0.450000X0.350000X0*%
%ADD15RoundRect,0.250000X-0.475000X0.337500X-0.475000X-0.337500X0.475000X-0.337500X0.475000X0.337500X0*%
%ADD16R,2.000000X0.900000*%
%ADD17R,0.900000X2.000000*%
%ADD18R,5.000000X5.000000*%
%ADD19RoundRect,0.150000X-0.150000X0.825000X-0.150000X-0.825000X0.150000X-0.825000X0.150000X0.825000X0*%
%ADD20R,1.500000X2.000000*%
%ADD21R,3.800000X2.000000*%
G04 APERTURE END LIST*
D10*
%TO.C,R12*%
X44339000Y-231013000D03*
X46339000Y-231013000D03*
%TD*%
%TO.C,R10*%
X41545000Y-189992000D03*
X43545000Y-189992000D03*
%TD*%
D11*
%TO.C,D33*%
X41529000Y-192015000D03*
X41529000Y-194065000D03*
%TD*%
D12*
%TO.C,U4*%
X45339000Y-184952000D03*
X46609000Y-184952000D03*
X47879000Y-184952000D03*
X49149000Y-184952000D03*
X50419000Y-184952000D03*
X51689000Y-184952000D03*
X52959000Y-184952000D03*
X54229000Y-184952000D03*
X54229000Y-189952000D03*
X52959000Y-189952000D03*
X51689000Y-189952000D03*
X50419000Y-189952000D03*
X49149000Y-189952000D03*
X47879000Y-189952000D03*
X46609000Y-189952000D03*
X45339000Y-189952000D03*
%TD*%
D13*
%TO.C,C8*%
X46736000Y-180699500D03*
X46736000Y-182774500D03*
%TD*%
%TO.C,C3*%
X44704000Y-182774500D03*
X44704000Y-180699500D03*
%TD*%
%TO.C,C2*%
X46609000Y-173155700D03*
X46609000Y-175230700D03*
%TD*%
D14*
%TO.C,R4*%
X64058800Y-186909200D03*
X64058800Y-188909200D03*
%TD*%
%TO.C,R1*%
X41021000Y-211097000D03*
X41021000Y-213097000D03*
%TD*%
D15*
%TO.C,C1*%
X38989000Y-211059500D03*
X38989000Y-213134500D03*
%TD*%
D14*
%TO.C,R6*%
X59385200Y-195376800D03*
X59385200Y-197376800D03*
%TD*%
%TO.C,R5*%
X66294000Y-186909200D03*
X66294000Y-188909200D03*
%TD*%
%TO.C,R9*%
X66548000Y-195360800D03*
X66548000Y-197360800D03*
%TD*%
%TO.C,R7*%
X61874400Y-195376800D03*
X61874400Y-197376800D03*
%TD*%
%TO.C,R8*%
X64160400Y-195360800D03*
X64160400Y-197360800D03*
%TD*%
D16*
%TO.C,U1*%
X44713000Y-210693000D03*
X44713000Y-211963000D03*
X44713000Y-213233000D03*
X44713000Y-214503000D03*
X44713000Y-215773000D03*
X44713000Y-217043000D03*
X44713000Y-218313000D03*
X44713000Y-219583000D03*
X44713000Y-220853000D03*
X44713000Y-222123000D03*
X44713000Y-223393000D03*
X44713000Y-224663000D03*
X44713000Y-225933000D03*
X44713000Y-227203000D03*
D17*
X47498000Y-228203000D03*
X48768000Y-228203000D03*
X50038000Y-228203000D03*
X51308000Y-228203000D03*
X52578000Y-228203000D03*
X53848000Y-228203000D03*
X55118000Y-228203000D03*
X56388000Y-228203000D03*
X57658000Y-228203000D03*
X58928000Y-228203000D03*
D16*
X61713000Y-227203000D03*
X61713000Y-225933000D03*
X61713000Y-224663000D03*
X61713000Y-223393000D03*
X61713000Y-222123000D03*
X61713000Y-220853000D03*
X61713000Y-219583000D03*
X61713000Y-218313000D03*
X61713000Y-217043000D03*
X61713000Y-215773000D03*
X61713000Y-214503000D03*
X61713000Y-213233000D03*
X61713000Y-211963000D03*
X61713000Y-210693000D03*
D18*
X52213000Y-218193000D03*
%TD*%
D19*
%TO.C,U2*%
X50520600Y-166079400D03*
X49250600Y-166079400D03*
X47980600Y-166079400D03*
X46710600Y-166079400D03*
X46710600Y-171029400D03*
X47980600Y-171029400D03*
X49250600Y-171029400D03*
X50520600Y-171029400D03*
%TD*%
D13*
%TO.C,C4*%
X39497000Y-152654000D03*
X39497000Y-150579000D03*
%TD*%
%TO.C,C5*%
X41656000Y-152638000D03*
X41656000Y-150563000D03*
%TD*%
D14*
%TO.C,R3*%
X61772800Y-186909200D03*
X61772800Y-188909200D03*
%TD*%
D13*
%TO.C,C6*%
X46355000Y-152675500D03*
X46355000Y-150600500D03*
%TD*%
%TO.C,C7*%
X44196000Y-152675500D03*
X44196000Y-150600500D03*
%TD*%
D20*
%TO.C,U3*%
X46242000Y-155473000D03*
X43942000Y-155473000D03*
D21*
X43942000Y-161773000D03*
D20*
X41642000Y-155473000D03*
%TD*%
D14*
%TO.C,R2*%
X59385200Y-186909200D03*
X59385200Y-188909200D03*
%TD*%
M02*
