%TF.GenerationSoftware,KiCad,Pcbnew,(6.0.7)*%
%TF.CreationDate,2022-09-03T19:18:48+08:00*%
%TF.ProjectId,Joker60_v2,4a6f6b65-7236-4305-9f76-322e6b696361,1.0*%
%TF.SameCoordinates,Original*%
%TF.FileFunction,Soldermask,Top*%
%TF.FilePolarity,Negative*%
%FSLAX46Y46*%
G04 Gerber Fmt 4.6, Leading zero omitted, Abs format (unit mm)*
G04 Created by KiCad (PCBNEW (6.0.7)) date 2022-09-03 19:18:48*
%MOMM*%
%LPD*%
G01*
G04 APERTURE LIST*
G04 Aperture macros list*
%AMRoundRect*
0 Rectangle with rounded corners*
0 $1 Rounding radius*
0 $2 $3 $4 $5 $6 $7 $8 $9 X,Y pos of 4 corners*
0 Add a 4 corners polygon primitive as box body*
4,1,4,$2,$3,$4,$5,$6,$7,$8,$9,$2,$3,0*
0 Add four circle primitives for the rounded corners*
1,1,$1+$1,$2,$3*
1,1,$1+$1,$4,$5*
1,1,$1+$1,$6,$7*
1,1,$1+$1,$8,$9*
0 Add four rect primitives between the rounded corners*
20,1,$1+$1,$2,$3,$4,$5,0*
20,1,$1+$1,$4,$5,$6,$7,0*
20,1,$1+$1,$6,$7,$8,$9,0*
20,1,$1+$1,$8,$9,$2,$3,0*%
G04 Aperture macros list end*
%ADD10C,1.524000*%
%ADD11RoundRect,0.250000X-0.350000X-0.450000X0.350000X-0.450000X0.350000X0.450000X-0.350000X0.450000X0*%
%ADD12RoundRect,0.250000X-0.450000X0.325000X-0.450000X-0.325000X0.450000X-0.325000X0.450000X0.325000X0*%
%ADD13RoundRect,0.150000X0.150000X-0.850000X0.150000X0.850000X-0.150000X0.850000X-0.150000X-0.850000X0*%
%ADD14RoundRect,0.250000X0.475000X-0.337500X0.475000X0.337500X-0.475000X0.337500X-0.475000X-0.337500X0*%
%ADD15RoundRect,0.250000X-0.450000X0.350000X-0.450000X-0.350000X0.450000X-0.350000X0.450000X0.350000X0*%
%ADD16C,1.700000*%
%ADD17C,4.000000*%
%ADD18C,2.200000*%
%ADD19RoundRect,0.250000X-0.475000X0.337500X-0.475000X-0.337500X0.475000X-0.337500X0.475000X0.337500X0*%
%ADD20R,2.000000X0.900000*%
%ADD21R,0.900000X2.000000*%
%ADD22R,5.000000X5.000000*%
%ADD23RoundRect,0.150000X-0.150000X0.825000X-0.150000X-0.825000X0.150000X-0.825000X0.150000X0.825000X0*%
%ADD24R,1.500000X2.000000*%
%ADD25R,3.800000X2.000000*%
%ADD26C,0.800000*%
%ADD27C,2.000000*%
%ADD28C,1.800000*%
G04 APERTURE END LIST*
D10*
%TO.C,U5*%
X46863000Y-146177000D03*
X49403000Y-146177000D03*
X51943000Y-146177000D03*
X54483000Y-146177000D03*
%TD*%
D11*
%TO.C,R12*%
X44339000Y-231013000D03*
X46339000Y-231013000D03*
%TD*%
%TO.C,R10*%
X41545000Y-189992000D03*
X43545000Y-189992000D03*
%TD*%
D12*
%TO.C,D33*%
X41529000Y-192015000D03*
X41529000Y-194065000D03*
%TD*%
D13*
%TO.C,U4*%
X45339000Y-184952000D03*
X46609000Y-184952000D03*
X47879000Y-184952000D03*
X49149000Y-184952000D03*
X50419000Y-184952000D03*
X51689000Y-184952000D03*
X52959000Y-184952000D03*
X54229000Y-184952000D03*
X54229000Y-189952000D03*
X52959000Y-189952000D03*
X51689000Y-189952000D03*
X50419000Y-189952000D03*
X49149000Y-189952000D03*
X47879000Y-189952000D03*
X46609000Y-189952000D03*
X45339000Y-189952000D03*
%TD*%
D14*
%TO.C,C8*%
X46736000Y-180699500D03*
X46736000Y-182774500D03*
%TD*%
%TO.C,C3*%
X44704000Y-182774500D03*
X44704000Y-180699500D03*
%TD*%
%TO.C,C2*%
X46609000Y-173155700D03*
X46609000Y-175230700D03*
%TD*%
D15*
%TO.C,R4*%
X64058800Y-186909200D03*
X64058800Y-188909200D03*
%TD*%
D16*
%TO.C,S62*%
X277622000Y-193548000D03*
D17*
X282702000Y-193548000D03*
D16*
X287782000Y-193548000D03*
D18*
X278892000Y-191008000D03*
X285242000Y-188468000D03*
%TD*%
D17*
%TO.C,S14*%
X182753000Y-174498000D03*
D16*
X187833000Y-174498000D03*
X177673000Y-174498000D03*
D18*
X178943000Y-171958000D03*
X185293000Y-169418000D03*
%TD*%
D16*
%TO.C,S26*%
X125857000Y-212725000D03*
D17*
X120777000Y-212725000D03*
D16*
X115697000Y-212725000D03*
D18*
X116967000Y-210185000D03*
X123317000Y-207645000D03*
%TD*%
D16*
%TO.C,S30*%
X202184000Y-212598000D03*
X192024000Y-212598000D03*
D17*
X197104000Y-212598000D03*
D18*
X193294000Y-210058000D03*
X199644000Y-207518000D03*
%TD*%
D16*
%TO.C,S24*%
X220472000Y-193548000D03*
X230632000Y-193548000D03*
D17*
X225552000Y-193548000D03*
D18*
X221742000Y-191008000D03*
X228092000Y-188468000D03*
%TD*%
D16*
%TO.C,S41*%
X75311000Y-231648000D03*
X85471000Y-231648000D03*
D17*
X80391000Y-231648000D03*
D18*
X76581000Y-229108000D03*
X82931000Y-226568000D03*
%TD*%
D16*
%TO.C,S25*%
X84709000Y-212598000D03*
X94869000Y-212598000D03*
D17*
X89789000Y-212598000D03*
D18*
X85979000Y-210058000D03*
X92329000Y-207518000D03*
%TD*%
D16*
%TO.C,S46*%
X323469000Y-231648000D03*
X313309000Y-231648000D03*
D17*
X318389000Y-231648000D03*
D18*
X314579000Y-229108000D03*
X320929000Y-226568000D03*
%TD*%
D15*
%TO.C,R1*%
X41021000Y-211097000D03*
X41021000Y-213097000D03*
%TD*%
D16*
%TO.C,S3*%
X110871000Y-155448000D03*
X121031000Y-155448000D03*
D17*
X115951000Y-155448000D03*
D18*
X112141000Y-152908000D03*
X118491000Y-150368000D03*
%TD*%
D16*
%TO.C,S50*%
X259207000Y-212598000D03*
D17*
X254127000Y-212598000D03*
D16*
X249047000Y-212598000D03*
D18*
X250317000Y-210058000D03*
X256667000Y-207518000D03*
%TD*%
D19*
%TO.C,C1*%
X38989000Y-211059500D03*
X38989000Y-213134500D03*
%TD*%
D17*
%TO.C,S32*%
X235077000Y-212598000D03*
D16*
X229997000Y-212598000D03*
X240157000Y-212598000D03*
D18*
X231267000Y-210058000D03*
X237617000Y-207518000D03*
%TD*%
D10*
%TO.C,Sw1*%
X50734400Y-178479200D03*
X50734400Y-176479200D03*
X50734400Y-174479200D03*
X55234400Y-178479200D03*
X55234400Y-176479200D03*
X55234400Y-174479200D03*
%TD*%
D16*
%TO.C,S4*%
X130048000Y-155448000D03*
D17*
X135128000Y-155448000D03*
D16*
X140208000Y-155448000D03*
D18*
X131318000Y-152908000D03*
X137668000Y-150368000D03*
%TD*%
D16*
%TO.C,S54*%
X272923000Y-174498000D03*
D17*
X278003000Y-174498000D03*
D16*
X283083000Y-174498000D03*
D18*
X274193000Y-171958000D03*
X280543000Y-169418000D03*
%TD*%
D16*
%TO.C,S19*%
X135382000Y-193548000D03*
X125222000Y-193548000D03*
D17*
X130302000Y-193548000D03*
D18*
X126492000Y-191008000D03*
X132842000Y-188468000D03*
%TD*%
D17*
%TO.C,S6*%
X173228000Y-155448000D03*
D16*
X168148000Y-155448000D03*
X178308000Y-155448000D03*
D18*
X169418000Y-152908000D03*
X175768000Y-150368000D03*
%TD*%
D16*
%TO.C,S63*%
X258572000Y-193548000D03*
X268732000Y-193548000D03*
D17*
X263652000Y-193548000D03*
D18*
X259842000Y-191008000D03*
X266192000Y-188468000D03*
%TD*%
D15*
%TO.C,R6*%
X59385200Y-195376800D03*
X59385200Y-197376800D03*
%TD*%
D17*
%TO.C,S47*%
X294640000Y-231648000D03*
D16*
X289560000Y-231648000D03*
X299720000Y-231648000D03*
D18*
X290830000Y-229108000D03*
X297180000Y-226568000D03*
%TD*%
D17*
%TO.C,S7*%
X192278000Y-155448000D03*
D16*
X197358000Y-155448000D03*
X187198000Y-155448000D03*
D18*
X188468000Y-152908000D03*
X194818000Y-150368000D03*
%TD*%
D16*
%TO.C,S12*%
X139573000Y-174498000D03*
D17*
X144653000Y-174498000D03*
D16*
X149733000Y-174498000D03*
D18*
X140843000Y-171958000D03*
X147193000Y-169418000D03*
%TD*%
D17*
%TO.C,S1*%
X77978000Y-155448000D03*
D16*
X72898000Y-155448000D03*
X83058000Y-155448000D03*
D18*
X74168000Y-152908000D03*
X80518000Y-150368000D03*
%TD*%
D15*
%TO.C,R5*%
X66294000Y-186909200D03*
X66294000Y-188909200D03*
%TD*%
D17*
%TO.C,S61*%
X301752000Y-193548000D03*
D16*
X296672000Y-193548000D03*
X306832000Y-193548000D03*
D18*
X297942000Y-191008000D03*
X304292000Y-188468000D03*
%TD*%
D16*
%TO.C,S21*%
X163322000Y-193548000D03*
X173482000Y-193548000D03*
D17*
X168402000Y-193548000D03*
D18*
X164592000Y-191008000D03*
X170942000Y-188468000D03*
%TD*%
D17*
%TO.C,S37*%
X287528000Y-155448000D03*
D16*
X292608000Y-155448000D03*
X282448000Y-155448000D03*
D18*
X283718000Y-152908000D03*
X290068000Y-150368000D03*
%TD*%
D17*
%TO.C,S59*%
X332740000Y-193548000D03*
D16*
X337820000Y-193548000D03*
X327660000Y-193548000D03*
D18*
X328930000Y-191008000D03*
X335280000Y-188468000D03*
%TD*%
D15*
%TO.C,R9*%
X66548000Y-195360800D03*
X66548000Y-197360800D03*
%TD*%
D16*
%TO.C,S43*%
X133096000Y-231648000D03*
D17*
X128016000Y-231648000D03*
D16*
X122936000Y-231648000D03*
D18*
X124206000Y-229108000D03*
X130556000Y-226568000D03*
%TD*%
D15*
%TO.C,R7*%
X61874400Y-195376800D03*
X61874400Y-197376800D03*
%TD*%
D16*
%TO.C,S48*%
X265684000Y-231648000D03*
D17*
X270764000Y-231648000D03*
D16*
X275844000Y-231648000D03*
D18*
X266954000Y-229108000D03*
X273304000Y-226568000D03*
%TD*%
D16*
%TO.C,S28*%
X164084000Y-212598000D03*
X153924000Y-212598000D03*
D17*
X159004000Y-212598000D03*
D18*
X155194000Y-210058000D03*
X161544000Y-207518000D03*
%TD*%
D16*
%TO.C,S17*%
X80010000Y-193548000D03*
X90170000Y-193548000D03*
D17*
X85090000Y-193548000D03*
D18*
X81280000Y-191008000D03*
X87630000Y-188468000D03*
%TD*%
D15*
%TO.C,R8*%
X64160400Y-195360800D03*
X64160400Y-197360800D03*
%TD*%
D20*
%TO.C,U1*%
X44713000Y-210693000D03*
X44713000Y-211963000D03*
X44713000Y-213233000D03*
X44713000Y-214503000D03*
X44713000Y-215773000D03*
X44713000Y-217043000D03*
X44713000Y-218313000D03*
X44713000Y-219583000D03*
X44713000Y-220853000D03*
X44713000Y-222123000D03*
X44713000Y-223393000D03*
X44713000Y-224663000D03*
X44713000Y-225933000D03*
X44713000Y-227203000D03*
D21*
X47498000Y-228203000D03*
X48768000Y-228203000D03*
X50038000Y-228203000D03*
X51308000Y-228203000D03*
X52578000Y-228203000D03*
X53848000Y-228203000D03*
X55118000Y-228203000D03*
X56388000Y-228203000D03*
X57658000Y-228203000D03*
X58928000Y-228203000D03*
D20*
X61713000Y-227203000D03*
X61713000Y-225933000D03*
X61713000Y-224663000D03*
X61713000Y-223393000D03*
X61713000Y-222123000D03*
X61713000Y-220853000D03*
X61713000Y-219583000D03*
X61713000Y-218313000D03*
X61713000Y-217043000D03*
X61713000Y-215773000D03*
X61713000Y-214503000D03*
X61713000Y-213233000D03*
X61713000Y-211963000D03*
X61713000Y-210693000D03*
D22*
X52213000Y-218193000D03*
%TD*%
D16*
%TO.C,S15*%
X196723000Y-174498000D03*
X206883000Y-174498000D03*
D17*
X201803000Y-174498000D03*
D18*
X197993000Y-171958000D03*
X204343000Y-169418000D03*
%TD*%
D16*
%TO.C,S58*%
X287147000Y-212598000D03*
X297307000Y-212598000D03*
D17*
X292227000Y-212598000D03*
D18*
X288417000Y-210058000D03*
X294767000Y-207518000D03*
%TD*%
D16*
%TO.C,S16*%
X215773000Y-174498000D03*
D17*
X220853000Y-174498000D03*
D16*
X225933000Y-174498000D03*
D18*
X217043000Y-171958000D03*
X223393000Y-169418000D03*
%TD*%
D23*
%TO.C,U2*%
X50520600Y-166079400D03*
X49250600Y-166079400D03*
X47980600Y-166079400D03*
X46710600Y-166079400D03*
X46710600Y-171029400D03*
X47980600Y-171029400D03*
X49250600Y-171029400D03*
X50520600Y-171029400D03*
%TD*%
D14*
%TO.C,C4*%
X39497000Y-152654000D03*
X39497000Y-150579000D03*
%TD*%
%TO.C,C5*%
X41656000Y-152638000D03*
X41656000Y-150563000D03*
%TD*%
D15*
%TO.C,R3*%
X61772800Y-186909200D03*
X61772800Y-188909200D03*
%TD*%
D16*
%TO.C,S27*%
X134747000Y-212725000D03*
X144907000Y-212725000D03*
D17*
X139827000Y-212725000D03*
D18*
X136017000Y-210185000D03*
X142367000Y-207645000D03*
%TD*%
D16*
%TO.C,S8*%
X206248000Y-155448000D03*
D17*
X211328000Y-155448000D03*
D16*
X216408000Y-155448000D03*
D18*
X207518000Y-152908000D03*
X213868000Y-150368000D03*
%TD*%
D16*
%TO.C,S5*%
X149098000Y-155448000D03*
X159258000Y-155448000D03*
D17*
X154178000Y-155448000D03*
D18*
X150368000Y-152908000D03*
X156718000Y-150368000D03*
%TD*%
D17*
%TO.C,S13*%
X163703000Y-174498000D03*
D16*
X168783000Y-174498000D03*
X158623000Y-174498000D03*
D18*
X159893000Y-171958000D03*
X166243000Y-169418000D03*
%TD*%
D17*
%TO.C,S35*%
X335153000Y-155448000D03*
D16*
X330073000Y-155448000D03*
X340233000Y-155448000D03*
D18*
X331343000Y-152908000D03*
X337693000Y-150368000D03*
%TD*%
D14*
%TO.C,C6*%
X46355000Y-152675500D03*
X46355000Y-150600500D03*
%TD*%
D16*
%TO.C,S20*%
X154432000Y-193548000D03*
D17*
X149352000Y-193548000D03*
D16*
X144272000Y-193548000D03*
D18*
X145542000Y-191008000D03*
X151892000Y-188468000D03*
%TD*%
D16*
%TO.C,S11*%
X130683000Y-174498000D03*
X120523000Y-174498000D03*
D17*
X125603000Y-174498000D03*
D18*
X121793000Y-171958000D03*
X128143000Y-169418000D03*
%TD*%
D16*
%TO.C,S22*%
X182372000Y-193548000D03*
X192532000Y-193548000D03*
D17*
X187452000Y-193548000D03*
D18*
X183642000Y-191008000D03*
X189992000Y-188468000D03*
%TD*%
D16*
%TO.C,S60*%
X322834000Y-212598000D03*
X332994000Y-212598000D03*
D17*
X327914000Y-212598000D03*
D18*
X324104000Y-210058000D03*
X330454000Y-207518000D03*
%TD*%
D16*
%TO.C,S23*%
X201422000Y-193548000D03*
D17*
X206502000Y-193548000D03*
D16*
X211582000Y-193548000D03*
D18*
X202692000Y-191008000D03*
X209042000Y-188468000D03*
%TD*%
D16*
%TO.C,S40*%
X235458000Y-155448000D03*
D17*
X230378000Y-155448000D03*
D16*
X225298000Y-155448000D03*
D18*
X226568000Y-152908000D03*
X232918000Y-150368000D03*
%TD*%
D14*
%TO.C,C7*%
X44196000Y-152675500D03*
X44196000Y-150600500D03*
%TD*%
D16*
%TO.C,S38*%
X273558000Y-155448000D03*
D17*
X268478000Y-155448000D03*
D16*
X263398000Y-155448000D03*
D18*
X264668000Y-152908000D03*
X271018000Y-150368000D03*
%TD*%
D24*
%TO.C,U3*%
X46242000Y-155473000D03*
X43942000Y-155473000D03*
D25*
X43942000Y-161773000D03*
D24*
X41642000Y-155473000D03*
%TD*%
D17*
%TO.C,S44*%
X199390000Y-231648000D03*
D16*
X194310000Y-231648000D03*
X204470000Y-231648000D03*
D18*
X195580000Y-229108000D03*
X201930000Y-226568000D03*
%TD*%
D16*
%TO.C,S55*%
X253873000Y-174498000D03*
D17*
X258953000Y-174498000D03*
D16*
X264033000Y-174498000D03*
D18*
X255143000Y-171958000D03*
X261493000Y-169418000D03*
%TD*%
D17*
%TO.C,S39*%
X249428000Y-155448000D03*
D16*
X244348000Y-155448000D03*
X254508000Y-155448000D03*
D18*
X245618000Y-152908000D03*
X251968000Y-150368000D03*
%TD*%
D15*
%TO.C,R2*%
X59385200Y-186909200D03*
X59385200Y-188909200D03*
%TD*%
D17*
%TO.C,S2*%
X97028000Y-155448000D03*
D16*
X102108000Y-155448000D03*
X91948000Y-155448000D03*
D18*
X93218000Y-152908000D03*
X99568000Y-150368000D03*
%TD*%
D17*
%TO.C,S34*%
X273177000Y-212471000D03*
D16*
X268097000Y-212471000D03*
X278257000Y-212471000D03*
D18*
X269367000Y-209931000D03*
X275717000Y-207391000D03*
%TD*%
D16*
%TO.C,S51*%
X344932000Y-174498000D03*
X334772000Y-174498000D03*
D17*
X339852000Y-174498000D03*
D18*
X336042000Y-171958000D03*
X342392000Y-169418000D03*
%TD*%
D16*
%TO.C,S45*%
X347345000Y-231648000D03*
D17*
X342265000Y-231648000D03*
D16*
X337185000Y-231648000D03*
D18*
X338455000Y-229108000D03*
X344805000Y-226568000D03*
%TD*%
D16*
%TO.C,S64*%
X249682000Y-193548000D03*
D17*
X244602000Y-193548000D03*
D16*
X239522000Y-193548000D03*
D18*
X240792000Y-191008000D03*
X247142000Y-188468000D03*
%TD*%
D16*
%TO.C,S9*%
X87884000Y-174498000D03*
D17*
X82804000Y-174498000D03*
D16*
X77724000Y-174498000D03*
D18*
X78994000Y-171958000D03*
X85344000Y-169418000D03*
%TD*%
D16*
%TO.C,S53*%
X291973000Y-174498000D03*
X302133000Y-174498000D03*
D17*
X297053000Y-174498000D03*
D18*
X293243000Y-171958000D03*
X299593000Y-169418000D03*
%TD*%
D17*
%TO.C,S18*%
X111252000Y-193548000D03*
D16*
X116332000Y-193548000D03*
X106172000Y-193548000D03*
D18*
X107442000Y-191008000D03*
X113792000Y-188468000D03*
%TD*%
D17*
%TO.C,S42*%
X104140000Y-231648000D03*
D16*
X99060000Y-231648000D03*
X109220000Y-231648000D03*
D18*
X100330000Y-229108000D03*
X106680000Y-226568000D03*
%TD*%
D16*
%TO.C,S52*%
X321183000Y-174498000D03*
X311023000Y-174498000D03*
D17*
X316103000Y-174498000D03*
D18*
X312293000Y-171958000D03*
X318643000Y-169418000D03*
%TD*%
D17*
%TO.C,S10*%
X106553000Y-174498000D03*
D16*
X101473000Y-174498000D03*
X111633000Y-174498000D03*
D18*
X102743000Y-171958000D03*
X109093000Y-169418000D03*
%TD*%
D16*
%TO.C,S29*%
X183007000Y-212598000D03*
D17*
X177927000Y-212598000D03*
D16*
X172847000Y-212598000D03*
D18*
X174117000Y-210058000D03*
X180467000Y-207518000D03*
%TD*%
D16*
%TO.C,S56*%
X244983000Y-174498000D03*
D17*
X239903000Y-174498000D03*
D16*
X234823000Y-174498000D03*
D18*
X236093000Y-171958000D03*
X242443000Y-169418000D03*
%TD*%
D16*
%TO.C,S36*%
X311658000Y-155448000D03*
X301498000Y-155448000D03*
D17*
X306578000Y-155448000D03*
D18*
X302768000Y-152908000D03*
X309118000Y-150368000D03*
%TD*%
D16*
%TO.C,S31*%
X210947000Y-212598000D03*
D17*
X216027000Y-212598000D03*
D16*
X221107000Y-212598000D03*
D18*
X212217000Y-210058000D03*
X218567000Y-207518000D03*
%TD*%
D26*
%TO.C,J1*%
X58206000Y-145573000D03*
X63206000Y-145573000D03*
D27*
X64431000Y-146623000D03*
D28*
X64581000Y-142823000D03*
X56831000Y-142823000D03*
D27*
X56981000Y-146623000D03*
%TD*%
M02*
